<svg xmlns="http://www.w3.org/2000/svg" xmlns:xlink="http://www.w3.org/1999/xlink" id="body_79" preserveAspectRatio="xMinYMin meet" viewBox="0 0 672 881"><defs><clipPath id="1"><path id="" clip-rule="evenodd" transform="matrix(1 0 0 1 0 0)" d="M0 661L0 -0.5L0 -0.5L504 -0.5L504 -0.5L504 661L504 661L0 661z" /></clipPath><clipPath id="2"><path id="" clip-rule="evenodd" transform="matrix(1 0 0 1 0 0)" d="M432 606.875L432 608.4173L432 608.4173L72 608.4173L72 608.4173L72 606.875L72 606.875L72 605.3327L72 605.3327L432 605.3327" /></clipPath><clipPath id="3"><path id="" clip-rule="evenodd" transform="matrix(1 0 0 1 0 0)" d="M187.3 426.0518L187.3 427.5941L187.3 427.5941L72 427.5941L72 427.5941L72 426.0518L72 426.0518L72 424.5094L72 424.5094L187.3 424.5094" /></clipPath><clipPath id="4"><path id="" clip-rule="evenodd" transform="matrix(1 0 0 1 0 0)" d="M432 426.0518L432 427.5941L432 427.5941L187.1 427.5941L187.1 427.5941L187.1 426.0518L187.1 426.0518L187.1 424.5094L187.1 424.5094L432 424.5094" /></clipPath><clipPath id="5"><path id="" clip-rule="evenodd" transform="matrix(1 0 0 1 0 0)" d="M187.3 439.3568L187.3 440.899L187.3 440.899L72 440.899L72 440.899L72 439.3568L72 439.3568L72 437.8144L72 437.8144L187.3 437.8144" /></clipPath><clipPath id="6"><path id="" clip-rule="evenodd" transform="matrix(1 0 0 1 0 0)" d="M432 439.3568L432 440.899L432 440.899L187.1 440.899L187.1 440.899L187.1 439.3568L187.1 439.3568L187.1 437.8144L187.1 437.8144L432 437.8144" /></clipPath><clipPath id="7"><path id="" clip-rule="evenodd" transform="matrix(1 0 0 1 0 0)" d="M187.3 452.6617L187.3 454.2041L187.3 454.2041L72 454.2041L72 454.2041L72 452.6617L72 452.6617L72 451.1194L72 451.1194L187.3 451.1194" /></clipPath><clipPath id="8"><path id="" clip-rule="evenodd" transform="matrix(1 0 0 1 0 0)" d="M432 452.6617L432 454.2041L432 454.2041L187.1 454.2041L187.1 454.2041L187.1 452.6617L187.1 452.6617L187.1 451.1194L187.1 451.1194L432 451.1194" /></clipPath><clipPath id="9"><path id="" clip-rule="evenodd" transform="matrix(1 0 0 1 0 0)" d="M187.3 509.4218L187.3 510.9641L187.3 510.9641L72 510.9641L72 510.9641L72 509.4218L72 509.4218L72 507.8794L72 507.8794L187.3 507.8794" /></clipPath><clipPath id="10"><path id="" clip-rule="evenodd" transform="matrix(1 0 0 1 0 0)" d="M432 509.4218L432 510.9641L432 510.9641L187.1 510.9641L187.1 510.9641L187.1 509.4218L187.1 509.4218L187.1 507.8794L187.1 507.8794L432 507.8794" /></clipPath><clipPath id="11"><path id="" clip-rule="evenodd" transform="matrix(1 0 0 1 0 0)" d="M187.3 576.4717L187.3 578.0141L187.3 578.0141L72 578.0141L72 578.0141L72 576.4717L72 576.4717L72 574.9294L72 574.9294L187.3 574.9294" /></clipPath><clipPath id="12"><path id="" clip-rule="evenodd" transform="matrix(1 0 0 1 0 0)" d="M432 576.4717L432 578.0141L432 578.0141L187.1 578.0141L187.1 578.0141L187.1 576.4717L187.1 576.4717L187.1 574.9294L187.1 574.9294L432 574.9294" /></clipPath></defs><g transform="matrix(1.333333 0 0 1.333333 0 0)"><g clip-path="url(#1)"><g clip-path="url(#2)"><path id="1" transform="matrix(1 0 0 -1 0 661)" d="M432 54.125L72 54.125" stroke="#000000" stroke-width="0.25" stroke-linecap="round" fill="none" /></g><path id="2" transform="matrix(1 0 0 -1 0 661)" d="M72 261.9283L187.2 261.9283L187.2 261.9283L187.2 248.1283L187.2 248.1283L72 248.1283z" stroke="none" fill="#000000" fill-rule="evenodd" /><path id="3" transform="matrix(1 0 0 -1 0 661)" d="M187.2 261.9283L432 261.9283L432 261.9283L432 248.1283L432 248.1283L187.2 248.1283z" stroke="none" fill="#000000" fill-rule="evenodd" /><g clip-path="url(#3)"><path id="4" transform="matrix(1 0 0 -1 0 661)" d="M187.3 234.9482L72 234.9482" stroke="#000000" stroke-width="0.25" stroke-linecap="round" fill="none" /></g><g clip-path="url(#4)"><path id="5" transform="matrix(1 0 0 -1 0 661)" d="M432 234.9482L187.1 234.9482" stroke="#000000" stroke-width="0.25" stroke-linecap="round" fill="none" /></g><g clip-path="url(#5)"><path id="6" transform="matrix(1 0 0 -1 0 661)" d="M187.3 221.6432L72 221.6432" stroke="#000000" stroke-width="0.25" stroke-linecap="round" fill="none" /></g><g clip-path="url(#6)"><path id="7" transform="matrix(1 0 0 -1 0 661)" d="M432 221.6432L187.1 221.6432" stroke="#000000" stroke-width="0.25" stroke-linecap="round" fill="none" /></g><g clip-path="url(#7)"><path id="8" transform="matrix(1 0 0 -1 0 661)" d="M187.3 208.3383L72 208.3383" stroke="#000000" stroke-width="0.25" stroke-linecap="round" fill="none" /></g><g clip-path="url(#8)"><path id="9" transform="matrix(1 0 0 -1 0 661)" d="M432 208.3383L187.1 208.3383" stroke="#000000" stroke-width="0.25" stroke-linecap="round" fill="none" /></g><g clip-path="url(#9)"><path id="10" transform="matrix(1 0 0 -1 0 661)" d="M187.3 151.5783L72 151.5783" stroke="#000000" stroke-width="0.25" stroke-linecap="round" fill="none" /></g><g clip-path="url(#10)"><path id="11" transform="matrix(1 0 0 -1 0 661)" d="M432 151.5783L187.1 151.5783" stroke="#000000" stroke-width="0.25" stroke-linecap="round" fill="none" /></g><g clip-path="url(#11)"><path id="12" transform="matrix(1 0 0 -1 0 661)" d="M187.3 84.52824L72 84.52824" stroke="#000000" stroke-width="0.25" stroke-linecap="round" fill="none" /></g><g clip-path="url(#12)"><path id="13" transform="matrix(1 0 0 -1 0 661)" d="M432 84.52824L187.1 84.52824" stroke="#000000" stroke-width="0.25" stroke-linecap="round" fill="none" /></g></g></g></svg>