<svg xmlns="http://www.w3.org/2000/svg" xmlns:xlink="http://www.w3.org/1999/xlink" id="body_75" preserveAspectRatio="xMinYMin meet" viewBox="0 0 672 881"><defs><clipPath id="1"><path id="" clip-rule="evenodd" transform="matrix(1 0 0 1 0 0)" d="M0 661L0 -0.5L0 -0.5L504 -0.5L504 -0.5L504 661L504 661L0 661z" /></clipPath><clipPath id="2"><path id="" clip-rule="evenodd" transform="matrix(1 0 0 1 0 0)" d="M432 606.875L432 608.4173L432 608.4173L72 608.4173L72 608.4173L72 606.875L72 606.875L72 605.3327L72 605.3327L432 605.3327" /></clipPath><clipPath id="3"><path id="" clip-rule="evenodd" transform="matrix(1 0 0 1 0 0)" d="M262.05 441.862L262.05 443.4043L262.05 443.4043L72 443.4043L72 443.4043L72 441.862L72 441.862L72 440.3196L72 440.3196L262.05 440.3196" /></clipPath><clipPath id="4"><path id="" clip-rule="evenodd" transform="matrix(1 0 0 1 0 0)" d="M432 441.862L432 443.4043L432 443.4043L261.85 443.4043L261.85 443.4043L261.85 441.862L261.85 441.862L261.85 440.3196L261.85 440.3196L432 440.3196" /></clipPath><clipPath id="5"><path id="" clip-rule="evenodd" transform="matrix(1 0 0 1 0 0)" d="M262.05 455.167L262.05 456.7093L262.05 456.7093L72 456.7093L72 456.7093L72 455.167L72 455.167L72 453.6247L72 453.6247L262.05 453.6247" /></clipPath><clipPath id="6"><path id="" clip-rule="evenodd" transform="matrix(1 0 0 1 0 0)" d="M432 455.167L432 456.7093L432 456.7093L261.85 456.7093L261.85 456.7093L261.85 455.167L261.85 455.167L261.85 453.6247L261.85 453.6247L432 453.6247" /></clipPath><clipPath id="7"><path id="" clip-rule="evenodd" transform="matrix(1 0 0 1 0 0)" d="M262.05 479.017L262.05 480.5593L262.05 480.5593L72 480.5593L72 480.5593L72 479.017L72 479.017L72 477.4747L72 477.4747L262.05 477.4747" /></clipPath><clipPath id="8"><path id="" clip-rule="evenodd" transform="matrix(1 0 0 1 0 0)" d="M432 479.017L432 480.5593L432 480.5593L261.85 480.5593L261.85 480.5593L261.85 479.017L261.85 479.017L261.85 477.4747L261.85 477.4747L432 477.4747" /></clipPath><clipPath id="9"><path id="" clip-rule="evenodd" transform="matrix(1 0 0 1 0 0)" d="M262.05 502.867L262.05 504.4093L262.05 504.4093L72 504.4093L72 504.4093L72 502.867L72 502.867L72 501.3247L72 501.3247L262.05 501.3247" /></clipPath><clipPath id="10"><path id="" clip-rule="evenodd" transform="matrix(1 0 0 1 0 0)" d="M432 502.867L432 504.4093L432 504.4093L261.85 504.4093L261.85 504.4093L261.85 502.867L261.85 502.867L261.85 501.3247L261.85 501.3247L432 501.3247" /></clipPath><clipPath id="11"><path id="" clip-rule="evenodd" transform="matrix(1 0 0 1 0 0)" d="M262.05 526.717L262.05 528.2593L262.05 528.2593L72 528.2593L72 528.2593L72 526.717L72 526.717L72 525.1747L72 525.1747L262.05 525.1747" /></clipPath><clipPath id="12"><path id="" clip-rule="evenodd" transform="matrix(1 0 0 1 0 0)" d="M432 526.717L432 528.2593L432 528.2593L261.85 528.2593L261.85 528.2593L261.85 526.717L261.85 526.717L261.85 525.1747L261.85 525.1747L432 525.1747" /></clipPath><clipPath id="13"><path id="" clip-rule="evenodd" transform="matrix(1 0 0 1 0 0)" d="M262.05 540.022L262.05 541.5643L262.05 541.5643L72 541.5643L72 541.5643L72 540.022L72 540.022L72 538.4797L72 538.4797L262.05 538.4797" /></clipPath><clipPath id="14"><path id="" clip-rule="evenodd" transform="matrix(1 0 0 1 0 0)" d="M432 540.022L432 541.5643L432 541.5643L261.85 541.5643L261.85 541.5643L261.85 540.022L261.85 540.022L261.85 538.4797L261.85 538.4797L432 538.4797" /></clipPath></defs><g transform="matrix(1.333333 0 0 1.333333 0 0)"><g clip-path="url(#1)"><g clip-path="url(#2)"><path id="1" transform="matrix(1 0 0 -1 0 661)" d="M432 54.125L72 54.125" stroke="#000000" stroke-width="0.25" stroke-linecap="round" fill="none" /></g><path id="2" transform="matrix(1 0 0 -1 0 661)" d="M72 278.773L261.95 278.773L261.95 278.773L261.95 264.973L261.95 264.973L72 264.973z" stroke="none" fill="#000000" fill-rule="evenodd" /><path id="3" transform="matrix(1 0 0 -1 0 661)" d="M261.95 278.773L432 278.773L432 278.773L432 264.973L432 264.973L261.95 264.973z" stroke="none" fill="#000000" fill-rule="evenodd" /><g clip-path="url(#3)"><path id="4" transform="matrix(1 0 0 -1 0 661)" d="M262.05 219.138L72 219.138" stroke="#000000" stroke-width="0.25" stroke-linecap="round" fill="none" /></g><g clip-path="url(#4)"><path id="5" transform="matrix(1 0 0 -1 0 661)" d="M432 219.138L261.85 219.138" stroke="#000000" stroke-width="0.25" stroke-linecap="round" fill="none" /></g><g clip-path="url(#5)"><path id="6" transform="matrix(1 0 0 -1 0 661)" d="M262.05 205.833L72 205.833" stroke="#000000" stroke-width="0.25" stroke-linecap="round" fill="none" /></g><g clip-path="url(#6)"><path id="7" transform="matrix(1 0 0 -1 0 661)" d="M432 205.833L261.85 205.833" stroke="#000000" stroke-width="0.25" stroke-linecap="round" fill="none" /></g><g clip-path="url(#7)"><path id="8" transform="matrix(1 0 0 -1 0 661)" d="M262.05 181.983L72 181.983" stroke="#000000" stroke-width="0.25" stroke-linecap="round" fill="none" /></g><g clip-path="url(#8)"><path id="9" transform="matrix(1 0 0 -1 0 661)" d="M432 181.983L261.85 181.983" stroke="#000000" stroke-width="0.25" stroke-linecap="round" fill="none" /></g><g clip-path="url(#9)"><path id="10" transform="matrix(1 0 0 -1 0 661)" d="M262.05 158.133L72 158.133" stroke="#000000" stroke-width="0.25" stroke-linecap="round" fill="none" /></g><g clip-path="url(#10)"><path id="11" transform="matrix(1 0 0 -1 0 661)" d="M432 158.133L261.85 158.133" stroke="#000000" stroke-width="0.25" stroke-linecap="round" fill="none" /></g><g clip-path="url(#11)"><path id="12" transform="matrix(1 0 0 -1 0 661)" d="M262.05 134.283L72 134.283" stroke="#000000" stroke-width="0.25" stroke-linecap="round" fill="none" /></g><g clip-path="url(#12)"><path id="13" transform="matrix(1 0 0 -1 0 661)" d="M432 134.283L261.85 134.283" stroke="#000000" stroke-width="0.25" stroke-linecap="round" fill="none" /></g><g clip-path="url(#13)"><path id="14" transform="matrix(1 0 0 -1 0 661)" d="M262.05 120.978L72 120.978" stroke="#000000" stroke-width="0.25" stroke-linecap="round" fill="none" /></g><g clip-path="url(#14)"><path id="15" transform="matrix(1 0 0 -1 0 661)" d="M432 120.978L261.85 120.978" stroke="#000000" stroke-width="0.25" stroke-linecap="round" fill="none" /></g></g></g></svg>