<svg xmlns="http://www.w3.org/2000/svg" xmlns:xlink="http://www.w3.org/1999/xlink" id="body_189" preserveAspectRatio="xMinYMin meet" viewBox="0 0 672 881"><defs><clipPath id="1"><path id="" clip-rule="evenodd" transform="matrix(1 0 0 1 0 0)" d="M0 661L0 -0.5L0 -0.5L504 -0.5L504 -0.5L504 661L504 661L0 661z" /></clipPath><clipPath id="2"><path id="" clip-rule="evenodd" transform="matrix(1 0 0 1 0 0)" d="M432 606.875L432 608.4173L432 608.4173L72 608.4173L72 608.4173L72 606.875L72 606.875L72 605.3327L72 605.3327L432 605.3327" /></clipPath><clipPath id="3"><path id="" clip-rule="evenodd" transform="matrix(1 0 0 1 0 0)" d="M72.0625 283.1035L71.29134 281.5612L71.29134 281.5612L433.2086 281.5612L433.2086 281.5612L432.4375 283.1035L432.4375 283.1035L431.6664 284.6458L431.6664 284.6458L72.83366 284.6458" /></clipPath><clipPath id="4"><path id="" clip-rule="evenodd" transform="matrix(1 0 0 1 0 0)" d="M432.375 283.041L433.9173 282.2698L433.9173 282.2698L433.9173 428.3576L433.9173 428.3576L432.375 427.5865L432.375 427.5865L430.8327 426.8153L430.8327 426.8153L430.8327 283.8122" /></clipPath><clipPath id="5"><path id="" clip-rule="evenodd" transform="matrix(1 0 0 1 0 0)" d="M432.4375 427.524L433.2086 429.0663L433.2086 429.0663L71.29134 429.0663L71.29134 429.0663L72.0625 427.524L72.0625 427.524L72.83366 425.9816L72.83366 425.9816L431.6664 425.9816" /></clipPath><clipPath id="6"><path id="" clip-rule="evenodd" transform="matrix(1 0 0 1 0 0)" d="M72.125 427.5865L70.58268 428.3576L70.58268 428.3576L70.58268 282.2698L70.58268 282.2698L72.125 283.041L72.125 283.041L73.66732 283.8122L73.66732 283.8122L73.66732 426.8153" /></clipPath><clipPath id="7"><path id="" clip-rule="evenodd" transform="matrix(1 0 0 1 0 0)" d="M72 553.1L72 551.4326L72 551.4326L162 551.4326L162 551.4326L162 553.1L162 553.1L162 554.7673L162 554.7673L72 554.7673" /></clipPath></defs><g transform="matrix(1.333333 0 0 1.333333 0 0)"><g clip-path="url(#1)"><g clip-path="url(#2)"><path id="1" transform="matrix(1 0 0 -1 0 661)" d="M432 54.125L72 54.125" stroke="#000000" stroke-width="0.25" stroke-linecap="round" fill="none" /></g><g clip-path="url(#3)"><path id="2" transform="matrix(1 0 0 -1 0 661)" d="M72 377.8965L432.5 377.8965" stroke="#000000" stroke-width="0.25" stroke-linecap="round" fill="none" /></g><g clip-path="url(#4)"><path id="3" transform="matrix(1 0 0 -1 0 661)" d="M432.375 378.0215L432.375 233.351" stroke="#000000" stroke-width="0.25" stroke-linecap="round" fill="none" /></g><g clip-path="url(#5)"><path id="4" transform="matrix(1 0 0 -1 0 661)" d="M432.5 233.476L72 233.476" stroke="#000000" stroke-width="0.25" stroke-linecap="round" fill="none" /></g><g clip-path="url(#6)"><path id="5" transform="matrix(1 0 0 -1 0 661)" d="M72.125 233.351L72.125 378.0215" stroke="#000000" stroke-width="0.25" stroke-linecap="round" fill="none" /></g><g clip-path="url(#7)"><path id="6" transform="matrix(1 0 0 -1 0 661)" d="M72 107.9L162 107.9" stroke="#000000" stroke-width="0.5" stroke-linecap="round" fill="none" /></g><g transform="matrix(0.2400008 0 0 0.2400008 99.72949 288.2285)"><g transform="matrix(1 0 0 1 0 0)"><image x="0" y="0" xlink:href="img_204.png" width="1271" height="556" /></g></g></g></g></svg>