<svg xmlns="http://www.w3.org/2000/svg" xmlns:xlink="http://www.w3.org/1999/xlink" id="body_191" preserveAspectRatio="xMinYMin meet" viewBox="0 0 672 881"><defs><clipPath id="1"><path id="" clip-rule="evenodd" transform="matrix(1 0 0 1 0 0)" d="M0 661L0 -0.5L0 -0.5L504 -0.5L504 -0.5L504 661L504 661L0 661z" /></clipPath><clipPath id="2"><path id="" clip-rule="evenodd" transform="matrix(1 0 0 1 0 0)" d="M432 606.875L432 608.4173L432 608.4173L72 608.4173L72 608.4173L72 606.875L72 606.875L72 605.3327L72 605.3327L432 605.3327" /></clipPath><clipPath id="3"><path id="" clip-rule="evenodd" transform="matrix(1 0 0 1 0 0)" d="M134.55 486.9733L134.55 488.5156L134.55 488.5156L72 488.5156L72 488.5156L72 486.9733L72 486.9733L72 485.4309L72 485.4309L134.55 485.4309" /></clipPath><clipPath id="4"><path id="" clip-rule="evenodd" transform="matrix(1 0 0 1 0 0)" d="M169.4971 486.9733L169.4971 488.5156L169.4971 488.5156L134.35 488.5156L134.35 488.5156L134.35 486.9733L134.35 486.9733L134.35 485.4309L134.35 485.4309L169.4971 485.4309" /></clipPath><clipPath id="5"><path id="" clip-rule="evenodd" transform="matrix(1 0 0 1 0 0)" d="M206.7872 486.9733L206.7872 488.5156L206.7872 488.5156L169.2971 488.5156L169.2971 488.5156L169.2971 486.9733L169.2971 486.9733L169.2971 485.4309L169.2971 485.4309L206.7872 485.4309" /></clipPath><clipPath id="6"><path id="" clip-rule="evenodd" transform="matrix(1 0 0 1 0 0)" d="M259.4062 486.9733L259.4062 488.5156L259.4062 488.5156L206.5872 488.5156L206.5872 488.5156L206.5872 486.9733L206.5872 486.9733L206.5872 485.4309L206.5872 485.4309L259.4062 485.4309" /></clipPath><clipPath id="7"><path id="" clip-rule="evenodd" transform="matrix(1 0 0 1 0 0)" d="M134.55 500.2783L134.55 501.8206L134.55 501.8206L72 501.8206L72 501.8206L72 500.2783L72 500.2783L72 498.7359L72 498.7359L134.55 498.7359" /></clipPath><clipPath id="8"><path id="" clip-rule="evenodd" transform="matrix(1 0 0 1 0 0)" d="M169.4971 500.2783L169.4971 501.8206L169.4971 501.8206L134.35 501.8206L134.35 501.8206L134.35 500.2783L134.35 500.2783L134.35 498.7359L134.35 498.7359L169.4971 498.7359" /></clipPath><clipPath id="9"><path id="" clip-rule="evenodd" transform="matrix(1 0 0 1 0 0)" d="M206.7872 500.2783L206.7872 501.8206L206.7872 501.8206L169.2971 501.8206L169.2971 501.8206L169.2971 500.2783L169.2971 500.2783L169.2971 498.7359L169.2971 498.7359L206.7872 498.7359" /></clipPath><clipPath id="10"><path id="" clip-rule="evenodd" transform="matrix(1 0 0 1 0 0)" d="M259.4062 500.2783L259.4062 501.8206L259.4062 501.8206L206.5872 501.8206L206.5872 501.8206L206.5872 500.2783L206.5872 500.2783L206.5872 498.7359L206.5872 498.7359L259.4062 498.7359" /></clipPath><clipPath id="11"><path id="" clip-rule="evenodd" transform="matrix(1 0 0 1 0 0)" d="M134.55 513.5833L134.55 515.1256L134.55 515.1256L72 515.1256L72 515.1256L72 513.5833L72 513.5833L72 512.041L72 512.041L134.55 512.041" /></clipPath><clipPath id="12"><path id="" clip-rule="evenodd" transform="matrix(1 0 0 1 0 0)" d="M169.4971 513.5833L169.4971 515.1256L169.4971 515.1256L134.35 515.1256L134.35 515.1256L134.35 513.5833L134.35 513.5833L134.35 512.041L134.35 512.041L169.4971 512.041" /></clipPath><clipPath id="13"><path id="" clip-rule="evenodd" transform="matrix(1 0 0 1 0 0)" d="M206.7872 513.5833L206.7872 515.1256L206.7872 515.1256L169.2971 515.1256L169.2971 515.1256L169.2971 513.5833L169.2971 513.5833L169.2971 512.041L169.2971 512.041L206.7872 512.041" /></clipPath><clipPath id="14"><path id="" clip-rule="evenodd" transform="matrix(1 0 0 1 0 0)" d="M259.4062 513.5833L259.4062 515.1256L259.4062 515.1256L206.5872 515.1256L206.5872 515.1256L206.5872 513.5833L206.5872 513.5833L206.5872 512.041L206.5872 512.041L259.4062 512.041" /></clipPath><clipPath id="15"><path id="" clip-rule="evenodd" transform="matrix(1 0 0 1 0 0)" d="M134.55 526.8882L134.55 528.4305L134.55 528.4305L72 528.4305L72 528.4305L72 526.8882L72 526.8882L72 525.3459L72 525.3459L134.55 525.3459" /></clipPath><clipPath id="16"><path id="" clip-rule="evenodd" transform="matrix(1 0 0 1 0 0)" d="M169.4971 526.8882L169.4971 528.4305L169.4971 528.4305L134.35 528.4305L134.35 528.4305L134.35 526.8882L134.35 526.8882L134.35 525.3459L134.35 525.3459L169.4971 525.3459" /></clipPath><clipPath id="17"><path id="" clip-rule="evenodd" transform="matrix(1 0 0 1 0 0)" d="M206.7872 526.8882L206.7872 528.4305L206.7872 528.4305L169.2971 528.4305L169.2971 528.4305L169.2971 526.8882L169.2971 526.8882L169.2971 525.3459L169.2971 525.3459L206.7872 525.3459" /></clipPath><clipPath id="18"><path id="" clip-rule="evenodd" transform="matrix(1 0 0 1 0 0)" d="M259.4062 526.8882L259.4062 528.4305L259.4062 528.4305L206.5872 528.4305L206.5872 528.4305L206.5872 526.8882L206.5872 526.8882L206.5872 525.3459L206.5872 525.3459L259.4062 525.3459" /></clipPath><clipPath id="19"><path id="" clip-rule="evenodd" transform="matrix(1 0 0 1 0 0)" d="M72 563.1L72 561.4326L72 561.4326L162 561.4326L162 561.4326L162 563.1L162 563.1L162 564.7673L162 564.7673L72 564.7673" /></clipPath></defs><g transform="matrix(1.333333 0 0 1.333333 0 0)"><g clip-path="url(#1)"><g clip-path="url(#2)"><path id="1" transform="matrix(1 0 0 -1 0 661)" d="M432 54.125L72 54.125" stroke="#000000" stroke-width="0.25" stroke-linecap="round" fill="none" /></g><path id="2" transform="matrix(1 0 0 -1 0 661)" d="M72 201.0067L134.45 201.0067L134.45 201.0067L134.45 187.2067L134.45 187.2067L72 187.2067z" stroke="none" fill="#000000" fill-rule="evenodd" /><path id="3" transform="matrix(1 0 0 -1 0 661)" d="M134.45 201.0067L169.3971 201.0067L169.3971 201.0067L169.3971 187.2067L169.3971 187.2067L134.45 187.2067z" stroke="none" fill="#000000" fill-rule="evenodd" /><path id="4" transform="matrix(1 0 0 -1 0 661)" d="M169.3971 201.0067L206.6872 201.0067L206.6872 201.0067L206.6872 187.2067L206.6872 187.2067L169.3971 187.2067z" stroke="none" fill="#000000" fill-rule="evenodd" /><path id="5" transform="matrix(1 0 0 -1 0 661)" d="M206.6872 201.0067L259.4062 201.0067L259.4062 201.0067L259.4062 187.2067L259.4062 187.2067L206.6872 187.2067z" stroke="none" fill="#000000" fill-rule="evenodd" /><g clip-path="url(#3)"><path id="6" transform="matrix(1 0 0 -1 0 661)" d="M134.55 174.0267L72 174.0267" stroke="#000000" stroke-width="0.25" stroke-linecap="round" fill="none" /></g><g clip-path="url(#4)"><path id="7" transform="matrix(1 0 0 -1 0 661)" d="M169.4971 174.0267L134.35 174.0267" stroke="#000000" stroke-width="0.25" stroke-linecap="round" fill="none" /></g><g clip-path="url(#5)"><path id="8" transform="matrix(1 0 0 -1 0 661)" d="M206.7872 174.0267L169.2971 174.0267" stroke="#000000" stroke-width="0.25" stroke-linecap="round" fill="none" /></g><g clip-path="url(#6)"><path id="9" transform="matrix(1 0 0 -1 0 661)" d="M259.4062 174.0267L206.5872 174.0267" stroke="#000000" stroke-width="0.25" stroke-linecap="round" fill="none" /></g><g clip-path="url(#7)"><path id="10" transform="matrix(1 0 0 -1 0 661)" d="M134.55 160.7217L72 160.7217" stroke="#000000" stroke-width="0.25" stroke-linecap="round" fill="none" /></g><g clip-path="url(#8)"><path id="11" transform="matrix(1 0 0 -1 0 661)" d="M169.4971 160.7217L134.35 160.7217" stroke="#000000" stroke-width="0.25" stroke-linecap="round" fill="none" /></g><g clip-path="url(#9)"><path id="12" transform="matrix(1 0 0 -1 0 661)" d="M206.7872 160.7217L169.2971 160.7217" stroke="#000000" stroke-width="0.25" stroke-linecap="round" fill="none" /></g><g clip-path="url(#10)"><path id="13" transform="matrix(1 0 0 -1 0 661)" d="M259.4062 160.7217L206.5872 160.7217" stroke="#000000" stroke-width="0.25" stroke-linecap="round" fill="none" /></g><g clip-path="url(#11)"><path id="14" transform="matrix(1 0 0 -1 0 661)" d="M134.55 147.4167L72 147.4167" stroke="#000000" stroke-width="0.25" stroke-linecap="round" fill="none" /></g><g clip-path="url(#12)"><path id="15" transform="matrix(1 0 0 -1 0 661)" d="M169.4971 147.4167L134.35 147.4167" stroke="#000000" stroke-width="0.25" stroke-linecap="round" fill="none" /></g><g clip-path="url(#13)"><path id="16" transform="matrix(1 0 0 -1 0 661)" d="M206.7872 147.4167L169.2971 147.4167" stroke="#000000" stroke-width="0.25" stroke-linecap="round" fill="none" /></g><g clip-path="url(#14)"><path id="17" transform="matrix(1 0 0 -1 0 661)" d="M259.4062 147.4167L206.5872 147.4167" stroke="#000000" stroke-width="0.25" stroke-linecap="round" fill="none" /></g><g clip-path="url(#15)"><path id="18" transform="matrix(1 0 0 -1 0 661)" d="M134.55 134.1118L72 134.1118" stroke="#000000" stroke-width="0.25" stroke-linecap="round" fill="none" /></g><g clip-path="url(#16)"><path id="19" transform="matrix(1 0 0 -1 0 661)" d="M169.4971 134.1118L134.35 134.1118" stroke="#000000" stroke-width="0.25" stroke-linecap="round" fill="none" /></g><g clip-path="url(#17)"><path id="20" transform="matrix(1 0 0 -1 0 661)" d="M206.7872 134.1118L169.2971 134.1118" stroke="#000000" stroke-width="0.25" stroke-linecap="round" fill="none" /></g><g clip-path="url(#18)"><path id="21" transform="matrix(1 0 0 -1 0 661)" d="M259.4062 134.1118L206.5872 134.1118" stroke="#000000" stroke-width="0.25" stroke-linecap="round" fill="none" /></g><g clip-path="url(#19)"><path id="22" transform="matrix(1 0 0 -1 0 661)" d="M72 97.90002L162 97.90002" stroke="#000000" stroke-width="0.5" stroke-linecap="round" fill="none" /></g></g></g></svg>