<svg xmlns="http://www.w3.org/2000/svg" xmlns:xlink="http://www.w3.org/1999/xlink" id="body_316" preserveAspectRatio="xMinYMin meet" viewBox="0 0 672 881"><defs><clipPath id="1"><path id="" clip-rule="evenodd" transform="matrix(1 0 0 1 0 0)" d="M0 661L0 -0.5L0 -0.5L504 -0.5L504 -0.5L504 661L504 661L0 661z" /></clipPath><clipPath id="2"><path id="" clip-rule="evenodd" transform="matrix(1 0 0 1 0 0)" d="M432 606.875L432 608.4173L432 608.4173L72 608.4173L72 608.4173L72 606.875L72 606.875L72 605.3327L72 605.3327L432 605.3327" /></clipPath><clipPath id="3"><path id="" clip-rule="evenodd" transform="matrix(1 0 0 1 0 0)" d="M72.0625 97.42499L71.29134 95.88269L71.29134 95.88269L433.2086 95.88269L433.2086 95.88269L432.4375 97.42499L432.4375 97.42499L431.6664 98.96735L431.6664 98.96735L72.83366 98.96735" /></clipPath><clipPath id="4"><path id="" clip-rule="evenodd" transform="matrix(1 0 0 1 0 0)" d="M432.375 97.36249L433.9173 96.59131L433.9173 96.59131L433.9173 270.0392L433.9173 270.0392L432.375 269.2681L432.375 269.2681L430.8327 268.4969L430.8327 268.4969L430.8327 98.13367" /></clipPath><clipPath id="5"><path id="" clip-rule="evenodd" transform="matrix(1 0 0 1 0 0)" d="M432.4375 269.2056L433.2086 270.7479L433.2086 270.7479L71.29134 270.7479L71.29134 270.7479L72.0625 269.2056L72.0625 269.2056L72.83366 267.6632L72.83366 267.6632L431.6664 267.6632" /></clipPath><clipPath id="6"><path id="" clip-rule="evenodd" transform="matrix(1 0 0 1 0 0)" d="M72.125 269.2681L70.58268 270.0392L70.58268 270.0392L70.58268 96.59131L70.58268 96.59131L72.125 97.36249L72.125 97.36249L73.66732 98.13367L73.66732 98.13367L73.66732 268.4969" /></clipPath><clipPath id="7"><path id="" clip-rule="evenodd" transform="matrix(1 0 0 1 0 0)" d="M72 573.1L72 571.4327L72 571.4327L162 571.4327L162 571.4327L162 573.1L162 573.1L162 574.7673L162 574.7673L72 574.7673" /></clipPath></defs><g transform="matrix(1.333333 0 0 1.333333 0 0)"><g clip-path="url(#1)"><g clip-path="url(#2)"><path id="1" transform="matrix(1 0 0 -1 0 661)" d="M432 54.125L72 54.125" stroke="#000000" stroke-width="0.25" stroke-linecap="round" fill="none" /></g><g clip-path="url(#3)"><path id="2" transform="matrix(1 0 0 -1 0 661)" d="M72 563.575L432.5 563.575" stroke="#000000" stroke-width="0.25" stroke-linecap="round" fill="none" /></g><g clip-path="url(#4)"><path id="3" transform="matrix(1 0 0 -1 0 661)" d="M432.375 563.7L432.375 391.6694" stroke="#000000" stroke-width="0.25" stroke-linecap="round" fill="none" /></g><g clip-path="url(#5)"><path id="4" transform="matrix(1 0 0 -1 0 661)" d="M432.5 391.7944L72 391.7944" stroke="#000000" stroke-width="0.25" stroke-linecap="round" fill="none" /></g><g clip-path="url(#6)"><path id="5" transform="matrix(1 0 0 -1 0 661)" d="M72.125 391.6694L72.125 563.7" stroke="#000000" stroke-width="0.25" stroke-linecap="round" fill="none" /></g><g clip-path="url(#7)"><path id="6" transform="matrix(1 0 0 -1 0 661)" d="M72 87.90002L162 87.90002" stroke="#000000" stroke-width="0.5" stroke-linecap="round" fill="none" /></g><g transform="matrix(0.2400008 0 0 0.2400008 95.88947 102.55)"><g transform="matrix(1 0 0 1 0 0)"><image x="0" y="0" xlink:href="img_350.png" width="1303" height="670" /></g></g></g></g></svg>