<svg xmlns="http://www.w3.org/2000/svg" xmlns:xlink="http://www.w3.org/1999/xlink" id="body_190" preserveAspectRatio="xMinYMin meet" viewBox="0 0 672 881"><defs><clipPath id="1"><path id="" clip-rule="evenodd" transform="matrix(1 0 0 1 0 0)" d="M0 661L0 -0.5L0 -0.5L504 -0.5L504 -0.5L504 661L504 661L0 661z" /></clipPath><clipPath id="2"><path id="" clip-rule="evenodd" transform="matrix(1 0 0 1 0 0)" d="M432 606.875L432 608.4173L432 608.4173L72 608.4173L72 608.4173L72 606.875L72 606.875L72 605.3327L72 605.3327L432 605.3327" /></clipPath><clipPath id="3"><path id="" clip-rule="evenodd" transform="matrix(1 0 0 1 0 0)" d="M72.0625 168.2048L71.29134 166.6624L71.29134 166.6624L433.2086 166.6624L433.2086 166.6624L432.4375 168.2048L432.4375 168.2048L431.6664 169.7471L431.6664 169.7471L72.83366 169.7471" /></clipPath><clipPath id="4"><path id="" clip-rule="evenodd" transform="matrix(1 0 0 1 0 0)" d="M432.375 168.1423L433.9173 167.3711L433.9173 167.3711L433.9173 279.3788L433.9173 279.3788L432.375 278.6076L432.375 278.6076L430.8327 277.8364L430.8327 277.8364L430.8327 168.9134" /></clipPath><clipPath id="5"><path id="" clip-rule="evenodd" transform="matrix(1 0 0 1 0 0)" d="M432.4375 278.5451L433.2086 280.0874L433.2086 280.0874L71.29134 280.0874L71.29134 280.0874L72.0625 278.5451L72.0625 278.5451L72.83366 277.0028L72.83366 277.0028L431.6664 277.0028" /></clipPath><clipPath id="6"><path id="" clip-rule="evenodd" transform="matrix(1 0 0 1 0 0)" d="M72.125 278.6076L70.58268 279.3788L70.58268 279.3788L70.58268 167.3711L70.58268 167.3711L72.125 168.1423L72.125 168.1423L73.66732 168.9134L73.66732 168.9134L73.66732 277.8364" /></clipPath></defs><g transform="matrix(1.333333 0 0 1.333333 0 0)"><g clip-path="url(#1)"><g clip-path="url(#2)"><path id="1" transform="matrix(1 0 0 -1 0 661)" d="M432 54.125L72 54.125" stroke="#000000" stroke-width="0.25" stroke-linecap="round" fill="none" /></g><g clip-path="url(#3)"><path id="2" transform="matrix(1 0 0 -1 0 661)" d="M72 492.7952L432.5 492.7952" stroke="#000000" stroke-width="0.25" stroke-linecap="round" fill="none" /></g><g clip-path="url(#4)"><path id="3" transform="matrix(1 0 0 -1 0 661)" d="M432.375 492.9202L432.375 382.3299" stroke="#000000" stroke-width="0.25" stroke-linecap="round" fill="none" /></g><g clip-path="url(#5)"><path id="4" transform="matrix(1 0 0 -1 0 661)" d="M432.5 382.4549L72 382.4549" stroke="#000000" stroke-width="0.25" stroke-linecap="round" fill="none" /></g><g clip-path="url(#6)"><path id="5" transform="matrix(1 0 0 -1 0 661)" d="M72.125 382.3299L72.125 492.9202" stroke="#000000" stroke-width="0.25" stroke-linecap="round" fill="none" /></g><g transform="matrix(0.2400008 0 0 0.2400008 91.92947 173.3298)"><g transform="matrix(1 0 0 1 0 0)"><image x="0" y="0" xlink:href="img_206.png" width="1336" height="414" /></g></g></g></g></svg>