<svg xmlns="http://www.w3.org/2000/svg" xmlns:xlink="http://www.w3.org/1999/xlink" id="body_160" preserveAspectRatio="xMinYMin meet" viewBox="0 0 672 881"><defs><clipPath id="1"><path id="" clip-rule="evenodd" transform="matrix(1 0 0 1 0 0)" d="M0 661L0 -0.5L0 -0.5L504 -0.5L504 -0.5L504 661L504 661L0 661z" /></clipPath><clipPath id="2"><path id="" clip-rule="evenodd" transform="matrix(1 0 0 1 0 0)" d="M432 606.875L432 608.4173L432 608.4173L72 608.4173L72 608.4173L72 606.875L72 606.875L72 605.3327L72 605.3327L432 605.3327" /></clipPath><clipPath id="3"><path id="" clip-rule="evenodd" transform="matrix(1 0 0 1 0 0)" d="M72.0625 163.6048L71.29134 162.0624L71.29134 162.0624L432.7086 162.0624L432.7086 162.0624L431.9375 163.6048L431.9375 163.6048L431.1664 165.1471L431.1664 165.1471L72.83366 165.1471" /></clipPath><clipPath id="4"><path id="" clip-rule="evenodd" transform="matrix(1 0 0 1 0 0)" d="M431.875 163.5423L433.4173 162.7711L433.4173 162.7711L433.4173 439.5034L433.4173 439.5034L431.875 438.7323L431.875 438.7323L430.3327 437.9611L430.3327 437.9611L430.3327 164.3134" /></clipPath><clipPath id="5"><path id="" clip-rule="evenodd" transform="matrix(1 0 0 1 0 0)" d="M431.9375 438.6698L432.7086 440.2121L432.7086 440.2121L71.29134 440.2121L71.29134 440.2121L72.0625 438.6698L72.0625 438.6698L72.83366 437.1274L72.83366 437.1274L431.1664 437.1274" /></clipPath><clipPath id="6"><path id="" clip-rule="evenodd" transform="matrix(1 0 0 1 0 0)" d="M72.125 438.7323L70.58268 439.5034L70.58268 439.5034L70.58268 162.7711L70.58268 162.7711L72.125 163.5423L72.125 163.5423L73.66732 164.3134L73.66732 164.3134L73.66732 437.9611" /></clipPath></defs><g transform="matrix(1.333333 0 0 1.333333 0 0)"><g clip-path="url(#1)"><g clip-path="url(#2)"><path id="1" transform="matrix(1 0 0 -1 0 661)" d="M432 54.125L72 54.125" stroke="#000000" stroke-width="0.25" stroke-linecap="round" fill="none" /></g><g clip-path="url(#3)"><path id="2" transform="matrix(1 0 0 -1 0 661)" d="M72 497.3952L432 497.3952" stroke="#000000" stroke-width="0.25" stroke-linecap="round" fill="none" /></g><g clip-path="url(#4)"><path id="3" transform="matrix(1 0 0 -1 0 661)" d="M431.875 497.5202L431.875 222.2052" stroke="#000000" stroke-width="0.25" stroke-linecap="round" fill="none" /></g><g clip-path="url(#5)"><path id="4" transform="matrix(1 0 0 -1 0 661)" d="M432 222.3302L72 222.3302" stroke="#000000" stroke-width="0.25" stroke-linecap="round" fill="none" /></g><g clip-path="url(#6)"><path id="5" transform="matrix(1 0 0 -1 0 661)" d="M72.125 222.2052L72.125 497.5202" stroke="#000000" stroke-width="0.25" stroke-linecap="round" fill="none" /></g></g></g></svg>