<svg xmlns="http://www.w3.org/2000/svg" xmlns:xlink="http://www.w3.org/1999/xlink" id="body_73" preserveAspectRatio="xMinYMin meet" viewBox="0 0 672 881"><defs><clipPath id="1"><path id="" clip-rule="evenodd" transform="matrix(1 0 0 1 0 0)" d="M0 661L0 -0.5L0 -0.5L504 -0.5L504 -0.5L504 661L504 661L0 661z" /></clipPath><clipPath id="2"><path id="" clip-rule="evenodd" transform="matrix(1 0 0 1 0 0)" d="M432 606.875L432 608.4173L432 608.4173L72 608.4173L72 608.4173L72 606.875L72 606.875L72 605.3327L72 605.3327L432 605.3327" /></clipPath><clipPath id="3"><path id="" clip-rule="evenodd" transform="matrix(1 0 0 1 0 0)" d="M223.3 306.7183L223.3 308.2606L223.3 308.2606L72 308.2606L72 308.2606L72 306.7183L72 306.7183L72 305.1759L72 305.1759L223.3 305.1759" /></clipPath><clipPath id="4"><path id="" clip-rule="evenodd" transform="matrix(1 0 0 1 0 0)" d="M386.9455 306.7183L386.9455 308.2606L386.9455 308.2606L223.1 308.2606L223.1 308.2606L223.1 306.7183L223.1 306.7183L223.1 305.1759L223.1 305.1759L386.9455 305.1759" /></clipPath><clipPath id="5"><path id="" clip-rule="evenodd" transform="matrix(1 0 0 1 0 0)" d="M432 306.7183L432 308.2606L432 308.2606L386.7455 308.2606L386.7455 308.2606L386.7455 306.7183L386.7455 306.7183L386.7455 305.1759L386.7455 305.1759L432 305.1759" /></clipPath><clipPath id="6"><path id="" clip-rule="evenodd" transform="matrix(1 0 0 1 0 0)" d="M223.3 362.9683L223.3 364.5106L223.3 364.5106L72 364.5106L72 364.5106L72 362.9683L72 362.9683L72 361.4259L72 361.4259L223.3 361.4259" /></clipPath><clipPath id="7"><path id="" clip-rule="evenodd" transform="matrix(1 0 0 1 0 0)" d="M386.9455 362.9683L386.9455 364.5106L386.9455 364.5106L223.1 364.5106L223.1 364.5106L223.1 362.9683L223.1 362.9683L223.1 361.4259L223.1 361.4259L386.9455 361.4259" /></clipPath><clipPath id="8"><path id="" clip-rule="evenodd" transform="matrix(1 0 0 1 0 0)" d="M432 362.9683L432 364.5106L432 364.5106L386.7455 364.5106L386.7455 364.5106L386.7455 362.9683L386.7455 362.9683L386.7455 361.4259L386.7455 361.4259L432 361.4259" /></clipPath><clipPath id="9"><path id="" clip-rule="evenodd" transform="matrix(1 0 0 1 0 0)" d="M223.3 408.6733L223.3 410.2156L223.3 410.2156L72 410.2156L72 410.2156L72 408.6733L72 408.6733L72 407.1309L72 407.1309L223.3 407.1309" /></clipPath><clipPath id="10"><path id="" clip-rule="evenodd" transform="matrix(1 0 0 1 0 0)" d="M386.9455 408.6733L386.9455 410.2156L386.9455 410.2156L223.1 410.2156L223.1 410.2156L223.1 408.6733L223.1 408.6733L223.1 407.1309L223.1 407.1309L386.9455 407.1309" /></clipPath><clipPath id="11"><path id="" clip-rule="evenodd" transform="matrix(1 0 0 1 0 0)" d="M432 408.6733L432 410.2156L432 410.2156L386.7455 410.2156L386.7455 410.2156L386.7455 408.6733L386.7455 408.6733L386.7455 407.1309L386.7455 407.1309L432 407.1309" /></clipPath><clipPath id="12"><path id="" clip-rule="evenodd" transform="matrix(1 0 0 1 0 0)" d="M223.3 432.7783L223.3 434.3206L223.3 434.3206L72 434.3206L72 434.3206L72 432.7783L72 432.7783L72 431.236L72 431.236L223.3 431.236" /></clipPath><clipPath id="13"><path id="" clip-rule="evenodd" transform="matrix(1 0 0 1 0 0)" d="M386.9455 432.7783L386.9455 434.3206L386.9455 434.3206L223.1 434.3206L223.1 434.3206L223.1 432.7783L223.1 432.7783L223.1 431.236L223.1 431.236L386.9455 431.236" /></clipPath><clipPath id="14"><path id="" clip-rule="evenodd" transform="matrix(1 0 0 1 0 0)" d="M432 432.7783L432 434.3206L432 434.3206L386.7455 434.3206L386.7455 434.3206L386.7455 432.7783L386.7455 432.7783L386.7455 431.236L386.7455 431.236L432 431.236" /></clipPath><clipPath id="15"><path id="" clip-rule="evenodd" transform="matrix(1 0 0 1 0 0)" d="M223.3 456.8832L223.3 458.4256L223.3 458.4256L72 458.4256L72 458.4256L72 456.8832L72 456.8832L72 455.3409L72 455.3409L223.3 455.3409" /></clipPath><clipPath id="16"><path id="" clip-rule="evenodd" transform="matrix(1 0 0 1 0 0)" d="M386.9455 456.8832L386.9455 458.4256L386.9455 458.4256L223.1 458.4256L223.1 458.4256L223.1 456.8832L223.1 456.8832L223.1 455.3409L223.1 455.3409L386.9455 455.3409" /></clipPath><clipPath id="17"><path id="" clip-rule="evenodd" transform="matrix(1 0 0 1 0 0)" d="M432 456.8832L432 458.4256L432 458.4256L386.7455 458.4256L386.7455 458.4256L386.7455 456.8832L386.7455 456.8832L386.7455 455.3409L386.7455 455.3409L432 455.3409" /></clipPath><clipPath id="18"><path id="" clip-rule="evenodd" transform="matrix(1 0 0 1 0 0)" d="M223.3 502.5883L223.3 504.1306L223.3 504.1306L72 504.1306L72 504.1306L72 502.5883L72 502.5883L72 501.0459L72 501.0459L223.3 501.0459" /></clipPath><clipPath id="19"><path id="" clip-rule="evenodd" transform="matrix(1 0 0 1 0 0)" d="M386.9455 502.5883L386.9455 504.1306L386.9455 504.1306L223.1 504.1306L223.1 504.1306L223.1 502.5883L223.1 502.5883L223.1 501.0459L223.1 501.0459L386.9455 501.0459" /></clipPath><clipPath id="20"><path id="" clip-rule="evenodd" transform="matrix(1 0 0 1 0 0)" d="M432 502.5883L432 504.1306L432 504.1306L386.7455 504.1306L386.7455 504.1306L386.7455 502.5883L386.7455 502.5883L386.7455 501.0459L386.7455 501.0459L432 501.0459" /></clipPath><clipPath id="21"><path id="" clip-rule="evenodd" transform="matrix(1 0 0 1 0 0)" d="M223.3 526.6932L223.3 528.2356L223.3 528.2356L72 528.2356L72 528.2356L72 526.6932L72 526.6932L72 525.1509L72 525.1509L223.3 525.1509" /></clipPath><clipPath id="22"><path id="" clip-rule="evenodd" transform="matrix(1 0 0 1 0 0)" d="M386.9455 526.6932L386.9455 528.2356L386.9455 528.2356L223.1 528.2356L223.1 528.2356L223.1 526.6932L223.1 526.6932L223.1 525.1509L223.1 525.1509L386.9455 525.1509" /></clipPath><clipPath id="23"><path id="" clip-rule="evenodd" transform="matrix(1 0 0 1 0 0)" d="M432 526.6932L432 528.2356L432 528.2356L386.7455 528.2356L386.7455 528.2356L386.7455 526.6932L386.7455 526.6932L386.7455 525.1509L386.7455 525.1509L432 525.1509" /></clipPath><clipPath id="24"><path id="" clip-rule="evenodd" transform="matrix(1 0 0 1 0 0)" d="M223.3 572.3983L223.3 573.9406L223.3 573.9406L72 573.9406L72 573.9406L72 572.3983L72 572.3983L72 570.856L72 570.856L223.3 570.856" /></clipPath><clipPath id="25"><path id="" clip-rule="evenodd" transform="matrix(1 0 0 1 0 0)" d="M386.9455 572.3983L386.9455 573.9406L386.9455 573.9406L223.1 573.9406L223.1 573.9406L223.1 572.3983L223.1 572.3983L223.1 570.856L223.1 570.856L386.9455 570.856" /></clipPath><clipPath id="26"><path id="" clip-rule="evenodd" transform="matrix(1 0 0 1 0 0)" d="M432 572.3983L432 573.9406L432 573.9406L386.7455 573.9406L386.7455 573.9406L386.7455 572.3983L386.7455 572.3983L386.7455 570.856L386.7455 570.856L432 570.856" /></clipPath><clipPath id="27"><path id="" clip-rule="evenodd" transform="matrix(1 0 0 1 0 0)" d="M223.3 585.7032L223.3 587.2456L223.3 587.2456L72 587.2456L72 587.2456L72 585.7032L72 585.7032L72 584.1609L72 584.1609L223.3 584.1609" /></clipPath><clipPath id="28"><path id="" clip-rule="evenodd" transform="matrix(1 0 0 1 0 0)" d="M386.9455 585.7032L386.9455 587.2456L386.9455 587.2456L223.1 587.2456L223.1 587.2456L223.1 585.7032L223.1 585.7032L223.1 584.1609L223.1 584.1609L386.9455 584.1609" /></clipPath><clipPath id="29"><path id="" clip-rule="evenodd" transform="matrix(1 0 0 1 0 0)" d="M432 585.7032L432 587.2456L432 587.2456L386.7455 587.2456L386.7455 587.2456L386.7455 585.7032L386.7455 585.7032L386.7455 584.1609L386.7455 584.1609L432 584.1609" /></clipPath></defs><g transform="matrix(1.333333 0 0 1.333333 0 0)"><g clip-path="url(#1)"><g clip-path="url(#2)"><path id="1" transform="matrix(1 0 0 -1 0 661)" d="M432 54.125L72 54.125" stroke="#000000" stroke-width="0.25" stroke-linecap="round" fill="none" /></g><path id="2" transform="matrix(1 0 0 -1 0 661)" d="M72 413.4067L223.2 413.4067L223.2 413.4067L223.2 399.6068L223.2 399.6068L72 399.6068z" stroke="none" fill="#000000" fill-rule="evenodd" /><path id="3" transform="matrix(1 0 0 -1 0 661)" d="M223.2 413.4067L386.8455 413.4067L386.8455 413.4067L386.8455 399.6068L386.8455 399.6068L223.2 399.6068z" stroke="none" fill="#000000" fill-rule="evenodd" /><path id="4" transform="matrix(1 0 0 -1 0 661)" d="M386.8455 413.4067L432 413.4067L432 413.4067L432 399.6068L432 399.6068L386.8455 399.6068z" stroke="none" fill="#000000" fill-rule="evenodd" /><g clip-path="url(#3)"><path id="5" transform="matrix(1 0 0 -1 0 661)" d="M223.3 354.2817L72 354.2817" stroke="#000000" stroke-width="0.25" stroke-linecap="round" fill="none" /></g><g clip-path="url(#4)"><path id="6" transform="matrix(1 0 0 -1 0 661)" d="M386.9455 354.2817L223.1 354.2817" stroke="#000000" stroke-width="0.25" stroke-linecap="round" fill="none" /></g><g clip-path="url(#5)"><path id="7" transform="matrix(1 0 0 -1 0 661)" d="M432 354.2817L386.7455 354.2817" stroke="#000000" stroke-width="0.25" stroke-linecap="round" fill="none" /></g><g clip-path="url(#6)"><path id="8" transform="matrix(1 0 0 -1 0 661)" d="M223.3 298.0317L72 298.0317" stroke="#000000" stroke-width="0.25" stroke-linecap="round" fill="none" /></g><g clip-path="url(#7)"><path id="9" transform="matrix(1 0 0 -1 0 661)" d="M386.9455 298.0317L223.1 298.0317" stroke="#000000" stroke-width="0.25" stroke-linecap="round" fill="none" /></g><g clip-path="url(#8)"><path id="10" transform="matrix(1 0 0 -1 0 661)" d="M432 298.0317L386.7455 298.0317" stroke="#000000" stroke-width="0.25" stroke-linecap="round" fill="none" /></g><g clip-path="url(#9)"><path id="11" transform="matrix(1 0 0 -1 0 661)" d="M223.3 252.3267L72 252.3267" stroke="#000000" stroke-width="0.25" stroke-linecap="round" fill="none" /></g><g clip-path="url(#10)"><path id="12" transform="matrix(1 0 0 -1 0 661)" d="M386.9455 252.3267L223.1 252.3267" stroke="#000000" stroke-width="0.25" stroke-linecap="round" fill="none" /></g><g clip-path="url(#11)"><path id="13" transform="matrix(1 0 0 -1 0 661)" d="M432 252.3267L386.7455 252.3267" stroke="#000000" stroke-width="0.25" stroke-linecap="round" fill="none" /></g><g clip-path="url(#12)"><path id="14" transform="matrix(1 0 0 -1 0 661)" d="M223.3 228.2217L72 228.2217" stroke="#000000" stroke-width="0.25" stroke-linecap="round" fill="none" /></g><g clip-path="url(#13)"><path id="15" transform="matrix(1 0 0 -1 0 661)" d="M386.9455 228.2217L223.1 228.2217" stroke="#000000" stroke-width="0.25" stroke-linecap="round" fill="none" /></g><g clip-path="url(#14)"><path id="16" transform="matrix(1 0 0 -1 0 661)" d="M432 228.2217L386.7455 228.2217" stroke="#000000" stroke-width="0.25" stroke-linecap="round" fill="none" /></g><g clip-path="url(#15)"><path id="17" transform="matrix(1 0 0 -1 0 661)" d="M223.3 204.1167L72 204.1167" stroke="#000000" stroke-width="0.25" stroke-linecap="round" fill="none" /></g><g clip-path="url(#16)"><path id="18" transform="matrix(1 0 0 -1 0 661)" d="M386.9455 204.1167L223.1 204.1167" stroke="#000000" stroke-width="0.25" stroke-linecap="round" fill="none" /></g><g clip-path="url(#17)"><path id="19" transform="matrix(1 0 0 -1 0 661)" d="M432 204.1167L386.7455 204.1167" stroke="#000000" stroke-width="0.25" stroke-linecap="round" fill="none" /></g><g clip-path="url(#18)"><path id="20" transform="matrix(1 0 0 -1 0 661)" d="M223.3 158.4117L72 158.4117" stroke="#000000" stroke-width="0.25" stroke-linecap="round" fill="none" /></g><g clip-path="url(#19)"><path id="21" transform="matrix(1 0 0 -1 0 661)" d="M386.9455 158.4117L223.1 158.4117" stroke="#000000" stroke-width="0.25" stroke-linecap="round" fill="none" /></g><g clip-path="url(#20)"><path id="22" transform="matrix(1 0 0 -1 0 661)" d="M432 158.4117L386.7455 158.4117" stroke="#000000" stroke-width="0.25" stroke-linecap="round" fill="none" /></g><g clip-path="url(#21)"><path id="23" transform="matrix(1 0 0 -1 0 661)" d="M223.3 134.3067L72 134.3067" stroke="#000000" stroke-width="0.25" stroke-linecap="round" fill="none" /></g><g clip-path="url(#22)"><path id="24" transform="matrix(1 0 0 -1 0 661)" d="M386.9455 134.3067L223.1 134.3067" stroke="#000000" stroke-width="0.25" stroke-linecap="round" fill="none" /></g><g clip-path="url(#23)"><path id="25" transform="matrix(1 0 0 -1 0 661)" d="M432 134.3067L386.7455 134.3067" stroke="#000000" stroke-width="0.25" stroke-linecap="round" fill="none" /></g><g clip-path="url(#24)"><path id="26" transform="matrix(1 0 0 -1 0 661)" d="M223.3 88.60173L72 88.60173" stroke="#000000" stroke-width="0.25" stroke-linecap="round" fill="none" /></g><g clip-path="url(#25)"><path id="27" transform="matrix(1 0 0 -1 0 661)" d="M386.9455 88.60173L223.1 88.60173" stroke="#000000" stroke-width="0.25" stroke-linecap="round" fill="none" /></g><g clip-path="url(#26)"><path id="28" transform="matrix(1 0 0 -1 0 661)" d="M432 88.60173L386.7455 88.60173" stroke="#000000" stroke-width="0.25" stroke-linecap="round" fill="none" /></g><g clip-path="url(#27)"><path id="29" transform="matrix(1 0 0 -1 0 661)" d="M223.3 75.29675L72 75.29675" stroke="#000000" stroke-width="0.25" stroke-linecap="round" fill="none" /></g><g clip-path="url(#28)"><path id="30" transform="matrix(1 0 0 -1 0 661)" d="M386.9455 75.29675L223.1 75.29675" stroke="#000000" stroke-width="0.25" stroke-linecap="round" fill="none" /></g><g clip-path="url(#29)"><path id="31" transform="matrix(1 0 0 -1 0 661)" d="M432 75.29675L386.7455 75.29675" stroke="#000000" stroke-width="0.25" stroke-linecap="round" fill="none" /></g></g></g></svg>