<svg xmlns="http://www.w3.org/2000/svg" xmlns:xlink="http://www.w3.org/1999/xlink" id="body_60" preserveAspectRatio="xMinYMin meet" viewBox="0 0 672 881"><defs><clipPath id="1"><path id="" clip-rule="evenodd" transform="matrix(1 0 0 1 0 0)" d="M0 661L0 -0.5L0 -0.5L504 -0.5L504 -0.5L504 661L504 661L0 661z" /></clipPath><clipPath id="2"><path id="" clip-rule="evenodd" transform="matrix(1 0 0 1 0 0)" d="M432 606.875L432 608.4173L432 608.4173L72 608.4173L72 608.4173L72 606.875L72 606.875L72 605.3327L72 605.3327L432 605.3327" /></clipPath><clipPath id="3"><path id="" clip-rule="evenodd" transform="matrix(1 0 0 1 0 0)" d="M72.0625 103.425L71.29134 101.8827L71.29134 101.8827L433.2086 101.8827L433.2086 101.8827L432.4375 103.425L432.4375 103.425L431.6664 104.9673L431.6664 104.9673L72.83366 104.9673" /></clipPath><clipPath id="4"><path id="" clip-rule="evenodd" transform="matrix(1 0 0 1 0 0)" d="M432.375 103.3625L433.9173 102.5913L433.9173 102.5913L433.9173 241.7191L433.9173 241.7191L432.375 240.9479L432.375 240.9479L430.8327 240.1768L430.8327 240.1768L430.8327 104.1337" /></clipPath><clipPath id="5"><path id="" clip-rule="evenodd" transform="matrix(1 0 0 1 0 0)" d="M432.4375 240.8854L433.2086 242.4278L433.2086 242.4278L71.29134 242.4278L71.29134 242.4278L72.0625 240.8854L72.0625 240.8854L72.83366 239.3431L72.83366 239.3431L431.6664 239.3431" /></clipPath><clipPath id="6"><path id="" clip-rule="evenodd" transform="matrix(1 0 0 1 0 0)" d="M72.125 240.9479L70.58268 241.7191L70.58268 241.7191L70.58268 102.5913L70.58268 102.5913L72.125 103.3625L72.125 103.3625L73.66732 104.1337L73.66732 104.1337L73.66732 240.1768" /></clipPath></defs><g transform="matrix(1.333333 0 0 1.333333 0 0)"><g clip-path="url(#1)"><g clip-path="url(#2)"><path id="1" transform="matrix(1 0 0 -1 0 661)" d="M432 54.125L72 54.125" stroke="#000000" stroke-width="0.25" stroke-linecap="round" fill="none" /></g><g clip-path="url(#3)"><path id="2" transform="matrix(1 0 0 -1 0 661)" d="M72 557.575L432.5 557.575" stroke="#000000" stroke-width="0.25" stroke-linecap="round" fill="none" /></g><g clip-path="url(#4)"><path id="3" transform="matrix(1 0 0 -1 0 661)" d="M432.375 557.7L432.375 419.9896" stroke="#000000" stroke-width="0.25" stroke-linecap="round" fill="none" /></g><g clip-path="url(#5)"><path id="4" transform="matrix(1 0 0 -1 0 661)" d="M432.5 420.1146L72 420.1146" stroke="#000000" stroke-width="0.25" stroke-linecap="round" fill="none" /></g><g clip-path="url(#6)"><path id="5" transform="matrix(1 0 0 -1 0 661)" d="M72.125 419.9896L72.125 557.7" stroke="#000000" stroke-width="0.25" stroke-linecap="round" fill="none" /></g><g transform="matrix(0.2400008 0 0 0.2400008 120.2496 108.55)"><g transform="matrix(1 0 0 1 0 0)"><image x="0" y="0" xlink:href="img_70.png" width="1100" height="527" /></g></g></g></g></svg>