<svg xmlns="http://www.w3.org/2000/svg" xmlns:xlink="http://www.w3.org/1999/xlink" id="body_3" preserveAspectRatio="xMinYMin meet" viewBox="0 0 672 881"><defs><clipPath id="1"><path id="" clip-rule="evenodd" transform="matrix(1 0 0 1 0 0)" d="M0 661L0 -0.5L0 -0.5L504 -0.5L504 -0.5L504 661L504 661L0 661z" /></clipPath><clipPath id="2"><path id="" clip-rule="evenodd" transform="matrix(1 0 0 1 0 0)" d="M72 143.625L72 142.0827L72 142.0827L432 142.0827L432 142.0827L432 143.625L432 143.625L432 145.1673L432 145.1673L72 145.1673" /></clipPath><clipPath id="3"><path id="" clip-rule="evenodd" transform="matrix(1 0 0 1 0 0)" d="M144 585.74L432 585.74L432 585.74L432 609.6L432 609.6L144 609.6z" /></clipPath><clipPath id="4"><path id="" clip-rule="evenodd" transform="matrix(1 0 0 1 0 0)" d="M355.3399 587.2124L432.0874 587.2124L432.0874 587.2124L432.0874 608.1276L432.0874 608.1276L355.3399 608.1276z" /></clipPath><clipPath id="5"><path id="" clip-rule="evenodd" transform="matrix(1 0 0 1 0 0)" d="M355.3399 587.2124L432.0874 587.2124L432.0874 587.2124L432.0874 608.1276L432.0874 608.1276L355.3399 608.1276z" /></clipPath><clipPath id="6"><path id="" clip-rule="evenodd" transform="matrix(1 0 0 1 0 0)" d="M355.3399 587.2124L432.0874 587.2124L432.0874 587.2124L432.0874 608.1276L432.0874 608.1276L355.3399 608.1276z" /></clipPath><clipPath id="7"><path id="" clip-rule="evenodd" transform="matrix(1 0 0 1 0 0)" d="M355.3399 587.2124L432.0874 587.2124L432.0874 587.2124L432.0874 608.1276L432.0874 608.1276L355.3399 608.1276z" /></clipPath><clipPath id="8"><path id="" clip-rule="evenodd" transform="matrix(1 0 0 1 0 0)" d="M355.3399 587.2124L432.0874 587.2124L432.0874 587.2124L432.0874 608.1276L432.0874 608.1276L355.3399 608.1276z" /></clipPath><clipPath id="9"><path id="" clip-rule="evenodd" transform="matrix(1 0 0 1 0 0)" d="M355.3399 587.2124L432.0874 587.2124L432.0874 587.2124L432.0874 608.1276L432.0874 608.1276L355.3399 608.1276z" /></clipPath><clipPath id="10"><path id="" clip-rule="evenodd" transform="matrix(1 0 0 1 0 0)" d="M144 585.74L432 585.74L432 585.74L432 609.6L432 609.6L144 609.6z" /></clipPath><clipPath id="11"><path id="" clip-rule="evenodd" transform="matrix(1 0 0 1 0 0)" d="M355.3399 587.2124L432.0874 587.2124L432.0874 587.2124L432.0874 608.1276L432.0874 608.1276L355.3399 608.1276z" /></clipPath><clipPath id="12"><path id="" clip-rule="evenodd" transform="matrix(1 0 0 1 0 0)" d="M355.3399 587.2124L432.0874 587.2124L432.0874 587.2124L432.0874 608.1276L432.0874 608.1276L355.3399 608.1276z" /></clipPath><clipPath id="13"><path id="" clip-rule="evenodd" transform="matrix(1 0 0 1 0 0)" d="M355.3399 587.2124L432.0874 587.2124L432.0874 587.2124L432.0874 608.1276L432.0874 608.1276L355.3399 608.1276z" /></clipPath><clipPath id="14"><path id="" clip-rule="evenodd" transform="matrix(1 0 0 1 0 0)" d="M355.3399 587.2124L432.0874 587.2124L432.0874 587.2124L432.0874 608.1276L432.0874 608.1276L355.3399 608.1276z" /></clipPath><clipPath id="15"><path id="" clip-rule="evenodd" transform="matrix(1 0 0 1 0 0)" d="M355.3399 587.2124L432.0874 587.2124L432.0874 587.2124L432.0874 608.1276L432.0874 608.1276L355.3399 608.1276z" /></clipPath><clipPath id="16"><path id="" clip-rule="evenodd" transform="matrix(1 0 0 1 0 0)" d="M355.3399 587.2124L432.0874 587.2124L432.0874 587.2124L432.0874 608.1276L432.0874 608.1276L355.3399 608.1276z" /></clipPath></defs><g transform="matrix(1.333333 0 0 1.333333 0 0)"><g clip-path="url(#1)"><g clip-path="url(#2)"><path id="1" transform="matrix(1 0 0 -1 0 661)" d="M72 517.375L432 517.375" stroke="#000000" stroke-width="0.25" stroke-linecap="round" fill="none" /></g><g clip-path="url(#3)"><path id="117" transform="matrix(1 0 0 -1 0 661)" d="M175.9417 61.62354C 175.9417 62.23612 176.3792 62.76119 176.9043 62.76119C 177.5168 62.76119 177.8669 62.32364 177.8669 61.62354C 177.8669 60.92345 177.5168 60.48589 176.9043 60.48589C 176.3792 60.57341 175.9417 60.92345 175.9417 61.62354z" stroke="none" fill="#000000" fill-rule="nonzero" /><path id="118" transform="matrix(1 0 0 -1 0 661)" d="M213.9216 61.62354C 213.9216 62.23612 214.3591 62.76119 214.8842 62.76119C 215.4968 62.76119 215.8468 62.32364 215.8468 61.62354C 215.8468 60.92345 215.4968 60.48589 214.8842 60.48589C 214.4466 60.57341 213.9216 60.92345 213.9216 61.62354z" stroke="none" fill="#000000" fill-rule="nonzero" /><path id="119" transform="matrix(1 0 0 -1 0 661)" d="M259.515 61.62354C 259.515 62.23612 259.9525 62.76119 260.4776 62.76119C 261.0902 62.76119 261.4402 62.32364 261.4402 61.62354C 261.4402 60.92345 261.0902 60.48589 260.4776 60.48589C 260.04 60.57341 259.515 60.92345 259.515 61.62354z" stroke="none" fill="#000000" fill-rule="nonzero" /><path id="120" transform="matrix(1 0 0 -1 0 661)" d="M314.0345 61.62354C 314.0345 62.23612 314.4721 62.76119 314.9972 62.76119C 315.6097 62.76119 315.9598 62.32364 315.9598 61.62354C 315.9598 60.92345 315.6097 60.48589 314.9972 60.48589C 314.4721 60.57341 314.0345 60.92345 314.0345 61.62354z" stroke="none" fill="#000000" fill-rule="nonzero" /><path id="121" transform="matrix(1 0 0 -1 0 661)" d="M355.3399 73.78762L432.0874 73.78762L432.0874 52.87241L355.3399 52.87241z" stroke="none" fill="#000000" fill-rule="nonzero" /><path id="122" transform="matrix(1 0 0 -1 0 661)" d="M393.6699 67.04925L393.6699 68.79948L386.1439 68.79948L386.1439 57.94807L393.6699 57.94807L393.6699 59.7858L387.8942 59.7858L387.8942 62.49866L393.4073 62.49866L393.4073 64.3364L387.8942 64.3364L387.8942 67.04925L393.6699 67.04925" stroke="none" fill="#FFFFFF" fill-rule="nonzero" /><path id="123" transform="matrix(1 0 0 -1 0 661)" d="M399.2706 57.94807L399.2706 68.79948L401.0208 68.79948L401.0208 59.7858L406.2715 59.7858L406.2715 57.94807L399.2706 57.94807" stroke="none" fill="#FFFFFF" fill-rule="nonzero" /><path id="124" transform="matrix(1 0 0 -1 0 661)" d="M407.7592 57.94807L407.7592 68.79948L409.5094 68.79948L409.5094 59.7858L414.7601 59.7858L414.7601 57.94807L407.7592 57.94807" stroke="none" fill="#FFFFFF" fill-rule="nonzero" /><path id="125" transform="matrix(1 0 0 -1 0 661)" d="M395.5076 68.79948L397.3453 68.79948L397.3453 57.94807L395.5076 57.94807z" stroke="none" fill="#FFFFFF" fill-rule="nonzero" /><g clip-path="url(#4)"><path id="126" transform="matrix(1 0 0 -1 0 661)" d="M360.6781 63.37377C 360.6781 66.52418 363.2159 68.97449 366.2789 68.97449C 369.4293 68.97449 371.8796 66.43667 371.8796 63.37377C 371.8796 60.22336 369.3417 57.77304 366.2789 57.77304C 363.2159 57.68553 360.6781 60.22336 360.6781 63.37377M363.566 66.08662C 362.8659 65.38653 362.4283 64.4239 362.4283 63.37377C 362.4283 62.32364 362.8659 61.36101 363.566 60.66092C 364.2661 59.96083 365.2287 59.52327 366.2788 59.52327C 367.3289 59.52327 368.2916 59.96083 368.9917 60.66092C 369.6918 61.36101 370.1293 62.32364 370.1293 63.37377C 370.1293 64.4239 369.6918 65.38653 368.9917 66.08662C 368.2916 66.78671 367.3289 67.22427 366.2788 67.22427C 365.2287 67.22427 364.2661 66.78671 363.566 66.08662" stroke="none" fill="#FFFFFF" fill-rule="nonzero" /></g><g clip-path="url(#5)"><path id="127" transform="matrix(1 0 0 -1 0 661)" d="M382.0309 62.67368C 383.3436 63.02372 384.3062 64.24889 384.3062 65.73657C 384.3062 67.4868 382.906 68.88699 381.1558 68.88699L381.1558 68.88699L375.7301 68.88699L375.7301 68.88699L375.7301 58.03558L375.7301 58.03558L377.5678 58.03558L377.5678 58.03558L377.5678 62.58617L377.5678 62.58617L380.1057 62.58617L380.1057 62.58617L382.8185 58.03558L382.8185 58.03558L384.9188 58.03558L384.9188 58.03558L382.0309 62.67368zM377.5678 64.3364L377.5678 67.04925L377.5678 67.04925L381.2433 67.04925C 382.0309 67.04925 382.5559 66.43667 382.5559 65.73657C 382.5559 64.94897 381.9434 64.4239 381.2433 64.4239L381.2433 64.4239L377.5678 64.4239z" stroke="none" fill="#FFFFFF" fill-rule="nonzero" /></g><g clip-path="url(#6)"><path id="128" transform="matrix(1 0 0 -1 0 661)" d="M374.4174 67.66183C 374.4174 66.96174 373.8048 66.34915 373.1047 66.34915C 372.4046 66.34915 371.7921 66.96174 371.7921 67.66183C 371.7921 68.36192 372.4046 68.97449 373.1047 68.97449C 373.8923 68.97449 374.4174 68.36192 374.4174 67.66183" stroke="none" fill="#FFFFFF" fill-rule="nonzero" /></g><g clip-path="url(#7)"><path id="129" transform="matrix(1 0 0 -1 0 661)" d="M422.8112 68.79948L420.5359 68.79948L417.823 64.77395L415.0227 68.79948L412.8349 68.79948L416.8604 62.93621L416.8604 57.94807L418.6981 57.94807L418.6981 62.93621L422.8112 68.79948" stroke="none" fill="#FFFFFF" fill-rule="nonzero" /></g><g clip-path="url(#8)"><path id="130" transform="matrix(1 0 0 -1 0 661)" d="M425.349 68.79948C 424.2989 68.79948 423.5113 67.92436 423.5113 66.96174C 423.5113 65.9116 424.3864 65.12399 425.349 65.12399C 426.3991 65.12399 427.1867 65.99911 427.1867 66.96174C 427.2743 68.01187 426.3991 68.79948 425.349 68.79948M425.349 65.38653C 424.4739 65.38653 423.7738 66.08662 423.7738 66.96174C 423.7738 67.83685 424.4739 68.53694 425.349 68.53694C 426.2241 68.53694 426.9242 67.83685 426.9242 66.96174C 426.9242 66.08662 426.2241 65.38653 425.349 65.38653" stroke="none" fill="#FFFFFF" fill-rule="nonzero" /></g><g clip-path="url(#9)"><path id="131" transform="matrix(1 0 0 -1 0 661)" d="M426.2241 67.39929C 426.2241 67.74934 425.9616 67.92436 425.699 67.92436L425.699 67.92436L424.6489 67.92436L424.6489 67.92436L424.6489 65.99911L424.6489 65.99911L424.999 65.99911L424.999 65.99911L424.999 66.78671L424.999 66.78671L425.524 66.78671L425.524 66.78671L425.8741 65.99911L425.8741 65.99911L426.2241 65.99911L426.2241 65.99911L425.7866 66.78671C 426.0491 66.87422 426.2241 67.13676 426.2241 67.39929M424.9114 67.57432L425.6115 67.57432C 425.699 67.57432 425.8741 67.4868 425.8741 67.31178C 425.8741 67.13676 425.7866 67.04925 425.6115 67.04925L425.6115 67.04925L424.9114 67.04925L424.9114 67.04925L424.9114 67.57432z" stroke="none" fill="#FFFFFF" fill-rule="nonzero" /></g></g><g clip-path="url(#10)"><path id="167" transform="matrix(1 0 0 -1 0 661)" d="M175.9417 61.62354C 175.9417 62.23612 176.3792 62.76119 176.9043 62.76119C 177.5168 62.76119 177.8669 62.32364 177.8669 61.62354C 177.8669 60.92345 177.5168 60.48589 176.9043 60.48589C 176.3792 60.57341 175.9417 60.92345 175.9417 61.62354z" stroke="none" fill="#000000" fill-rule="nonzero" /><path id="168" transform="matrix(1 0 0 -1 0 661)" d="M213.9216 61.62354C 213.9216 62.23612 214.3591 62.76119 214.8842 62.76119C 215.4968 62.76119 215.8468 62.32364 215.8468 61.62354C 215.8468 60.92345 215.4968 60.48589 214.8842 60.48589C 214.4466 60.57341 213.9216 60.92345 213.9216 61.62354z" stroke="none" fill="#000000" fill-rule="nonzero" /><path id="169" transform="matrix(1 0 0 -1 0 661)" d="M259.515 61.62354C 259.515 62.23612 259.9525 62.76119 260.4776 62.76119C 261.0902 62.76119 261.4402 62.32364 261.4402 61.62354C 261.4402 60.92345 261.0902 60.48589 260.4776 60.48589C 260.04 60.57341 259.515 60.92345 259.515 61.62354z" stroke="none" fill="#000000" fill-rule="nonzero" /><path id="170" transform="matrix(1 0 0 -1 0 661)" d="M314.0345 61.62354C 314.0345 62.23612 314.4721 62.76119 314.9972 62.76119C 315.6097 62.76119 315.9598 62.32364 315.9598 61.62354C 315.9598 60.92345 315.6097 60.48589 314.9972 60.48589C 314.4721 60.57341 314.0345 60.92345 314.0345 61.62354z" stroke="none" fill="#000000" fill-rule="nonzero" /><path id="171" transform="matrix(1 0 0 -1 0 661)" d="M355.3399 73.78762L432.0874 73.78762L432.0874 52.87241L355.3399 52.87241z" stroke="none" fill="#000000" fill-rule="nonzero" /><path id="172" transform="matrix(1 0 0 -1 0 661)" d="M393.6699 67.04925L393.6699 68.79948L386.1439 68.79948L386.1439 57.94807L393.6699 57.94807L393.6699 59.7858L387.8942 59.7858L387.8942 62.49866L393.4073 62.49866L393.4073 64.3364L387.8942 64.3364L387.8942 67.04925L393.6699 67.04925" stroke="none" fill="#FFFFFF" fill-rule="nonzero" /><path id="173" transform="matrix(1 0 0 -1 0 661)" d="M399.2706 57.94807L399.2706 68.79948L401.0208 68.79948L401.0208 59.7858L406.2715 59.7858L406.2715 57.94807L399.2706 57.94807" stroke="none" fill="#FFFFFF" fill-rule="nonzero" /><path id="174" transform="matrix(1 0 0 -1 0 661)" d="M407.7592 57.94807L407.7592 68.79948L409.5094 68.79948L409.5094 59.7858L414.7601 59.7858L414.7601 57.94807L407.7592 57.94807" stroke="none" fill="#FFFFFF" fill-rule="nonzero" /><path id="175" transform="matrix(1 0 0 -1 0 661)" d="M395.5076 68.79948L397.3453 68.79948L397.3453 57.94807L395.5076 57.94807z" stroke="none" fill="#FFFFFF" fill-rule="nonzero" /><g clip-path="url(#11)"><path id="176" transform="matrix(1 0 0 -1 0 661)" d="M360.6781 63.37377C 360.6781 66.52418 363.2159 68.97449 366.2789 68.97449C 369.4293 68.97449 371.8796 66.43667 371.8796 63.37377C 371.8796 60.22336 369.3417 57.77304 366.2789 57.77304C 363.2159 57.68553 360.6781 60.22336 360.6781 63.37377M363.566 66.08662C 362.8659 65.38653 362.4283 64.4239 362.4283 63.37377C 362.4283 62.32364 362.8659 61.36101 363.566 60.66092C 364.2661 59.96083 365.2287 59.52327 366.2788 59.52327C 367.3289 59.52327 368.2916 59.96083 368.9917 60.66092C 369.6918 61.36101 370.1293 62.32364 370.1293 63.37377C 370.1293 64.4239 369.6918 65.38653 368.9917 66.08662C 368.2916 66.78671 367.3289 67.22427 366.2788 67.22427C 365.2287 67.22427 364.2661 66.78671 363.566 66.08662" stroke="none" fill="#FFFFFF" fill-rule="nonzero" /></g><g clip-path="url(#12)"><path id="177" transform="matrix(1 0 0 -1 0 661)" d="M382.0309 62.67368C 383.3436 63.02372 384.3062 64.24889 384.3062 65.73657C 384.3062 67.4868 382.906 68.88699 381.1558 68.88699L381.1558 68.88699L375.7301 68.88699L375.7301 68.88699L375.7301 58.03558L375.7301 58.03558L377.5678 58.03558L377.5678 58.03558L377.5678 62.58617L377.5678 62.58617L380.1057 62.58617L380.1057 62.58617L382.8185 58.03558L382.8185 58.03558L384.9188 58.03558L384.9188 58.03558L382.0309 62.67368zM377.5678 64.3364L377.5678 67.04925L377.5678 67.04925L381.2433 67.04925C 382.0309 67.04925 382.5559 66.43667 382.5559 65.73657C 382.5559 64.94897 381.9434 64.4239 381.2433 64.4239L381.2433 64.4239L377.5678 64.4239z" stroke="none" fill="#FFFFFF" fill-rule="nonzero" /></g><g clip-path="url(#13)"><path id="178" transform="matrix(1 0 0 -1 0 661)" d="M374.4174 67.66183C 374.4174 66.96174 373.8048 66.34915 373.1047 66.34915C 372.4046 66.34915 371.7921 66.96174 371.7921 67.66183C 371.7921 68.36192 372.4046 68.97449 373.1047 68.97449C 373.8923 68.97449 374.4174 68.36192 374.4174 67.66183" stroke="none" fill="#FFFFFF" fill-rule="nonzero" /></g><g clip-path="url(#14)"><path id="179" transform="matrix(1 0 0 -1 0 661)" d="M422.8112 68.79948L420.5359 68.79948L417.823 64.77395L415.0227 68.79948L412.8349 68.79948L416.8604 62.93621L416.8604 57.94807L418.6981 57.94807L418.6981 62.93621L422.8112 68.79948" stroke="none" fill="#FFFFFF" fill-rule="nonzero" /></g><g clip-path="url(#15)"><path id="180" transform="matrix(1 0 0 -1 0 661)" d="M425.349 68.79948C 424.2989 68.79948 423.5113 67.92436 423.5113 66.96174C 423.5113 65.9116 424.3864 65.12399 425.349 65.12399C 426.3991 65.12399 427.1867 65.99911 427.1867 66.96174C 427.2743 68.01187 426.3991 68.79948 425.349 68.79948M425.349 65.38653C 424.4739 65.38653 423.7738 66.08662 423.7738 66.96174C 423.7738 67.83685 424.4739 68.53694 425.349 68.53694C 426.2241 68.53694 426.9242 67.83685 426.9242 66.96174C 426.9242 66.08662 426.2241 65.38653 425.349 65.38653" stroke="none" fill="#FFFFFF" fill-rule="nonzero" /></g><g clip-path="url(#16)"><path id="181" transform="matrix(1 0 0 -1 0 661)" d="M426.2241 67.39929C 426.2241 67.74934 425.9616 67.92436 425.699 67.92436L425.699 67.92436L424.6489 67.92436L424.6489 67.92436L424.6489 65.99911L424.6489 65.99911L424.999 65.99911L424.999 65.99911L424.999 66.78671L424.999 66.78671L425.524 66.78671L425.524 66.78671L425.8741 65.99911L425.8741 65.99911L426.2241 65.99911L426.2241 65.99911L425.7866 66.78671C 426.0491 66.87422 426.2241 67.13676 426.2241 67.39929M424.9114 67.57432L425.6115 67.57432C 425.699 67.57432 425.8741 67.4868 425.8741 67.31178C 425.8741 67.13676 425.7866 67.04925 425.6115 67.04925L425.6115 67.04925L424.9114 67.04925L424.9114 67.04925L424.9114 67.57432z" stroke="none" fill="#FFFFFF" fill-rule="nonzero" /></g></g></g></g></svg>