<svg xmlns="http://www.w3.org/2000/svg" xmlns:xlink="http://www.w3.org/1999/xlink" id="body_307" preserveAspectRatio="xMinYMin meet" viewBox="0 0 672 881"><defs><clipPath id="1"><path id="" clip-rule="evenodd" transform="matrix(1 0 0 1 0 0)" d="M0 661L0 -0.5L0 -0.5L504 -0.5L504 -0.5L504 661L504 661L0 661z" /></clipPath><clipPath id="2"><path id="" clip-rule="evenodd" transform="matrix(1 0 0 1 0 0)" d="M432 606.875L432 608.4173L432 608.4173L72 608.4173L72 608.4173L72 606.875L72 606.875L72 605.3327L72 605.3327L432 605.3327" /></clipPath><clipPath id="3"><path id="" clip-rule="evenodd" transform="matrix(1 0 0 1 0 0)" d="M72.0625 375.0255L71.29134 373.4831L71.29134 373.4831L433.2086 373.4831L433.2086 373.4831L432.4375 375.0255L432.4375 375.0255L431.6664 376.5678L431.6664 376.5678L72.83366 376.5678" /></clipPath><clipPath id="4"><path id="" clip-rule="evenodd" transform="matrix(1 0 0 1 0 0)" d="M432.375 374.963L433.9173 374.1918L433.9173 374.1918L433.9173 575.7198L433.9173 575.7198L432.375 574.9486L432.375 574.9486L430.8327 574.1774L430.8327 574.1774L430.8327 375.7341" /></clipPath><clipPath id="5"><path id="" clip-rule="evenodd" transform="matrix(1 0 0 1 0 0)" d="M432.4375 574.8861L433.2086 576.4284L433.2086 576.4284L71.29134 576.4284L71.29134 576.4284L72.0625 574.8861L72.0625 574.8861L72.83366 573.3438L72.83366 573.3438L431.6664 573.3438" /></clipPath><clipPath id="6"><path id="" clip-rule="evenodd" transform="matrix(1 0 0 1 0 0)" d="M72.125 574.9486L70.58268 575.7198L70.58268 575.7198L70.58268 374.1918L70.58268 374.1918L72.125 374.963L72.125 374.963L73.66732 375.7341L73.66732 375.7341L73.66732 574.1774" /></clipPath></defs><g transform="matrix(1.333333 0 0 1.333333 0 0)"><g clip-path="url(#1)"><g clip-path="url(#2)"><path id="1" transform="matrix(1 0 0 -1 0 661)" d="M432 54.125L72 54.125" stroke="#000000" stroke-width="0.25" stroke-linecap="round" fill="none" /></g><g clip-path="url(#3)"><path id="2" transform="matrix(1 0 0 -1 0 661)" d="M72 285.9745L432.5 285.9745" stroke="#000000" stroke-width="0.25" stroke-linecap="round" fill="none" /></g><g clip-path="url(#4)"><path id="3" transform="matrix(1 0 0 -1 0 661)" d="M432.375 286.0995L432.375 85.98889" stroke="#000000" stroke-width="0.25" stroke-linecap="round" fill="none" /></g><g clip-path="url(#5)"><path id="4" transform="matrix(1 0 0 -1 0 661)" d="M432.5 86.11389L72 86.11389" stroke="#000000" stroke-width="0.25" stroke-linecap="round" fill="none" /></g><g clip-path="url(#6)"><path id="5" transform="matrix(1 0 0 -1 0 661)" d="M72.125 85.98889L72.125 286.0995" stroke="#000000" stroke-width="0.25" stroke-linecap="round" fill="none" /></g><g transform="matrix(0.2400008 0 0 0.2400008 193.9298 380.1505)"><g transform="matrix(1 0 0 1 0 0)"><image x="0" y="0" xlink:href="img_340.png" width="486" height="787" /></g></g></g></g></svg>