<svg xmlns="http://www.w3.org/2000/svg" xmlns:xlink="http://www.w3.org/1999/xlink" id="body_365" preserveAspectRatio="xMinYMin meet" viewBox="0 0 672 881"><defs><clipPath id="1"><path id="" clip-rule="evenodd" transform="matrix(1 0 0 1 0 0)" d="M0 661L0 -0.5L0 -0.5L504 -0.5L504 -0.5L504 661L504 661L0 661z" /></clipPath><clipPath id="2"><path id="" clip-rule="evenodd" transform="matrix(1 0 0 1 0 0)" d="M432 606.875L432 608.4173L432 608.4173L72 608.4173L72 608.4173L72 606.875L72 606.875L72 605.3327L72 605.3327L432 605.3327" /></clipPath><clipPath id="3"><path id="" clip-rule="evenodd" transform="matrix(1 0 0 1 0 0)" d="M72 71.625L72 70.0827L72 70.0827L432 70.0827L432 70.0827L432 71.625L432 71.625L432 73.1673L432 73.1673L72 73.1673" /></clipPath><clipPath id="4"><path id="" clip-rule="evenodd" transform="matrix(1 0 0 1 0 0)" d="M501.3 607L536.4 607L536.4 607L536.4 670L536.4 670L501.3 670L501.3 670L466.2 670L466.2 670L466.2 607" /></clipPath><clipPath id="5"><path id="" clip-rule="evenodd" transform="matrix(1 0 0 1 0 0)" d="M501.3 51.5L536.4 51.5L536.4 51.5L536.4 609L536.4 609L501.3 609L501.3 609L466.2 609L466.2 609L466.2 51.5" /></clipPath><clipPath id="6"><path id="" clip-rule="evenodd" transform="matrix(1 0 0 1 0 0)" d="M501.3 -9.5L536.4 -9.5L536.4 -9.5L536.4 53.5L536.4 53.5L501.3 53.5L501.3 53.5L466.2 53.5L466.2 53.5L466.2 -9.5" /></clipPath></defs><g transform="matrix(1.333333 0 0 1.333333 0 0)"><g clip-path="url(#1)"><g clip-path="url(#2)"><path id="1" transform="matrix(1 0 0 -1 0 661)" d="M432 54.125L72 54.125" stroke="#000000" stroke-width="0.25" stroke-linecap="round" fill="none" /></g><g clip-path="url(#3)"><path id="2" transform="matrix(1 0 0 -1 0 661)" d="M72 589.375L432 589.375" stroke="#000000" stroke-width="0.25" stroke-linecap="round" fill="none" /></g><g clip-path="url(#4)"><path id="3" transform="matrix(1 0 0 -1 0 661)" d="M501.3 54L501.3 -9" stroke="#595959" stroke-width="23.39999" stroke-linecap="round" fill="none" /></g><g clip-path="url(#5)"><path id="4" transform="matrix(1 0 0 -1 0 661)" d="M501.3 609.5L501.3 52" stroke="#595959" stroke-width="23.39999" stroke-linecap="round" fill="none" /></g><g clip-path="url(#6)"><path id="5" transform="matrix(1 0 0 -1 0 661)" d="M501.3 670.5L501.3 607.5" stroke="#595959" stroke-width="23.39999" stroke-linecap="round" fill="none" /></g></g></g></svg>