<svg xmlns="http://www.w3.org/2000/svg" xmlns:xlink="http://www.w3.org/1999/xlink" id="body_76" preserveAspectRatio="xMinYMin meet" viewBox="0 0 672 881"><defs><clipPath id="1"><path id="" clip-rule="evenodd" transform="matrix(1 0 0 1 0 0)" d="M0 661L0 -0.5L0 -0.5L504 -0.5L504 -0.5L504 661L504 661L0 661z" /></clipPath><clipPath id="2"><path id="" clip-rule="evenodd" transform="matrix(1 0 0 1 0 0)" d="M432 606.875L432 608.4173L432 608.4173L72 608.4173L72 608.4173L72 606.875L72 606.875L72 605.3327L72 605.3327L432 605.3327" /></clipPath><clipPath id="3"><path id="" clip-rule="evenodd" transform="matrix(1 0 0 1 0 0)" d="M185.55 375.7122L185.55 377.2545L185.55 377.2545L72 377.2545L72 377.2545L72 375.7122L72 375.7122L72 374.1699L72 374.1699L185.55 374.1699" /></clipPath><clipPath id="4"><path id="" clip-rule="evenodd" transform="matrix(1 0 0 1 0 0)" d="M396.556 375.7122L396.556 377.2545L396.556 377.2545L185.35 377.2545L185.35 377.2545L185.35 375.7122L185.35 375.7122L185.35 374.1699L185.35 374.1699L396.556 374.1699" /></clipPath><clipPath id="5"><path id="" clip-rule="evenodd" transform="matrix(1 0 0 1 0 0)" d="M185.55 389.0172L185.55 390.5595L185.55 390.5595L72 390.5595L72 390.5595L72 389.0172L72 389.0172L72 387.4749L72 387.4749L185.55 387.4749" /></clipPath><clipPath id="6"><path id="" clip-rule="evenodd" transform="matrix(1 0 0 1 0 0)" d="M396.556 389.0172L396.556 390.5595L396.556 390.5595L185.35 390.5595L185.35 390.5595L185.35 389.0172L185.35 389.0172L185.35 387.4749L185.35 387.4749L396.556 387.4749" /></clipPath><clipPath id="7"><path id="" clip-rule="evenodd" transform="matrix(1 0 0 1 0 0)" d="M185.55 402.3222L185.55 403.8645L185.55 403.8645L72 403.8645L72 403.8645L72 402.3222L72 402.3222L72 400.7799L72 400.7799L185.55 400.7799" /></clipPath><clipPath id="8"><path id="" clip-rule="evenodd" transform="matrix(1 0 0 1 0 0)" d="M396.556 402.3222L396.556 403.8645L396.556 403.8645L185.35 403.8645L185.35 403.8645L185.35 402.3222L185.35 402.3222L185.35 400.7799L185.35 400.7799L396.556 400.7799" /></clipPath><clipPath id="9"><path id="" clip-rule="evenodd" transform="matrix(1 0 0 1 0 0)" d="M185.55 415.6272L185.55 417.1695L185.55 417.1695L72 417.1695L72 417.1695L72 415.6272L72 415.6272L72 414.0849L72 414.0849L185.55 414.0849" /></clipPath><clipPath id="10"><path id="" clip-rule="evenodd" transform="matrix(1 0 0 1 0 0)" d="M396.556 415.6272L396.556 417.1695L396.556 417.1695L185.35 417.1695L185.35 417.1695L185.35 415.6272L185.35 415.6272L185.35 414.0849L185.35 414.0849L396.556 414.0849" /></clipPath></defs><g transform="matrix(1.333333 0 0 1.333333 0 0)"><g clip-path="url(#1)"><g clip-path="url(#2)"><path id="1" transform="matrix(1 0 0 -1 0 661)" d="M432 54.125L72 54.125" stroke="#000000" stroke-width="0.25" stroke-linecap="round" fill="none" /></g><path id="2" transform="matrix(1 0 0 -1 0 661)" d="M72 312.2678L185.45 312.2678L185.45 312.2678L185.45 298.4678L185.45 298.4678L72 298.4678z" stroke="none" fill="#000000" fill-rule="evenodd" /><path id="3" transform="matrix(1 0 0 -1 0 661)" d="M185.45 312.2678L396.556 312.2678L396.556 312.2678L396.556 298.4678L396.556 298.4678L185.45 298.4678z" stroke="none" fill="#000000" fill-rule="evenodd" /><g clip-path="url(#3)"><path id="4" transform="matrix(1 0 0 -1 0 661)" d="M185.55 285.2878L72 285.2878" stroke="#000000" stroke-width="0.25" stroke-linecap="round" fill="none" /></g><g clip-path="url(#4)"><path id="5" transform="matrix(1 0 0 -1 0 661)" d="M396.556 285.2878L185.35 285.2878" stroke="#000000" stroke-width="0.25" stroke-linecap="round" fill="none" /></g><g clip-path="url(#5)"><path id="6" transform="matrix(1 0 0 -1 0 661)" d="M185.55 271.9828L72 271.9828" stroke="#000000" stroke-width="0.25" stroke-linecap="round" fill="none" /></g><g clip-path="url(#6)"><path id="7" transform="matrix(1 0 0 -1 0 661)" d="M396.556 271.9828L185.35 271.9828" stroke="#000000" stroke-width="0.25" stroke-linecap="round" fill="none" /></g><g clip-path="url(#7)"><path id="8" transform="matrix(1 0 0 -1 0 661)" d="M185.55 258.6778L72 258.6778" stroke="#000000" stroke-width="0.25" stroke-linecap="round" fill="none" /></g><g clip-path="url(#8)"><path id="9" transform="matrix(1 0 0 -1 0 661)" d="M396.556 258.6778L185.35 258.6778" stroke="#000000" stroke-width="0.25" stroke-linecap="round" fill="none" /></g><g clip-path="url(#9)"><path id="10" transform="matrix(1 0 0 -1 0 661)" d="M185.55 245.3728L72 245.3728" stroke="#000000" stroke-width="0.25" stroke-linecap="round" fill="none" /></g><g clip-path="url(#10)"><path id="11" transform="matrix(1 0 0 -1 0 661)" d="M396.556 245.3728L185.35 245.3728" stroke="#000000" stroke-width="0.25" stroke-linecap="round" fill="none" /></g><g transform="matrix(0.09876739 0 0 0.0987674 83 164.205)"><g transform="matrix(1 0 0 1 0 0)"><image x="0" y="0" xlink:href="img_22.png" width="503" height="479" /></g></g></g></g></svg>