<svg xmlns="http://www.w3.org/2000/svg" xmlns:xlink="http://www.w3.org/1999/xlink" id="body_370" preserveAspectRatio="xMinYMin meet" viewBox="0 0 672 881"><defs><clipPath id="1"><path id="" clip-rule="evenodd" transform="matrix(1 0 0 1 0 0)" d="M0 661L0 -0.5L0 -0.5L504 -0.5L504 -0.5L504 661L504 661L0 661z" /></clipPath><clipPath id="2"><path id="" clip-rule="evenodd" transform="matrix(1 0 0 1 0 0)" d="M432 606.875L432 608.4173L432 608.4173L72 608.4173L72 608.4173L72 606.875L72 606.875L72 605.3327L72 605.3327L432 605.3327" /></clipPath><clipPath id="3"><path id="" clip-rule="evenodd" transform="matrix(1 0 0 1 0 0)" d="M2.7 670L-32.4 670L-32.4 670L-32.4 607L-32.4 607L2.7 607L2.7 607L37.8 607L37.8 607L37.8 670" /></clipPath><clipPath id="4"><path id="" clip-rule="evenodd" transform="matrix(1 0 0 1 0 0)" d="M2.7 609L-32.4 609L-32.4 609L-32.4 51.5L-32.4 51.5L2.7 51.5L2.7 51.5L37.8 51.5L37.8 51.5L37.8 609" /></clipPath><clipPath id="5"><path id="" clip-rule="evenodd" transform="matrix(1 0 0 1 0 0)" d="M2.7 53.5L-32.4 53.5L-32.4 53.5L-32.4 -9.5L-32.4 -9.5L2.7 -9.5L2.7 -9.5L37.8 -9.5L37.8 -9.5L37.8 53.5" /></clipPath></defs><g transform="matrix(1.333333 0 0 1.333333 0 0)"><g clip-path="url(#1)"><g clip-path="url(#2)"><path id="1" transform="matrix(1 0 0 -1 0 661)" d="M432 54.125L72 54.125" stroke="#000000" stroke-width="0.25" stroke-linecap="round" fill="none" /></g><g clip-path="url(#3)"><path id="2" transform="matrix(1 0 0 -1 0 661)" d="M2.7 -9L2.7 54" stroke="#595959" stroke-width="23.4" stroke-linecap="round" fill="none" /></g><g clip-path="url(#4)"><path id="3" transform="matrix(1 0 0 -1 0 661)" d="M2.7 52L2.7 609.5" stroke="#595959" stroke-width="23.4" stroke-linecap="round" fill="none" /></g><g clip-path="url(#5)"><path id="4" transform="matrix(1 0 0 -1 0 661)" d="M2.7 607.5L2.7 670.5" stroke="#595959" stroke-width="23.4" stroke-linecap="round" fill="none" /></g></g></g></svg>