<svg xmlns="http://www.w3.org/2000/svg" xmlns:xlink="http://www.w3.org/1999/xlink" id="body_152" preserveAspectRatio="xMinYMin meet" viewBox="0 0 672 881"><defs><clipPath id="1"><path id="" clip-rule="evenodd" transform="matrix(1 0 0 1 0 0)" d="M0 661L0 -0.5L0 -0.5L504 -0.5L504 -0.5L504 661L504 661L0 661z" /></clipPath><clipPath id="2"><path id="" clip-rule="evenodd" transform="matrix(1 0 0 1 0 0)" d="M432 606.875L432 608.4173L432 608.4173L72 608.4173L72 608.4173L72 606.875L72 606.875L72 605.3327L72 605.3327L432 605.3327" /></clipPath><clipPath id="3"><path id="" clip-rule="evenodd" transform="matrix(1 0 0 1 0 0)" d="M72.0625 128.998L71.29134 127.4557L71.29134 127.4557L432.7086 127.4557L432.7086 127.4557L431.9375 128.998L431.9375 128.998L431.1664 130.5403L431.1664 130.5403L72.83366 130.5403" /></clipPath><clipPath id="4"><path id="" clip-rule="evenodd" transform="matrix(1 0 0 1 0 0)" d="M431.875 128.9355L433.4173 128.1643L433.4173 128.1643L433.4173 432.5916L433.4173 432.5916L431.875 431.8205L431.875 431.8205L430.3327 431.0493L430.3327 431.0493L430.3327 129.7067" /></clipPath><clipPath id="5"><path id="" clip-rule="evenodd" transform="matrix(1 0 0 1 0 0)" d="M431.9375 431.758L432.7086 433.3003L432.7086 433.3003L71.29134 433.3003L71.29134 433.3003L72.0625 431.758L72.0625 431.758L72.83366 430.2157L72.83366 430.2157L431.1664 430.2157" /></clipPath><clipPath id="6"><path id="" clip-rule="evenodd" transform="matrix(1 0 0 1 0 0)" d="M72.125 431.8205L70.58268 432.5916L70.58268 432.5916L70.58268 128.1643L70.58268 128.1643L72.125 128.9355L72.125 128.9355L73.66732 129.7067L73.66732 129.7067L73.66732 431.0493" /></clipPath><clipPath id="7"><path id="" clip-rule="evenodd" transform="matrix(1 0 0 1 0 0)" d="M72 551.024L72 549.3567L72 549.3567L162 549.3567L162 549.3567L162 551.024L162 551.024L162 552.6913L162 552.6913L72 552.6913" /></clipPath></defs><g transform="matrix(1.333333 0 0 1.333333 0 0)"><g clip-path="url(#1)"><g clip-path="url(#2)"><path id="1" transform="matrix(1 0 0 -1 0 661)" d="M432 54.125L72 54.125" stroke="#000000" stroke-width="0.25" stroke-linecap="round" fill="none" /></g><g clip-path="url(#3)"><path id="2" transform="matrix(1 0 0 -1 0 661)" d="M72 532.002L432 532.002" stroke="#000000" stroke-width="0.25" stroke-linecap="round" fill="none" /></g><g clip-path="url(#4)"><path id="3" transform="matrix(1 0 0 -1 0 661)" d="M431.875 532.127L431.875 229.117" stroke="#000000" stroke-width="0.25" stroke-linecap="round" fill="none" /></g><g clip-path="url(#5)"><path id="4" transform="matrix(1 0 0 -1 0 661)" d="M432 229.242L72 229.242" stroke="#000000" stroke-width="0.25" stroke-linecap="round" fill="none" /></g><g clip-path="url(#6)"><path id="5" transform="matrix(1 0 0 -1 0 661)" d="M72.125 229.117L72.125 532.127" stroke="#000000" stroke-width="0.25" stroke-linecap="round" fill="none" /></g><g clip-path="url(#7)"><path id="6" transform="matrix(1 0 0 -1 0 661)" d="M72 109.976L162 109.976" stroke="#000000" stroke-width="0.5" stroke-linecap="round" fill="none" /></g></g></g></svg>