<svg xmlns="http://www.w3.org/2000/svg" xmlns:xlink="http://www.w3.org/1999/xlink" id="body_173" preserveAspectRatio="xMinYMin meet" viewBox="0 0 672 881"><defs><clipPath id="1"><path id="" clip-rule="evenodd" transform="matrix(1 0 0 1 0 0)" d="M0 661L0 -0.5L0 -0.5L504 -0.5L504 -0.5L504 661L504 661L0 661z" /></clipPath><clipPath id="2"><path id="" clip-rule="evenodd" transform="matrix(1 0 0 1 0 0)" d="M432 606.875L432 608.4173L432 608.4173L72 608.4173L72 608.4173L72 606.875L72 606.875L72 605.3327L72 605.3327L432 605.3327" /></clipPath><clipPath id="3"><path id="" clip-rule="evenodd" transform="matrix(1 0 0 1 0 0)" d="M72.0625 241.3368L71.29134 239.7944L71.29134 239.7944L433.2086 239.7944L433.2086 239.7944L432.4375 241.3368L432.4375 241.3368L431.6664 242.8791L431.6664 242.8791L72.83366 242.8791" /></clipPath><clipPath id="4"><path id="" clip-rule="evenodd" transform="matrix(1 0 0 1 0 0)" d="M432.375 241.2743L433.9173 240.5031L433.9173 240.5031L433.9173 495.0713L433.9173 495.0713L432.375 494.3001L432.375 494.3001L430.8327 493.529L430.8327 493.529L430.8327 242.0454" /></clipPath><clipPath id="5"><path id="" clip-rule="evenodd" transform="matrix(1 0 0 1 0 0)" d="M432.4375 494.2376L433.2086 495.7799L433.2086 495.7799L71.29134 495.7799L71.29134 495.7799L72.0625 494.2376L72.0625 494.2376L72.83366 492.6953L72.83366 492.6953L431.6664 492.6953" /></clipPath><clipPath id="6"><path id="" clip-rule="evenodd" transform="matrix(1 0 0 1 0 0)" d="M72.125 494.3001L70.58268 495.0713L70.58268 495.0713L70.58268 240.5031L70.58268 240.5031L72.125 241.2743L72.125 241.2743L73.66732 242.0454L73.66732 242.0454L73.66732 493.529" /></clipPath><clipPath id="7"><path id="" clip-rule="evenodd" transform="matrix(1 0 0 1 0 0)" d="M72 553.1L72 551.4326L72 551.4326L162 551.4326L162 551.4326L162 553.1L162 553.1L162 554.7673L162 554.7673L72 554.7673" /></clipPath></defs><g transform="matrix(1.333333 0 0 1.333333 0 0)"><g clip-path="url(#1)"><g clip-path="url(#2)"><path id="1" transform="matrix(1 0 0 -1 0 661)" d="M432 54.125L72 54.125" stroke="#000000" stroke-width="0.25" stroke-linecap="round" fill="none" /></g><g clip-path="url(#3)"><path id="2" transform="matrix(1 0 0 -1 0 661)" d="M72 419.6632L432.5 419.6632" stroke="#000000" stroke-width="0.25" stroke-linecap="round" fill="none" /></g><g clip-path="url(#4)"><path id="3" transform="matrix(1 0 0 -1 0 661)" d="M432.375 419.7882L432.375 166.6374" stroke="#000000" stroke-width="0.25" stroke-linecap="round" fill="none" /></g><g clip-path="url(#5)"><path id="4" transform="matrix(1 0 0 -1 0 661)" d="M432.5 166.7624L72 166.7624" stroke="#000000" stroke-width="0.25" stroke-linecap="round" fill="none" /></g><g clip-path="url(#6)"><path id="5" transform="matrix(1 0 0 -1 0 661)" d="M72.125 166.6374L72.125 419.7882" stroke="#000000" stroke-width="0.25" stroke-linecap="round" fill="none" /></g><g clip-path="url(#7)"><path id="6" transform="matrix(1 0 0 -1 0 661)" d="M72 107.9L162 107.9" stroke="#000000" stroke-width="0.5" stroke-linecap="round" fill="none" /></g><g transform="matrix(0.2400008 0 0 0.2400008 82.68944 246.4618)"><g transform="matrix(1 0 0 1 0 0)"><image x="0" y="0" xlink:href="img_185.png" width="1413" height="1008" /></g></g></g></g></svg>