<svg xmlns="http://www.w3.org/2000/svg" xmlns:xlink="http://www.w3.org/1999/xlink" id="body_41" preserveAspectRatio="xMinYMin meet" viewBox="0 0 672 881"><defs><clipPath id="1"><path id="" clip-rule="evenodd" transform="matrix(1 0 0 1 0 0)" d="M0 661L0 -0.5L0 -0.5L504 -0.5L504 -0.5L504 661L504 661L0 661z" /></clipPath><clipPath id="2"><path id="" clip-rule="evenodd" transform="matrix(1 0 0 1 0 0)" d="M432 606.875L432 608.4173L432 608.4173L72 608.4173L72 608.4173L72 606.875L72 606.875L72 605.3327L72 605.3327L432 605.3327" /></clipPath><clipPath id="3"><path id="" clip-rule="evenodd" transform="matrix(1 0 0 1 0 0)" d="M112.8701 449.9341L112.8701 451.4764L112.8701 451.4764L72 451.4764L72 451.4764L72 449.9341L72 449.9341L72 448.3918L72 448.3918L112.8701 448.3918" /></clipPath><clipPath id="4"><path id="" clip-rule="evenodd" transform="matrix(1 0 0 1 0 0)" d="M186.064 449.9341L186.064 451.4764L186.064 451.4764L112.6701 451.4764L112.6701 451.4764L112.6701 449.9341L112.6701 449.9341L112.6701 448.3918L112.6701 448.3918L186.064 448.3918" /></clipPath><clipPath id="5"><path id="" clip-rule="evenodd" transform="matrix(1 0 0 1 0 0)" d="M257.503 449.9341L257.503 451.4764L257.503 451.4764L185.864 451.4764L185.864 451.4764L185.864 449.9341L185.864 449.9341L185.864 448.3918L185.864 448.3918L257.503 448.3918" /></clipPath><clipPath id="6"><path id="" clip-rule="evenodd" transform="matrix(1 0 0 1 0 0)" d="M330.6969 449.9341L330.6969 451.4764L330.6969 451.4764L257.303 451.4764L257.303 451.4764L257.303 449.9341L257.303 449.9341L257.303 448.3918L257.303 448.3918L330.6969 448.3918" /></clipPath><clipPath id="7"><path id="" clip-rule="evenodd" transform="matrix(1 0 0 1 0 0)" d="M392.802 449.9341L392.802 451.4764L392.802 451.4764L330.4969 451.4764L330.4969 451.4764L330.4969 449.9341L330.4969 449.9341L330.4969 448.3918L330.4969 448.3918L392.802 448.3918" /></clipPath><clipPath id="8"><path id="" clip-rule="evenodd" transform="matrix(1 0 0 1 0 0)" d="M112.8701 462.9841L112.8701 464.5264L112.8701 464.5264L72 464.5264L72 464.5264L72 462.9841L72 462.9841L72 461.4418L72 461.4418L112.8701 461.4418" /></clipPath><clipPath id="9"><path id="" clip-rule="evenodd" transform="matrix(1 0 0 1 0 0)" d="M186.064 462.9841L186.064 464.5264L186.064 464.5264L112.6701 464.5264L112.6701 464.5264L112.6701 462.9841L112.6701 462.9841L112.6701 461.4418L112.6701 461.4418L186.064 461.4418" /></clipPath><clipPath id="10"><path id="" clip-rule="evenodd" transform="matrix(1 0 0 1 0 0)" d="M257.503 462.9841L257.503 464.5264L257.503 464.5264L185.864 464.5264L185.864 464.5264L185.864 462.9841L185.864 462.9841L185.864 461.4418L185.864 461.4418L257.503 461.4418" /></clipPath><clipPath id="11"><path id="" clip-rule="evenodd" transform="matrix(1 0 0 1 0 0)" d="M330.6969 462.9841L330.6969 464.5264L330.6969 464.5264L257.303 464.5264L257.303 464.5264L257.303 462.9841L257.303 462.9841L257.303 461.4418L257.303 461.4418L330.6969 461.4418" /></clipPath><clipPath id="12"><path id="" clip-rule="evenodd" transform="matrix(1 0 0 1 0 0)" d="M392.802 462.9841L392.802 464.5264L392.802 464.5264L330.4969 464.5264L330.4969 464.5264L330.4969 462.9841L330.4969 462.9841L330.4969 461.4418L330.4969 461.4418L392.802 461.4418" /></clipPath><clipPath id="13"><path id="" clip-rule="evenodd" transform="matrix(1 0 0 1 0 0)" d="M112.8701 476.0341L112.8701 477.5764L112.8701 477.5764L72 477.5764L72 477.5764L72 476.0341L72 476.0341L72 474.4918L72 474.4918L112.8701 474.4918" /></clipPath><clipPath id="14"><path id="" clip-rule="evenodd" transform="matrix(1 0 0 1 0 0)" d="M186.064 476.0341L186.064 477.5764L186.064 477.5764L112.6701 477.5764L112.6701 477.5764L112.6701 476.0341L112.6701 476.0341L112.6701 474.4918L112.6701 474.4918L186.064 474.4918" /></clipPath><clipPath id="15"><path id="" clip-rule="evenodd" transform="matrix(1 0 0 1 0 0)" d="M257.503 476.0341L257.503 477.5764L257.503 477.5764L185.864 477.5764L185.864 477.5764L185.864 476.0341L185.864 476.0341L185.864 474.4918L185.864 474.4918L257.503 474.4918" /></clipPath><clipPath id="16"><path id="" clip-rule="evenodd" transform="matrix(1 0 0 1 0 0)" d="M330.6969 476.0341L330.6969 477.5764L330.6969 477.5764L257.303 477.5764L257.303 477.5764L257.303 476.0341L257.303 476.0341L257.303 474.4918L257.303 474.4918L330.6969 474.4918" /></clipPath><clipPath id="17"><path id="" clip-rule="evenodd" transform="matrix(1 0 0 1 0 0)" d="M392.802 476.0341L392.802 477.5764L392.802 477.5764L330.4969 477.5764L330.4969 477.5764L330.4969 476.0341L330.4969 476.0341L330.4969 474.4918L330.4969 474.4918L392.802 474.4918" /></clipPath><clipPath id="18"><path id="" clip-rule="evenodd" transform="matrix(1 0 0 1 0 0)" d="M112.8701 489.0841L112.8701 490.6264L112.8701 490.6264L72 490.6264L72 490.6264L72 489.0841L72 489.0841L72 487.5417L72 487.5417L112.8701 487.5417" /></clipPath><clipPath id="19"><path id="" clip-rule="evenodd" transform="matrix(1 0 0 1 0 0)" d="M186.064 489.0841L186.064 490.6264L186.064 490.6264L112.6701 490.6264L112.6701 490.6264L112.6701 489.0841L112.6701 489.0841L112.6701 487.5417L112.6701 487.5417L186.064 487.5417" /></clipPath><clipPath id="20"><path id="" clip-rule="evenodd" transform="matrix(1 0 0 1 0 0)" d="M257.503 489.0841L257.503 490.6264L257.503 490.6264L185.864 490.6264L185.864 490.6264L185.864 489.0841L185.864 489.0841L185.864 487.5417L185.864 487.5417L257.503 487.5417" /></clipPath><clipPath id="21"><path id="" clip-rule="evenodd" transform="matrix(1 0 0 1 0 0)" d="M330.6969 489.0841L330.6969 490.6264L330.6969 490.6264L257.303 490.6264L257.303 490.6264L257.303 489.0841L257.303 489.0841L257.303 487.5417L257.303 487.5417L330.6969 487.5417" /></clipPath><clipPath id="22"><path id="" clip-rule="evenodd" transform="matrix(1 0 0 1 0 0)" d="M392.802 489.0841L392.802 490.6264L392.802 490.6264L330.4969 490.6264L330.4969 490.6264L330.4969 489.0841L330.4969 489.0841L330.4969 487.5417L330.4969 487.5417L392.802 487.5417" /></clipPath><clipPath id="23"><path id="" clip-rule="evenodd" transform="matrix(1 0 0 1 0 0)" d="M112.8701 502.1341L112.8701 503.6764L112.8701 503.6764L72 503.6764L72 503.6764L72 502.1341L72 502.1341L72 500.5917L72 500.5917L112.8701 500.5917" /></clipPath><clipPath id="24"><path id="" clip-rule="evenodd" transform="matrix(1 0 0 1 0 0)" d="M186.064 502.1341L186.064 503.6764L186.064 503.6764L112.6701 503.6764L112.6701 503.6764L112.6701 502.1341L112.6701 502.1341L112.6701 500.5917L112.6701 500.5917L186.064 500.5917" /></clipPath><clipPath id="25"><path id="" clip-rule="evenodd" transform="matrix(1 0 0 1 0 0)" d="M257.503 502.1341L257.503 503.6764L257.503 503.6764L185.864 503.6764L185.864 503.6764L185.864 502.1341L185.864 502.1341L185.864 500.5917L185.864 500.5917L257.503 500.5917" /></clipPath><clipPath id="26"><path id="" clip-rule="evenodd" transform="matrix(1 0 0 1 0 0)" d="M330.6969 502.1341L330.6969 503.6764L330.6969 503.6764L257.303 503.6764L257.303 503.6764L257.303 502.1341L257.303 502.1341L257.303 500.5917L257.303 500.5917L330.6969 500.5917" /></clipPath><clipPath id="27"><path id="" clip-rule="evenodd" transform="matrix(1 0 0 1 0 0)" d="M392.802 502.1341L392.802 503.6764L392.802 503.6764L330.4969 503.6764L330.4969 503.6764L330.4969 502.1341L330.4969 502.1341L330.4969 500.5917L330.4969 500.5917L392.802 500.5917" /></clipPath><clipPath id="28"><path id="" clip-rule="evenodd" transform="matrix(1 0 0 1 0 0)" d="M112.8701 515.1841L112.8701 516.7264L112.8701 516.7264L72 516.7264L72 516.7264L72 515.1841L72 515.1841L72 513.6417L72 513.6417L112.8701 513.6417" /></clipPath><clipPath id="29"><path id="" clip-rule="evenodd" transform="matrix(1 0 0 1 0 0)" d="M186.064 515.1841L186.064 516.7264L186.064 516.7264L112.6701 516.7264L112.6701 516.7264L112.6701 515.1841L112.6701 515.1841L112.6701 513.6417L112.6701 513.6417L186.064 513.6417" /></clipPath><clipPath id="30"><path id="" clip-rule="evenodd" transform="matrix(1 0 0 1 0 0)" d="M257.503 515.1841L257.503 516.7264L257.503 516.7264L185.864 516.7264L185.864 516.7264L185.864 515.1841L185.864 515.1841L185.864 513.6417L185.864 513.6417L257.503 513.6417" /></clipPath><clipPath id="31"><path id="" clip-rule="evenodd" transform="matrix(1 0 0 1 0 0)" d="M330.6969 515.1841L330.6969 516.7264L330.6969 516.7264L257.303 516.7264L257.303 516.7264L257.303 515.1841L257.303 515.1841L257.303 513.6417L257.303 513.6417L330.6969 513.6417" /></clipPath><clipPath id="32"><path id="" clip-rule="evenodd" transform="matrix(1 0 0 1 0 0)" d="M392.802 515.1841L392.802 516.7264L392.802 516.7264L330.4969 516.7264L330.4969 516.7264L330.4969 515.1841L330.4969 515.1841L330.4969 513.6417L330.4969 513.6417L392.802 513.6417" /></clipPath><clipPath id="33"><path id="" clip-rule="evenodd" transform="matrix(1 0 0 1 0 0)" d="M112.8701 528.2341L112.8701 529.7764L112.8701 529.7764L72 529.7764L72 529.7764L72 528.2341L72 528.2341L72 526.6918L72 526.6918L112.8701 526.6918" /></clipPath><clipPath id="34"><path id="" clip-rule="evenodd" transform="matrix(1 0 0 1 0 0)" d="M186.064 528.2341L186.064 529.7764L186.064 529.7764L112.6701 529.7764L112.6701 529.7764L112.6701 528.2341L112.6701 528.2341L112.6701 526.6918L112.6701 526.6918L186.064 526.6918" /></clipPath><clipPath id="35"><path id="" clip-rule="evenodd" transform="matrix(1 0 0 1 0 0)" d="M257.503 528.2341L257.503 529.7764L257.503 529.7764L185.864 529.7764L185.864 529.7764L185.864 528.2341L185.864 528.2341L185.864 526.6918L185.864 526.6918L257.503 526.6918" /></clipPath><clipPath id="36"><path id="" clip-rule="evenodd" transform="matrix(1 0 0 1 0 0)" d="M330.6969 528.2341L330.6969 529.7764L330.6969 529.7764L257.303 529.7764L257.303 529.7764L257.303 528.2341L257.303 528.2341L257.303 526.6918L257.303 526.6918L330.6969 526.6918" /></clipPath><clipPath id="37"><path id="" clip-rule="evenodd" transform="matrix(1 0 0 1 0 0)" d="M392.802 528.2341L392.802 529.7764L392.802 529.7764L330.4969 529.7764L330.4969 529.7764L330.4969 528.2341L330.4969 528.2341L330.4969 526.6918L330.4969 526.6918L392.802 526.6918" /></clipPath><clipPath id="38"><path id="" clip-rule="evenodd" transform="matrix(1 0 0 1 0 0)" d="M112.8701 541.2841L112.8701 542.8264L112.8701 542.8264L72 542.8264L72 542.8264L72 541.2841L72 541.2841L72 539.7418L72 539.7418L112.8701 539.7418" /></clipPath><clipPath id="39"><path id="" clip-rule="evenodd" transform="matrix(1 0 0 1 0 0)" d="M186.064 541.2841L186.064 542.8264L186.064 542.8264L112.6701 542.8264L112.6701 542.8264L112.6701 541.2841L112.6701 541.2841L112.6701 539.7418L112.6701 539.7418L186.064 539.7418" /></clipPath><clipPath id="40"><path id="" clip-rule="evenodd" transform="matrix(1 0 0 1 0 0)" d="M257.503 541.2841L257.503 542.8264L257.503 542.8264L185.864 542.8264L185.864 542.8264L185.864 541.2841L185.864 541.2841L185.864 539.7418L185.864 539.7418L257.503 539.7418" /></clipPath><clipPath id="41"><path id="" clip-rule="evenodd" transform="matrix(1 0 0 1 0 0)" d="M330.6969 541.2841L330.6969 542.8264L330.6969 542.8264L257.303 542.8264L257.303 542.8264L257.303 541.2841L257.303 541.2841L257.303 539.7418L257.303 539.7418L330.6969 539.7418" /></clipPath><clipPath id="42"><path id="" clip-rule="evenodd" transform="matrix(1 0 0 1 0 0)" d="M392.802 541.2841L392.802 542.8264L392.802 542.8264L330.4969 542.8264L330.4969 542.8264L330.4969 541.2841L330.4969 541.2841L330.4969 539.7418L330.4969 539.7418L392.802 539.7418" /></clipPath></defs><g transform="matrix(1.333333 0 0 1.333333 0 0)"><g clip-path="url(#1)"><g clip-path="url(#2)"><path id="1" transform="matrix(1 0 0 -1 0 661)" d="M432 54.125L72 54.125" stroke="#000000" stroke-width="0.25" stroke-linecap="round" fill="none" /></g><path id="2" transform="matrix(1 0 0 -1 0 661)" d="M72 237.7909L112.7701 237.7909L112.7701 237.7909L112.7701 223.9909L112.7701 223.9909L72 223.9909z" stroke="none" fill="#000000" fill-rule="evenodd" /><path id="3" transform="matrix(1 0 0 -1 0 661)" d="M112.7701 237.7909L185.964 237.7909L185.964 237.7909L185.964 223.9909L185.964 223.9909L112.7701 223.9909z" stroke="none" fill="#000000" fill-rule="evenodd" /><path id="4" transform="matrix(1 0 0 -1 0 661)" d="M185.964 237.7909L257.403 237.7909L257.403 237.7909L257.403 223.9909L257.403 223.9909L185.964 223.9909z" stroke="none" fill="#000000" fill-rule="evenodd" /><path id="5" transform="matrix(1 0 0 -1 0 661)" d="M257.403 237.7909L330.5969 237.7909L330.5969 237.7909L330.5969 223.9909L330.5969 223.9909L257.403 223.9909z" stroke="none" fill="#000000" fill-rule="evenodd" /><path id="6" transform="matrix(1 0 0 -1 0 661)" d="M330.5969 237.7909L392.802 237.7909L392.802 237.7909L392.802 223.9909L392.802 223.9909L330.5969 223.9909z" stroke="none" fill="#000000" fill-rule="evenodd" /><g clip-path="url(#3)"><path id="7" transform="matrix(1 0 0 -1 0 661)" d="M112.8701 211.0659L72 211.0659" stroke="#000000" stroke-width="0.25" stroke-linecap="round" fill="none" /></g><g clip-path="url(#4)"><path id="8" transform="matrix(1 0 0 -1 0 661)" d="M186.064 211.0659L112.6701 211.0659" stroke="#000000" stroke-width="0.25" stroke-linecap="round" fill="none" /></g><g clip-path="url(#5)"><path id="9" transform="matrix(1 0 0 -1 0 661)" d="M257.503 211.0659L185.864 211.0659" stroke="#000000" stroke-width="0.25" stroke-linecap="round" fill="none" /></g><g clip-path="url(#6)"><path id="10" transform="matrix(1 0 0 -1 0 661)" d="M330.6969 211.0659L257.303 211.0659" stroke="#000000" stroke-width="0.25" stroke-linecap="round" fill="none" /></g><g clip-path="url(#7)"><path id="11" transform="matrix(1 0 0 -1 0 661)" d="M392.802 211.0659L330.4969 211.0659" stroke="#000000" stroke-width="0.25" stroke-linecap="round" fill="none" /></g><g clip-path="url(#8)"><path id="12" transform="matrix(1 0 0 -1 0 661)" d="M112.8701 198.0159L72 198.0159" stroke="#000000" stroke-width="0.25" stroke-linecap="round" fill="none" /></g><g clip-path="url(#9)"><path id="13" transform="matrix(1 0 0 -1 0 661)" d="M186.064 198.0159L112.6701 198.0159" stroke="#000000" stroke-width="0.25" stroke-linecap="round" fill="none" /></g><g clip-path="url(#10)"><path id="14" transform="matrix(1 0 0 -1 0 661)" d="M257.503 198.0159L185.864 198.0159" stroke="#000000" stroke-width="0.25" stroke-linecap="round" fill="none" /></g><g clip-path="url(#11)"><path id="15" transform="matrix(1 0 0 -1 0 661)" d="M330.6969 198.0159L257.303 198.0159" stroke="#000000" stroke-width="0.25" stroke-linecap="round" fill="none" /></g><g clip-path="url(#12)"><path id="16" transform="matrix(1 0 0 -1 0 661)" d="M392.802 198.0159L330.4969 198.0159" stroke="#000000" stroke-width="0.25" stroke-linecap="round" fill="none" /></g><g clip-path="url(#13)"><path id="17" transform="matrix(1 0 0 -1 0 661)" d="M112.8701 184.9659L72 184.9659" stroke="#000000" stroke-width="0.25" stroke-linecap="round" fill="none" /></g><g clip-path="url(#14)"><path id="18" transform="matrix(1 0 0 -1 0 661)" d="M186.064 184.9659L112.6701 184.9659" stroke="#000000" stroke-width="0.25" stroke-linecap="round" fill="none" /></g><g clip-path="url(#15)"><path id="19" transform="matrix(1 0 0 -1 0 661)" d="M257.503 184.9659L185.864 184.9659" stroke="#000000" stroke-width="0.25" stroke-linecap="round" fill="none" /></g><g clip-path="url(#16)"><path id="20" transform="matrix(1 0 0 -1 0 661)" d="M330.6969 184.9659L257.303 184.9659" stroke="#000000" stroke-width="0.25" stroke-linecap="round" fill="none" /></g><g clip-path="url(#17)"><path id="21" transform="matrix(1 0 0 -1 0 661)" d="M392.802 184.9659L330.4969 184.9659" stroke="#000000" stroke-width="0.25" stroke-linecap="round" fill="none" /></g><g clip-path="url(#18)"><path id="22" transform="matrix(1 0 0 -1 0 661)" d="M112.8701 171.9159L72 171.9159" stroke="#000000" stroke-width="0.25" stroke-linecap="round" fill="none" /></g><g clip-path="url(#19)"><path id="23" transform="matrix(1 0 0 -1 0 661)" d="M186.064 171.9159L112.6701 171.9159" stroke="#000000" stroke-width="0.25" stroke-linecap="round" fill="none" /></g><g clip-path="url(#20)"><path id="24" transform="matrix(1 0 0 -1 0 661)" d="M257.503 171.9159L185.864 171.9159" stroke="#000000" stroke-width="0.25" stroke-linecap="round" fill="none" /></g><g clip-path="url(#21)"><path id="25" transform="matrix(1 0 0 -1 0 661)" d="M330.6969 171.9159L257.303 171.9159" stroke="#000000" stroke-width="0.25" stroke-linecap="round" fill="none" /></g><g clip-path="url(#22)"><path id="26" transform="matrix(1 0 0 -1 0 661)" d="M392.802 171.9159L330.4969 171.9159" stroke="#000000" stroke-width="0.25" stroke-linecap="round" fill="none" /></g><g clip-path="url(#23)"><path id="27" transform="matrix(1 0 0 -1 0 661)" d="M112.8701 158.8659L72 158.8659" stroke="#000000" stroke-width="0.25" stroke-linecap="round" fill="none" /></g><g clip-path="url(#24)"><path id="28" transform="matrix(1 0 0 -1 0 661)" d="M186.064 158.8659L112.6701 158.8659" stroke="#000000" stroke-width="0.25" stroke-linecap="round" fill="none" /></g><g clip-path="url(#25)"><path id="29" transform="matrix(1 0 0 -1 0 661)" d="M257.503 158.8659L185.864 158.8659" stroke="#000000" stroke-width="0.25" stroke-linecap="round" fill="none" /></g><g clip-path="url(#26)"><path id="30" transform="matrix(1 0 0 -1 0 661)" d="M330.6969 158.8659L257.303 158.8659" stroke="#000000" stroke-width="0.25" stroke-linecap="round" fill="none" /></g><g clip-path="url(#27)"><path id="31" transform="matrix(1 0 0 -1 0 661)" d="M392.802 158.8659L330.4969 158.8659" stroke="#000000" stroke-width="0.25" stroke-linecap="round" fill="none" /></g><g clip-path="url(#28)"><path id="32" transform="matrix(1 0 0 -1 0 661)" d="M112.8701 145.8159L72 145.8159" stroke="#000000" stroke-width="0.25" stroke-linecap="round" fill="none" /></g><g clip-path="url(#29)"><path id="33" transform="matrix(1 0 0 -1 0 661)" d="M186.064 145.8159L112.6701 145.8159" stroke="#000000" stroke-width="0.25" stroke-linecap="round" fill="none" /></g><g clip-path="url(#30)"><path id="34" transform="matrix(1 0 0 -1 0 661)" d="M257.503 145.8159L185.864 145.8159" stroke="#000000" stroke-width="0.25" stroke-linecap="round" fill="none" /></g><g clip-path="url(#31)"><path id="35" transform="matrix(1 0 0 -1 0 661)" d="M330.6969 145.8159L257.303 145.8159" stroke="#000000" stroke-width="0.25" stroke-linecap="round" fill="none" /></g><g clip-path="url(#32)"><path id="36" transform="matrix(1 0 0 -1 0 661)" d="M392.802 145.8159L330.4969 145.8159" stroke="#000000" stroke-width="0.25" stroke-linecap="round" fill="none" /></g><g clip-path="url(#33)"><path id="37" transform="matrix(1 0 0 -1 0 661)" d="M112.8701 132.7659L72 132.7659" stroke="#000000" stroke-width="0.25" stroke-linecap="round" fill="none" /></g><g clip-path="url(#34)"><path id="38" transform="matrix(1 0 0 -1 0 661)" d="M186.064 132.7659L112.6701 132.7659" stroke="#000000" stroke-width="0.25" stroke-linecap="round" fill="none" /></g><g clip-path="url(#35)"><path id="39" transform="matrix(1 0 0 -1 0 661)" d="M257.503 132.7659L185.864 132.7659" stroke="#000000" stroke-width="0.25" stroke-linecap="round" fill="none" /></g><g clip-path="url(#36)"><path id="40" transform="matrix(1 0 0 -1 0 661)" d="M330.6969 132.7659L257.303 132.7659" stroke="#000000" stroke-width="0.25" stroke-linecap="round" fill="none" /></g><g clip-path="url(#37)"><path id="41" transform="matrix(1 0 0 -1 0 661)" d="M392.802 132.7659L330.4969 132.7659" stroke="#000000" stroke-width="0.25" stroke-linecap="round" fill="none" /></g><g clip-path="url(#38)"><path id="42" transform="matrix(1 0 0 -1 0 661)" d="M112.8701 119.7159L72 119.7159" stroke="#000000" stroke-width="0.25" stroke-linecap="round" fill="none" /></g><g clip-path="url(#39)"><path id="43" transform="matrix(1 0 0 -1 0 661)" d="M186.064 119.7159L112.6701 119.7159" stroke="#000000" stroke-width="0.25" stroke-linecap="round" fill="none" /></g><g clip-path="url(#40)"><path id="44" transform="matrix(1 0 0 -1 0 661)" d="M257.503 119.7159L185.864 119.7159" stroke="#000000" stroke-width="0.25" stroke-linecap="round" fill="none" /></g><g clip-path="url(#41)"><path id="45" transform="matrix(1 0 0 -1 0 661)" d="M330.6969 119.7159L257.303 119.7159" stroke="#000000" stroke-width="0.25" stroke-linecap="round" fill="none" /></g><g clip-path="url(#42)"><path id="46" transform="matrix(1 0 0 -1 0 661)" d="M392.802 119.7159L330.4969 119.7159" stroke="#000000" stroke-width="0.25" stroke-linecap="round" fill="none" /></g></g></g></svg>