<svg xmlns="http://www.w3.org/2000/svg" xmlns:xlink="http://www.w3.org/1999/xlink" id="body_21" preserveAspectRatio="xMinYMin meet" viewBox="0 0 672 881"><defs><clipPath id="1"><path id="" clip-rule="evenodd" transform="matrix(1 0 0 1 0 0)" d="M0 661L0 -0.5L0 -0.5L504 -0.5L504 -0.5L504 661L504 661L0 661z" /></clipPath><clipPath id="2"><path id="" clip-rule="evenodd" transform="matrix(1 0 0 1 0 0)" d="M432 606.875L432 608.4173L432 608.4173L72 608.4173L72 608.4173L72 606.875L72 606.875L72 605.3327L72 605.3327L432 605.3327" /></clipPath><clipPath id="3"><path id="" clip-rule="evenodd" transform="matrix(1 0 0 1 0 0)" d="M72.0625 135.225L71.29134 133.6827L71.29134 133.6827L433.2086 133.6827L433.2086 133.6827L432.4375 135.225L432.4375 135.225L431.6664 136.7673L431.6664 136.7673L72.83366 136.7673" /></clipPath><clipPath id="4"><path id="" clip-rule="evenodd" transform="matrix(1 0 0 1 0 0)" d="M432.375 135.1625L433.9173 134.3914L433.9173 134.3914L433.9173 314.3192L433.9173 314.3192L432.375 313.5481L432.375 313.5481L430.8327 312.7769L430.8327 312.7769L430.8327 135.9337" /></clipPath><clipPath id="5"><path id="" clip-rule="evenodd" transform="matrix(1 0 0 1 0 0)" d="M432.4375 313.4856L433.2086 315.0279L433.2086 315.0279L71.29134 315.0279L71.29134 315.0279L72.0625 313.4856L72.0625 313.4856L72.83366 311.9432L72.83366 311.9432L431.6664 311.9432" /></clipPath><clipPath id="6"><path id="" clip-rule="evenodd" transform="matrix(1 0 0 1 0 0)" d="M72.125 313.5481L70.58268 314.3192L70.58268 314.3192L70.58268 134.3914L70.58268 134.3914L72.125 135.1625L72.125 135.1625L73.66732 135.9337L73.66732 135.9337L73.66732 312.7769" /></clipPath><clipPath id="7"><path id="" clip-rule="evenodd" transform="matrix(1 0 0 1 0 0)" d="M72 540.1L72 538.4326L72 538.4326L162 538.4326L162 538.4326L162 540.1L162 540.1L162 541.7673L162 541.7673L72 541.7673" /></clipPath></defs><g transform="matrix(1.333333 0 0 1.333333 0 0)"><g clip-path="url(#1)"><g clip-path="url(#2)"><path id="1" transform="matrix(1 0 0 -1 0 661)" d="M432 54.125L72 54.125" stroke="#000000" stroke-width="0.25" stroke-linecap="round" fill="none" /></g><g clip-path="url(#3)"><path id="2" transform="matrix(1 0 0 -1 0 661)" d="M72 525.775L432.5 525.775" stroke="#000000" stroke-width="0.25" stroke-linecap="round" fill="none" /></g><g clip-path="url(#4)"><path id="3" transform="matrix(1 0 0 -1 0 661)" d="M432.375 525.9L432.375 347.3894" stroke="#000000" stroke-width="0.25" stroke-linecap="round" fill="none" /></g><g clip-path="url(#5)"><path id="4" transform="matrix(1 0 0 -1 0 661)" d="M432.5 347.5144L72 347.5144" stroke="#000000" stroke-width="0.25" stroke-linecap="round" fill="none" /></g><g clip-path="url(#6)"><path id="5" transform="matrix(1 0 0 -1 0 661)" d="M72.125 347.3894L72.125 525.9" stroke="#000000" stroke-width="0.25" stroke-linecap="round" fill="none" /></g><g clip-path="url(#7)"><path id="6" transform="matrix(1 0 0 -1 0 661)" d="M72 120.9L162 120.9" stroke="#000000" stroke-width="0.5" stroke-linecap="round" fill="none" /></g><g transform="matrix(0.2400008 0 0 0.2400008 195.2498 140.35)"><g transform="matrix(1 0 0 1 0 0)"><image x="0" y="0" xlink:href="img_28.png" width="475" height="697" /></g></g></g></g></svg>