<svg xmlns="http://www.w3.org/2000/svg" xmlns:xlink="http://www.w3.org/1999/xlink" id="body_260" preserveAspectRatio="xMinYMin meet" viewBox="0 0 672 881"><defs><clipPath id="1"><path id="" clip-rule="evenodd" transform="matrix(1 0 0 1 0 0)" d="M0 661L0 -0.5L0 -0.5L504 -0.5L504 -0.5L504 661L504 661L0 661z" /></clipPath><clipPath id="2"><path id="" clip-rule="evenodd" transform="matrix(1 0 0 1 0 0)" d="M432 606.875L432 608.4173L432 608.4173L72 608.4173L72 608.4173L72 606.875L72 606.875L72 605.3327L72 605.3327L432 605.3327" /></clipPath><clipPath id="3"><path id="" clip-rule="evenodd" transform="matrix(1 0 0 1 0 0)" d="M72.0625 260.726L71.29134 259.1837L71.29134 259.1837L433.2086 259.1837L433.2086 259.1837L432.4375 260.726L432.4375 260.726L431.6664 262.2683L431.6664 262.2683L72.83366 262.2683" /></clipPath><clipPath id="4"><path id="" clip-rule="evenodd" transform="matrix(1 0 0 1 0 0)" d="M432.375 260.6635L433.9173 259.8923L433.9173 259.8923L433.9173 314.5398L433.9173 314.5398L432.375 313.7686L432.375 313.7686L430.8327 312.9975L430.8327 312.9975L430.8327 261.4347" /></clipPath><clipPath id="5"><path id="" clip-rule="evenodd" transform="matrix(1 0 0 1 0 0)" d="M432.4375 313.7061L433.2086 315.2485L433.2086 315.2485L71.29134 315.2485L71.29134 315.2485L72.0625 313.7061L72.0625 313.7061L72.83366 312.1638L72.83366 312.1638L431.6664 312.1638" /></clipPath><clipPath id="6"><path id="" clip-rule="evenodd" transform="matrix(1 0 0 1 0 0)" d="M72.125 313.7686L70.58268 314.5398L70.58268 314.5398L70.58268 259.8923L70.58268 259.8923L72.125 260.6635L72.125 260.6635L73.66732 261.4347L73.66732 261.4347L73.66732 312.9975" /></clipPath></defs><g transform="matrix(1.333333 0 0 1.333333 0 0)"><g clip-path="url(#1)"><g clip-path="url(#2)"><path id="1" transform="matrix(1 0 0 -1 0 661)" d="M432 54.125L72 54.125" stroke="#000000" stroke-width="0.25" stroke-linecap="round" fill="none" /></g><g clip-path="url(#3)"><path id="2" transform="matrix(1 0 0 -1 0 661)" d="M72 400.274L432.5 400.274" stroke="#000000" stroke-width="0.25" stroke-linecap="round" fill="none" /></g><g clip-path="url(#4)"><path id="3" transform="matrix(1 0 0 -1 0 661)" d="M432.375 400.399L432.375 347.1689" stroke="#000000" stroke-width="0.25" stroke-linecap="round" fill="none" /></g><g clip-path="url(#5)"><path id="4" transform="matrix(1 0 0 -1 0 661)" d="M432.5 347.2939L72 347.2939" stroke="#000000" stroke-width="0.25" stroke-linecap="round" fill="none" /></g><g clip-path="url(#6)"><path id="5" transform="matrix(1 0 0 -1 0 661)" d="M72.125 347.1689L72.125 400.399" stroke="#000000" stroke-width="0.25" stroke-linecap="round" fill="none" /></g><g transform="matrix(0.2400008 0 0 0.2400008 181.0898 265.851)"><g transform="matrix(1 0 0 1 0 0)"><image x="0" y="0" xlink:href="img_287.png" width="593" height="175" /></g></g></g></g></svg>