<svg xmlns="http://www.w3.org/2000/svg" xmlns:xlink="http://www.w3.org/1999/xlink" id="body_259" preserveAspectRatio="xMinYMin meet" viewBox="0 0 672 881"><defs><clipPath id="1"><path id="" clip-rule="evenodd" transform="matrix(1 0 0 1 0 0)" d="M0 661L0 -0.5L0 -0.5L504 -0.5L504 -0.5L504 661L504 661L0 661z" /></clipPath><clipPath id="2"><path id="" clip-rule="evenodd" transform="matrix(1 0 0 1 0 0)" d="M432 606.875L432 608.4173L432 608.4173L72 608.4173L72 608.4173L72 606.875L72 606.875L72 605.3327L72 605.3327L432 605.3327" /></clipPath><clipPath id="3"><path id="" clip-rule="evenodd" transform="matrix(1 0 0 1 0 0)" d="M72.0625 53.625L71.29134 52.0827L71.29134 52.0827L433.2086 52.0827L433.2086 52.0827L432.4375 53.625L432.4375 53.625L431.6664 55.1673L431.6664 55.1673L72.83366 55.1673" /></clipPath><clipPath id="4"><path id="" clip-rule="evenodd" transform="matrix(1 0 0 1 0 0)" d="M432.375 53.5625L433.9173 52.79132L433.9173 52.79132L433.9173 180.8791L433.9173 180.8791L432.375 180.1079L432.375 180.1079L430.8327 179.3367L430.8327 179.3367L430.8327 54.33368" /></clipPath><clipPath id="5"><path id="" clip-rule="evenodd" transform="matrix(1 0 0 1 0 0)" d="M432.4375 180.0454L433.2086 181.5877L433.2086 181.5877L71.29134 181.5877L71.29134 181.5877L72.0625 180.0454L72.0625 180.0454L72.83366 178.5031L72.83366 178.5031L431.6664 178.5031" /></clipPath><clipPath id="6"><path id="" clip-rule="evenodd" transform="matrix(1 0 0 1 0 0)" d="M72.125 180.1079L70.58268 180.8791L70.58268 180.8791L70.58268 52.79132L70.58268 52.79132L72.125 53.5625L72.125 53.5625L73.66732 54.33368L73.66732 54.33368L73.66732 179.3367" /></clipPath></defs><g transform="matrix(1.333333 0 0 1.333333 0 0)"><g clip-path="url(#1)"><g clip-path="url(#2)"><path id="1" transform="matrix(1 0 0 -1 0 661)" d="M432 54.125L72 54.125" stroke="#000000" stroke-width="0.25" stroke-linecap="round" fill="none" /></g><g clip-path="url(#3)"><path id="2" transform="matrix(1 0 0 -1 0 661)" d="M72 607.375L432.5 607.375" stroke="#000000" stroke-width="0.25" stroke-linecap="round" fill="none" /></g><g clip-path="url(#4)"><path id="3" transform="matrix(1 0 0 -1 0 661)" d="M432.375 607.5L432.375 480.8296" stroke="#000000" stroke-width="0.25" stroke-linecap="round" fill="none" /></g><g clip-path="url(#5)"><path id="4" transform="matrix(1 0 0 -1 0 661)" d="M432.5 480.9546L72 480.9546" stroke="#000000" stroke-width="0.25" stroke-linecap="round" fill="none" /></g><g clip-path="url(#6)"><path id="5" transform="matrix(1 0 0 -1 0 661)" d="M72.125 480.8296L72.125 607.5" stroke="#000000" stroke-width="0.25" stroke-linecap="round" fill="none" /></g><g transform="matrix(0.2400008 0 0 0.2400008 202.3298 58.75)"><g transform="matrix(1 0 0 1 0 0)"><image x="0" y="0" xlink:href="img_285.png" width="416" height="481" /></g></g></g></g></svg>