<svg xmlns="http://www.w3.org/2000/svg" xmlns:xlink="http://www.w3.org/1999/xlink" id="body_200" preserveAspectRatio="xMinYMin meet" viewBox="0 0 672 881"><defs><clipPath id="1"><path id="" clip-rule="evenodd" transform="matrix(1 0 0 1 0 0)" d="M0 661L0 -0.5L0 -0.5L504 -0.5L504 -0.5L504 661L504 661L0 661z" /></clipPath><clipPath id="2"><path id="" clip-rule="evenodd" transform="matrix(1 0 0 1 0 0)" d="M432 606.875L432 608.4173L432 608.4173L72 608.4173L72 608.4173L72 606.875L72 606.875L72 605.3327L72 605.3327L432 605.3327" /></clipPath><clipPath id="3"><path id="" clip-rule="evenodd" transform="matrix(1 0 0 1 0 0)" d="M102.0639 418.5598L102.0639 420.1021L102.0639 420.1021L72 420.1021L72 420.1021L72 418.5598L72 418.5598L72 417.0175L72 417.0175L102.0639 417.0175" /></clipPath><clipPath id="4"><path id="" clip-rule="evenodd" transform="matrix(1 0 0 1 0 0)" d="M164.814 418.5598L164.814 420.1021L164.814 420.1021L101.8639 420.1021L101.8639 420.1021L101.8639 418.5598L101.8639 418.5598L101.8639 417.0175L101.8639 417.0175L164.814 417.0175" /></clipPath><clipPath id="5"><path id="" clip-rule="evenodd" transform="matrix(1 0 0 1 0 0)" d="M236.064 418.5598L236.064 420.1021L236.064 420.1021L164.614 420.1021L164.614 420.1021L164.614 418.5598L164.614 418.5598L164.614 417.0175L164.614 417.0175L236.064 417.0175" /></clipPath><clipPath id="6"><path id="" clip-rule="evenodd" transform="matrix(1 0 0 1 0 0)" d="M363.0639 418.5598L363.0639 420.1021L363.0639 420.1021L235.864 420.1021L235.864 420.1021L235.864 418.5598L235.864 418.5598L235.864 417.0175L235.864 417.0175L363.0639 417.0175" /></clipPath><clipPath id="7"><path id="" clip-rule="evenodd" transform="matrix(1 0 0 1 0 0)" d="M102.0639 431.6098L102.0639 433.1521L102.0639 433.1521L72 433.1521L72 433.1521L72 431.6098L72 431.6098L72 430.0675L72 430.0675L102.0639 430.0675" /></clipPath><clipPath id="8"><path id="" clip-rule="evenodd" transform="matrix(1 0 0 1 0 0)" d="M164.814 431.6098L164.814 433.1521L164.814 433.1521L101.8639 433.1521L101.8639 433.1521L101.8639 431.6098L101.8639 431.6098L101.8639 430.0675L101.8639 430.0675L164.814 430.0675" /></clipPath><clipPath id="9"><path id="" clip-rule="evenodd" transform="matrix(1 0 0 1 0 0)" d="M236.064 431.6098L236.064 433.1521L236.064 433.1521L164.614 433.1521L164.614 433.1521L164.614 431.6098L164.614 431.6098L164.614 430.0675L164.614 430.0675L236.064 430.0675" /></clipPath><clipPath id="10"><path id="" clip-rule="evenodd" transform="matrix(1 0 0 1 0 0)" d="M363.0639 431.6098L363.0639 433.1521L363.0639 433.1521L235.864 433.1521L235.864 433.1521L235.864 431.6098L235.864 431.6098L235.864 430.0675L235.864 430.0675L363.0639 430.0675" /></clipPath><clipPath id="11"><path id="" clip-rule="evenodd" transform="matrix(1 0 0 1 0 0)" d="M204.4511 524.9148L204.4511 526.4572L204.4511 526.4572L72 526.4572L72 526.4572L72 524.9148L72 524.9148L72 523.3725L72 523.3725L204.4511 523.3725" /></clipPath><clipPath id="12"><path id="" clip-rule="evenodd" transform="matrix(1 0 0 1 0 0)" d="M267.2012 524.9148L267.2012 526.4572L267.2012 526.4572L204.2511 526.4572L204.2511 526.4572L204.2511 524.9148L204.2511 524.9148L204.2511 523.3725L204.2511 523.3725L267.2012 523.3725" /></clipPath><clipPath id="13"><path id="" clip-rule="evenodd" transform="matrix(1 0 0 1 0 0)" d="M394.2011 524.9148L394.2011 526.4572L394.2011 526.4572L267.0012 526.4572L267.0012 526.4572L267.0012 524.9148L267.0012 524.9148L267.0012 523.3725L267.0012 523.3725L394.2011 523.3725" /></clipPath><clipPath id="14"><path id="" clip-rule="evenodd" transform="matrix(1 0 0 1 0 0)" d="M72 552.408L72 550.7406L72 550.7406L162 550.7406L162 550.7406L162 552.408L162 552.408L162 554.0753L162 554.0753L72 554.0753" /></clipPath></defs><g transform="matrix(1.333333 0 0 1.333333 0 0)"><g clip-path="url(#1)"><g clip-path="url(#2)"><path id="1" transform="matrix(1 0 0 -1 0 661)" d="M432 54.125L72 54.125" stroke="#000000" stroke-width="0.25" stroke-linecap="round" fill="none" /></g><path id="2" transform="matrix(1 0 0 -1 0 661)" d="M72 269.4202L101.9639 269.4202L101.9639 269.4202L101.9639 255.3652L101.9639 255.3652L72 255.3652z" stroke="none" fill="#000000" fill-rule="evenodd" /><path id="3" transform="matrix(1 0 0 -1 0 661)" d="M101.9639 269.4202L164.714 269.4202L164.714 269.4202L164.714 255.3652L164.714 255.3652L101.9639 255.3652z" stroke="none" fill="#000000" fill-rule="evenodd" /><path id="4" transform="matrix(1 0 0 -1 0 661)" d="M164.714 269.4202L235.964 269.4202L235.964 269.4202L235.964 255.3652L235.964 255.3652L164.714 255.3652z" stroke="none" fill="#000000" fill-rule="evenodd" /><path id="5" transform="matrix(1 0 0 -1 0 661)" d="M235.964 269.4202L363.0639 269.4202L363.0639 269.4202L363.0639 255.3652L363.0639 255.3652L235.964 255.3652z" stroke="none" fill="#000000" fill-rule="evenodd" /><g clip-path="url(#3)"><path id="6" transform="matrix(1 0 0 -1 0 661)" d="M102.0639 242.4402L72 242.4402" stroke="#000000" stroke-width="0.25" stroke-linecap="round" fill="none" /></g><g clip-path="url(#4)"><path id="7" transform="matrix(1 0 0 -1 0 661)" d="M164.814 242.4402L101.8639 242.4402" stroke="#000000" stroke-width="0.25" stroke-linecap="round" fill="none" /></g><g clip-path="url(#5)"><path id="8" transform="matrix(1 0 0 -1 0 661)" d="M236.064 242.4402L164.614 242.4402" stroke="#000000" stroke-width="0.25" stroke-linecap="round" fill="none" /></g><g clip-path="url(#6)"><path id="9" transform="matrix(1 0 0 -1 0 661)" d="M363.0639 242.4402L235.864 242.4402" stroke="#000000" stroke-width="0.25" stroke-linecap="round" fill="none" /></g><g clip-path="url(#7)"><path id="10" transform="matrix(1 0 0 -1 0 661)" d="M102.0639 229.3902L72 229.3902" stroke="#000000" stroke-width="0.25" stroke-linecap="round" fill="none" /></g><g clip-path="url(#8)"><path id="11" transform="matrix(1 0 0 -1 0 661)" d="M164.814 229.3902L101.8639 229.3902" stroke="#000000" stroke-width="0.25" stroke-linecap="round" fill="none" /></g><g clip-path="url(#9)"><path id="12" transform="matrix(1 0 0 -1 0 661)" d="M236.064 229.3902L164.614 229.3902" stroke="#000000" stroke-width="0.25" stroke-linecap="round" fill="none" /></g><g clip-path="url(#10)"><path id="13" transform="matrix(1 0 0 -1 0 661)" d="M363.0639 229.3902L235.864 229.3902" stroke="#000000" stroke-width="0.25" stroke-linecap="round" fill="none" /></g><path id="14" transform="matrix(1 0 0 -1 0 661)" d="M72 163.0652L204.3511 163.0652L204.3511 163.0652L204.3511 149.0102L204.3511 149.0102L72 149.0102z" stroke="none" fill="#000000" fill-rule="evenodd" /><path id="15" transform="matrix(1 0 0 -1 0 661)" d="M204.3511 163.0652L267.1012 163.0652L267.1012 163.0652L267.1012 149.0102L267.1012 149.0102L204.3511 149.0102z" stroke="none" fill="#000000" fill-rule="evenodd" /><path id="16" transform="matrix(1 0 0 -1 0 661)" d="M267.1012 163.0652L394.2011 163.0652L394.2011 163.0652L394.2011 149.0102L394.2011 149.0102L267.1012 149.0102z" stroke="none" fill="#000000" fill-rule="evenodd" /><g clip-path="url(#11)"><path id="17" transform="matrix(1 0 0 -1 0 661)" d="M204.4511 136.0852L72 136.0852" stroke="#000000" stroke-width="0.25" stroke-linecap="round" fill="none" /></g><g clip-path="url(#12)"><path id="18" transform="matrix(1 0 0 -1 0 661)" d="M267.2012 136.0852L204.2511 136.0852" stroke="#000000" stroke-width="0.25" stroke-linecap="round" fill="none" /></g><g clip-path="url(#13)"><path id="19" transform="matrix(1 0 0 -1 0 661)" d="M394.2011 136.0852L267.0012 136.0852" stroke="#000000" stroke-width="0.25" stroke-linecap="round" fill="none" /></g><g clip-path="url(#14)"><path id="20" transform="matrix(1 0 0 -1 0 661)" d="M72 108.592L162 108.592" stroke="#000000" stroke-width="0.5" stroke-linecap="round" fill="none" /></g></g></g></svg>