<svg xmlns="http://www.w3.org/2000/svg" xmlns:xlink="http://www.w3.org/1999/xlink" id="body_128" preserveAspectRatio="xMinYMin meet" viewBox="0 0 672 881"><defs><clipPath id="1"><path id="" clip-rule="evenodd" transform="matrix(1 0 0 1 0 0)" d="M0 661L0 -0.5L0 -0.5L504 -0.5L504 -0.5L504 661L504 661L0 661z" /></clipPath><clipPath id="2"><path id="" clip-rule="evenodd" transform="matrix(1 0 0 1 0 0)" d="M432 606.875L432 608.4173L432 608.4173L72 608.4173L72 608.4173L72 606.875L72 606.875L72 605.3327L72 605.3327L432 605.3327" /></clipPath><clipPath id="3"><path id="" clip-rule="evenodd" transform="matrix(1 0 0 1 0 0)" d="M72.0625 310.5491L71.29134 309.0067L71.29134 309.0067L433.2086 309.0067L433.2086 309.0067L432.4375 310.5491L432.4375 310.5491L431.6664 312.0914L431.6664 312.0914L72.83366 312.0914" /></clipPath><clipPath id="4"><path id="" clip-rule="evenodd" transform="matrix(1 0 0 1 0 0)" d="M432.375 310.4866L433.9173 309.7154L433.9173 309.7154L433.9173 534.5234L433.9173 534.5234L432.375 533.7523L432.375 533.7523L430.8327 532.9811L430.8327 532.9811L430.8327 311.2577" /></clipPath><clipPath id="5"><path id="" clip-rule="evenodd" transform="matrix(1 0 0 1 0 0)" d="M432.4375 533.6898L433.2086 535.2321L433.2086 535.2321L71.29134 535.2321L71.29134 535.2321L72.0625 533.6898L72.0625 533.6898L72.83366 532.1475L72.83366 532.1475L431.6664 532.1475" /></clipPath><clipPath id="6"><path id="" clip-rule="evenodd" transform="matrix(1 0 0 1 0 0)" d="M72.125 533.7523L70.58268 534.5234L70.58268 534.5234L70.58268 309.7154L70.58268 309.7154L72.125 310.4866L72.125 310.4866L73.66732 311.2577L73.66732 311.2577L73.66732 532.9811" /></clipPath></defs><g transform="matrix(1.333333 0 0 1.333333 0 0)"><g clip-path="url(#1)"><g clip-path="url(#2)"><path id="1" transform="matrix(1 0 0 -1 0 661)" d="M432 54.125L72 54.125" stroke="#000000" stroke-width="0.25" stroke-linecap="round" fill="none" /></g><g clip-path="url(#3)"><path id="2" transform="matrix(1 0 0 -1 0 661)" d="M72 350.4509L432.5 350.4509" stroke="#000000" stroke-width="0.25" stroke-linecap="round" fill="none" /></g><g clip-path="url(#4)"><path id="3" transform="matrix(1 0 0 -1 0 661)" d="M432.375 350.5759L432.375 127.1852" stroke="#000000" stroke-width="0.25" stroke-linecap="round" fill="none" /></g><g clip-path="url(#5)"><path id="4" transform="matrix(1 0 0 -1 0 661)" d="M432.5 127.3102L72 127.3102" stroke="#000000" stroke-width="0.25" stroke-linecap="round" fill="none" /></g><g clip-path="url(#6)"><path id="5" transform="matrix(1 0 0 -1 0 661)" d="M72.125 127.1852L72.125 350.5759" stroke="#000000" stroke-width="0.25" stroke-linecap="round" fill="none" /></g><g transform="matrix(0.2400008 0 0 0.2400008 131.4096 315.6741)"><g transform="matrix(1 0 0 1 0 0)"><image x="0" y="0" xlink:href="img_139.png" width="1007" height="884" /></g></g></g></g></svg>