<svg xmlns="http://www.w3.org/2000/svg" xmlns:xlink="http://www.w3.org/1999/xlink" id="body_70" preserveAspectRatio="xMinYMin meet" viewBox="0 0 672 881"><defs><clipPath id="1"><path id="" clip-rule="evenodd" transform="matrix(1 0 0 1 0 0)" d="M0 661L0 -0.5L0 -0.5L504 -0.5L504 -0.5L504 661L504 661L0 661z" /></clipPath><clipPath id="2"><path id="" clip-rule="evenodd" transform="matrix(1 0 0 1 0 0)" d="M432 606.875L432 608.4173L432 608.4173L72 608.4173L72 608.4173L72 606.875L72 606.875L72 605.3327L72 605.3327L432 605.3327" /></clipPath><clipPath id="3"><path id="" clip-rule="evenodd" transform="matrix(1 0 0 1 0 0)" d="M120.5949 147.9665L120.5949 149.5088L120.5949 149.5088L72 149.5088L72 149.5088L72 147.9665L72 147.9665L72 146.4242L72 146.4242L120.5949 146.4242" /></clipPath><clipPath id="4"><path id="" clip-rule="evenodd" transform="matrix(1 0 0 1 0 0)" d="M338.2049 147.9665L338.2049 149.5088L338.2049 149.5088L120.3949 149.5088L120.3949 149.5088L120.3949 147.9665L120.3949 147.9665L120.3949 146.4242L120.3949 146.4242L338.2049 146.4242" /></clipPath><clipPath id="5"><path id="" clip-rule="evenodd" transform="matrix(1 0 0 1 0 0)" d="M120.5949 161.2715L120.5949 162.8138L120.5949 162.8138L72 162.8138L72 162.8138L72 161.2715L72 161.2715L72 159.7292L72 159.7292L120.5949 159.7292" /></clipPath><clipPath id="6"><path id="" clip-rule="evenodd" transform="matrix(1 0 0 1 0 0)" d="M338.2049 161.2715L338.2049 162.8138L338.2049 162.8138L120.3949 162.8138L120.3949 162.8138L120.3949 161.2715L120.3949 161.2715L120.3949 159.7292L120.3949 159.7292L338.2049 159.7292" /></clipPath><clipPath id="7"><path id="" clip-rule="evenodd" transform="matrix(1 0 0 1 0 0)" d="M120.5949 174.5765L120.5949 176.1188L120.5949 176.1188L72 176.1188L72 176.1188L72 174.5765L72 174.5765L72 173.0342L72 173.0342L120.5949 173.0342" /></clipPath><clipPath id="8"><path id="" clip-rule="evenodd" transform="matrix(1 0 0 1 0 0)" d="M338.2049 174.5765L338.2049 176.1188L338.2049 176.1188L120.3949 176.1188L120.3949 176.1188L120.3949 174.5765L120.3949 174.5765L120.3949 173.0342L120.3949 173.0342L338.2049 173.0342" /></clipPath><clipPath id="9"><path id="" clip-rule="evenodd" transform="matrix(1 0 0 1 0 0)" d="M120.5949 187.8815L120.5949 189.4238L120.5949 189.4238L72 189.4238L72 189.4238L72 187.8815L72 187.8815L72 186.3392L72 186.3392L120.5949 186.3392" /></clipPath><clipPath id="10"><path id="" clip-rule="evenodd" transform="matrix(1 0 0 1 0 0)" d="M338.2049 187.8815L338.2049 189.4238L338.2049 189.4238L120.3949 189.4238L120.3949 189.4238L120.3949 187.8815L120.3949 187.8815L120.3949 186.3392L120.3949 186.3392L338.2049 186.3392" /></clipPath><clipPath id="11"><path id="" clip-rule="evenodd" transform="matrix(1 0 0 1 0 0)" d="M120.5949 201.1865L120.5949 202.7288L120.5949 202.7288L72 202.7288L72 202.7288L72 201.1865L72 201.1865L72 199.6442L72 199.6442L120.5949 199.6442" /></clipPath><clipPath id="12"><path id="" clip-rule="evenodd" transform="matrix(1 0 0 1 0 0)" d="M338.2049 201.1865L338.2049 202.7288L338.2049 202.7288L120.3949 202.7288L120.3949 202.7288L120.3949 201.1865L120.3949 201.1865L120.3949 199.6442L120.3949 199.6442L338.2049 199.6442" /></clipPath></defs><g transform="matrix(1.333333 0 0 1.333333 0 0)"><g clip-path="url(#1)"><g clip-path="url(#2)"><path id="1" transform="matrix(1 0 0 -1 0 661)" d="M432 54.125L72 54.125" stroke="#000000" stroke-width="0.25" stroke-linecap="round" fill="none" /></g><path id="2" transform="matrix(1 0 0 -1 0 661)" d="M72 540.0135L120.4949 540.0135L120.4949 540.0135L120.4949 526.2135L120.4949 526.2135L72 526.2135z" stroke="none" fill="#000000" fill-rule="evenodd" /><path id="3" transform="matrix(1 0 0 -1 0 661)" d="M120.4949 540.0135L338.2049 540.0135L338.2049 540.0135L338.2049 526.2135L338.2049 526.2135L120.4949 526.2135z" stroke="none" fill="#000000" fill-rule="evenodd" /><g clip-path="url(#3)"><path id="4" transform="matrix(1 0 0 -1 0 661)" d="M120.5949 513.0335L72 513.0335" stroke="#000000" stroke-width="0.25" stroke-linecap="round" fill="none" /></g><g clip-path="url(#4)"><path id="5" transform="matrix(1 0 0 -1 0 661)" d="M338.2049 513.0335L120.3949 513.0335" stroke="#000000" stroke-width="0.25" stroke-linecap="round" fill="none" /></g><g clip-path="url(#5)"><path id="6" transform="matrix(1 0 0 -1 0 661)" d="M120.5949 499.7285L72 499.7285" stroke="#000000" stroke-width="0.25" stroke-linecap="round" fill="none" /></g><g clip-path="url(#6)"><path id="7" transform="matrix(1 0 0 -1 0 661)" d="M338.2049 499.7285L120.3949 499.7285" stroke="#000000" stroke-width="0.25" stroke-linecap="round" fill="none" /></g><g clip-path="url(#7)"><path id="8" transform="matrix(1 0 0 -1 0 661)" d="M120.5949 486.4235L72 486.4235" stroke="#000000" stroke-width="0.25" stroke-linecap="round" fill="none" /></g><g clip-path="url(#8)"><path id="9" transform="matrix(1 0 0 -1 0 661)" d="M338.2049 486.4235L120.3949 486.4235" stroke="#000000" stroke-width="0.25" stroke-linecap="round" fill="none" /></g><g clip-path="url(#9)"><path id="10" transform="matrix(1 0 0 -1 0 661)" d="M120.5949 473.1185L72 473.1185" stroke="#000000" stroke-width="0.25" stroke-linecap="round" fill="none" /></g><g clip-path="url(#10)"><path id="11" transform="matrix(1 0 0 -1 0 661)" d="M338.2049 473.1185L120.3949 473.1185" stroke="#000000" stroke-width="0.25" stroke-linecap="round" fill="none" /></g><g clip-path="url(#11)"><path id="12" transform="matrix(1 0 0 -1 0 661)" d="M120.5949 459.8135L72 459.8135" stroke="#000000" stroke-width="0.25" stroke-linecap="round" fill="none" /></g><g clip-path="url(#12)"><path id="13" transform="matrix(1 0 0 -1 0 661)" d="M338.2049 459.8135L120.3949 459.8135" stroke="#000000" stroke-width="0.25" stroke-linecap="round" fill="none" /></g></g></g></svg>