<svg xmlns="http://www.w3.org/2000/svg" xmlns:xlink="http://www.w3.org/1999/xlink" id="body_262" preserveAspectRatio="xMinYMin meet" viewBox="0 0 672 881"><defs><clipPath id="1"><path id="" clip-rule="evenodd" transform="matrix(1 0 0 1 0 0)" d="M0 661L0 -0.5L0 -0.5L504 -0.5L504 -0.5L504 661L504 661L0 661z" /></clipPath><clipPath id="2"><path id="" clip-rule="evenodd" transform="matrix(1 0 0 1 0 0)" d="M432 606.875L432 608.4173L432 608.4173L72 608.4173L72 608.4173L72 606.875L72 606.875L72 605.3327L72 605.3327L432 605.3327" /></clipPath><clipPath id="3"><path id="" clip-rule="evenodd" transform="matrix(1 0 0 1 0 0)" d="M72.0625 183.517L71.29134 181.9747L71.29134 181.9747L433.2086 181.9747L433.2086 181.9747L432.4375 183.517L432.4375 183.517L431.6664 185.0593L431.6664 185.0593L72.83366 185.0593" /></clipPath><clipPath id="4"><path id="" clip-rule="evenodd" transform="matrix(1 0 0 1 0 0)" d="M432.375 183.4545L433.9173 182.6833L433.9173 182.6833L433.9173 280.291L433.9173 280.291L432.375 279.5198L432.375 279.5198L430.8327 278.7486L430.8327 278.7486L430.8327 184.2256" /></clipPath><clipPath id="5"><path id="" clip-rule="evenodd" transform="matrix(1 0 0 1 0 0)" d="M432.4375 279.4573L433.2086 280.9996L433.2086 280.9996L71.29134 280.9996L71.29134 280.9996L72.0625 279.4573L72.0625 279.4573L72.83366 277.915L72.83366 277.915L431.6664 277.915" /></clipPath><clipPath id="6"><path id="" clip-rule="evenodd" transform="matrix(1 0 0 1 0 0)" d="M72.125 279.5198L70.58268 280.291L70.58268 280.291L70.58268 182.6833L70.58268 182.6833L72.125 183.4545L72.125 183.4545L73.66732 184.2256L73.66732 184.2256L73.66732 278.7486" /></clipPath></defs><g transform="matrix(1.333333 0 0 1.333333 0 0)"><g clip-path="url(#1)"><g clip-path="url(#2)"><path id="1" transform="matrix(1 0 0 -1 0 661)" d="M432 54.125L72 54.125" stroke="#000000" stroke-width="0.25" stroke-linecap="round" fill="none" /></g><g clip-path="url(#3)"><path id="2" transform="matrix(1 0 0 -1 0 661)" d="M72 477.483L432.5 477.483" stroke="#000000" stroke-width="0.25" stroke-linecap="round" fill="none" /></g><g clip-path="url(#4)"><path id="3" transform="matrix(1 0 0 -1 0 661)" d="M432.375 477.608L432.375 381.4177" stroke="#000000" stroke-width="0.25" stroke-linecap="round" fill="none" /></g><g clip-path="url(#5)"><path id="4" transform="matrix(1 0 0 -1 0 661)" d="M432.5 381.5427L72 381.5427" stroke="#000000" stroke-width="0.25" stroke-linecap="round" fill="none" /></g><g clip-path="url(#6)"><path id="5" transform="matrix(1 0 0 -1 0 661)" d="M72.125 381.4177L72.125 477.608" stroke="#000000" stroke-width="0.25" stroke-linecap="round" fill="none" /></g><g transform="matrix(0.2400008 0 0 0.2400008 180.4898 188.642)"><g transform="matrix(1 0 0 1 0 0)"><image x="0" y="0" xlink:href="img_292.png" width="598" height="354" /></g></g></g></g></svg>