<svg xmlns="http://www.w3.org/2000/svg" xmlns:xlink="http://www.w3.org/1999/xlink" id="body_261" preserveAspectRatio="xMinYMin meet" viewBox="0 0 672 881"><defs><clipPath id="1"><path id="" clip-rule="evenodd" transform="matrix(1 0 0 1 0 0)" d="M0 661L0 -0.5L0 -0.5L504 -0.5L504 -0.5L504 661L504 661L0 661z" /></clipPath><clipPath id="2"><path id="" clip-rule="evenodd" transform="matrix(1 0 0 1 0 0)" d="M432 606.875L432 608.4173L432 608.4173L72 608.4173L72 608.4173L72 606.875L72 606.875L72 605.3327L72 605.3327L432 605.3327" /></clipPath><clipPath id="3"><path id="" clip-rule="evenodd" transform="matrix(1 0 0 1 0 0)" d="M72.0625 164.917L71.29134 163.3747L71.29134 163.3747L433.2086 163.3747L433.2086 163.3747L432.4375 164.917L432.4375 164.917L431.6664 166.4593L431.6664 166.4593L72.83366 166.4593" /></clipPath><clipPath id="4"><path id="" clip-rule="evenodd" transform="matrix(1 0 0 1 0 0)" d="M432.375 164.8545L433.9173 164.0833L433.9173 164.0833L433.9173 218.7308L433.9173 218.7308L432.375 217.9597L432.375 217.9597L430.8327 217.1885L430.8327 217.1885L430.8327 165.6257" /></clipPath><clipPath id="5"><path id="" clip-rule="evenodd" transform="matrix(1 0 0 1 0 0)" d="M432.4375 217.8972L433.2086 219.4395L433.2086 219.4395L71.29134 219.4395L71.29134 219.4395L72.0625 217.8972L72.0625 217.8972L72.83366 216.3548L72.83366 216.3548L431.6664 216.3548" /></clipPath><clipPath id="6"><path id="" clip-rule="evenodd" transform="matrix(1 0 0 1 0 0)" d="M72.125 217.9597L70.58268 218.7308L70.58268 218.7308L70.58268 164.0833L70.58268 164.0833L72.125 164.8545L72.125 164.8545L73.66732 165.6257L73.66732 165.6257L73.66732 217.1885" /></clipPath><clipPath id="7"><path id="" clip-rule="evenodd" transform="matrix(1 0 0 1 0 0)" d="M72.0625 426.6392L71.29134 425.0969L71.29134 425.0969L433.2086 425.0969L433.2086 425.0969L432.4375 426.6392L432.4375 426.6392L431.6664 428.1815L431.6664 428.1815L72.83366 428.1815" /></clipPath><clipPath id="8"><path id="" clip-rule="evenodd" transform="matrix(1 0 0 1 0 0)" d="M432.375 426.5767L433.9173 425.8055L433.9173 425.8055L433.9173 533.4932L433.9173 533.4932L432.375 532.722L432.375 532.722L430.8327 531.9509L430.8327 531.9509L430.8327 427.3478" /></clipPath><clipPath id="9"><path id="" clip-rule="evenodd" transform="matrix(1 0 0 1 0 0)" d="M432.4375 532.6595L433.2086 534.2018L433.2086 534.2018L71.29134 534.2018L71.29134 534.2018L72.0625 532.6595L72.0625 532.6595L72.83366 531.1172L72.83366 531.1172L431.6664 531.1172" /></clipPath><clipPath id="10"><path id="" clip-rule="evenodd" transform="matrix(1 0 0 1 0 0)" d="M72.125 532.722L70.58268 533.4932L70.58268 533.4932L70.58268 425.8055L70.58268 425.8055L72.125 426.5767L72.125 426.5767L73.66732 427.3478L73.66732 427.3478L73.66732 531.9509" /></clipPath></defs><g transform="matrix(1.333333 0 0 1.333333 0 0)"><g clip-path="url(#1)"><g clip-path="url(#2)"><path id="1" transform="matrix(1 0 0 -1 0 661)" d="M432 54.125L72 54.125" stroke="#000000" stroke-width="0.25" stroke-linecap="round" fill="none" /></g><g clip-path="url(#3)"><path id="2" transform="matrix(1 0 0 -1 0 661)" d="M72 496.083L432.5 496.083" stroke="#000000" stroke-width="0.25" stroke-linecap="round" fill="none" /></g><g clip-path="url(#4)"><path id="3" transform="matrix(1 0 0 -1 0 661)" d="M432.375 496.208L432.375 442.9778" stroke="#000000" stroke-width="0.25" stroke-linecap="round" fill="none" /></g><g clip-path="url(#5)"><path id="4" transform="matrix(1 0 0 -1 0 661)" d="M432.5 443.1028L72 443.1028" stroke="#000000" stroke-width="0.25" stroke-linecap="round" fill="none" /></g><g clip-path="url(#6)"><path id="5" transform="matrix(1 0 0 -1 0 661)" d="M72.125 442.9778L72.125 496.208" stroke="#000000" stroke-width="0.25" stroke-linecap="round" fill="none" /></g><g clip-path="url(#7)"><path id="6" transform="matrix(1 0 0 -1 0 661)" d="M72 234.3608L432.5 234.3608" stroke="#000000" stroke-width="0.25" stroke-linecap="round" fill="none" /></g><g clip-path="url(#8)"><path id="7" transform="matrix(1 0 0 -1 0 661)" d="M432.375 234.4858L432.375 128.2155" stroke="#000000" stroke-width="0.25" stroke-linecap="round" fill="none" /></g><g clip-path="url(#9)"><path id="8" transform="matrix(1 0 0 -1 0 661)" d="M432.5 128.3405L72 128.3405" stroke="#000000" stroke-width="0.25" stroke-linecap="round" fill="none" /></g><g clip-path="url(#10)"><path id="9" transform="matrix(1 0 0 -1 0 661)" d="M72.125 128.2155L72.125 234.4858" stroke="#000000" stroke-width="0.25" stroke-linecap="round" fill="none" /></g><g transform="matrix(0.2400008 0 0 0.2400008 180.6098 170.042)"><g transform="matrix(1 0 0 1 0 0)"><image x="0" y="0" xlink:href="img_289.png" width="597" height="175" /></g></g><g transform="matrix(0.2400008 0 0 0.2400008 180.0098 431.7642)"><g transform="matrix(1 0 0 1 0 0)"><image x="0" y="0" xlink:href="img_290.png" width="602" height="396" /></g></g></g></g></svg>