<svg xmlns="http://www.w3.org/2000/svg" xmlns:xlink="http://www.w3.org/1999/xlink" id="body_187" preserveAspectRatio="xMinYMin meet" viewBox="0 0 672 881"><defs><clipPath id="1"><path id="" clip-rule="evenodd" transform="matrix(1 0 0 1 0 0)" d="M0 661L0 -0.5L0 -0.5L504 -0.5L504 -0.5L504 661L504 661L0 661z" /></clipPath><clipPath id="2"><path id="" clip-rule="evenodd" transform="matrix(1 0 0 1 0 0)" d="M432 606.875L432 608.4173L432 608.4173L72 608.4173L72 608.4173L72 606.875L72 606.875L72 605.3327L72 605.3327L432 605.3327" /></clipPath><clipPath id="3"><path id="" clip-rule="evenodd" transform="matrix(1 0 0 1 0 0)" d="M72.0625 97.42499L71.29134 95.88269L71.29134 95.88269L433.2086 95.88269L433.2086 95.88269L432.4375 97.42499L432.4375 97.42499L431.6664 98.96735L431.6664 98.96735L72.83366 98.96735" /></clipPath><clipPath id="4"><path id="" clip-rule="evenodd" transform="matrix(1 0 0 1 0 0)" d="M432.375 97.36249L433.9173 96.59131L433.9173 96.59131L433.9173 322.8394L433.9173 322.8394L432.375 322.0682L432.375 322.0682L430.8327 321.2971L430.8327 321.2971L430.8327 98.13367" /></clipPath><clipPath id="5"><path id="" clip-rule="evenodd" transform="matrix(1 0 0 1 0 0)" d="M432.4375 322.0057L433.2086 323.5481L433.2086 323.5481L71.29134 323.5481L71.29134 323.5481L72.0625 322.0057L72.0625 322.0057L72.83366 320.4634L72.83366 320.4634L431.6664 320.4634" /></clipPath><clipPath id="6"><path id="" clip-rule="evenodd" transform="matrix(1 0 0 1 0 0)" d="M72.125 322.0682L70.58268 322.8394L70.58268 322.8394L70.58268 96.59131L70.58268 96.59131L72.125 97.36249L72.125 97.36249L73.66732 98.13367L73.66732 98.13367L73.66732 321.2971" /></clipPath></defs><g transform="matrix(1.333333 0 0 1.333333 0 0)"><g clip-path="url(#1)"><g clip-path="url(#2)"><path id="1" transform="matrix(1 0 0 -1 0 661)" d="M432 54.125L72 54.125" stroke="#000000" stroke-width="0.25" stroke-linecap="round" fill="none" /></g><g clip-path="url(#3)"><path id="2" transform="matrix(1 0 0 -1 0 661)" d="M72 563.575L432.5 563.575" stroke="#000000" stroke-width="0.25" stroke-linecap="round" fill="none" /></g><g clip-path="url(#4)"><path id="3" transform="matrix(1 0 0 -1 0 661)" d="M432.375 563.7L432.375 338.8693" stroke="#000000" stroke-width="0.25" stroke-linecap="round" fill="none" /></g><g clip-path="url(#5)"><path id="4" transform="matrix(1 0 0 -1 0 661)" d="M432.5 338.9943L72 338.9943" stroke="#000000" stroke-width="0.25" stroke-linecap="round" fill="none" /></g><g clip-path="url(#6)"><path id="5" transform="matrix(1 0 0 -1 0 661)" d="M72.125 338.8693L72.125 563.7" stroke="#000000" stroke-width="0.25" stroke-linecap="round" fill="none" /></g><g transform="matrix(0.2400008 0 0 0.2400008 82.92943 102.55)"><g transform="matrix(1 0 0 1 0 0)"><image x="0" y="0" xlink:href="img_201.png" width="1411" height="890" /></g></g></g></g></svg>