<svg xmlns="http://www.w3.org/2000/svg" xmlns:xlink="http://www.w3.org/1999/xlink" id="body_175" preserveAspectRatio="xMinYMin meet" viewBox="0 0 672 881"><defs><clipPath id="1"><path id="" clip-rule="evenodd" transform="matrix(1 0 0 1 0 0)" d="M0 661L0 -0.5L0 -0.5L504 -0.5L504 -0.5L504 661L504 661L0 661z" /></clipPath><clipPath id="2"><path id="" clip-rule="evenodd" transform="matrix(1 0 0 1 0 0)" d="M432 606.875L432 608.4173L432 608.4173L72 608.4173L72 608.4173L72 606.875L72 606.875L72 605.3327L72 605.3327L432 605.3327" /></clipPath><clipPath id="3"><path id="" clip-rule="evenodd" transform="matrix(1 0 0 1 0 0)" d="M72.0625 53.625L71.29134 52.0827L71.29134 52.0827L433.2086 52.0827L433.2086 52.0827L432.4375 53.625L432.4375 53.625L431.6664 55.1673L431.6664 55.1673L72.83366 55.1673" /></clipPath><clipPath id="4"><path id="" clip-rule="evenodd" transform="matrix(1 0 0 1 0 0)" d="M432.375 53.5625L433.9173 52.79132L433.9173 52.79132L433.9173 280.4794L433.9173 280.4794L432.375 279.7082L432.375 279.7082L430.8327 278.9371L430.8327 278.9371L430.8327 54.33368" /></clipPath><clipPath id="5"><path id="" clip-rule="evenodd" transform="matrix(1 0 0 1 0 0)" d="M432.4375 279.6457L433.2086 281.188L433.2086 281.188L71.29134 281.188L71.29134 281.188L72.0625 279.6457L72.0625 279.6457L72.83366 278.1034L72.83366 278.1034L431.6664 278.1034" /></clipPath><clipPath id="6"><path id="" clip-rule="evenodd" transform="matrix(1 0 0 1 0 0)" d="M72.125 279.7082L70.58268 280.4794L70.58268 280.4794L70.58268 52.79132L70.58268 52.79132L72.125 53.5625L72.125 53.5625L73.66732 54.33368L73.66732 54.33368L73.66732 278.9371" /></clipPath><clipPath id="7"><path id="" clip-rule="evenodd" transform="matrix(1 0 0 1 0 0)" d="M72 553.1L72 551.4326L72 551.4326L162 551.4326L162 551.4326L162 553.1L162 553.1L162 554.7673L162 554.7673L72 554.7673" /></clipPath></defs><g transform="matrix(1.333333 0 0 1.333333 0 0)"><g clip-path="url(#1)"><g clip-path="url(#2)"><path id="1" transform="matrix(1 0 0 -1 0 661)" d="M432 54.125L72 54.125" stroke="#000000" stroke-width="0.25" stroke-linecap="round" fill="none" /></g><g clip-path="url(#3)"><path id="2" transform="matrix(1 0 0 -1 0 661)" d="M72 607.375L432.5 607.375" stroke="#000000" stroke-width="0.25" stroke-linecap="round" fill="none" /></g><g clip-path="url(#4)"><path id="3" transform="matrix(1 0 0 -1 0 661)" d="M432.375 607.5L432.375 381.2293" stroke="#000000" stroke-width="0.25" stroke-linecap="round" fill="none" /></g><g clip-path="url(#5)"><path id="4" transform="matrix(1 0 0 -1 0 661)" d="M432.5 381.3543L72 381.3543" stroke="#000000" stroke-width="0.25" stroke-linecap="round" fill="none" /></g><g clip-path="url(#6)"><path id="5" transform="matrix(1 0 0 -1 0 661)" d="M72.125 381.2293L72.125 607.5" stroke="#000000" stroke-width="0.25" stroke-linecap="round" fill="none" /></g><g clip-path="url(#7)"><path id="6" transform="matrix(1 0 0 -1 0 661)" d="M72 107.9L162 107.9" stroke="#000000" stroke-width="0.5" stroke-linecap="round" fill="none" /></g><g transform="matrix(0.2400008 0 0 0.2400008 82.92943 58.75)"><g transform="matrix(1 0 0 1 0 0)"><image x="0" y="0" xlink:href="img_188.png" width="1411" height="896" /></g></g></g></g></svg>