<svg xmlns="http://www.w3.org/2000/svg" xmlns:xlink="http://www.w3.org/1999/xlink" id="body_34" preserveAspectRatio="xMinYMin meet" viewBox="0 0 672 881"><defs><clipPath id="1"><path id="" clip-rule="evenodd" transform="matrix(1 0 0 1 0 0)" d="M0 661L0 -0.5L0 -0.5L504 -0.5L504 -0.5L504 661L504 661L0 661z" /></clipPath><clipPath id="2"><path id="" clip-rule="evenodd" transform="matrix(1 0 0 1 0 0)" d="M432 606.875L432 608.4173L432 608.4173L72 608.4173L72 608.4173L72 606.875L72 606.875L72 605.3327L72 605.3327L432 605.3327" /></clipPath><clipPath id="3"><path id="" clip-rule="evenodd" transform="matrix(1 0 0 1 0 0)" d="M72.0625 262.6052L71.29134 261.0629L71.29134 261.0629L433.2086 261.0629L433.2086 261.0629L432.4375 262.6052L432.4375 262.6052L431.6664 264.1475L431.6664 264.1475L72.83366 264.1475" /></clipPath><clipPath id="4"><path id="" clip-rule="evenodd" transform="matrix(1 0 0 1 0 0)" d="M432.375 262.5427L433.9173 261.7715L433.9173 261.7715L433.9173 357.2191L433.9173 357.2191L432.375 356.448L432.375 356.448L430.8327 355.6768L430.8327 355.6768L430.8327 263.3138" /></clipPath><clipPath id="5"><path id="" clip-rule="evenodd" transform="matrix(1 0 0 1 0 0)" d="M432.4375 356.3855L433.2086 357.9278L433.2086 357.9278L71.29134 357.9278L71.29134 357.9278L72.0625 356.3855L72.0625 356.3855L72.83366 354.8431L72.83366 354.8431L431.6664 354.8431" /></clipPath><clipPath id="6"><path id="" clip-rule="evenodd" transform="matrix(1 0 0 1 0 0)" d="M72.125 356.448L70.58268 357.2191L70.58268 357.2191L70.58268 261.7715L70.58268 261.7715L72.125 262.5427L72.125 262.5427L73.66732 263.3138L73.66732 263.3138L73.66732 355.6768" /></clipPath><clipPath id="7"><path id="" clip-rule="evenodd" transform="matrix(1 0 0 1 0 0)" d="M72 563.1L72 561.4326L72 561.4326L162 561.4326L162 561.4326L162 563.1L162 563.1L162 564.7673L162 564.7673L72 564.7673" /></clipPath></defs><g transform="matrix(1.333333 0 0 1.333333 0 0)"><g clip-path="url(#1)"><g clip-path="url(#2)"><path id="1" transform="matrix(1 0 0 -1 0 661)" d="M432 54.125L72 54.125" stroke="#000000" stroke-width="0.25" stroke-linecap="round" fill="none" /></g><g clip-path="url(#3)"><path id="2" transform="matrix(1 0 0 -1 0 661)" d="M72 398.3948L432.5 398.3948" stroke="#000000" stroke-width="0.25" stroke-linecap="round" fill="none" /></g><g clip-path="url(#4)"><path id="3" transform="matrix(1 0 0 -1 0 661)" d="M432.375 398.5198L432.375 304.4895" stroke="#000000" stroke-width="0.25" stroke-linecap="round" fill="none" /></g><g clip-path="url(#5)"><path id="4" transform="matrix(1 0 0 -1 0 661)" d="M432.5 304.6145L72 304.6145" stroke="#000000" stroke-width="0.25" stroke-linecap="round" fill="none" /></g><g clip-path="url(#6)"><path id="5" transform="matrix(1 0 0 -1 0 661)" d="M72.125 304.4895L72.125 398.5198" stroke="#000000" stroke-width="0.25" stroke-linecap="round" fill="none" /></g><g clip-path="url(#7)"><path id="6" transform="matrix(1 0 0 -1 0 661)" d="M72 97.90002L162 97.90002" stroke="#000000" stroke-width="0.5" stroke-linecap="round" fill="none" /></g><g transform="matrix(0.2400008 0 0 0.2400008 181.0898 267.7302)"><g transform="matrix(1 0 0 1 0 0)"><image x="0" y="0" xlink:href="img_43.png" width="593" height="345" /></g></g></g></g></svg>