<svg xmlns="http://www.w3.org/2000/svg" xmlns:xlink="http://www.w3.org/1999/xlink" id="body_1" preserveAspectRatio="xMinYMin meet" viewBox="0 0 672 881"><defs><clipPath id="1"><path id="" clip-rule="evenodd" transform="matrix(1 0 0 1 0 0)" d="M0 661L0 -0.4639893L0 -0.4639893L504 -0.4639893L504 -0.4639893L504 661L504 661L0 661z" /></clipPath><clipPath id="2"><path id="" clip-rule="evenodd" transform="matrix(1 0 0 1 0 0)" d="M0 661L504 661L504 661L504 -0.4639893L504 -0.4639893L0 -0.4639893z" /></clipPath><clipPath id="3"><path id="" clip-rule="evenodd" transform="matrix(1 0 0 1 0 0)" d="M0 661L504 661L504 661L504 -0.4639893L504 -0.4639893L0 -0.4639893z" /></clipPath><mask id="m1"><clipPath id="4"><path id="" clip-rule="evenodd" transform="matrix(1 0 0 1 0 0)" d="M499.661 316.473L748.421 316.473L748.421 316.473L748.421 565.5927L748.421 565.5927L499.661 565.5927z" /></clipPath><g><g><g clip-path="url(#4)"><g transform="matrix(0.36 0 0 0.36 499.6608 316.4727)"><g transform="matrix(1 0 0 1 0 0)"><image x="0" y="0" xlink:href="img_01.png" width="691" height="692" /></g></g></g></g></g></mask><clipPath id="5"><path id="" clip-rule="evenodd" transform="matrix(1 0 0 1 0 0)" d="M507.221 361.473L703.421 361.473L703.421 361.473L703.421 557.673L703.421 557.673L507.221 557.673z" /></clipPath><mask id="m2"><clipPath id="6"><path id="" clip-rule="evenodd" transform="matrix(1 0 0 1 0 0)" d="M327.589 -58.69202L576.349 -58.69202L576.349 -58.69202L576.349 190.428L576.349 190.428L327.589 190.428z" /></clipPath><g><g><g clip-path="url(#6)"><g transform="matrix(0.36 0 0 0.36 327.5893 -58.69232)"><g transform="matrix(1 0 0 1 0 0)"><image x="0" y="0" xlink:href="img_02.png" width="691" height="692" /></g></g></g></g></g></mask><clipPath id="7"><path id="" clip-rule="evenodd" transform="matrix(1 0 0 1 0 0)" d="M335.149 -13.69202L531.349 -13.69202L531.349 -13.69202L531.349 182.508L531.349 182.508L335.149 182.508z" /></clipPath><clipPath id="8"><path id="" clip-rule="evenodd" transform="matrix(1 0 0 1 0 0)" d="M0 661L406.288 661L406.288 661L420.895 242.73L420.895 242.73L0 228.033z" /></clipPath><clipPath id="9"><path id="" clip-rule="evenodd" transform="matrix(1 0 0 1 0 0)" d="M0 661L504 661L504 661L504 -0.4639893L504 -0.4639893L0 -0.4639893z" /></clipPath></defs><g transform="matrix(1.333333 0 0 1.333333 0 0)"><g clip-path="url(#1)"><path id="46" transform="matrix(1 0 0 -1 0 661)" d="M98.4343 620.6977L98.4343 624.2837L83.4763 624.2837L83.4763 602.7667L98.4343 602.7667L98.4343 606.3547L87.0623 606.3547L87.0623 611.7327L97.88631 611.7327L97.88631 615.3187L87.0623 615.3187L87.0623 620.6977z" stroke="none" fill="#E51736" fill-rule="nonzero" /><path id="47" transform="matrix(1 0 0 -1 0 661)" d="M109.5333 602.7664L109.5333 624.2824L113.1193 624.2824L113.1193 606.3544L123.4653 606.3544L123.4653 602.7664z" stroke="none" fill="#E51736" fill-rule="nonzero" /><path id="48" transform="matrix(1 0 0 -1 0 661)" d="M126.3886 602.7664L126.3886 624.2824L129.9746 624.2824L129.9746 606.3544L140.3206 606.3544L140.3206 602.7664z" stroke="none" fill="#E51736" fill-rule="nonzero" /><path id="49" transform="matrix(1 0 0 -1 0 661)" d="M102.198 624.283L105.783 624.283L105.783 602.767L102.198 602.767z" stroke="none" fill="#E51736" fill-rule="nonzero" /><g clip-path="url(#2)"><path id="50" transform="matrix(1 0 0 -1 0 661)" d="M32.882 613.4257C 32.882 619.6167 37.898 624.6317 44.09 624.6347C 50.279 624.6317 55.293 619.6167 55.295 613.4257C 55.293 607.2377 50.279 602.2207 44.09 602.2197C 37.898 602.2207 32.882 607.2377 32.882 613.4257M38.699 618.8167C 37.319 617.4297 36.469 615.5367 36.468 613.4257C 36.469 611.3157 37.319 609.4237 38.699 608.0387C 40.084 606.6577 41.979 605.8057 44.09 605.8057C 46.199 605.8057 48.092 606.6577 49.477 608.0387C 50.859 609.4237 51.708 611.3157 51.708 613.4257C 51.708 615.5367 50.859 617.4297 49.477 618.8167C 48.092 620.1967 46.199 621.0447 44.09 621.0457C 41.979 621.0447 40.084 620.1967 38.699 618.8167" stroke="none" fill="#E51736" fill-rule="nonzero" /><path id="51" transform="matrix(1 0 0 -1 0 661)" d="M75.4028 611.9975C 77.9898 612.7755 79.8788 615.1675 79.8798 618.0085C 79.8788 621.4745 77.0698 624.2815 73.6028 624.2825L73.6028 624.2825L62.7928 624.2825L62.7928 624.2825L62.7928 602.7665L62.7928 602.7665L66.3788 602.7665L66.3788 602.7665L66.3788 611.7315L66.3788 611.7315L71.3748 611.7315L71.3748 611.7315L76.7838 602.7665L76.7838 602.7665L80.9668 602.7665zM66.3788 615.3185L66.3788 620.6975L66.3788 620.6975L73.6028 620.6975C 75.0878 620.6965 76.2918 619.4945 76.2928 618.0085C 76.2918 616.5245 75.0878 615.3215 73.6028 615.3185z" stroke="none" fill="#E51736" fill-rule="nonzero" /><path id="52" transform="matrix(1 0 0 -1 0 661)" d="M60.2515 621.9925C 60.2515 620.5365 59.0695 619.3525 57.6125 619.3525C 56.1535 619.3525 54.9725 620.5365 54.9725 621.9925C 54.9725 623.4515 56.1535 624.6345 57.6125 624.6345C 59.0695 624.6345 60.2515 623.4515 60.2515 621.9925" stroke="none" fill="#E51736" fill-rule="nonzero" /></g><path id="53" transform="matrix(1 0 0 -1 0 661)" d="M156.3072 624.2825L151.9492 624.2825L146.4302 616.2945L140.9102 624.2825L136.5522 624.2825L144.6332 612.5845L144.6332 602.7665L148.2202 602.7665L148.2202 612.5765z" stroke="none" fill="#E51736" fill-rule="nonzero" /><g clip-path="url(#3)"><path id="54" transform="matrix(1 0 0 -1 0 661)" d="M161.5464 624.7753C 159.9954 624.7753 158.7374 623.5193 158.7374 621.9673C 158.7374 620.4183 159.9954 619.1613 161.5464 619.1613C 163.0954 619.1613 164.3524 620.4183 164.3524 621.9673C 164.3524 623.5193 163.0954 624.7753 161.5464 624.7753M161.5464 619.6103C 160.2434 619.6103 159.1884 620.6673 159.1884 621.9673C 159.1884 623.2723 160.2434 624.3283 161.5464 624.3283C 162.8454 624.3283 163.9034 623.2723 163.9034 621.9673C 163.9034 620.6673 162.8454 619.6103 161.5464 619.6103" stroke="none" fill="#E51736" fill-rule="nonzero" /><path id="55" transform="matrix(1 0 0 -1 0 661)" d="M162.8052 622.5843C 162.8052 623.0483 162.4342 623.4203 161.9732 623.4203L161.9732 623.4203L160.3912 623.4203L160.3912 623.4203L160.3912 620.5603L160.3912 620.5603L160.8672 620.5603L160.8672 620.5603L160.8672 621.7513L160.8672 621.7513L161.6682 621.7513L161.6682 621.7513L162.2412 620.5603L162.2412 620.5603L162.7712 620.5603L162.7712 620.5603L162.1842 621.7793C 162.5442 621.8733 162.8052 622.1973 162.8052 622.5843M160.8672 622.9433L161.9732 622.9433C 162.1712 622.9433 162.3282 622.7823 162.3302 622.5843C 162.3282 622.3863 162.1712 622.2273 161.9732 622.2273L161.9732 622.2273L160.8672 622.2273z" stroke="none" fill="#E51736" fill-rule="nonzero" /><g mask="url(#m1)"><g><g clip-path="url(#5)"></g></g></g><g mask="url(#m2)"><g><g clip-path="url(#7)"><path id="59" transform="matrix(1 0 0 -1 0 661)" d="M335.149 674.692L531.349 674.692L531.349 478.492L335.149 478.492z" stroke="none" fill="#221E1F" fill-rule="nonzero" fill-opacity="0.1960784" /></g></g></g></g><path id="60" transform="matrix(1 0 0 -1 0 661)" d="M349.9281 661.464L504.0001 507.392L504.0001 592.76L435.2961 661.464z" stroke="none" fill="#FFFFFF" fill-rule="nonzero" /><path id="61" transform="matrix(1 0 0 -1 0 661)" d="M447.9865 624.4735L449.3865 625.8735L449.3865 625.8735L444.1681 631.092L444.1681 631.092L435.2586 622.1825L435.2586 622.1825L436.7223 620.7188L436.7223 620.7188L440.337 624.3335L440.337 624.3335L443.9644 620.7061L443.9644 620.7061L445.3645 622.1061L445.3645 622.1061L441.7371 625.7336L441.7371 625.7336L444.2318 628.2282z" stroke="none" fill="#221E1F" fill-rule="evenodd" /><path id="62" transform="matrix(1 0 0 -1 0 661)" d="M444.6009 612.5093C 446.4676 610.6425 449.4247 610.6128 451.3084 612.4965C 453.1922 614.3802 453.1625 617.3374 451.2957 619.2042C 449.429 621.0709 446.4719 621.1006 444.5881 619.2169C 442.7044 617.3331 442.7341 614.376 444.6009 612.5093zM445.9373 613.8457C 444.8172 614.9658 444.7918 616.6713 445.9627 617.8423C 447.1167 618.9963 448.8392 618.9878 449.9593 617.8677C 451.0793 616.7477 451.0878 615.0251 449.9338 613.8712C 448.7629 612.7002 447.0573 612.7256 445.9373 613.8457z" stroke="none" fill="#221E1F" fill-rule="evenodd" /><path id="63" transform="matrix(1 0 0 -1 0 661)" d="M460.0271 610.1419L456.616 606.7308C 455.3093 605.4241 454.0662 605.615 453.1667 606.5144C 452.3012 607.3799 452.2503 608.4491 453.2176 609.4164L453.2176 609.4164L456.9851 613.1838L456.9851 613.1838L455.6105 614.5585L455.6105 614.5585L451.703 610.651C 450.0399 608.9879 450.0993 607.0108 451.5248 605.5853C 452.3903 604.7198 453.3916 604.3549 454.4777 604.5925L454.4777 604.5925L453.6631 603.778L453.6631 603.778L455.0377 602.4033L455.0377 602.4033L461.4017 608.7673z" stroke="none" fill="#221E1F" fill-rule="evenodd" /><path id="64" transform="matrix(1 0 0 -1 0 661)" d="M463.3109 604.7198L464.38 605.7889L464.38 605.7889L463.0054 607.1636L463.0054 607.1636L456.6414 600.7996L456.6414 600.7996L458.0161 599.425L458.0161 599.425L461.2235 602.6324C 462.649 604.0579 464.1 603.4216 464.9655 602.4542L464.9655 602.4542L466.4547 603.9434C 465.6401 604.758 464.5497 605.2119 463.3109 604.7198z" stroke="none" fill="#221E1F" fill-rule="evenodd" /><path id="65" transform="matrix(1 0 0 -1 0 661)" d="M469.7512 597.7704L471.0749 599.0941L471.0749 599.0941L469.4966 600.6724L469.4966 600.6724L471.2785 602.4542L471.2785 602.4542L469.4966 603.4216L469.4966 603.4216L468.122 602.0469L468.122 602.0469L466.951 603.2179L466.951 603.2179L465.6273 601.8942L465.6273 601.8942L466.7983 600.7233L466.7983 600.7233L463.7436 597.6686C 462.0805 596.0054 462.3351 594.5969 464.7109 592.7301L464.7109 592.7301L465.9455 593.9647C 464.8424 594.966 464.3036 595.4794 465.1182 596.2939L465.1182 596.2939L468.1729 599.3486z" stroke="none" fill="#221E1F" fill-rule="evenodd" /><path id="66" transform="matrix(1 0 0 -1 0 661)" d="M475.8351 594.6648C 474.9696 595.5303 473.9514 595.9121 472.8822 595.6575L472.8822 595.6575L476.2424 599.0177L476.2424 599.0177L474.8678 600.3923L474.8678 600.3923L465.9583 591.4828L465.9583 591.4828L467.3329 590.1082L467.3329 590.1082L470.744 593.5193C 472.0337 594.809 473.2768 594.652 474.1932 593.7357C 475.0587 592.8702 475.1096 591.801 474.1423 590.8337L474.1423 590.8337L470.3748 587.0662L470.3748 587.0662L471.7495 585.6916L471.7495 585.6916L475.6569 589.5991C 477.3031 591.2452 477.2606 593.2393 475.8351 594.6648z" stroke="none" fill="#221E1F" fill-rule="evenodd" /><path id="69" transform="matrix(1 0 0 -1 0 661)" d="M425.0069 611.1926L427.4125 613.5982L427.4125 613.5982L430.9763 610.0344L430.9763 610.0344L432.3636 611.4218L432.3636 611.4218L428.7998 614.9855L428.7998 614.9855L431.1163 617.302L431.1163 617.302L434.9983 613.42L434.9983 613.42L436.3984 614.8201L436.3984 614.8201L431.0527 620.1658L431.0527 620.1658L422.1432 611.2563L422.1432 611.2563L427.5525 605.8469L427.5525 605.8469L428.9526 607.2469z" stroke="none" fill="#221E1F" fill-rule="evenodd" /><path id="70" transform="matrix(1 0 0 -1 0 661)" d="M442.6223 608.5961L439.1731 605.1469C 439.3428 606.3008 438.9991 607.4591 438.0148 608.4434C 436.2838 610.1744 433.3819 610.1489 431.4981 608.2652C 429.6144 606.3815 429.589 603.4795 431.3199 601.7485C 432.3043 600.7642 433.4583 600.4163 434.6292 600.603L434.6292 600.603L433.7128 599.6866L433.7128 599.6866L435.0874 598.312L435.0874 598.312L443.9969 607.2215zM432.8473 602.8431C 431.6933 603.9971 431.6848 605.7026 432.8728 606.8906C 434.0437 608.0615 435.7662 608.07 436.9202 606.916C 438.0573 605.779 438.0657 604.0396 436.8948 602.8685C 435.7068 601.6806 433.9843 601.7061 432.8473 602.8431z" stroke="none" fill="#221E1F" fill-rule="evenodd" /><path id="71" transform="matrix(1 0 0 -1 0 661)" d="M444.697 603.3395C 445.1721 602.8643 445.9783 602.8643 446.4534 603.3395C 446.9286 603.8146 446.9286 604.6208 446.4534 605.0959C 445.9613 605.5881 445.1721 605.5711 444.697 605.0959C 444.2218 604.6208 444.2048 603.8316 444.697 603.3395zM436.6911 596.7083L438.0657 595.3336L438.0657 595.3336L444.4297 601.6976L444.4297 601.6976L443.0551 603.0722z" stroke="none" fill="#221E1F" fill-rule="evenodd" /><path id="72" transform="matrix(1 0 0 -1 0 661)" d="M448.2481 595.2318L449.5718 596.5555L449.5718 596.5555L447.9935 598.1338L447.9935 598.1338L449.7754 599.9157L449.7754 599.9157L447.9935 600.883L447.9935 600.883L446.6189 599.5084L446.6189 599.5084L445.4479 600.6794L445.4479 600.6794L444.1242 599.3557L444.1242 599.3557L445.2952 598.1847L445.2952 598.1847L442.2405 595.13C 440.5774 593.4669 440.8319 592.0583 443.2078 590.1916L443.2078 590.1916L444.4424 591.4261C 443.3393 592.4274 442.8005 592.9408 443.6151 593.7554L443.6151 593.7554L446.6698 596.8101z" stroke="none" fill="#221E1F" fill-rule="evenodd" /><path id="73" transform="matrix(1 0 0 -1 0 661)" d="M452.461 595.5755C 452.9362 595.1003 453.7423 595.1003 454.2174 595.5755C 454.6926 596.0507 454.6926 596.8568 454.2174 597.3319C 453.7253 597.8241 452.9362 597.8071 452.461 597.3319C 451.9858 596.8568 451.9688 596.0676 452.461 595.5755zM444.4551 588.9442L445.8298 587.5696L445.8298 587.5696L452.1937 593.9336L452.1937 593.9336L450.8191 595.3082z" stroke="none" fill="#221E1F" fill-rule="evenodd" /><path id="74" transform="matrix(1 0 0 -1 0 661)" d="M450.2591 582.8094C 452.1258 580.9426 455.0829 580.9129 456.9667 582.7966C 458.8504 584.6804 458.8207 587.6375 456.9539 589.5043C 455.0872 591.371 452.1301 591.4007 450.2463 589.517C 448.3626 587.6332 448.3923 584.6761 450.2591 582.8094zM451.5955 584.1458C 450.4754 585.2659 450.45 586.9714 451.6209 588.1424C 452.775 589.2964 454.4975 589.2879 455.6175 588.1678C 456.7376 587.0478 456.7461 585.3253 455.5921 584.1713C 454.4211 583.0003 452.7155 583.0258 451.5955 584.1458z" stroke="none" fill="#221E1F" fill-rule="evenodd" /><path id="75" transform="matrix(1 0 0 -1 0 661)" d="M464.9089 581.5493C 464.0434 582.4148 463.0251 582.7966 461.956 582.5421L461.956 582.5421L462.7706 583.3567L462.7706 583.3567L461.396 584.7313L461.396 584.7313L455.032 578.3674L455.032 578.3674L456.4066 576.9927L456.4066 576.9927L459.8177 580.4038C 461.1075 581.6936 462.3506 581.5366 463.267 580.6202C 464.1325 579.7547 464.1834 578.6855 463.2161 577.7182L463.2161 577.7182L459.4486 573.9507L459.4486 573.9507L460.8232 572.5762L460.8232 572.5762L464.7307 576.4836C 466.3768 578.1298 466.3344 580.1238 464.9089 581.5493z" stroke="none" fill="#221E1F" fill-rule="evenodd" /><g clip-path="url(#8)"><g><g transform="matrix(1 0 0 1 325.8259 540.5)"><path id="1" transform="matrix(1 0 0 1 0 0)" d="M6.621485 22.28574C 8.19056 22.28574 9.469955 21.88971 10.45967 21.09766C 11.4501 20.3056 11.94531 19.22744 11.94531 17.86318C 11.94531 16.38219 11.40999 15.34844 10.33936 14.76191C 9.268718 14.17539 8.06595 13.66227 6.731055 13.22256C 5.645378 12.88525 4.834701 12.54043 4.299024 12.18809C 3.764063 11.83646 3.496582 11.30114 3.496582 10.58213C 3.496582 9.878158 3.75332 9.320638 4.266797 8.90957C 4.780273 8.499218 5.454883 8.294043 6.290625 8.294043C 7.214453 8.294043 7.958529 8.525 8.522852 8.986914C 9.087891 9.448828 9.509701 10.00993 9.788281 10.67021L11.50381 9.679785C 11.0641 8.711556 10.40059 7.908398 9.513282 7.270312C 8.625977 6.632226 7.551758 6.313183 6.290625 6.313183C 5.00013 6.313183 3.870768 6.69453 2.902539 7.457226C 1.935026 8.219921 1.45127 9.29056 1.45127 10.66914C 1.45127 12.10645 1.949707 13.10368 2.946582 13.66084C 3.944173 14.218 5.058855 14.6946 6.290625 15.09062C 7.419987 15.44297 8.307292 15.80247 8.952539 16.16914C 9.597787 16.53581 9.92041 17.11517 9.92041 17.90723C 9.92041 18.6112 9.648991 19.18304 9.106153 19.62275C 8.563313 20.06318 7.749056 20.2834 6.663379 20.2834C 5.534017 20.2834 4.632031 20.0306 3.957422 19.525C 3.282813 19.01868 2.813379 18.34014 2.549121 17.48936L0.7895508 18.50127C 1.185579 19.65999 1.889551 20.58024 2.901465 21.26201C 3.913379 21.9445 5.152669 22.28574 6.619336 22.28574L6.621485 22.28574zM6.621485 22.28574z" stroke="none" fill="#221E1F" fill-rule="evenodd" /></g><g transform="matrix(1 0 0 1 338.4979 540.5)"><path id="2" transform="matrix(1 0 0 1 0 0)" d="M2.420215 8.997656C 2.772559 8.997656 3.07334 8.873047 3.322559 8.623828C 3.571777 8.374609 3.696387 8.073828 3.696387 7.721484C 3.696387 7.369141 3.571777 7.064778 3.322559 6.808398C 3.07334 6.551302 2.772559 6.422753 2.420215 6.422753C 2.053548 6.422753 1.745605 6.550943 1.496387 6.807323C 1.247168 7.06442 1.122559 7.369141 1.122559 7.721484C 1.122559 8.073828 1.247168 8.374609 1.496387 8.623828C 1.745605 8.873047 2.053548 8.997656 2.420215 8.997656L2.420215 8.997656zM3.366602 22L3.366602 11L1.452344 11L1.452344 22zM1.452344 22z" stroke="none" fill="#221E1F" fill-rule="evenodd" /></g><g transform="matrix(1 0 0 1 343.2939 540.5)"><path id="3" transform="matrix(1 0 0 1 0 0)" d="M1.452344 22L3.366602 22L3.366602 5.94043L1.452344 5.94043L1.452344 22zM1.452344 22z" stroke="none" fill="#221E1F" fill-rule="evenodd" /></g><g transform="matrix(1 0 0 1 348.0239 540.5)"><path id="4" transform="matrix(1 0 0 1 0 0)" d="M9.152344 11L5.69873 19.95361L2.245117 11L0.1772461 11L4.577246 22L6.821289 22L11.22129 11L9.152344 11zM9.152344 11z" stroke="none" fill="#221E1F" fill-rule="evenodd" /></g><g transform="matrix(1 0 0 1 359.3539 540.5)"><path id="5" transform="matrix(1 0 0 1 0 0)" d="M2.420215 8.997656C 2.772559 8.997656 3.07334 8.873047 3.322559 8.623828C 3.571777 8.374609 3.696387 8.073828 3.696387 7.721484C 3.696387 7.369141 3.571777 7.064778 3.322559 6.808398C 3.07334 6.551302 2.772559 6.422753 2.420215 6.422753C 2.053548 6.422753 1.745605 6.550943 1.496387 6.807323C 1.247168 7.06442 1.122559 7.369141 1.122559 7.721484C 1.122559 8.073828 1.247168 8.374609 1.496387 8.623828C 1.745605 8.873047 2.053548 8.997656 2.420215 8.997656L2.420215 8.997656zM3.366602 22L3.366602 11L1.452344 11L1.452344 22zM1.452344 22z" stroke="none" fill="#221E1F" fill-rule="evenodd" /></g><g transform="matrix(1 0 0 1 364.0839 540.5)"><path id="6" transform="matrix(1 0 0 1 0 0)" d="M10.55957 11L10.55957 12.8917C 10.11986 12.23141 9.548015 11.70326 8.844043 11.30723C 8.140072 10.9112 7.326172 10.71318 6.402344 10.71318C 4.86263 10.71318 3.549935 11.27034 2.464258 12.38467C 1.379297 13.49971 0.8368164 14.87113 0.8368164 16.49893C 0.8368164 18.12672 1.379655 19.49779 2.465332 20.61211C 3.550293 21.72715 4.86263 22.28467 6.402344 22.28467C 7.326172 22.28467 8.140072 22.09059 8.844043 21.70244C 9.548015 21.31357 10.11986 20.78184 10.55957 20.10723L10.55957 21.99893L12.47383 21.99893L12.47383 10.99893L10.55957 11zM6.644043 20.43701C 5.544043 20.43701 4.620215 20.06318 3.872559 19.31553C 3.124186 18.56715 2.75 17.62829 2.75 16.49893C 2.75 15.3846 3.123828 14.45003 3.871485 13.69521C 4.619857 12.93968 5.544043 12.56191 6.644043 12.56191C 7.744043 12.56191 8.671453 12.93932 9.42627 13.69414C 10.1818 14.44967 10.55957 15.3846 10.55957 16.49893C 10.55957 17.62829 10.18216 18.5668 9.427344 19.31445C 8.67181 20.06283 7.744043 20.43701 6.644043 20.43701L6.644043 20.43701zM6.644043 20.43701z" stroke="none" fill="#221E1F" fill-rule="evenodd" /></g><g transform="matrix(1 0 0 1 383.5099 540.5)"><path id="7" transform="matrix(1 0 0 1 0 0)" d="M10.45 14.01426C 10.94844 13.66191 11.35163 13.21432 11.65957 12.67148C 11.96751 12.12865 12.12148 11.50524 12.12148 10.80127C 12.12148 9.613183 11.69967 8.615951 10.85606 7.80957C 10.01315 7.002474 8.997657 6.598926 7.80957 6.598926L1.65 6.598926L1.65 21.99893L8.294044 21.99893C 9.525814 21.99893 10.57783 21.5807 11.4501 20.74424C 12.32308 19.9085 12.75957 18.87474 12.75957 17.64297C 12.75957 16.80723 12.54688 16.07783 12.12148 15.45478C 11.69609 14.83102 11.13857 14.35049 10.44893 14.01318L10.45 14.01426zM7.808496 8.513184C 8.439421 8.513184 8.97832 8.744141 9.425196 9.206055C 9.872787 9.667969 10.09658 10.22155 10.09658 10.8668C 10.09658 11.52708 9.873145 12.0846 9.42627 12.53936C 8.978679 12.99411 8.439421 13.22148 7.808496 13.22148L3.694238 13.22148L3.694238 8.513184L7.808496 8.513184zM3.694238 20.08467L3.694238 15.09062L8.291895 15.09062C 8.966504 15.09062 9.542285 15.33268 10.01924 15.8168C 10.49547 16.30091 10.73359 16.88779 10.73359 17.57744C 10.73359 18.28141 10.49512 18.87546 10.01816 19.35957C 9.541927 19.84369 8.966504 20.08574 8.291895 20.08574L8.291895 20.08467zM8.291895 20.08467z" stroke="none" fill="#221E1F" fill-rule="evenodd" /></g><g transform="matrix(1 0 0 1 397.1059 540.5)"><path id="8" transform="matrix(1 0 0 1 0 0)" d="M6.621485 22.28574C 8.219922 22.28574 9.587402 21.72858 10.72393 20.61426C 11.86045 19.49922 12.42871 18.1278 12.42871 16.5C 12.42871 14.8722 11.86045 13.50114 10.72393 12.38682C 9.587402 11.27178 8.219922 10.71426 6.621485 10.71426C 5.008008 10.71426 3.640527 11.27142 2.519043 12.38574C 1.396842 13.50078 0.8357422 14.8722 0.8357422 16.5C 0.8357422 18.1278 1.396484 19.49886 2.517969 20.61318C 3.640169 21.72822 5.008008 22.28574 6.621485 22.28574L6.621485 22.28574zM6.621485 20.41553C 5.521484 20.41553 4.601237 20.0417 3.860742 19.29404C 3.120248 18.54567 2.75 17.61432 2.75 16.5C 2.75 15.4 3.120248 14.47259 3.860742 13.71777C 4.601237 12.96224 5.521484 12.58447 6.621485 12.58447C 7.721485 12.58447 8.645312 12.96188 9.392969 13.7167C 10.14134 14.47223 10.51553 15.4 10.51553 16.5C 10.51553 17.61432 10.1417 18.54531 9.394043 19.29297C 8.645671 20.04134 7.721485 20.41553 6.621485 20.41553L6.621485 20.41553zM6.621485 20.41553z" stroke="none" fill="#221E1F" fill-rule="evenodd" /></g><g transform="matrix(1 0 0 1 330.5699 562.5)"><path id="14" transform="matrix(1 0 0 1 0 0)" d="M5.653614 22.28574C 7.061556 22.28574 8.275423 21.88971 9.295215 21.09766C 10.31429 20.3056 10.82383 19.10283 10.82383 17.48936L10.82383 6.598926L8.8 6.598926L8.8 17.48936C 8.8 18.45758 8.51032 19.16514 7.930957 19.61201C 7.351595 20.0596 6.592481 20.2834 5.653614 20.2834C 4.905957 20.2834 4.26429 20.14411 3.728613 19.86553C 3.193652 19.58695 2.808724 19.13971 2.573828 18.52383L0.8357422 19.53574C 1.231771 20.45957 1.858757 21.14886 2.716699 21.60361C 3.574642 22.05837 4.553613 22.28574 5.653614 22.28574L5.653614 22.28574zM5.653614 22.28574z" stroke="none" fill="#221E1F" fill-rule="evenodd" /></g><g transform="matrix(1 0 0 1 342.8459 562.5)"><path id="15" transform="matrix(1 0 0 1 0 0)" d="M2.794043 17.37979L12.01191 17.37979C 12.02624 17.24801 12.04056 17.10872 12.05488 16.96191C 12.06992 16.8151 12.07744 16.66829 12.07744 16.52148C 12.07744 14.98177 11.579 13.62897 10.58213 12.46309C 9.584538 11.2972 8.257161 10.71426 6.6 10.71426C 4.884115 10.71426 3.494434 11.27142 2.430957 12.38574C 1.367481 13.50078 0.8357422 14.8722 0.8357422 16.5C 0.8357422 18.15716 1.375 19.53574 2.453516 20.63574C 3.531315 21.73574 4.95752 22.28574 6.732129 22.28574C 7.832129 22.28574 8.792839 22.05837 9.614258 21.60361C 10.43568 21.14886 11.08844 20.54766 11.57256 19.8L9.944043 18.87617C 9.665462 19.33092 9.254752 19.71227 8.711914 20.02021C 8.169076 20.32816 7.523829 20.48213 6.776172 20.48213C 5.749219 20.48213 4.872656 20.21429 4.146484 19.67861C 3.420313 19.14365 2.969141 18.37738 2.792969 17.37979L2.794043 17.37979zM6.598926 12.51787C 7.420345 12.51787 8.171941 12.77819 8.853711 13.29883C 9.536198 13.81947 9.965528 14.62262 10.1417 15.7083L2.794043 15.7083C 2.940853 14.75511 3.351563 13.98525 4.026172 13.39873C 4.700781 12.81221 5.558724 12.51894 6.6 12.51894L6.598926 12.51787zM6.598926 12.51787z" stroke="none" fill="#221E1F" fill-rule="evenodd" /></g><g transform="matrix(1 0 0 1 355.6719 562.5)"><path id="16" transform="matrix(1 0 0 1 0 0)" d="M3.365527 12.84766L3.365527 11L1.45127 11L1.45127 22L3.365527 22L3.365527 16.17022C 3.365527 14.87972 3.728613 13.98883 4.454785 13.49756C 5.180957 13.00628 5.961914 12.77533 6.797657 12.80469L6.797657 10.80234C 6.093685 10.80234 5.433757 10.95273 4.817871 11.25352C 4.201986 11.5543 3.717871 12.08603 3.365527 12.84873L3.365527 12.84766zM3.365527 12.84766z" stroke="none" fill="#221E1F" fill-rule="evenodd" /></g><g transform="matrix(1 0 0 1 362.4699 562.5)"><path id="17" transform="matrix(1 0 0 1 0 0)" d="M2.794043 17.37979L12.01191 17.37979C 12.02624 17.24801 12.04056 17.10872 12.05488 16.96191C 12.06992 16.8151 12.07744 16.66829 12.07744 16.52148C 12.07744 14.98177 11.579 13.62897 10.58213 12.46309C 9.584538 11.2972 8.257161 10.71426 6.6 10.71426C 4.884115 10.71426 3.494434 11.27142 2.430957 12.38574C 1.367481 13.50078 0.8357422 14.8722 0.8357422 16.5C 0.8357422 18.15716 1.375 19.53574 2.453516 20.63574C 3.531315 21.73574 4.95752 22.28574 6.732129 22.28574C 7.832129 22.28574 8.792839 22.05837 9.614258 21.60361C 10.43568 21.14886 11.08844 20.54766 11.57256 19.8L9.944043 18.87617C 9.665462 19.33092 9.254752 19.71227 8.711914 20.02021C 8.169076 20.32816 7.523829 20.48213 6.776172 20.48213C 5.749219 20.48213 4.872656 20.21429 4.146484 19.67861C 3.420313 19.14365 2.969141 18.37738 2.792969 17.37979L2.794043 17.37979zM6.598926 12.51787C 7.420345 12.51787 8.171941 12.77819 8.853711 13.29883C 9.536198 13.81947 9.965528 14.62262 10.1417 15.7083L2.794043 15.7083C 2.940853 14.75511 3.351563 13.98525 4.026172 13.39873C 4.700781 12.81221 5.558724 12.51894 6.6 12.51894L6.598926 12.51787zM6.598926 12.51787z" stroke="none" fill="#221E1F" fill-rule="evenodd" /></g><g transform="matrix(1 0 0 1 375.2959 562.5)"><path id="18" transform="matrix(1 0 0 1 0 0)" d="M13.33213 10.71426C 12.61312 10.71426 11.95283 10.87181 11.35127 11.18691C 10.75042 11.50273 10.25951 11.96859 9.878516 12.58447C 9.555533 11.99795 9.122623 11.53962 8.579785 11.20947C 8.036946 10.87933 7.391699 10.71426 6.644043 10.71426C 5.969434 10.71426 5.353548 10.85355 4.796387 11.13213C 4.239225 11.41071 3.76263 11.85794 3.366602 12.47383L3.366602 11L1.452344 11L1.452344 22L3.366602 22L3.366602 15.88447C 3.366602 14.69639 3.648763 13.84202 4.213086 13.32139C 4.778125 12.80075 5.434473 12.54043 6.182129 12.54043C 6.886101 12.54043 7.450781 12.77139 7.876172 13.2333C 8.301562 13.69521 8.514258 14.35872 8.514258 15.22383L8.514258 22L10.42852 22L10.42852 15.88447C 10.42852 14.69639 10.68525 13.84202 11.19873 13.32139C 11.71221 12.80075 12.35746 12.54043 13.13447 12.54043C 13.85348 12.54043 14.43643 12.77139 14.8833 13.2333C 15.33089 13.69521 15.55469 14.35872 15.55469 15.22383L15.55469 22L17.46895 22L17.46895 15.1583C 17.46895 13.79404 17.08402 12.7123 16.31416 11.91309C 15.5443 11.11387 14.55065 10.71426 13.3332 10.71426L13.33213 10.71426zM13.33213 10.71426z" stroke="none" fill="#221E1F" fill-rule="evenodd" /></g><g transform="matrix(1 0 0 1 393.5339 562.5)"><path id="19" transform="matrix(1 0 0 1 0 0)" d="M9.129786 11L5.961914 19.62383L2.221484 11L0.1750977 11L4.971485 21.95596L4.773828 22.37383C 4.480208 23.09284 4.094922 23.65788 3.617969 24.06894C 3.141732 24.4793 2.536947 24.66263 1.803613 24.61895L1.803613 26.40107C 2.917936 26.47412 3.893327 26.1805 4.729785 25.52021C 5.565527 24.86065 6.217937 23.91497 6.687012 22.6832L11.1751 11.00107L9.129786 11zM9.129786 11z" stroke="none" fill="#221E1F" fill-rule="evenodd" /></g><g transform="matrix(1 0 0 1 366.2115 589)"><path id="26" transform="matrix(1 0 0 1 0 0)" d="M8.603613 6.983789L8.603613 5.400001L1.35 5.400001L1.35 18L3.024316 18L3.024316 12.65361L8.370703 12.65361L8.370703 11.06982L3.024316 11.06982L3.024316 6.983789L8.603613 6.983789zM8.603613 6.983789z" stroke="none" fill="#221E1F" fill-rule="evenodd" /></g><g transform="matrix(1 0 0 1 375.3015 589)"><path id="27" transform="matrix(1 0 0 1 0 0)" d="M5.417578 18.23379C 6.72539 18.23379 7.844238 17.77793 8.774121 16.86621C 9.704003 15.95391 10.16895 14.83184 10.16895 13.5C 10.16895 12.16816 9.704003 11.04639 8.774121 10.13467C 7.844238 9.222363 6.72539 8.766212 5.417578 8.766212C 4.097461 8.766212 2.978613 9.222071 2.061035 10.13379C 1.142871 11.04609 0.683789 12.16816 0.683789 13.5C 0.683789 14.83184 1.142578 15.95361 2.060156 16.86533C 2.97832 17.77764 4.097461 18.23379 5.417578 18.23379L5.417578 18.23379zM5.417578 16.70361C 4.517578 16.70361 3.764648 16.39775 3.158789 15.78604C 2.55293 15.17373 2.25 14.41172 2.25 13.5C 2.25 12.6 2.55293 11.84121 3.158789 11.22363C 3.764648 10.60547 4.517578 10.29639 5.417578 10.29639C 6.317578 10.29639 7.073437 10.60518 7.685156 11.22275C 8.297461 11.84092 8.603613 12.6 8.603613 13.5C 8.603613 14.41172 8.297753 15.17344 7.686035 15.78516C 7.07373 16.39746 6.317578 16.70361 5.417578 16.70361L5.417578 16.70361zM5.417578 16.70361z" stroke="none" fill="#221E1F" fill-rule="evenodd" /></g><g transform="matrix(1 0 0 1 386.1555 589)"><path id="28" transform="matrix(1 0 0 1 0 0)" d="M2.753613 10.51172L2.753613 9L1.187402 9L1.187402 18L2.753613 18L2.753613 13.23018C 2.753613 12.17432 3.050683 11.44541 3.644824 11.04346C 4.238965 10.6415 4.87793 10.45254 5.561718 10.47656L5.561718 8.838282C 4.985742 8.838282 4.445801 8.961329 3.941895 9.207422C 3.437988 9.453516 3.041894 9.888575 2.753613 10.5126L2.753613 10.51172zM2.753613 10.51172z" stroke="none" fill="#221E1F" fill-rule="evenodd" /></g><g transform="matrix(1 0 0 1 391.7355 589)"><path id="29" transform="matrix(1 0 0 1 0 0)" d="M2.286035 14.21982L9.827929 14.21982C 9.839648 14.11201 9.851367 13.99805 9.863086 13.87793C 9.87539 13.75781 9.881543 13.6377 9.881543 13.51758C 9.881543 12.25781 9.47373 11.15098 8.658105 10.19707C 7.841894 9.243165 6.755859 8.766212 5.4 8.766212C 3.996094 8.766212 2.859082 9.222071 1.988965 10.13379C 1.118848 11.04609 0.683789 12.16816 0.683789 13.5C 0.683789 14.85586 1.125 15.98379 2.007422 16.88379C 2.889258 17.78379 4.056152 18.23379 5.508105 18.23379C 6.408105 18.23379 7.19414 18.04775 7.866211 17.67568C 8.538281 17.30361 9.072363 16.81172 9.468457 16.2L8.136035 15.44414C 7.908105 15.81621 7.57207 16.12822 7.12793 16.38018C 6.683789 16.63213 6.155859 16.75811 5.54414 16.75811C 4.703906 16.75811 3.986719 16.53897 3.392578 16.10068C 2.798437 15.66299 2.429297 15.03604 2.285156 14.21982L2.286035 14.21982zM5.399121 10.24189C 6.071191 10.24189 6.686133 10.45488 7.243945 10.88086C 7.802343 11.30684 8.153613 11.96396 8.297753 12.85225L2.286035 12.85225C 2.406152 12.07236 2.742188 11.44248 3.294141 10.9626C 3.846094 10.48272 4.548047 10.24277 5.4 10.24277L5.399121 10.24189zM5.399121 10.24189z" stroke="none" fill="#221E1F" fill-rule="evenodd" /></g><g transform="matrix(1 0 0 1 364.0656 607)"><path id="36" transform="matrix(1 0 0 1 0 0)" d="M4.625683 18.23379C 5.777637 18.23379 6.770801 17.90977 7.605175 17.26172C 8.438965 16.61367 8.855859 15.62959 8.855859 14.30947L8.855859 5.399121L7.2 5.399121L7.2 14.30947C 7.2 15.10166 6.962988 15.68057 6.488965 16.04619C 6.014941 16.4124 5.393847 16.59551 4.625683 16.59551C 4.013965 16.59551 3.488965 16.48154 3.050683 16.25361C 2.612988 16.02568 2.298047 15.65977 2.105859 15.15586L0.683789 15.98379C 1.007812 16.73965 1.520801 17.30361 2.222754 17.67568C 2.924707 18.04775 3.725683 18.23379 4.625683 18.23379L4.625683 18.23379zM4.625683 18.23379z" stroke="none" fill="#221E1F" fill-rule="evenodd" /></g><g transform="matrix(1 0 0 1 374.1456 607)"><path id="37" transform="matrix(1 0 0 1 0 0)" d="M2.286035 14.21982L9.827929 14.21982C 9.839648 14.11201 9.851367 13.99805 9.863086 13.87793C 9.87539 13.75781 9.881543 13.6377 9.881543 13.51758C 9.881543 12.25781 9.47373 11.15098 8.658105 10.19707C 7.841894 9.243165 6.755859 8.766212 5.4 8.766212C 3.996094 8.766212 2.859082 9.222071 1.988965 10.13379C 1.118848 11.04609 0.683789 12.16816 0.683789 13.5C 0.683789 14.85586 1.125 15.98379 2.007422 16.88379C 2.889258 17.78379 4.056152 18.23379 5.508105 18.23379C 6.408105 18.23379 7.19414 18.04775 7.866211 17.67568C 8.538281 17.30361 9.072363 16.81172 9.468457 16.2L8.136035 15.44414C 7.908105 15.81621 7.57207 16.12822 7.12793 16.38018C 6.683789 16.63213 6.155859 16.75811 5.54414 16.75811C 4.703906 16.75811 3.986719 16.53897 3.392578 16.10068C 2.798437 15.66299 2.429297 15.03604 2.285156 14.21982L2.286035 14.21982zM5.399121 10.24189C 6.071191 10.24189 6.686133 10.45488 7.243945 10.88086C 7.802343 11.30684 8.153613 11.96396 8.297753 12.85225L2.286035 12.85225C 2.406152 12.07236 2.742188 11.44248 3.294141 10.9626C 3.846094 10.48272 4.548047 10.24277 5.4 10.24277L5.399121 10.24189zM5.399121 10.24189z" stroke="none" fill="#221E1F" fill-rule="evenodd" /></g><g transform="matrix(1 0 0 1 384.6756 607)"><path id="38" transform="matrix(1 0 0 1 0 0)" d="M2.753613 10.51172L2.753613 9L1.187402 9L1.187402 18L2.753613 18L2.753613 13.23018C 2.753613 12.17432 3.050683 11.44541 3.644824 11.04346C 4.238965 10.6415 4.87793 10.45254 5.561718 10.47656L5.561718 8.838282C 4.985742 8.838282 4.445801 8.961329 3.941895 9.207422C 3.437988 9.453516 3.041894 9.888575 2.753613 10.5126L2.753613 10.51172zM2.753613 10.51172z" stroke="none" fill="#221E1F" fill-rule="evenodd" /></g><g transform="matrix(1 0 0 1 390.2736 607)"><path id="39" transform="matrix(1 0 0 1 0 0)" d="M2.286035 14.21982L9.827929 14.21982C 9.839648 14.11201 9.851367 13.99805 9.863086 13.87793C 9.87539 13.75781 9.881543 13.6377 9.881543 13.51758C 9.881543 12.25781 9.47373 11.15098 8.658105 10.19707C 7.841894 9.243165 6.755859 8.766212 5.4 8.766212C 3.996094 8.766212 2.859082 9.222071 1.988965 10.13379C 1.118848 11.04609 0.683789 12.16816 0.683789 13.5C 0.683789 14.85586 1.125 15.98379 2.007422 16.88379C 2.889258 17.78379 4.056152 18.23379 5.508105 18.23379C 6.408105 18.23379 7.19414 18.04775 7.866211 17.67568C 8.538281 17.30361 9.072363 16.81172 9.468457 16.2L8.136035 15.44414C 7.908105 15.81621 7.57207 16.12822 7.12793 16.38018C 6.683789 16.63213 6.155859 16.75811 5.54414 16.75811C 4.703906 16.75811 3.986719 16.53897 3.392578 16.10068C 2.798437 15.66299 2.429297 15.03604 2.285156 14.21982L2.286035 14.21982zM5.399121 10.24189C 6.071191 10.24189 6.686133 10.45488 7.243945 10.88086C 7.802343 11.30684 8.153613 11.96396 8.297753 12.85225L2.286035 12.85225C 2.406152 12.07236 2.742188 11.44248 3.294141 10.9626C 3.846094 10.48272 4.548047 10.24277 5.4 10.24277L5.399121 10.24189zM5.399121 10.24189z" stroke="none" fill="#221E1F" fill-rule="evenodd" /></g><g transform="matrix(0.2397632 0.008372715 -0.008374649 0.2398186 -1.088277 227.9945)"><g transform="matrix(1 0 0 1 0 0)"><image x="0" y="0" xlink:href="img_03.png" width="1760" height="1808" /></g></g></g></g><g clip-path="url(#9)"><path id="135" transform="matrix(1 0 0 -1 0 661)" d="M0.25 0.203L503.752 0.203L503.752 0.203L503.752 661.214L503.752 661.214L0.25 661.214z" stroke="#221E1F" stroke-width="0.5" fill="none" /></g></g></g></svg>