<svg xmlns="http://www.w3.org/2000/svg" xmlns:xlink="http://www.w3.org/1999/xlink" id="body_31" preserveAspectRatio="xMinYMin meet" viewBox="0 0 672 881"><defs><clipPath id="1"><path id="" clip-rule="evenodd" transform="matrix(1 0 0 1 0 0)" d="M0 661L0 -0.5L0 -0.5L504 -0.5L504 -0.5L504 661L504 661L0 661z" /></clipPath><clipPath id="2"><path id="" clip-rule="evenodd" transform="matrix(1 0 0 1 0 0)" d="M432 606.875L432 608.4173L432 608.4173L72 608.4173L72 608.4173L72 606.875L72 606.875L72 605.3327L72 605.3327L432 605.3327" /></clipPath><clipPath id="3"><path id="" clip-rule="evenodd" transform="matrix(1 0 0 1 0 0)" d="M72 559.408L72 557.7406L72 557.7406L162 557.7406L162 557.7406L162 559.408L162 559.408L162 561.0753L162 561.0753L72 561.0753" /></clipPath></defs><g transform="matrix(1.333333 0 0 1.333333 0 0)"><g clip-path="url(#1)"><g clip-path="url(#2)"><path id="1" transform="matrix(1 0 0 -1 0 661)" d="M432 54.125L72 54.125" stroke="#000000" stroke-width="0.25" stroke-linecap="round" fill="none" /></g><g clip-path="url(#3)"><path id="2" transform="matrix(1 0 0 -1 0 661)" d="M72 101.592L162 101.592" stroke="#000000" stroke-width="0.5" stroke-linecap="round" fill="none" /></g><g transform="matrix(0.09876739 0 0 0.0987674 83 274.632)"><g transform="matrix(1 0 0 1 0 0)"><image x="0" y="0" xlink:href="img_22.png" width="503" height="479" /></g></g></g></g></svg>