<svg xmlns="http://www.w3.org/2000/svg" xmlns:xlink="http://www.w3.org/1999/xlink" id="body_319" preserveAspectRatio="xMinYMin meet" viewBox="0 0 672 881"><defs><clipPath id="1"><path id="" clip-rule="evenodd" transform="matrix(1 0 0 1 0 0)" d="M0 661L0 -0.5L0 -0.5L504 -0.5L504 -0.5L504 661L504 661L0 661z" /></clipPath><clipPath id="2"><path id="" clip-rule="evenodd" transform="matrix(1 0 0 1 0 0)" d="M432 606.875L432 608.4173L432 608.4173L72 608.4173L72 608.4173L72 606.875L72 606.875L72 605.3327L72 605.3327L432 605.3327" /></clipPath><clipPath id="3"><path id="" clip-rule="evenodd" transform="matrix(1 0 0 1 0 0)" d="M72.0625 127.117L71.29134 125.5747L71.29134 125.5747L433.2086 125.5747L433.2086 125.5747L432.4375 127.117L432.4375 127.117L431.6664 128.6593L431.6664 128.6593L72.83366 128.6593" /></clipPath><clipPath id="4"><path id="" clip-rule="evenodd" transform="matrix(1 0 0 1 0 0)" d="M432.375 127.0545L433.9173 126.2833L433.9173 126.2833L433.9173 348.4789L433.9173 348.4789L432.375 347.7077L432.375 347.7077L430.8327 346.9366L430.8327 346.9366L430.8327 127.8257" /></clipPath><clipPath id="5"><path id="" clip-rule="evenodd" transform="matrix(1 0 0 1 0 0)" d="M432.4375 347.6452L433.2086 349.1876L433.2086 349.1876L71.29134 349.1876L71.29134 349.1876L72.0625 347.6452L72.0625 347.6452L72.83366 346.1029L72.83366 346.1029L431.6664 346.1029" /></clipPath><clipPath id="6"><path id="" clip-rule="evenodd" transform="matrix(1 0 0 1 0 0)" d="M72.125 347.7077L70.58268 348.4789L70.58268 348.4789L70.58268 126.2833L70.58268 126.2833L72.125 127.0545L72.125 127.0545L73.66732 127.8257L73.66732 127.8257L73.66732 346.9366" /></clipPath></defs><g transform="matrix(1.333333 0 0 1.333333 0 0)"><g clip-path="url(#1)"><g clip-path="url(#2)"><path id="1" transform="matrix(1 0 0 -1 0 661)" d="M432 54.125L72 54.125" stroke="#000000" stroke-width="0.25" stroke-linecap="round" fill="none" /></g><g clip-path="url(#3)"><path id="2" transform="matrix(1 0 0 -1 0 661)" d="M72 533.883L432.5 533.883" stroke="#000000" stroke-width="0.25" stroke-linecap="round" fill="none" /></g><g clip-path="url(#4)"><path id="3" transform="matrix(1 0 0 -1 0 661)" d="M432.375 534.008L432.375 313.2298" stroke="#000000" stroke-width="0.25" stroke-linecap="round" fill="none" /></g><g clip-path="url(#5)"><path id="4" transform="matrix(1 0 0 -1 0 661)" d="M432.5 313.3548L72 313.3548" stroke="#000000" stroke-width="0.25" stroke-linecap="round" fill="none" /></g><g clip-path="url(#6)"><path id="5" transform="matrix(1 0 0 -1 0 661)" d="M72.125 313.2298L72.125 534.008" stroke="#000000" stroke-width="0.25" stroke-linecap="round" fill="none" /></g><g transform="matrix(0.2378527 0 0 0.2378527 79.45 132.242)"><g transform="matrix(1 0 0 1 0 0)"><image x="0" y="0" xlink:href="img_354.png" width="1453" height="881" /></g></g></g></g></svg>