<svg xmlns="http://www.w3.org/2000/svg" xmlns:xlink="http://www.w3.org/1999/xlink" id="body_347" preserveAspectRatio="xMinYMin meet" viewBox="0 0 672 881"><defs><clipPath id="1"><path id="" clip-rule="evenodd" transform="matrix(1 0 0 1 0 0)" d="M0 661L0 -0.5L0 -0.5L504 -0.5L504 -0.5L504 661L504 661L0 661z" /></clipPath><clipPath id="2"><path id="" clip-rule="evenodd" transform="matrix(1 0 0 1 0 0)" d="M432 606.875L432 608.4173L432 608.4173L72 608.4173L72 608.4173L72 606.875L72 606.875L72 605.3327L72 605.3327L432 605.3327" /></clipPath><clipPath id="3"><path id="" clip-rule="evenodd" transform="matrix(1 0 0 1 0 0)" d="M72.0625 313.4066L71.29134 311.8642L71.29134 311.8642L433.2086 311.8642L433.2086 311.8642L432.4375 313.4066L432.4375 313.4066L431.6664 314.9489L431.6664 314.9489L72.83366 314.9489" /></clipPath><clipPath id="4"><path id="" clip-rule="evenodd" transform="matrix(1 0 0 1 0 0)" d="M432.375 313.3441L433.9173 312.5729L433.9173 312.5729L433.9173 473.7807L433.9173 473.7807L432.375 473.0095L432.375 473.0095L430.8327 472.2384L430.8327 472.2384L430.8327 314.1152" /></clipPath><clipPath id="5"><path id="" clip-rule="evenodd" transform="matrix(1 0 0 1 0 0)" d="M432.4375 472.947L433.2086 474.4893L433.2086 474.4893L71.29134 474.4893L71.29134 474.4893L72.0625 472.947L72.0625 472.947L72.83366 471.4047L72.83366 471.4047L431.6664 471.4047" /></clipPath><clipPath id="6"><path id="" clip-rule="evenodd" transform="matrix(1 0 0 1 0 0)" d="M72.125 473.0095L70.58268 473.7807L70.58268 473.7807L70.58268 312.5729L70.58268 312.5729L72.125 313.3441L72.125 313.3441L73.66732 314.1152L73.66732 314.1152L73.66732 472.2384" /></clipPath></defs><g transform="matrix(1.333333 0 0 1.333333 0 0)"><g clip-path="url(#1)"><g clip-path="url(#2)"><path id="1" transform="matrix(1 0 0 -1 0 661)" d="M432 54.125L72 54.125" stroke="#000000" stroke-width="0.25" stroke-linecap="round" fill="none" /></g><g clip-path="url(#3)"><path id="2" transform="matrix(1 0 0 -1 0 661)" d="M72 347.5934L432.5 347.5934" stroke="#000000" stroke-width="0.25" stroke-linecap="round" fill="none" /></g><g clip-path="url(#4)"><path id="3" transform="matrix(1 0 0 -1 0 661)" d="M432.375 347.7184L432.375 187.928" stroke="#000000" stroke-width="0.25" stroke-linecap="round" fill="none" /></g><g clip-path="url(#5)"><path id="4" transform="matrix(1 0 0 -1 0 661)" d="M432.5 188.053L72 188.053" stroke="#000000" stroke-width="0.25" stroke-linecap="round" fill="none" /></g><g clip-path="url(#6)"><path id="5" transform="matrix(1 0 0 -1 0 661)" d="M72.125 187.928L72.125 347.7184" stroke="#000000" stroke-width="0.25" stroke-linecap="round" fill="none" /></g><g transform="matrix(0.2400008 0 0 0.2400008 157.3297 318.5316)"><g transform="matrix(1 0 0 1 0 0)"><image x="0" y="0" xlink:href="img_385.png" width="791" height="619" /></g></g></g></g></svg>