<svg xmlns="http://www.w3.org/2000/svg" xmlns:xlink="http://www.w3.org/1999/xlink" id="body_71" preserveAspectRatio="xMinYMin meet" viewBox="0 0 672 881"><defs><clipPath id="1"><path id="" clip-rule="evenodd" transform="matrix(1 0 0 1 0 0)" d="M0 661L0 -0.5L0 -0.5L504 -0.5L504 -0.5L504 661L504 661L0 661z" /></clipPath><clipPath id="2"><path id="" clip-rule="evenodd" transform="matrix(1 0 0 1 0 0)" d="M432 606.875L432 608.4173L432 608.4173L72 608.4173L72 608.4173L72 606.875L72 606.875L72 605.3327L72 605.3327L432 605.3327" /></clipPath><clipPath id="3"><path id="" clip-rule="evenodd" transform="matrix(1 0 0 1 0 0)" d="M187.3 530.7237L187.3 532.266L187.3 532.266L72 532.266L72 532.266L72 530.7237L72 530.7237L72 529.1814L72 529.1814L187.3 529.1814" /></clipPath><clipPath id="4"><path id="" clip-rule="evenodd" transform="matrix(1 0 0 1 0 0)" d="M432 530.7237L432 532.266L432 532.266L187.1 532.266L187.1 532.266L187.1 530.7237L187.1 530.7237L187.1 529.1814L187.1 529.1814L432 529.1814" /></clipPath><clipPath id="5"><path id="" clip-rule="evenodd" transform="matrix(1 0 0 1 0 0)" d="M187.3 544.0287L187.3 545.571L187.3 545.571L72 545.571L72 545.571L72 544.0287L72 544.0287L72 542.4863L72 542.4863L187.3 542.4863" /></clipPath><clipPath id="6"><path id="" clip-rule="evenodd" transform="matrix(1 0 0 1 0 0)" d="M432 544.0287L432 545.571L432 545.571L187.1 545.571L187.1 545.571L187.1 544.0287L187.1 544.0287L187.1 542.4863L187.1 542.4863L432 542.4863" /></clipPath><clipPath id="7"><path id="" clip-rule="evenodd" transform="matrix(1 0 0 1 0 0)" d="M187.3 557.3337L187.3 558.876L187.3 558.876L72 558.876L72 558.876L72 557.3337L72 557.3337L72 555.7914L72 555.7914L187.3 555.7914" /></clipPath><clipPath id="8"><path id="" clip-rule="evenodd" transform="matrix(1 0 0 1 0 0)" d="M432 557.3337L432 558.876L432 558.876L187.1 558.876L187.1 558.876L187.1 557.3337L187.1 557.3337L187.1 555.7914L187.1 555.7914L432 555.7914" /></clipPath><clipPath id="9"><path id="" clip-rule="evenodd" transform="matrix(1 0 0 1 0 0)" d="M187.3 581.4387L187.3 582.981L187.3 582.981L72 582.981L72 582.981L72 581.4387L72 581.4387L72 579.8964L72 579.8964L187.3 579.8964" /></clipPath><clipPath id="10"><path id="" clip-rule="evenodd" transform="matrix(1 0 0 1 0 0)" d="M432 581.4387L432 582.981L432 582.981L187.1 582.981L187.1 582.981L187.1 581.4387L187.1 581.4387L187.1 579.8964L187.1 579.8964L432 579.8964" /></clipPath></defs><g transform="matrix(1.333333 0 0 1.333333 0 0)"><g clip-path="url(#1)"><g clip-path="url(#2)"><path id="1" transform="matrix(1 0 0 -1 0 661)" d="M432 54.125L72 54.125" stroke="#000000" stroke-width="0.25" stroke-linecap="round" fill="none" /></g><path id="2" transform="matrix(1 0 0 -1 0 661)" d="M72 157.2563L187.2 157.2563L187.2 157.2563L187.2 143.4563L187.2 143.4563L72 143.4563z" stroke="none" fill="#000000" fill-rule="evenodd" /><path id="3" transform="matrix(1 0 0 -1 0 661)" d="M187.2 157.2563L432 157.2563L432 157.2563L432 143.4563L432 143.4563L187.2 143.4563z" stroke="none" fill="#000000" fill-rule="evenodd" /><g clip-path="url(#3)"><path id="4" transform="matrix(1 0 0 -1 0 661)" d="M187.3 130.2763L72 130.2763" stroke="#000000" stroke-width="0.25" stroke-linecap="round" fill="none" /></g><g clip-path="url(#4)"><path id="5" transform="matrix(1 0 0 -1 0 661)" d="M432 130.2763L187.1 130.2763" stroke="#000000" stroke-width="0.25" stroke-linecap="round" fill="none" /></g><g clip-path="url(#5)"><path id="6" transform="matrix(1 0 0 -1 0 661)" d="M187.3 116.9713L72 116.9713" stroke="#000000" stroke-width="0.25" stroke-linecap="round" fill="none" /></g><g clip-path="url(#6)"><path id="7" transform="matrix(1 0 0 -1 0 661)" d="M432 116.9713L187.1 116.9713" stroke="#000000" stroke-width="0.25" stroke-linecap="round" fill="none" /></g><g clip-path="url(#7)"><path id="8" transform="matrix(1 0 0 -1 0 661)" d="M187.3 103.6663L72 103.6663" stroke="#000000" stroke-width="0.25" stroke-linecap="round" fill="none" /></g><g clip-path="url(#8)"><path id="9" transform="matrix(1 0 0 -1 0 661)" d="M432 103.6663L187.1 103.6663" stroke="#000000" stroke-width="0.25" stroke-linecap="round" fill="none" /></g><g clip-path="url(#9)"><path id="10" transform="matrix(1 0 0 -1 0 661)" d="M187.3 79.56133L72 79.56133" stroke="#000000" stroke-width="0.25" stroke-linecap="round" fill="none" /></g><g clip-path="url(#10)"><path id="11" transform="matrix(1 0 0 -1 0 661)" d="M432 79.56133L187.1 79.56133" stroke="#000000" stroke-width="0.25" stroke-linecap="round" fill="none" /></g></g></g></svg>