<svg xmlns="http://www.w3.org/2000/svg" xmlns:xlink="http://www.w3.org/1999/xlink" id="body_250" preserveAspectRatio="xMinYMin meet" viewBox="0 0 672 881"><defs><clipPath id="1"><path id="" clip-rule="evenodd" transform="matrix(1 0 0 1 0 0)" d="M0 661L0 -0.5L0 -0.5L504 -0.5L504 -0.5L504 661L504 661L0 661z" /></clipPath><clipPath id="2"><path id="" clip-rule="evenodd" transform="matrix(1 0 0 1 0 0)" d="M432 606.875L432 608.4173L432 608.4173L72 608.4173L72 608.4173L72 606.875L72 606.875L72 605.3327L72 605.3327L432 605.3327" /></clipPath><clipPath id="3"><path id="" clip-rule="evenodd" transform="matrix(1 0 0 1 0 0)" d="M72.0625 168.034L71.29134 166.4917L71.29134 166.4917L433.2086 166.4917L433.2086 166.4917L432.4375 168.034L432.4375 168.034L431.6664 169.5763L431.6664 169.5763L72.83366 169.5763" /></clipPath><clipPath id="4"><path id="" clip-rule="evenodd" transform="matrix(1 0 0 1 0 0)" d="M432.375 167.9715L433.9173 167.2003L433.9173 167.2003L433.9173 358.1682L433.9173 358.1682L432.375 357.3971L432.375 357.3971L430.8327 356.6259L430.8327 356.6259L430.8327 168.7427" /></clipPath><clipPath id="5"><path id="" clip-rule="evenodd" transform="matrix(1 0 0 1 0 0)" d="M432.4375 357.3346L433.2086 358.8769L433.2086 358.8769L71.29134 358.8769L71.29134 358.8769L72.0625 357.3346L72.0625 357.3346L72.83366 355.7923L72.83366 355.7923L431.6664 355.7923" /></clipPath><clipPath id="6"><path id="" clip-rule="evenodd" transform="matrix(1 0 0 1 0 0)" d="M72.125 357.3971L70.58268 358.1682L70.58268 358.1682L70.58268 167.2003L70.58268 167.2003L72.125 167.9715L72.125 167.9715L73.66732 168.7427L73.66732 168.7427L73.66732 356.6259" /></clipPath><clipPath id="7"><path id="" clip-rule="evenodd" transform="matrix(1 0 0 1 0 0)" d="M72.0625 485.7643L71.29134 484.222L71.29134 484.222L432.7086 484.222L432.7086 484.222L431.9375 485.7643L431.9375 485.7643L431.1664 487.3067L431.1664 487.3067L72.83366 487.3067" /></clipPath><clipPath id="8"><path id="" clip-rule="evenodd" transform="matrix(1 0 0 1 0 0)" d="M431.875 485.7018L433.4173 484.9307L433.4173 484.9307L433.4173 592.35L433.4173 592.35L431.875 592.35L431.875 592.35L430.3327 592.35L430.3327 592.35L430.3327 486.473" /></clipPath><clipPath id="9"><path id="" clip-rule="evenodd" transform="matrix(1 0 0 1 0 0)" d="M72.125 592.35L70.58268 592.35L70.58268 592.35L70.58268 484.9307L70.58268 484.9307L72.125 485.7018L72.125 485.7018L73.66732 486.473L73.66732 486.473L73.66732 592.35" /></clipPath></defs><g transform="matrix(1.333333 0 0 1.333333 0 0)"><g clip-path="url(#1)"><g clip-path="url(#2)"><path id="1" transform="matrix(1 0 0 -1 0 661)" d="M432 54.125L72 54.125" stroke="#000000" stroke-width="0.25" stroke-linecap="round" fill="none" /></g><g clip-path="url(#3)"><path id="2" transform="matrix(1 0 0 -1 0 661)" d="M72 492.966L432.5 492.966" stroke="#000000" stroke-width="0.25" stroke-linecap="round" fill="none" /></g><g clip-path="url(#4)"><path id="3" transform="matrix(1 0 0 -1 0 661)" d="M432.375 493.091L432.375 303.5404" stroke="#000000" stroke-width="0.25" stroke-linecap="round" fill="none" /></g><g clip-path="url(#5)"><path id="4" transform="matrix(1 0 0 -1 0 661)" d="M432.5 303.6654L72 303.6654" stroke="#000000" stroke-width="0.25" stroke-linecap="round" fill="none" /></g><g clip-path="url(#6)"><path id="5" transform="matrix(1 0 0 -1 0 661)" d="M72.125 303.5404L72.125 493.091" stroke="#000000" stroke-width="0.25" stroke-linecap="round" fill="none" /></g><g clip-path="url(#7)"><path id="6" transform="matrix(1 0 0 -1 0 661)" d="M72 175.2357L432 175.2357" stroke="#000000" stroke-width="0.25" stroke-linecap="round" fill="none" /></g><g clip-path="url(#8)"><path id="7" transform="matrix(1 0 0 -1 0 661)" d="M431.875 175.3607L431.875 68.65002" stroke="#000000" stroke-width="0.25" stroke-linecap="round" fill="none" /></g><g clip-path="url(#9)"><path id="8" transform="matrix(1 0 0 -1 0 661)" d="M72.125 68.65002L72.125 175.3607" stroke="#000000" stroke-width="0.25" stroke-linecap="round" fill="none" /></g><g transform="matrix(0.2400008 0 0 0.2400008 137.2896 173.159)"><g transform="matrix(1 0 0 1 0 0)"><image x="0" y="0" xlink:href="img_273.png" width="958" height="743" /></g></g></g></g></svg>