<svg xmlns="http://www.w3.org/2000/svg" xmlns:xlink="http://www.w3.org/1999/xlink" id="body_98" preserveAspectRatio="xMinYMin meet" viewBox="0 0 672 881"><defs><clipPath id="1"><path id="" clip-rule="evenodd" transform="matrix(1 0 0 1 0 0)" d="M0 661L0 -0.5L0 -0.5L504 -0.5L504 -0.5L504 661L504 661L0 661z" /></clipPath><clipPath id="2"><path id="" clip-rule="evenodd" transform="matrix(1 0 0 1 0 0)" d="M432 606.875L432 608.4173L432 608.4173L72 608.4173L72 608.4173L72 606.875L72 606.875L72 605.3327L72 605.3327L432 605.3327" /></clipPath><clipPath id="3"><path id="" clip-rule="evenodd" transform="matrix(1 0 0 1 0 0)" d="M101.3349 424.5251L101.3349 426.0674L101.3349 426.0674L72 426.0674L72 426.0674L72 424.5251L72 424.5251L72 422.9828L72 422.9828L101.3349 422.9828" /></clipPath><clipPath id="4"><path id="" clip-rule="evenodd" transform="matrix(1 0 0 1 0 0)" d="M191.4939 424.5251L191.4939 426.0674L191.4939 426.0674L101.1349 426.0674L101.1349 426.0674L101.1349 424.5251L101.1349 424.5251L101.1349 422.9828L101.1349 422.9828L191.4939 422.9828" /></clipPath><clipPath id="5"><path id="" clip-rule="evenodd" transform="matrix(1 0 0 1 0 0)" d="M235.252 424.5251L235.252 426.0674L235.252 426.0674L191.2939 426.0674L191.2939 426.0674L191.2939 424.5251L191.2939 424.5251L191.2939 422.9828L191.2939 422.9828L235.252 422.9828" /></clipPath><clipPath id="6"><path id="" clip-rule="evenodd" transform="matrix(1 0 0 1 0 0)" d="M284.62 424.5251L284.62 426.0674L284.62 426.0674L235.052 426.0674L235.052 426.0674L235.052 424.5251L235.052 424.5251L235.052 422.9828L235.052 422.9828L284.62 422.9828" /></clipPath><clipPath id="7"><path id="" clip-rule="evenodd" transform="matrix(1 0 0 1 0 0)" d="M327.9579 424.5251L327.9579 426.0674L327.9579 426.0674L284.42 426.0674L284.42 426.0674L284.42 424.5251L284.42 424.5251L284.42 422.9828L284.42 422.9828L327.9579 422.9828" /></clipPath><clipPath id="8"><path id="" clip-rule="evenodd" transform="matrix(1 0 0 1 0 0)" d="M373.5718 424.5251L373.5718 426.0674L373.5718 426.0674L327.7579 426.0674L327.7579 426.0674L327.7579 424.5251L327.7579 424.5251L327.7579 422.9828L327.7579 422.9828L373.5718 422.9828" /></clipPath><clipPath id="9"><path id="" clip-rule="evenodd" transform="matrix(1 0 0 1 0 0)" d="M101.3349 437.5751L101.3349 439.1174L101.3349 439.1174L72 439.1174L72 439.1174L72 437.5751L72 437.5751L72 436.0328L72 436.0328L101.3349 436.0328" /></clipPath><clipPath id="10"><path id="" clip-rule="evenodd" transform="matrix(1 0 0 1 0 0)" d="M191.4939 437.5751L191.4939 439.1174L191.4939 439.1174L101.1349 439.1174L101.1349 439.1174L101.1349 437.5751L101.1349 437.5751L101.1349 436.0328L101.1349 436.0328L191.4939 436.0328" /></clipPath><clipPath id="11"><path id="" clip-rule="evenodd" transform="matrix(1 0 0 1 0 0)" d="M235.252 437.5751L235.252 439.1174L235.252 439.1174L191.2939 439.1174L191.2939 439.1174L191.2939 437.5751L191.2939 437.5751L191.2939 436.0328L191.2939 436.0328L235.252 436.0328" /></clipPath><clipPath id="12"><path id="" clip-rule="evenodd" transform="matrix(1 0 0 1 0 0)" d="M284.62 437.5751L284.62 439.1174L284.62 439.1174L235.052 439.1174L235.052 439.1174L235.052 437.5751L235.052 437.5751L235.052 436.0328L235.052 436.0328L284.62 436.0328" /></clipPath><clipPath id="13"><path id="" clip-rule="evenodd" transform="matrix(1 0 0 1 0 0)" d="M327.9579 437.5751L327.9579 439.1174L327.9579 439.1174L284.42 439.1174L284.42 439.1174L284.42 437.5751L284.42 437.5751L284.42 436.0328L284.42 436.0328L327.9579 436.0328" /></clipPath><clipPath id="14"><path id="" clip-rule="evenodd" transform="matrix(1 0 0 1 0 0)" d="M373.5718 437.5751L373.5718 439.1174L373.5718 439.1174L327.7579 439.1174L327.7579 439.1174L327.7579 437.5751L327.7579 437.5751L327.7579 436.0328L327.7579 436.0328L373.5718 436.0328" /></clipPath><clipPath id="15"><path id="" clip-rule="evenodd" transform="matrix(1 0 0 1 0 0)" d="M101.3349 450.6251L101.3349 452.1674L101.3349 452.1674L72 452.1674L72 452.1674L72 450.6251L72 450.6251L72 449.0828L72 449.0828L101.3349 449.0828" /></clipPath><clipPath id="16"><path id="" clip-rule="evenodd" transform="matrix(1 0 0 1 0 0)" d="M191.4939 450.6251L191.4939 452.1674L191.4939 452.1674L101.1349 452.1674L101.1349 452.1674L101.1349 450.6251L101.1349 450.6251L101.1349 449.0828L101.1349 449.0828L191.4939 449.0828" /></clipPath><clipPath id="17"><path id="" clip-rule="evenodd" transform="matrix(1 0 0 1 0 0)" d="M235.252 450.6251L235.252 452.1674L235.252 452.1674L191.2939 452.1674L191.2939 452.1674L191.2939 450.6251L191.2939 450.6251L191.2939 449.0828L191.2939 449.0828L235.252 449.0828" /></clipPath><clipPath id="18"><path id="" clip-rule="evenodd" transform="matrix(1 0 0 1 0 0)" d="M284.62 450.6251L284.62 452.1674L284.62 452.1674L235.052 452.1674L235.052 452.1674L235.052 450.6251L235.052 450.6251L235.052 449.0828L235.052 449.0828L284.62 449.0828" /></clipPath><clipPath id="19"><path id="" clip-rule="evenodd" transform="matrix(1 0 0 1 0 0)" d="M327.9579 450.6251L327.9579 452.1674L327.9579 452.1674L284.42 452.1674L284.42 452.1674L284.42 450.6251L284.42 450.6251L284.42 449.0828L284.42 449.0828L327.9579 449.0828" /></clipPath><clipPath id="20"><path id="" clip-rule="evenodd" transform="matrix(1 0 0 1 0 0)" d="M373.5718 450.6251L373.5718 452.1674L373.5718 452.1674L327.7579 452.1674L327.7579 452.1674L327.7579 450.6251L327.7579 450.6251L327.7579 449.0828L327.7579 449.0828L373.5718 449.0828" /></clipPath><clipPath id="21"><path id="" clip-rule="evenodd" transform="matrix(1 0 0 1 0 0)" d="M101.3349 463.6751L101.3349 465.2174L101.3349 465.2174L72 465.2174L72 465.2174L72 463.6751L72 463.6751L72 462.1328L72 462.1328L101.3349 462.1328" /></clipPath><clipPath id="22"><path id="" clip-rule="evenodd" transform="matrix(1 0 0 1 0 0)" d="M191.4939 463.6751L191.4939 465.2174L191.4939 465.2174L101.1349 465.2174L101.1349 465.2174L101.1349 463.6751L101.1349 463.6751L101.1349 462.1328L101.1349 462.1328L191.4939 462.1328" /></clipPath><clipPath id="23"><path id="" clip-rule="evenodd" transform="matrix(1 0 0 1 0 0)" d="M235.252 463.6751L235.252 465.2174L235.252 465.2174L191.2939 465.2174L191.2939 465.2174L191.2939 463.6751L191.2939 463.6751L191.2939 462.1328L191.2939 462.1328L235.252 462.1328" /></clipPath><clipPath id="24"><path id="" clip-rule="evenodd" transform="matrix(1 0 0 1 0 0)" d="M284.62 463.6751L284.62 465.2174L284.62 465.2174L235.052 465.2174L235.052 465.2174L235.052 463.6751L235.052 463.6751L235.052 462.1328L235.052 462.1328L284.62 462.1328" /></clipPath><clipPath id="25"><path id="" clip-rule="evenodd" transform="matrix(1 0 0 1 0 0)" d="M327.9579 463.6751L327.9579 465.2174L327.9579 465.2174L284.42 465.2174L284.42 465.2174L284.42 463.6751L284.42 463.6751L284.42 462.1328L284.42 462.1328L327.9579 462.1328" /></clipPath><clipPath id="26"><path id="" clip-rule="evenodd" transform="matrix(1 0 0 1 0 0)" d="M373.5718 463.6751L373.5718 465.2174L373.5718 465.2174L327.7579 465.2174L327.7579 465.2174L327.7579 463.6751L327.7579 463.6751L327.7579 462.1328L327.7579 462.1328L373.5718 462.1328" /></clipPath><clipPath id="27"><path id="" clip-rule="evenodd" transform="matrix(1 0 0 1 0 0)" d="M101.3349 476.7251L101.3349 478.2674L101.3349 478.2674L72 478.2674L72 478.2674L72 476.7251L72 476.7251L72 475.1827L72 475.1827L101.3349 475.1827" /></clipPath><clipPath id="28"><path id="" clip-rule="evenodd" transform="matrix(1 0 0 1 0 0)" d="M191.4939 476.7251L191.4939 478.2674L191.4939 478.2674L101.1349 478.2674L101.1349 478.2674L101.1349 476.7251L101.1349 476.7251L101.1349 475.1827L101.1349 475.1827L191.4939 475.1827" /></clipPath><clipPath id="29"><path id="" clip-rule="evenodd" transform="matrix(1 0 0 1 0 0)" d="M235.252 476.7251L235.252 478.2674L235.252 478.2674L191.2939 478.2674L191.2939 478.2674L191.2939 476.7251L191.2939 476.7251L191.2939 475.1827L191.2939 475.1827L235.252 475.1827" /></clipPath><clipPath id="30"><path id="" clip-rule="evenodd" transform="matrix(1 0 0 1 0 0)" d="M284.62 476.7251L284.62 478.2674L284.62 478.2674L235.052 478.2674L235.052 478.2674L235.052 476.7251L235.052 476.7251L235.052 475.1827L235.052 475.1827L284.62 475.1827" /></clipPath><clipPath id="31"><path id="" clip-rule="evenodd" transform="matrix(1 0 0 1 0 0)" d="M327.9579 476.7251L327.9579 478.2674L327.9579 478.2674L284.42 478.2674L284.42 478.2674L284.42 476.7251L284.42 476.7251L284.42 475.1827L284.42 475.1827L327.9579 475.1827" /></clipPath><clipPath id="32"><path id="" clip-rule="evenodd" transform="matrix(1 0 0 1 0 0)" d="M373.5718 476.7251L373.5718 478.2674L373.5718 478.2674L327.7579 478.2674L327.7579 478.2674L327.7579 476.7251L327.7579 476.7251L327.7579 475.1827L327.7579 475.1827L373.5718 475.1827" /></clipPath><clipPath id="33"><path id="" clip-rule="evenodd" transform="matrix(1 0 0 1 0 0)" d="M101.3349 489.7751L101.3349 491.3174L101.3349 491.3174L72 491.3174L72 491.3174L72 489.7751L72 489.7751L72 488.2328L72 488.2328L101.3349 488.2328" /></clipPath><clipPath id="34"><path id="" clip-rule="evenodd" transform="matrix(1 0 0 1 0 0)" d="M191.4939 489.7751L191.4939 491.3174L191.4939 491.3174L101.1349 491.3174L101.1349 491.3174L101.1349 489.7751L101.1349 489.7751L101.1349 488.2328L101.1349 488.2328L191.4939 488.2328" /></clipPath><clipPath id="35"><path id="" clip-rule="evenodd" transform="matrix(1 0 0 1 0 0)" d="M235.252 489.7751L235.252 491.3174L235.252 491.3174L191.2939 491.3174L191.2939 491.3174L191.2939 489.7751L191.2939 489.7751L191.2939 488.2328L191.2939 488.2328L235.252 488.2328" /></clipPath><clipPath id="36"><path id="" clip-rule="evenodd" transform="matrix(1 0 0 1 0 0)" d="M284.62 489.7751L284.62 491.3174L284.62 491.3174L235.052 491.3174L235.052 491.3174L235.052 489.7751L235.052 489.7751L235.052 488.2328L235.052 488.2328L284.62 488.2328" /></clipPath><clipPath id="37"><path id="" clip-rule="evenodd" transform="matrix(1 0 0 1 0 0)" d="M327.9579 489.7751L327.9579 491.3174L327.9579 491.3174L284.42 491.3174L284.42 491.3174L284.42 489.7751L284.42 489.7751L284.42 488.2328L284.42 488.2328L327.9579 488.2328" /></clipPath><clipPath id="38"><path id="" clip-rule="evenodd" transform="matrix(1 0 0 1 0 0)" d="M373.5718 489.7751L373.5718 491.3174L373.5718 491.3174L327.7579 491.3174L327.7579 491.3174L327.7579 489.7751L327.7579 489.7751L327.7579 488.2328L327.7579 488.2328L373.5718 488.2328" /></clipPath></defs><g transform="matrix(1.333333 0 0 1.333333 0 0)"><g clip-path="url(#1)"><g clip-path="url(#2)"><path id="1" transform="matrix(1 0 0 -1 0 661)" d="M432 54.125L72 54.125" stroke="#000000" stroke-width="0.25" stroke-linecap="round" fill="none" /></g><path id="2" transform="matrix(1 0 0 -1 0 661)" d="M72 263.1999L101.2349 263.1999L101.2349 263.1999L101.2349 249.3999L101.2349 249.3999L72 249.3999z" stroke="none" fill="#000000" fill-rule="evenodd" /><path id="3" transform="matrix(1 0 0 -1 0 661)" d="M101.2349 263.1999L191.3939 263.1999L191.3939 263.1999L191.3939 249.3999L191.3939 249.3999L101.2349 249.3999z" stroke="none" fill="#000000" fill-rule="evenodd" /><path id="4" transform="matrix(1 0 0 -1 0 661)" d="M191.3939 263.1999L235.152 263.1999L235.152 263.1999L235.152 249.3999L235.152 249.3999L191.3939 249.3999z" stroke="none" fill="#000000" fill-rule="evenodd" /><path id="5" transform="matrix(1 0 0 -1 0 661)" d="M235.152 263.1999L284.52 263.1999L284.52 263.1999L284.52 249.3999L284.52 249.3999L235.152 249.3999z" stroke="none" fill="#000000" fill-rule="evenodd" /><path id="6" transform="matrix(1 0 0 -1 0 661)" d="M284.52 263.1999L327.8579 263.1999L327.8579 263.1999L327.8579 249.3999L327.8579 249.3999L284.52 249.3999z" stroke="none" fill="#000000" fill-rule="evenodd" /><path id="7" transform="matrix(1 0 0 -1 0 661)" d="M327.8579 263.1999L373.5718 263.1999L373.5718 263.1999L373.5718 249.3999L373.5718 249.3999L327.8579 249.3999z" stroke="none" fill="#000000" fill-rule="evenodd" /><g clip-path="url(#3)"><path id="8" transform="matrix(1 0 0 -1 0 661)" d="M101.3349 236.4749L72 236.4749" stroke="#000000" stroke-width="0.25" stroke-linecap="round" fill="none" /></g><g clip-path="url(#4)"><path id="9" transform="matrix(1 0 0 -1 0 661)" d="M191.4939 236.4749L101.1349 236.4749" stroke="#000000" stroke-width="0.25" stroke-linecap="round" fill="none" /></g><g clip-path="url(#5)"><path id="10" transform="matrix(1 0 0 -1 0 661)" d="M235.252 236.4749L191.2939 236.4749" stroke="#000000" stroke-width="0.25" stroke-linecap="round" fill="none" /></g><g clip-path="url(#6)"><path id="11" transform="matrix(1 0 0 -1 0 661)" d="M284.62 236.4749L235.052 236.4749" stroke="#000000" stroke-width="0.25" stroke-linecap="round" fill="none" /></g><g clip-path="url(#7)"><path id="12" transform="matrix(1 0 0 -1 0 661)" d="M327.9579 236.4749L284.42 236.4749" stroke="#000000" stroke-width="0.25" stroke-linecap="round" fill="none" /></g><g clip-path="url(#8)"><path id="13" transform="matrix(1 0 0 -1 0 661)" d="M373.5718 236.4749L327.7579 236.4749" stroke="#000000" stroke-width="0.25" stroke-linecap="round" fill="none" /></g><g clip-path="url(#9)"><path id="14" transform="matrix(1 0 0 -1 0 661)" d="M101.3349 223.4249L72 223.4249" stroke="#000000" stroke-width="0.25" stroke-linecap="round" fill="none" /></g><g clip-path="url(#10)"><path id="15" transform="matrix(1 0 0 -1 0 661)" d="M191.4939 223.4249L101.1349 223.4249" stroke="#000000" stroke-width="0.25" stroke-linecap="round" fill="none" /></g><g clip-path="url(#11)"><path id="16" transform="matrix(1 0 0 -1 0 661)" d="M235.252 223.4249L191.2939 223.4249" stroke="#000000" stroke-width="0.25" stroke-linecap="round" fill="none" /></g><g clip-path="url(#12)"><path id="17" transform="matrix(1 0 0 -1 0 661)" d="M284.62 223.4249L235.052 223.4249" stroke="#000000" stroke-width="0.25" stroke-linecap="round" fill="none" /></g><g clip-path="url(#13)"><path id="18" transform="matrix(1 0 0 -1 0 661)" d="M327.9579 223.4249L284.42 223.4249" stroke="#000000" stroke-width="0.25" stroke-linecap="round" fill="none" /></g><g clip-path="url(#14)"><path id="19" transform="matrix(1 0 0 -1 0 661)" d="M373.5718 223.4249L327.7579 223.4249" stroke="#000000" stroke-width="0.25" stroke-linecap="round" fill="none" /></g><g clip-path="url(#15)"><path id="20" transform="matrix(1 0 0 -1 0 661)" d="M101.3349 210.3749L72 210.3749" stroke="#000000" stroke-width="0.25" stroke-linecap="round" fill="none" /></g><g clip-path="url(#16)"><path id="21" transform="matrix(1 0 0 -1 0 661)" d="M191.4939 210.3749L101.1349 210.3749" stroke="#000000" stroke-width="0.25" stroke-linecap="round" fill="none" /></g><g clip-path="url(#17)"><path id="22" transform="matrix(1 0 0 -1 0 661)" d="M235.252 210.3749L191.2939 210.3749" stroke="#000000" stroke-width="0.25" stroke-linecap="round" fill="none" /></g><g clip-path="url(#18)"><path id="23" transform="matrix(1 0 0 -1 0 661)" d="M284.62 210.3749L235.052 210.3749" stroke="#000000" stroke-width="0.25" stroke-linecap="round" fill="none" /></g><g clip-path="url(#19)"><path id="24" transform="matrix(1 0 0 -1 0 661)" d="M327.9579 210.3749L284.42 210.3749" stroke="#000000" stroke-width="0.25" stroke-linecap="round" fill="none" /></g><g clip-path="url(#20)"><path id="25" transform="matrix(1 0 0 -1 0 661)" d="M373.5718 210.3749L327.7579 210.3749" stroke="#000000" stroke-width="0.25" stroke-linecap="round" fill="none" /></g><g clip-path="url(#21)"><path id="26" transform="matrix(1 0 0 -1 0 661)" d="M101.3349 197.3249L72 197.3249" stroke="#000000" stroke-width="0.25" stroke-linecap="round" fill="none" /></g><g clip-path="url(#22)"><path id="27" transform="matrix(1 0 0 -1 0 661)" d="M191.4939 197.3249L101.1349 197.3249" stroke="#000000" stroke-width="0.25" stroke-linecap="round" fill="none" /></g><g clip-path="url(#23)"><path id="28" transform="matrix(1 0 0 -1 0 661)" d="M235.252 197.3249L191.2939 197.3249" stroke="#000000" stroke-width="0.25" stroke-linecap="round" fill="none" /></g><g clip-path="url(#24)"><path id="29" transform="matrix(1 0 0 -1 0 661)" d="M284.62 197.3249L235.052 197.3249" stroke="#000000" stroke-width="0.25" stroke-linecap="round" fill="none" /></g><g clip-path="url(#25)"><path id="30" transform="matrix(1 0 0 -1 0 661)" d="M327.9579 197.3249L284.42 197.3249" stroke="#000000" stroke-width="0.25" stroke-linecap="round" fill="none" /></g><g clip-path="url(#26)"><path id="31" transform="matrix(1 0 0 -1 0 661)" d="M373.5718 197.3249L327.7579 197.3249" stroke="#000000" stroke-width="0.25" stroke-linecap="round" fill="none" /></g><g clip-path="url(#27)"><path id="32" transform="matrix(1 0 0 -1 0 661)" d="M101.3349 184.2749L72 184.2749" stroke="#000000" stroke-width="0.25" stroke-linecap="round" fill="none" /></g><g clip-path="url(#28)"><path id="33" transform="matrix(1 0 0 -1 0 661)" d="M191.4939 184.2749L101.1349 184.2749" stroke="#000000" stroke-width="0.25" stroke-linecap="round" fill="none" /></g><g clip-path="url(#29)"><path id="34" transform="matrix(1 0 0 -1 0 661)" d="M235.252 184.2749L191.2939 184.2749" stroke="#000000" stroke-width="0.25" stroke-linecap="round" fill="none" /></g><g clip-path="url(#30)"><path id="35" transform="matrix(1 0 0 -1 0 661)" d="M284.62 184.2749L235.052 184.2749" stroke="#000000" stroke-width="0.25" stroke-linecap="round" fill="none" /></g><g clip-path="url(#31)"><path id="36" transform="matrix(1 0 0 -1 0 661)" d="M327.9579 184.2749L284.42 184.2749" stroke="#000000" stroke-width="0.25" stroke-linecap="round" fill="none" /></g><g clip-path="url(#32)"><path id="37" transform="matrix(1 0 0 -1 0 661)" d="M373.5718 184.2749L327.7579 184.2749" stroke="#000000" stroke-width="0.25" stroke-linecap="round" fill="none" /></g><g clip-path="url(#33)"><path id="38" transform="matrix(1 0 0 -1 0 661)" d="M101.3349 171.2249L72 171.2249" stroke="#000000" stroke-width="0.25" stroke-linecap="round" fill="none" /></g><g clip-path="url(#34)"><path id="39" transform="matrix(1 0 0 -1 0 661)" d="M191.4939 171.2249L101.1349 171.2249" stroke="#000000" stroke-width="0.25" stroke-linecap="round" fill="none" /></g><g clip-path="url(#35)"><path id="40" transform="matrix(1 0 0 -1 0 661)" d="M235.252 171.2249L191.2939 171.2249" stroke="#000000" stroke-width="0.25" stroke-linecap="round" fill="none" /></g><g clip-path="url(#36)"><path id="41" transform="matrix(1 0 0 -1 0 661)" d="M284.62 171.2249L235.052 171.2249" stroke="#000000" stroke-width="0.25" stroke-linecap="round" fill="none" /></g><g clip-path="url(#37)"><path id="42" transform="matrix(1 0 0 -1 0 661)" d="M327.9579 171.2249L284.42 171.2249" stroke="#000000" stroke-width="0.25" stroke-linecap="round" fill="none" /></g><g clip-path="url(#38)"><path id="43" transform="matrix(1 0 0 -1 0 661)" d="M373.5718 171.2249L327.7579 171.2249" stroke="#000000" stroke-width="0.25" stroke-linecap="round" fill="none" /></g></g></g></svg>