<svg xmlns="http://www.w3.org/2000/svg" xmlns:xlink="http://www.w3.org/1999/xlink" id="body_82" preserveAspectRatio="xMinYMin meet" viewBox="0 0 672 881"><defs><clipPath id="1"><path id="" clip-rule="evenodd" transform="matrix(1 0 0 1 0 0)" d="M0 661L0 -0.5L0 -0.5L504 -0.5L504 -0.5L504 661L504 661L0 661z" /></clipPath><clipPath id="2"><path id="" clip-rule="evenodd" transform="matrix(1 0 0 1 0 0)" d="M432 606.875L432 608.4173L432 608.4173L72 608.4173L72 608.4173L72 606.875L72 606.875L72 605.3327L72 605.3327L432 605.3327" /></clipPath><clipPath id="3"><path id="" clip-rule="evenodd" transform="matrix(1 0 0 1 0 0)" d="M149.5209 443.854L149.5209 445.3963L149.5209 445.3963L72 445.3963L72 445.3963L72 443.854L72 443.854L72 442.3116L72 442.3116L149.5209 442.3116" /></clipPath><clipPath id="4"><path id="" clip-rule="evenodd" transform="matrix(1 0 0 1 0 0)" d="M309.471 443.854L309.471 445.3963L309.471 445.3963L149.321 445.3963L149.321 445.3963L149.321 443.854L149.321 443.854L149.321 442.3116L149.321 442.3116L309.471 442.3116" /></clipPath><clipPath id="5"><path id="" clip-rule="evenodd" transform="matrix(1 0 0 1 0 0)" d="M149.5209 457.159L149.5209 458.7013L149.5209 458.7013L72 458.7013L72 458.7013L72 457.159L72 457.159L72 455.6166L72 455.6166L149.5209 455.6166" /></clipPath><clipPath id="6"><path id="" clip-rule="evenodd" transform="matrix(1 0 0 1 0 0)" d="M309.471 457.159L309.471 458.7013L309.471 458.7013L149.321 458.7013L149.321 458.7013L149.321 457.159L149.321 457.159L149.321 455.6166L149.321 455.6166L309.471 455.6166" /></clipPath><clipPath id="7"><path id="" clip-rule="evenodd" transform="matrix(1 0 0 1 0 0)" d="M149.5209 470.464L149.5209 472.0063L149.5209 472.0063L72 472.0063L72 472.0063L72 470.464L72 470.464L72 468.9216L72 468.9216L149.5209 468.9216" /></clipPath><clipPath id="8"><path id="" clip-rule="evenodd" transform="matrix(1 0 0 1 0 0)" d="M309.471 470.464L309.471 472.0063L309.471 472.0063L149.321 472.0063L149.321 472.0063L149.321 470.464L149.321 470.464L149.321 468.9216L149.321 468.9216L309.471 468.9216" /></clipPath><clipPath id="9"><path id="" clip-rule="evenodd" transform="matrix(1 0 0 1 0 0)" d="M149.5209 483.769L149.5209 485.3113L149.5209 485.3113L72 485.3113L72 485.3113L72 483.769L72 483.769L72 482.2266L72 482.2266L149.5209 482.2266" /></clipPath><clipPath id="10"><path id="" clip-rule="evenodd" transform="matrix(1 0 0 1 0 0)" d="M309.471 483.769L309.471 485.3113L309.471 485.3113L149.321 485.3113L149.321 485.3113L149.321 483.769L149.321 483.769L149.321 482.2266L149.321 482.2266L309.471 482.2266" /></clipPath><clipPath id="11"><path id="" clip-rule="evenodd" transform="matrix(1 0 0 1 0 0)" d="M149.5209 497.0739L149.5209 498.6163L149.5209 498.6163L72 498.6163L72 498.6163L72 497.0739L72 497.0739L72 495.5316L72 495.5316L149.5209 495.5316" /></clipPath><clipPath id="12"><path id="" clip-rule="evenodd" transform="matrix(1 0 0 1 0 0)" d="M309.471 497.0739L309.471 498.6163L309.471 498.6163L149.321 498.6163L149.321 498.6163L149.321 497.0739L149.321 497.0739L149.321 495.5316L149.321 495.5316L309.471 495.5316" /></clipPath></defs><g transform="matrix(1.333333 0 0 1.333333 0 0)"><g clip-path="url(#1)"><g clip-path="url(#2)"><path id="1" transform="matrix(1 0 0 -1 0 661)" d="M432 54.125L72 54.125" stroke="#000000" stroke-width="0.25" stroke-linecap="round" fill="none" /></g><path id="2" transform="matrix(1 0 0 -1 0 661)" d="M72 244.126L149.4209 244.126L149.4209 244.126L149.4209 230.326L149.4209 230.326L72 230.326z" stroke="none" fill="#000000" fill-rule="evenodd" /><path id="3" transform="matrix(1 0 0 -1 0 661)" d="M149.4209 244.126L309.471 244.126L309.471 244.126L309.471 230.326L309.471 230.326L149.4209 230.326z" stroke="none" fill="#000000" fill-rule="evenodd" /><g clip-path="url(#3)"><path id="4" transform="matrix(1 0 0 -1 0 661)" d="M149.5209 217.146L72 217.146" stroke="#000000" stroke-width="0.25" stroke-linecap="round" fill="none" /></g><g clip-path="url(#4)"><path id="5" transform="matrix(1 0 0 -1 0 661)" d="M309.471 217.146L149.321 217.146" stroke="#000000" stroke-width="0.25" stroke-linecap="round" fill="none" /></g><g clip-path="url(#5)"><path id="6" transform="matrix(1 0 0 -1 0 661)" d="M149.5209 203.841L72 203.841" stroke="#000000" stroke-width="0.25" stroke-linecap="round" fill="none" /></g><g clip-path="url(#6)"><path id="7" transform="matrix(1 0 0 -1 0 661)" d="M309.471 203.841L149.321 203.841" stroke="#000000" stroke-width="0.25" stroke-linecap="round" fill="none" /></g><g clip-path="url(#7)"><path id="8" transform="matrix(1 0 0 -1 0 661)" d="M149.5209 190.536L72 190.536" stroke="#000000" stroke-width="0.25" stroke-linecap="round" fill="none" /></g><g clip-path="url(#8)"><path id="9" transform="matrix(1 0 0 -1 0 661)" d="M309.471 190.536L149.321 190.536" stroke="#000000" stroke-width="0.25" stroke-linecap="round" fill="none" /></g><g clip-path="url(#9)"><path id="10" transform="matrix(1 0 0 -1 0 661)" d="M149.5209 177.231L72 177.231" stroke="#000000" stroke-width="0.25" stroke-linecap="round" fill="none" /></g><g clip-path="url(#10)"><path id="11" transform="matrix(1 0 0 -1 0 661)" d="M309.471 177.231L149.321 177.231" stroke="#000000" stroke-width="0.25" stroke-linecap="round" fill="none" /></g><g clip-path="url(#11)"><path id="12" transform="matrix(1 0 0 -1 0 661)" d="M149.5209 163.9261L72 163.9261" stroke="#000000" stroke-width="0.25" stroke-linecap="round" fill="none" /></g><g clip-path="url(#12)"><path id="13" transform="matrix(1 0 0 -1 0 661)" d="M309.471 163.9261L149.321 163.9261" stroke="#000000" stroke-width="0.25" stroke-linecap="round" fill="none" /></g></g></g></svg>