<svg xmlns="http://www.w3.org/2000/svg" xmlns:xlink="http://www.w3.org/1999/xlink" id="body_68" preserveAspectRatio="xMinYMin meet" viewBox="0 0 672 881"><defs><clipPath id="1"><path id="" clip-rule="evenodd" transform="matrix(1 0 0 1 0 0)" d="M0 661L0 -0.5L0 -0.5L504 -0.5L504 -0.5L504 661L504 661L0 661z" /></clipPath><clipPath id="2"><path id="" clip-rule="evenodd" transform="matrix(1 0 0 1 0 0)" d="M432 606.875L432 608.4173L432 608.4173L72 608.4173L72 608.4173L72 606.875L72 606.875L72 605.3327L72 605.3327L432 605.3327" /></clipPath><clipPath id="3"><path id="" clip-rule="evenodd" transform="matrix(1 0 0 1 0 0)" d="M295.3 445.2175L295.3 446.7599L295.3 446.7599L72 446.7599L72 446.7599L72 445.2175L72 445.2175L72 443.6752L72 443.6752L295.3 443.6752" /></clipPath><clipPath id="4"><path id="" clip-rule="evenodd" transform="matrix(1 0 0 1 0 0)" d="M432 445.2175L432 446.7599L432 446.7599L295.1 446.7599L295.1 446.7599L295.1 445.2175L295.1 445.2175L295.1 443.6752L295.1 443.6752L432 443.6752" /></clipPath><clipPath id="5"><path id="" clip-rule="evenodd" transform="matrix(1 0 0 1 0 0)" d="M295.3 458.5225L295.3 460.0648L295.3 460.0648L72 460.0648L72 460.0648L72 458.5225L72 458.5225L72 456.9802L72 456.9802L295.3 456.9802" /></clipPath><clipPath id="6"><path id="" clip-rule="evenodd" transform="matrix(1 0 0 1 0 0)" d="M432 458.5225L432 460.0648L432 460.0648L295.1 460.0648L295.1 460.0648L295.1 458.5225L295.1 458.5225L295.1 456.9802L295.1 456.9802L432 456.9802" /></clipPath><clipPath id="7"><path id="" clip-rule="evenodd" transform="matrix(1 0 0 1 0 0)" d="M295.3 471.8275L295.3 473.3699L295.3 473.3699L72 473.3699L72 473.3699L72 471.8275L72 471.8275L72 470.2852L72 470.2852L295.3 470.2852" /></clipPath><clipPath id="8"><path id="" clip-rule="evenodd" transform="matrix(1 0 0 1 0 0)" d="M432 471.8275L432 473.3699L432 473.3699L295.1 473.3699L295.1 473.3699L295.1 471.8275L295.1 471.8275L295.1 470.2852L295.1 470.2852L432 470.2852" /></clipPath><clipPath id="9"><path id="" clip-rule="evenodd" transform="matrix(1 0 0 1 0 0)" d="M295.3 485.1325L295.3 486.6749L295.3 486.6749L72 486.6749L72 486.6749L72 485.1325L72 485.1325L72 483.5902L72 483.5902L295.3 483.5902" /></clipPath><clipPath id="10"><path id="" clip-rule="evenodd" transform="matrix(1 0 0 1 0 0)" d="M432 485.1325L432 486.6749L432 486.6749L295.1 486.6749L295.1 486.6749L295.1 485.1325L295.1 485.1325L295.1 483.5902L295.1 483.5902L432 483.5902" /></clipPath><clipPath id="11"><path id="" clip-rule="evenodd" transform="matrix(1 0 0 1 0 0)" d="M295.3 530.5825L295.3 532.1249L295.3 532.1249L72 532.1249L72 532.1249L72 530.5825L72 530.5825L72 529.0402L72 529.0402L295.3 529.0402" /></clipPath><clipPath id="12"><path id="" clip-rule="evenodd" transform="matrix(1 0 0 1 0 0)" d="M432 530.5825L432 532.1249L432 532.1249L295.1 532.1249L295.1 532.1249L295.1 530.5825L295.1 530.5825L295.1 529.0402L295.1 529.0402L432 529.0402" /></clipPath><clipPath id="13"><path id="" clip-rule="evenodd" transform="matrix(1 0 0 1 0 0)" d="M295.3 576.0325L295.3 577.5748L295.3 577.5748L72 577.5748L72 577.5748L72 576.0325L72 576.0325L72 574.4902L72 574.4902L295.3 574.4902" /></clipPath><clipPath id="14"><path id="" clip-rule="evenodd" transform="matrix(1 0 0 1 0 0)" d="M432 576.0325L432 577.5748L432 577.5748L295.1 577.5748L295.1 577.5748L295.1 576.0325L295.1 576.0325L295.1 574.4902L295.1 574.4902L432 574.4902" /></clipPath><clipPath id="15"><path id="" clip-rule="evenodd" transform="matrix(1 0 0 1 0 0)" d="M295.3 589.3375L295.3 590.8799L295.3 590.8799L72 590.8799L72 590.8799L72 589.3375L72 589.3375L72 587.7952L72 587.7952L295.3 587.7952" /></clipPath><clipPath id="16"><path id="" clip-rule="evenodd" transform="matrix(1 0 0 1 0 0)" d="M432 589.3375L432 590.8799L432 590.8799L295.1 590.8799L295.1 590.8799L295.1 589.3375L295.1 589.3375L295.1 587.7952L295.1 587.7952L432 587.7952" /></clipPath></defs><g transform="matrix(1.333333 0 0 1.333333 0 0)"><g clip-path="url(#1)"><g clip-path="url(#2)"><path id="1" transform="matrix(1 0 0 -1 0 661)" d="M432 54.125L72 54.125" stroke="#000000" stroke-width="0.25" stroke-linecap="round" fill="none" /></g><path id="2" transform="matrix(1 0 0 -1 0 661)" d="M72 264.8725L295.2 264.8725L295.2 264.8725L295.2 251.0725L295.2 251.0725L72 251.0725z" stroke="none" fill="#000000" fill-rule="evenodd" /><path id="3" transform="matrix(1 0 0 -1 0 661)" d="M295.2 264.8725L432 264.8725L432 264.8725L432 251.0725L432 251.0725L295.2 251.0725z" stroke="none" fill="#000000" fill-rule="evenodd" /><g clip-path="url(#3)"><path id="4" transform="matrix(1 0 0 -1 0 661)" d="M295.3 215.7825L72 215.7825" stroke="#000000" stroke-width="0.25" stroke-linecap="round" fill="none" /></g><g clip-path="url(#4)"><path id="5" transform="matrix(1 0 0 -1 0 661)" d="M432 215.7825L295.1 215.7825" stroke="#000000" stroke-width="0.25" stroke-linecap="round" fill="none" /></g><g clip-path="url(#5)"><path id="6" transform="matrix(1 0 0 -1 0 661)" d="M295.3 202.4775L72 202.4775" stroke="#000000" stroke-width="0.25" stroke-linecap="round" fill="none" /></g><g clip-path="url(#6)"><path id="7" transform="matrix(1 0 0 -1 0 661)" d="M432 202.4775L295.1 202.4775" stroke="#000000" stroke-width="0.25" stroke-linecap="round" fill="none" /></g><g clip-path="url(#7)"><path id="8" transform="matrix(1 0 0 -1 0 661)" d="M295.3 189.1725L72 189.1725" stroke="#000000" stroke-width="0.25" stroke-linecap="round" fill="none" /></g><g clip-path="url(#8)"><path id="9" transform="matrix(1 0 0 -1 0 661)" d="M432 189.1725L295.1 189.1725" stroke="#000000" stroke-width="0.25" stroke-linecap="round" fill="none" /></g><g clip-path="url(#9)"><path id="10" transform="matrix(1 0 0 -1 0 661)" d="M295.3 175.8675L72 175.8675" stroke="#000000" stroke-width="0.25" stroke-linecap="round" fill="none" /></g><g clip-path="url(#10)"><path id="11" transform="matrix(1 0 0 -1 0 661)" d="M432 175.8675L295.1 175.8675" stroke="#000000" stroke-width="0.25" stroke-linecap="round" fill="none" /></g><g clip-path="url(#11)"><path id="12" transform="matrix(1 0 0 -1 0 661)" d="M295.3 130.4175L72 130.4175" stroke="#000000" stroke-width="0.25" stroke-linecap="round" fill="none" /></g><g clip-path="url(#12)"><path id="13" transform="matrix(1 0 0 -1 0 661)" d="M432 130.4175L295.1 130.4175" stroke="#000000" stroke-width="0.25" stroke-linecap="round" fill="none" /></g><g clip-path="url(#13)"><path id="14" transform="matrix(1 0 0 -1 0 661)" d="M295.3 84.96747L72 84.96747" stroke="#000000" stroke-width="0.25" stroke-linecap="round" fill="none" /></g><g clip-path="url(#14)"><path id="15" transform="matrix(1 0 0 -1 0 661)" d="M432 84.96747L295.1 84.96747" stroke="#000000" stroke-width="0.25" stroke-linecap="round" fill="none" /></g><g clip-path="url(#15)"><path id="16" transform="matrix(1 0 0 -1 0 661)" d="M295.3 71.66247L72 71.66247" stroke="#000000" stroke-width="0.25" stroke-linecap="round" fill="none" /></g><g clip-path="url(#16)"><path id="17" transform="matrix(1 0 0 -1 0 661)" d="M432 71.66247L295.1 71.66247" stroke="#000000" stroke-width="0.25" stroke-linecap="round" fill="none" /></g><g transform="matrix(0.09876739 0 0 0.0987674 83 151.073)"><g transform="matrix(1 0 0 1 0 0)"><image x="0" y="0" xlink:href="img_22.png" width="503" height="479" /></g></g></g></g></svg>