<svg xmlns="http://www.w3.org/2000/svg" xmlns:xlink="http://www.w3.org/1999/xlink" id="body_257" preserveAspectRatio="xMinYMin meet" viewBox="0 0 672 881"><defs><clipPath id="1"><path id="" clip-rule="evenodd" transform="matrix(1 0 0 1 0 0)" d="M0 661L0 -0.5L0 -0.5L504 -0.5L504 -0.5L504 661L504 661L0 661z" /></clipPath><clipPath id="2"><path id="" clip-rule="evenodd" transform="matrix(1 0 0 1 0 0)" d="M432 606.875L432 608.4173L432 608.4173L72 608.4173L72 608.4173L72 606.875L72 606.875L72 605.3327L72 605.3327L432 605.3327" /></clipPath><clipPath id="3"><path id="" clip-rule="evenodd" transform="matrix(1 0 0 1 0 0)" d="M72.0625 431.6345L71.29134 430.0922L71.29134 430.0922L433.2086 430.0922L433.2086 430.0922L432.4375 431.6345L432.4375 431.6345L431.6664 433.1768L431.6664 433.1768L72.83366 433.1768" /></clipPath><clipPath id="4"><path id="" clip-rule="evenodd" transform="matrix(1 0 0 1 0 0)" d="M432.375 431.572L433.9173 430.8008L433.9173 430.8008L433.9173 555.7686L433.9173 555.7686L432.375 554.9974L432.375 554.9974L430.8327 554.2262L430.8327 554.2262L430.8327 432.3431" /></clipPath><clipPath id="5"><path id="" clip-rule="evenodd" transform="matrix(1 0 0 1 0 0)" d="M432.4375 554.9349L433.2086 556.4772L433.2086 556.4772L71.29134 556.4772L71.29134 556.4772L72.0625 554.9349L72.0625 554.9349L72.83366 553.3926L72.83366 553.3926L431.6664 553.3926" /></clipPath><clipPath id="6"><path id="" clip-rule="evenodd" transform="matrix(1 0 0 1 0 0)" d="M72.125 554.9974L70.58268 555.7686L70.58268 555.7686L70.58268 430.8008L70.58268 430.8008L72.125 431.572L72.125 431.572L73.66732 432.3431L73.66732 432.3431L73.66732 554.2262" /></clipPath></defs><g transform="matrix(1.333333 0 0 1.333333 0 0)"><g clip-path="url(#1)"><g clip-path="url(#2)"><path id="1" transform="matrix(1 0 0 -1 0 661)" d="M432 54.125L72 54.125" stroke="#000000" stroke-width="0.25" stroke-linecap="round" fill="none" /></g><g clip-path="url(#3)"><path id="2" transform="matrix(1 0 0 -1 0 661)" d="M72 229.3655L432.5 229.3655" stroke="#000000" stroke-width="0.25" stroke-linecap="round" fill="none" /></g><g clip-path="url(#4)"><path id="3" transform="matrix(1 0 0 -1 0 661)" d="M432.375 229.4905L432.375 105.9401" stroke="#000000" stroke-width="0.25" stroke-linecap="round" fill="none" /></g><g clip-path="url(#5)"><path id="4" transform="matrix(1 0 0 -1 0 661)" d="M432.5 106.0651L72 106.0651" stroke="#000000" stroke-width="0.25" stroke-linecap="round" fill="none" /></g><g clip-path="url(#6)"><path id="5" transform="matrix(1 0 0 -1 0 661)" d="M72.125 105.9401L72.125 229.4905" stroke="#000000" stroke-width="0.25" stroke-linecap="round" fill="none" /></g><g transform="matrix(0.2400008 0 0 0.2400008 206.1698 436.7595)"><g transform="matrix(1 0 0 1 0 0)"><image x="0" y="0" xlink:href="img_282.png" width="384" height="468" /></g></g></g></g></svg>