<svg xmlns="http://www.w3.org/2000/svg" xmlns:xlink="http://www.w3.org/1999/xlink" id="body_74" preserveAspectRatio="xMinYMin meet" viewBox="0 0 672 881"><defs><clipPath id="1"><path id="" clip-rule="evenodd" transform="matrix(1 0 0 1 0 0)" d="M0 661L0 -0.5L0 -0.5L504 -0.5L504 -0.5L504 661L504 661L0 661z" /></clipPath><clipPath id="2"><path id="" clip-rule="evenodd" transform="matrix(1 0 0 1 0 0)" d="M432 606.875L432 608.4173L432 608.4173L72 608.4173L72 608.4173L72 606.875L72 606.875L72 605.3327L72 605.3327L432 605.3327" /></clipPath><clipPath id="3"><path id="" clip-rule="evenodd" transform="matrix(1 0 0 1 0 0)" d="M223.3 101.825L223.3 103.3673L223.3 103.3673L72 103.3673L72 103.3673L72 101.825L72 101.825L72 100.2827L72 100.2827L223.3 100.2827" /></clipPath><clipPath id="4"><path id="" clip-rule="evenodd" transform="matrix(1 0 0 1 0 0)" d="M386.9455 101.825L386.9455 103.3673L386.9455 103.3673L223.1 103.3673L223.1 103.3673L223.1 101.825L223.1 101.825L223.1 100.2827L223.1 100.2827L386.9455 100.2827" /></clipPath><clipPath id="5"><path id="" clip-rule="evenodd" transform="matrix(1 0 0 1 0 0)" d="M432 101.825L432 103.3673L432 103.3673L386.7455 103.3673L386.7455 103.3673L386.7455 101.825L386.7455 101.825L386.7455 100.2827L386.7455 100.2827L432 100.2827" /></clipPath><clipPath id="6"><path id="" clip-rule="evenodd" transform="matrix(1 0 0 1 0 0)" d="M223.3 136.475L223.3 138.0173L223.3 138.0173L72 138.0173L72 138.0173L72 136.475L72 136.475L72 134.9327L72 134.9327L223.3 134.9327" /></clipPath><clipPath id="7"><path id="" clip-rule="evenodd" transform="matrix(1 0 0 1 0 0)" d="M386.9455 136.475L386.9455 138.0173L386.9455 138.0173L223.1 138.0173L223.1 138.0173L223.1 136.475L223.1 136.475L223.1 134.9327L223.1 134.9327L386.9455 134.9327" /></clipPath><clipPath id="8"><path id="" clip-rule="evenodd" transform="matrix(1 0 0 1 0 0)" d="M432 136.475L432 138.0173L432 138.0173L386.7455 138.0173L386.7455 138.0173L386.7455 136.475L386.7455 136.475L386.7455 134.9327L386.7455 134.9327L432 134.9327" /></clipPath><clipPath id="9"><path id="" clip-rule="evenodd" transform="matrix(1 0 0 1 0 0)" d="M223.3 171.125L223.3 172.6674L223.3 172.6674L72 172.6674L72 172.6674L72 171.125L72 171.125L72 169.5827L72 169.5827L223.3 169.5827" /></clipPath><clipPath id="10"><path id="" clip-rule="evenodd" transform="matrix(1 0 0 1 0 0)" d="M386.9455 171.125L386.9455 172.6674L386.9455 172.6674L223.1 172.6674L223.1 172.6674L223.1 171.125L223.1 171.125L223.1 169.5827L223.1 169.5827L386.9455 169.5827" /></clipPath><clipPath id="11"><path id="" clip-rule="evenodd" transform="matrix(1 0 0 1 0 0)" d="M432 171.125L432 172.6674L432 172.6674L386.7455 172.6674L386.7455 172.6674L386.7455 171.125L386.7455 171.125L386.7455 169.5827L386.7455 169.5827L432 169.5827" /></clipPath><clipPath id="12"><path id="" clip-rule="evenodd" transform="matrix(1 0 0 1 0 0)" d="M223.3 205.775L223.3 207.3173L223.3 207.3173L72 207.3173L72 207.3173L72 205.775L72 205.775L72 204.2327L72 204.2327L223.3 204.2327" /></clipPath><clipPath id="13"><path id="" clip-rule="evenodd" transform="matrix(1 0 0 1 0 0)" d="M386.9455 205.775L386.9455 207.3173L386.9455 207.3173L223.1 207.3173L223.1 207.3173L223.1 205.775L223.1 205.775L223.1 204.2327L223.1 204.2327L386.9455 204.2327" /></clipPath><clipPath id="14"><path id="" clip-rule="evenodd" transform="matrix(1 0 0 1 0 0)" d="M432 205.775L432 207.3173L432 207.3173L386.7455 207.3173L386.7455 207.3173L386.7455 205.775L386.7455 205.775L386.7455 204.2327L386.7455 204.2327L432 204.2327" /></clipPath></defs><g transform="matrix(1.333333 0 0 1.333333 0 0)"><g clip-path="url(#1)"><g clip-path="url(#2)"><path id="1" transform="matrix(1 0 0 -1 0 661)" d="M432 54.125L72 54.125" stroke="#000000" stroke-width="0.25" stroke-linecap="round" fill="none" /></g><path id="2" transform="matrix(1 0 0 -1 0 661)" d="M72 607.5L223.2 607.5L223.2 607.5L223.2 593.7L223.2 593.7L72 593.7z" stroke="none" fill="#000000" fill-rule="evenodd" /><path id="3" transform="matrix(1 0 0 -1 0 661)" d="M223.2 607.5L386.8455 607.5L386.8455 607.5L386.8455 593.7L386.8455 593.7L223.2 593.7z" stroke="none" fill="#000000" fill-rule="evenodd" /><path id="4" transform="matrix(1 0 0 -1 0 661)" d="M386.8455 607.5L432 607.5L432 607.5L432 593.7L432 593.7L386.8455 593.7z" stroke="none" fill="#000000" fill-rule="evenodd" /><g clip-path="url(#3)"><path id="5" transform="matrix(1 0 0 -1 0 661)" d="M223.3 559.175L72 559.175" stroke="#000000" stroke-width="0.25" stroke-linecap="round" fill="none" /></g><g clip-path="url(#4)"><path id="6" transform="matrix(1 0 0 -1 0 661)" d="M386.9455 559.175L223.1 559.175" stroke="#000000" stroke-width="0.25" stroke-linecap="round" fill="none" /></g><g clip-path="url(#5)"><path id="7" transform="matrix(1 0 0 -1 0 661)" d="M432 559.175L386.7455 559.175" stroke="#000000" stroke-width="0.25" stroke-linecap="round" fill="none" /></g><g clip-path="url(#6)"><path id="8" transform="matrix(1 0 0 -1 0 661)" d="M223.3 524.525L72 524.525" stroke="#000000" stroke-width="0.25" stroke-linecap="round" fill="none" /></g><g clip-path="url(#7)"><path id="9" transform="matrix(1 0 0 -1 0 661)" d="M386.9455 524.525L223.1 524.525" stroke="#000000" stroke-width="0.25" stroke-linecap="round" fill="none" /></g><g clip-path="url(#8)"><path id="10" transform="matrix(1 0 0 -1 0 661)" d="M432 524.525L386.7455 524.525" stroke="#000000" stroke-width="0.25" stroke-linecap="round" fill="none" /></g><g clip-path="url(#9)"><path id="11" transform="matrix(1 0 0 -1 0 661)" d="M223.3 489.875L72 489.875" stroke="#000000" stroke-width="0.25" stroke-linecap="round" fill="none" /></g><g clip-path="url(#10)"><path id="12" transform="matrix(1 0 0 -1 0 661)" d="M386.9455 489.875L223.1 489.875" stroke="#000000" stroke-width="0.25" stroke-linecap="round" fill="none" /></g><g clip-path="url(#11)"><path id="13" transform="matrix(1 0 0 -1 0 661)" d="M432 489.875L386.7455 489.875" stroke="#000000" stroke-width="0.25" stroke-linecap="round" fill="none" /></g><g clip-path="url(#12)"><path id="14" transform="matrix(1 0 0 -1 0 661)" d="M223.3 455.225L72 455.225" stroke="#000000" stroke-width="0.25" stroke-linecap="round" fill="none" /></g><g clip-path="url(#13)"><path id="15" transform="matrix(1 0 0 -1 0 661)" d="M386.9455 455.225L223.1 455.225" stroke="#000000" stroke-width="0.25" stroke-linecap="round" fill="none" /></g><g clip-path="url(#14)"><path id="16" transform="matrix(1 0 0 -1 0 661)" d="M432 455.225L386.7455 455.225" stroke="#000000" stroke-width="0.25" stroke-linecap="round" fill="none" /></g></g></g></svg>