<svg xmlns="http://www.w3.org/2000/svg" xmlns:xlink="http://www.w3.org/1999/xlink" id="body_229" preserveAspectRatio="xMinYMin meet" viewBox="0 0 672 881"><defs><clipPath id="1"><path id="" clip-rule="evenodd" transform="matrix(1 0 0 1 0 0)" d="M0 661L0 -0.5L0 -0.5L504 -0.5L504 -0.5L504 661L504 661L0 661z" /></clipPath><clipPath id="2"><path id="" clip-rule="evenodd" transform="matrix(1 0 0 1 0 0)" d="M432 606.875L432 608.4173L432 608.4173L72 608.4173L72 608.4173L72 606.875L72 606.875L72 605.3327L72 605.3327L432 605.3327" /></clipPath><clipPath id="3"><path id="" clip-rule="evenodd" transform="matrix(1 0 0 1 0 0)" d="M72.0625 53.625L71.29134 52.0827L71.29134 52.0827L433.2086 52.0827L433.2086 52.0827L432.4375 53.625L432.4375 53.625L431.6664 55.1673L431.6664 55.1673L72.83366 55.1673" /></clipPath><clipPath id="4"><path id="" clip-rule="evenodd" transform="matrix(1 0 0 1 0 0)" d="M432.375 53.5625L433.9173 52.79132L433.9173 52.79132L433.9173 141.9989L433.9173 141.9989L432.375 141.2278L432.375 141.2278L430.8327 140.4566L430.8327 140.4566L430.8327 54.33368" /></clipPath><clipPath id="5"><path id="" clip-rule="evenodd" transform="matrix(1 0 0 1 0 0)" d="M432.4375 141.1653L433.2086 142.7076L433.2086 142.7076L71.29134 142.7076L71.29134 142.7076L72.0625 141.1653L72.0625 141.1653L72.83366 139.6229L72.83366 139.6229L431.6664 139.6229" /></clipPath><clipPath id="6"><path id="" clip-rule="evenodd" transform="matrix(1 0 0 1 0 0)" d="M72.125 141.2278L70.58268 141.9989L70.58268 141.9989L70.58268 52.79132L70.58268 52.79132L72.125 53.5625L72.125 53.5625L73.66732 54.33368L73.66732 54.33368L73.66732 140.4566" /></clipPath><clipPath id="7"><path id="" clip-rule="evenodd" transform="matrix(1 0 0 1 0 0)" d="M72.0625 226.0153L71.29134 224.473L71.29134 224.473L433.2086 224.473L433.2086 224.473L432.4375 226.0153L432.4375 226.0153L431.6664 227.5576L431.6664 227.5576L72.83366 227.5576" /></clipPath><clipPath id="8"><path id="" clip-rule="evenodd" transform="matrix(1 0 0 1 0 0)" d="M432.375 225.9528L433.9173 225.1816L433.9173 225.1816L433.9173 343.6693L433.9173 343.6693L432.375 342.8981L432.375 342.8981L430.8327 342.127L430.8327 342.127L430.8327 226.7239" /></clipPath><clipPath id="9"><path id="" clip-rule="evenodd" transform="matrix(1 0 0 1 0 0)" d="M432.4375 342.8356L433.2086 344.378L433.2086 344.378L71.29134 344.378L71.29134 344.378L72.0625 342.8356L72.0625 342.8356L72.83366 341.2933L72.83366 341.2933L431.6664 341.2933" /></clipPath><clipPath id="10"><path id="" clip-rule="evenodd" transform="matrix(1 0 0 1 0 0)" d="M72.125 342.8981L70.58268 343.6693L70.58268 343.6693L70.58268 225.1816L70.58268 225.1816L72.125 225.9528L72.125 225.9528L73.66732 226.7239L73.66732 226.7239L73.66732 342.127" /></clipPath></defs><g transform="matrix(1.333333 0 0 1.333333 0 0)"><g clip-path="url(#1)"><g clip-path="url(#2)"><path id="1" transform="matrix(1 0 0 -1 0 661)" d="M432 54.125L72 54.125" stroke="#000000" stroke-width="0.25" stroke-linecap="round" fill="none" /></g><g clip-path="url(#3)"><path id="2" transform="matrix(1 0 0 -1 0 661)" d="M72 607.375L432.5 607.375" stroke="#000000" stroke-width="0.25" stroke-linecap="round" fill="none" /></g><g clip-path="url(#4)"><path id="3" transform="matrix(1 0 0 -1 0 661)" d="M432.375 607.5L432.375 519.7097" stroke="#000000" stroke-width="0.25" stroke-linecap="round" fill="none" /></g><g clip-path="url(#5)"><path id="4" transform="matrix(1 0 0 -1 0 661)" d="M432.5 519.8347L72 519.8347" stroke="#000000" stroke-width="0.25" stroke-linecap="round" fill="none" /></g><g clip-path="url(#6)"><path id="5" transform="matrix(1 0 0 -1 0 661)" d="M72.125 519.7097L72.125 607.5" stroke="#000000" stroke-width="0.25" stroke-linecap="round" fill="none" /></g><g clip-path="url(#7)"><path id="6" transform="matrix(1 0 0 -1 0 661)" d="M72 434.9847L432.5 434.9847" stroke="#000000" stroke-width="0.25" stroke-linecap="round" fill="none" /></g><g clip-path="url(#8)"><path id="7" transform="matrix(1 0 0 -1 0 661)" d="M432.375 435.1097L432.375 318.0394" stroke="#000000" stroke-width="0.25" stroke-linecap="round" fill="none" /></g><g clip-path="url(#9)"><path id="8" transform="matrix(1 0 0 -1 0 661)" d="M432.5 318.1644L72 318.1644" stroke="#000000" stroke-width="0.25" stroke-linecap="round" fill="none" /></g><g clip-path="url(#10)"><path id="9" transform="matrix(1 0 0 -1 0 661)" d="M72.125 318.0394L72.125 435.1097" stroke="#000000" stroke-width="0.25" stroke-linecap="round" fill="none" /></g><g transform="matrix(0.2400008 0 0 0.2400008 188.8898 58.75)"><g transform="matrix(1 0 0 1 0 0)"><image x="0" y="0" xlink:href="img_249.png" width="528" height="319" /></g></g><g transform="matrix(0.2400008 0 0 0.2400008 204.1298 231.1403)"><g transform="matrix(1 0 0 1 0 0)"><image x="0" y="0" xlink:href="img_250.png" width="401" height="441" /></g></g></g></g></svg>