<svg xmlns="http://www.w3.org/2000/svg" xmlns:xlink="http://www.w3.org/1999/xlink" id="body_150" preserveAspectRatio="xMinYMin meet" viewBox="0 0 672 881"><defs><clipPath id="1"><path id="" clip-rule="evenodd" transform="matrix(1 0 0 1 0 0)" d="M0 661L0 -0.5L0 -0.5L504 -0.5L504 -0.5L504 661L504 661L0 661z" /></clipPath><clipPath id="2"><path id="" clip-rule="evenodd" transform="matrix(1 0 0 1 0 0)" d="M432 606.875L432 608.4173L432 608.4173L72 608.4173L72 608.4173L72 606.875L72 606.875L72 605.3327L72 605.3327L432 605.3327" /></clipPath><clipPath id="3"><path id="" clip-rule="evenodd" transform="matrix(1 0 0 1 0 0)" d="M166.9789 228.9732L166.9789 230.5156L166.9789 230.5156L72 230.5156L72 230.5156L72 228.9732L72 228.9732L72 227.4309L72 227.4309L166.9789 227.4309" /></clipPath><clipPath id="4"><path id="" clip-rule="evenodd" transform="matrix(1 0 0 1 0 0)" d="M230.11 228.9732L230.11 230.5156L230.11 230.5156L166.779 230.5156L166.779 230.5156L166.779 228.9732L166.779 228.9732L166.779 227.4309L166.779 227.4309L230.11 227.4309" /></clipPath><clipPath id="5"><path id="" clip-rule="evenodd" transform="matrix(1 0 0 1 0 0)" d="M166.9789 242.2783L166.9789 243.8206L166.9789 243.8206L72 243.8206L72 243.8206L72 242.2783L72 242.2783L72 240.736L72 240.736L166.9789 240.736" /></clipPath><clipPath id="6"><path id="" clip-rule="evenodd" transform="matrix(1 0 0 1 0 0)" d="M230.11 242.2783L230.11 243.8206L230.11 243.8206L166.779 243.8206L166.779 243.8206L166.779 242.2783L166.779 242.2783L166.779 240.736L166.779 240.736L230.11 240.736" /></clipPath><clipPath id="7"><path id="" clip-rule="evenodd" transform="matrix(1 0 0 1 0 0)" d="M166.9789 255.5833L166.9789 257.1256L166.9789 257.1256L72 257.1256L72 257.1256L72 255.5833L72 255.5833L72 254.041L72 254.041L166.9789 254.041" /></clipPath><clipPath id="8"><path id="" clip-rule="evenodd" transform="matrix(1 0 0 1 0 0)" d="M230.11 255.5833L230.11 257.1256L230.11 257.1256L166.779 257.1256L166.779 257.1256L166.779 255.5833L166.779 255.5833L166.779 254.041L166.779 254.041L230.11 254.041" /></clipPath><clipPath id="9"><path id="" clip-rule="evenodd" transform="matrix(1 0 0 1 0 0)" d="M166.9789 268.8882L166.9789 270.4306L166.9789 270.4306L72 270.4306L72 270.4306L72 268.8882L72 268.8882L72 267.3459L72 267.3459L166.9789 267.3459" /></clipPath><clipPath id="10"><path id="" clip-rule="evenodd" transform="matrix(1 0 0 1 0 0)" d="M230.11 268.8882L230.11 270.4306L230.11 270.4306L166.779 270.4306L166.779 270.4306L166.779 268.8882L166.779 268.8882L166.779 267.3459L166.779 267.3459L230.11 267.3459" /></clipPath><clipPath id="11"><path id="" clip-rule="evenodd" transform="matrix(1 0 0 1 0 0)" d="M72 573.1L72 571.4327L72 571.4327L162 571.4327L162 571.4327L162 573.1L162 573.1L162 574.7673L162 574.7673L72 574.7673" /></clipPath></defs><g transform="matrix(1.333333 0 0 1.333333 0 0)"><g clip-path="url(#1)"><g clip-path="url(#2)"><path id="1" transform="matrix(1 0 0 -1 0 661)" d="M432 54.125L72 54.125" stroke="#000000" stroke-width="0.25" stroke-linecap="round" fill="none" /></g><path id="2" transform="matrix(1 0 0 -1 0 661)" d="M72 459.0067L166.879 459.0067L166.879 459.0067L166.879 445.2068L166.879 445.2068L72 445.2068z" stroke="none" fill="#000000" fill-rule="evenodd" /><path id="3" transform="matrix(1 0 0 -1 0 661)" d="M166.879 459.0067L230.11 459.0067L230.11 459.0067L230.11 445.2068L230.11 445.2068L166.879 445.2068z" stroke="none" fill="#000000" fill-rule="evenodd" /><g clip-path="url(#3)"><path id="4" transform="matrix(1 0 0 -1 0 661)" d="M166.9789 432.0268L72 432.0268" stroke="#000000" stroke-width="0.25" stroke-linecap="round" fill="none" /></g><g clip-path="url(#4)"><path id="5" transform="matrix(1 0 0 -1 0 661)" d="M230.11 432.0268L166.779 432.0268" stroke="#000000" stroke-width="0.25" stroke-linecap="round" fill="none" /></g><g clip-path="url(#5)"><path id="6" transform="matrix(1 0 0 -1 0 661)" d="M166.9789 418.7217L72 418.7217" stroke="#000000" stroke-width="0.25" stroke-linecap="round" fill="none" /></g><g clip-path="url(#6)"><path id="7" transform="matrix(1 0 0 -1 0 661)" d="M230.11 418.7217L166.779 418.7217" stroke="#000000" stroke-width="0.25" stroke-linecap="round" fill="none" /></g><g clip-path="url(#7)"><path id="8" transform="matrix(1 0 0 -1 0 661)" d="M166.9789 405.4167L72 405.4167" stroke="#000000" stroke-width="0.25" stroke-linecap="round" fill="none" /></g><g clip-path="url(#8)"><path id="9" transform="matrix(1 0 0 -1 0 661)" d="M230.11 405.4167L166.779 405.4167" stroke="#000000" stroke-width="0.25" stroke-linecap="round" fill="none" /></g><g clip-path="url(#9)"><path id="10" transform="matrix(1 0 0 -1 0 661)" d="M166.9789 392.1118L72 392.1118" stroke="#000000" stroke-width="0.25" stroke-linecap="round" fill="none" /></g><g clip-path="url(#10)"><path id="11" transform="matrix(1 0 0 -1 0 661)" d="M230.11 392.1118L166.779 392.1118" stroke="#000000" stroke-width="0.25" stroke-linecap="round" fill="none" /></g><g clip-path="url(#11)"><path id="12" transform="matrix(1 0 0 -1 0 661)" d="M72 87.90002L162 87.90002" stroke="#000000" stroke-width="0.5" stroke-linecap="round" fill="none" /></g><g transform="matrix(0.09876739 0 0 0.0987674 83 458.2728)"><g transform="matrix(1 0 0 1 0 0)"><image x="0" y="0" xlink:href="img_22.png" width="503" height="479" /></g></g></g></g></svg>