<svg xmlns="http://www.w3.org/2000/svg" xmlns:xlink="http://www.w3.org/1999/xlink" id="body_323" preserveAspectRatio="xMinYMin meet" viewBox="0 0 672 881"><defs><clipPath id="1"><path id="" clip-rule="evenodd" transform="matrix(1 0 0 1 0 0)" d="M0 661L0 -0.5L0 -0.5L504 -0.5L504 -0.5L504 661L504 661L0 661z" /></clipPath><clipPath id="2"><path id="" clip-rule="evenodd" transform="matrix(1 0 0 1 0 0)" d="M432 606.875L432 608.4173L432 608.4173L72 608.4173L72 608.4173L72 606.875L72 606.875L72 605.3327L72 605.3327L432 605.3327" /></clipPath><clipPath id="3"><path id="" clip-rule="evenodd" transform="matrix(1 0 0 1 0 0)" d="M72.0625 126.225L71.29134 124.6827L71.29134 124.6827L433.2086 124.6827L433.2086 124.6827L432.4375 126.225L432.4375 126.225L431.6664 127.7673L431.6664 127.7673L72.83366 127.7673" /></clipPath><clipPath id="4"><path id="" clip-rule="evenodd" transform="matrix(1 0 0 1 0 0)" d="M432.375 126.1625L433.9173 125.3914L433.9173 125.3914L433.9173 226.599L433.9173 226.599L432.375 225.8278L432.375 225.8278L430.8327 225.0566L430.8327 225.0566L430.8327 126.9337" /></clipPath><clipPath id="5"><path id="" clip-rule="evenodd" transform="matrix(1 0 0 1 0 0)" d="M432.4375 225.7653L433.2086 227.3076L433.2086 227.3076L71.29134 227.3076L71.29134 227.3076L72.0625 225.7653L72.0625 225.7653L72.83366 224.223L72.83366 224.223L431.6664 224.223" /></clipPath><clipPath id="6"><path id="" clip-rule="evenodd" transform="matrix(1 0 0 1 0 0)" d="M72.125 225.8278L70.58268 226.599L70.58268 226.599L70.58268 125.3914L70.58268 125.3914L72.125 126.1625L72.125 126.1625L73.66732 126.9337L73.66732 126.9337L73.66732 225.0566" /></clipPath></defs><g transform="matrix(1.333333 0 0 1.333333 0 0)"><g clip-path="url(#1)"><g clip-path="url(#2)"><path id="1" transform="matrix(1 0 0 -1 0 661)" d="M432 54.125L72 54.125" stroke="#000000" stroke-width="0.25" stroke-linecap="round" fill="none" /></g><g clip-path="url(#3)"><path id="2" transform="matrix(1 0 0 -1 0 661)" d="M72 534.775L432.5 534.775" stroke="#000000" stroke-width="0.25" stroke-linecap="round" fill="none" /></g><g clip-path="url(#4)"><path id="3" transform="matrix(1 0 0 -1 0 661)" d="M432.375 534.9L432.375 435.1097" stroke="#000000" stroke-width="0.25" stroke-linecap="round" fill="none" /></g><g clip-path="url(#5)"><path id="4" transform="matrix(1 0 0 -1 0 661)" d="M432.5 435.2347L72 435.2347" stroke="#000000" stroke-width="0.25" stroke-linecap="round" fill="none" /></g><g clip-path="url(#6)"><path id="5" transform="matrix(1 0 0 -1 0 661)" d="M72.125 435.1097L72.125 534.9" stroke="#000000" stroke-width="0.25" stroke-linecap="round" fill="none" /></g><g transform="matrix(0.09876739 0 0 0.0987674 83 54.5)"><g transform="matrix(1 0 0 1 0 0)"><image x="0" y="0" xlink:href="img_22.png" width="503" height="479" /></g></g><g transform="matrix(0.2400008 0 0 0.2400008 175.6897 131.35)"><g transform="matrix(1 0 0 1 0 0)"><image x="0" y="0" xlink:href="img_359.png" width="638" height="369" /></g></g></g></g></svg>