<svg xmlns="http://www.w3.org/2000/svg" xmlns:xlink="http://www.w3.org/1999/xlink" id="body_246" preserveAspectRatio="xMinYMin meet" viewBox="0 0 672 881"><defs><clipPath id="1"><path id="" clip-rule="evenodd" transform="matrix(1 0 0 1 0 0)" d="M0 661L0 -0.5L0 -0.5L504 -0.5L504 -0.5L504 661L504 661L0 661z" /></clipPath><clipPath id="2"><path id="" clip-rule="evenodd" transform="matrix(1 0 0 1 0 0)" d="M432 606.875L432 608.4173L432 608.4173L72 608.4173L72 608.4173L72 606.875L72 606.875L72 605.3327L72 605.3327L432 605.3327" /></clipPath><clipPath id="3"><path id="" clip-rule="evenodd" transform="matrix(1 0 0 1 0 0)" d="M72.0625 53.625L71.29134 52.0827L71.29134 52.0827L433.2086 52.0827L433.2086 52.0827L432.4375 53.625L432.4375 53.625L431.6664 55.1673L431.6664 55.1673L72.83366 55.1673" /></clipPath><clipPath id="4"><path id="" clip-rule="evenodd" transform="matrix(1 0 0 1 0 0)" d="M432.375 53.5625L433.9173 52.79132L433.9173 52.79132L433.9173 243.7593L433.9173 243.7593L432.375 242.9881L432.375 242.9881L430.8327 242.2169L430.8327 242.2169L430.8327 54.33368" /></clipPath><clipPath id="5"><path id="" clip-rule="evenodd" transform="matrix(1 0 0 1 0 0)" d="M432.4375 242.9256L433.2086 244.4679L433.2086 244.4679L71.29134 244.4679L71.29134 244.4679L72.0625 242.9256L72.0625 242.9256L72.83366 241.3833L72.83366 241.3833L431.6664 241.3833" /></clipPath><clipPath id="6"><path id="" clip-rule="evenodd" transform="matrix(1 0 0 1 0 0)" d="M72.125 242.9881L70.58268 243.7593L70.58268 243.7593L70.58268 52.79132L70.58268 52.79132L72.125 53.5625L72.125 53.5625L73.66732 54.33368L73.66732 54.33368L73.66732 242.2169" /></clipPath></defs><g transform="matrix(1.333333 0 0 1.333333 0 0)"><g clip-path="url(#1)"><g clip-path="url(#2)"><path id="1" transform="matrix(1 0 0 -1 0 661)" d="M432 54.125L72 54.125" stroke="#000000" stroke-width="0.25" stroke-linecap="round" fill="none" /></g><g clip-path="url(#3)"><path id="2" transform="matrix(1 0 0 -1 0 661)" d="M72 607.375L432.5 607.375" stroke="#000000" stroke-width="0.25" stroke-linecap="round" fill="none" /></g><g clip-path="url(#4)"><path id="3" transform="matrix(1 0 0 -1 0 661)" d="M432.375 607.5L432.375 417.9494" stroke="#000000" stroke-width="0.25" stroke-linecap="round" fill="none" /></g><g clip-path="url(#5)"><path id="4" transform="matrix(1 0 0 -1 0 661)" d="M432.5 418.0744L72 418.0744" stroke="#000000" stroke-width="0.25" stroke-linecap="round" fill="none" /></g><g clip-path="url(#6)"><path id="5" transform="matrix(1 0 0 -1 0 661)" d="M72.125 417.9494L72.125 607.5" stroke="#000000" stroke-width="0.25" stroke-linecap="round" fill="none" /></g><g transform="matrix(0.2400008 0 0 0.2400008 137.2896 58.75)"><g transform="matrix(1 0 0 1 0 0)"><image x="0" y="0" xlink:href="img_268.png" width="958" height="743" /></g></g></g></g></svg>