<svg xmlns="http://www.w3.org/2000/svg" xmlns:xlink="http://www.w3.org/1999/xlink" id="body_379" preserveAspectRatio="xMinYMin meet" viewBox="0 0 728 937"><defs><clipPath id="1"><path id="" clip-rule="evenodd" transform="matrix(1 0 0 1 0 0)" d="M0 703L0 -0.5L0 -0.5L546 -0.5L546 -0.5L546 703L546 703L0 703z" /></clipPath><clipPath id="2"><path id="" clip-rule="evenodd" transform="matrix(1 0 0 1 0 0)" d="M21 682L525 682L525 682L525 20.5L525 20.5L21 20.5z" /></clipPath><clipPath id="3"><path id="" clip-rule="evenodd" transform="matrix(1 0 0 1 0 0)" d="M21 682L525 682L525 682L525 20.5L525 20.5L21 20.5z" /></clipPath><clipPath id="4"><path id="" clip-rule="evenodd" transform="matrix(1 0 0 1 0 0)" d="M-230.56 32.362L547.013 32.362L547.013 32.362L547.013 669.5L547.013 669.5L-230.56 669.5z" /></clipPath><clipPath id="5"><path id="" clip-rule="evenodd" transform="matrix(1 0 0 1 0 0)" d="M21 682L525 682L525 682L525 20.5L525 20.5L21 20.5z" /></clipPath><clipPath id="6"><path id="" clip-rule="evenodd" transform="matrix(1 0 0 1 0 0)" d="M21 682L525 682L525 682L525 20.5L525 20.5L21 20.5z" /></clipPath><clipPath id="7"><path id="" clip-rule="evenodd" transform="matrix(1 0 0 1 0 0)" d="M0 703L546 703L546 703L546 -0.5L546 -0.5L0 -0.5z" /></clipPath></defs><g transform="matrix(1.333333 0 0 1.333333 0 0)"><g clip-path="url(#1)"><path id="1" transform="matrix(1 0 0 -1 0 703)" d="M21 21L525 21L525 682.5L21 682.5z" stroke="none" fill="#E51736" fill-rule="nonzero" /><g clip-path="url(#2)"><g transform="matrix(-0.07981529 0.345718 0.345718 0.07981529 45.33936 -91.76715)"><g transform="matrix(1 0 0 1 0 0)"><image x="0" y="0" xlink:href="img_418.png" width="2144" height="1812" /></g></g></g><g clip-path="url(#3)"><g><g clip-path="url(#4)"><path id="3" transform="matrix(1 0 0 -1 0 703)" d="M-229.5605 352.0586C -229.5285 527.4586 -87.4025 669.6046 88.0075 669.6376C 263.4195 669.6046 405.5225 527.4586 405.5775 352.0586C 405.5225 176.6806 263.4195 34.54361 88.0075 34.4996C -87.4025 34.54361 -229.5285 176.6806 -229.5605 352.0586M-64.6995 504.7986C -103.8405 465.5186 -127.9105 411.8666 -127.9415 352.0586C -127.9105 292.2936 -103.8405 238.6196 -64.6995 199.3936C -25.4625 160.2326 28.2105 136.1626 88.0075 136.1296C 147.7955 136.1626 201.4465 160.2326 240.6955 199.3936C 279.8665 238.6196 303.9255 292.2936 303.9255 352.0586C 303.9255 411.8666 279.8665 465.5186 240.6955 504.7986C 201.4465 543.9276 147.7955 567.9646 88.0075 567.9986C 28.2105 567.9646 -25.4625 543.9276 -64.6995 504.7986" stroke="none" fill="#FFFFFF" fill-rule="nonzero" fill-opacity="0.1176471" /><path id="4" transform="matrix(1 0 0 -1 0 703)" d="M546.0129 594.8451C 546.0129 553.5091 512.5229 519.9981 471.2209 519.9981C 429.8949 519.9981 396.4059 553.5091 396.4059 594.8451C 396.4059 636.1601 429.8949 669.6381 471.2209 669.6381C 512.5229 669.6381 546.0129 636.1601 546.0129 594.8451" stroke="none" fill="#FFFFFF" fill-rule="nonzero" fill-opacity="0.1176471" /></g></g><path id="5" transform="matrix(1 0 0 -1 0 703)" d="M38.7266 647.0468L38.7266 56.4538L38.7266 56.4538L38.7266 38.72681L38.7266 38.72681L56.4536 38.72681L56.4536 38.72681L489.5466 38.72681L489.5466 38.72681L507.2736 38.72681L507.2736 38.72681L507.2736 56.4538L507.2736 56.4538L507.2736 647.0468L507.2736 647.0468L507.2736 664.7738L507.2736 664.7738L489.5466 664.7738L489.5466 664.7738L56.4536 664.7738L56.4536 664.7738L38.7266 664.7738L38.7266 664.7738L38.7266 647.0468z" stroke="#FFFFFF" stroke-width="35.453" fill="none" /></g><path id="197" transform="matrix(1 0 0 -1 0 703)" d="M158.1927 469.9321L158.1927 473.1761L144.6587 473.1761L144.6587 453.7081L158.1927 453.7081L158.1927 456.9531L147.9027 456.9531L147.9027 461.8201L157.6967 461.8201L157.6967 465.0651L147.9027 465.0651L147.9027 469.9321z" stroke="none" fill="#FFFFFF" fill-rule="nonzero" /><path id="198" transform="matrix(1 0 0 -1 0 703)" d="M168.2353 453.7079L168.2353 473.1759L171.4803 473.1759L171.4803 456.9539L180.8403 456.9539L180.8403 453.7079z" stroke="none" fill="#FFFFFF" fill-rule="nonzero" /><path id="199" transform="matrix(1 0 0 -1 0 703)" d="M183.4853 453.7079L183.4853 473.1759L186.7303 473.1759L186.7303 456.9539L196.0903 456.9539L196.0903 453.7079z" stroke="none" fill="#FFFFFF" fill-rule="nonzero" /><path id="200" transform="matrix(1 0 0 -1 0 703)" d="M161.598 473.176L164.842 473.176L164.842 453.708L161.598 453.708z" stroke="none" fill="#FFFFFF" fill-rule="nonzero" /><g clip-path="url(#5)"><path id="201" transform="matrix(1 0 0 -1 0 703)" d="M98.8801 463.3522C 98.8811 468.9532 103.4191 473.4912 109.0201 473.4922C 114.6211 473.4912 119.1591 468.9532 119.1601 463.3522C 119.1591 457.7522 114.6211 453.2142 109.0201 453.2122C 103.4191 453.2142 98.8811 457.7522 98.8801 463.3522M104.1441 468.2292C 102.8941 466.9752 102.1261 465.2622 102.1251 463.3522C 102.1261 461.4432 102.8941 459.7302 104.1441 458.4772C 105.3971 457.2272 107.1111 456.4582 109.0201 456.4572C 110.9291 456.4582 112.6421 457.2272 113.8951 458.4772C 115.1461 459.7302 115.9151 461.4432 115.9151 463.3522C 115.9151 465.2622 115.1461 466.9752 113.8951 468.2292C 112.6421 469.4782 110.9291 470.2462 109.0201 470.2472C 107.1111 470.2462 105.3971 469.4782 104.1441 468.2292" stroke="none" fill="#FFFFFF" fill-rule="nonzero" /><path id="202" transform="matrix(1 0 0 -1 0 703)" d="M137.3538 462.0608C 139.6948 462.7628 141.4028 464.9278 141.4038 467.4968C 141.4028 470.6348 138.8618 473.1748 135.7248 473.1758L135.7248 473.1758L125.9438 473.1758L125.9438 473.1758L125.9438 453.7078L125.9438 453.7078L129.1888 453.7078L129.1888 453.7078L129.1888 461.8188L129.1888 461.8188L133.7088 461.8188L133.7088 461.8188L138.6028 453.7078L138.6028 453.7078L142.3878 453.7078zM129.1888 465.0648L129.1888 469.9318L129.1888 469.9318L135.7248 469.9318C 137.0678 469.9298 138.1568 468.8418 138.1588 467.4968C 138.1568 466.1558 137.0678 465.0668 135.7248 465.0648z" stroke="none" fill="#FFFFFF" fill-rule="nonzero" /><path id="203" transform="matrix(1 0 0 -1 0 703)" d="M123.6445 471.1043C 123.6445 469.7843 122.5745 468.7143 121.2565 468.7143C 119.9365 468.7143 118.8675 469.7843 118.8675 471.1043C 118.8675 472.4233 119.9365 473.4923 121.2565 473.4923C 122.5745 473.4923 123.6445 472.4233 123.6445 471.1043" stroke="none" fill="#FFFFFF" fill-rule="nonzero" /></g><path id="204" transform="matrix(1 0 0 -1 0 703)" d="M210.5558 473.1759L206.6128 473.1759L201.6188 465.9479L196.6248 473.1759L192.6818 473.1759L199.9928 462.5909L199.9928 453.7079L203.2388 453.7079L203.2388 462.5829z" stroke="none" fill="#FFFFFF" fill-rule="nonzero" /><g clip-path="url(#6)"><path id="205" transform="matrix(1 0 0 -1 0 703)" d="M214.395 473.6098C 213.069 473.6098 211.993 472.5348 211.993 471.2088C 211.993 469.8838 213.069 468.8078 214.395 468.8078C 215.72 468.8078 216.795 469.8838 216.795 471.2088C 216.795 472.5348 215.72 473.6098 214.395 473.6098M214.395 469.1928C 213.281 469.1928 212.378 470.0958 212.378 471.2088C 212.378 472.3238 213.281 473.2268 214.395 473.2268C 215.506 473.2268 216.411 472.3238 216.411 471.2088C 216.411 470.0958 215.506 469.1928 214.395 469.1928" stroke="none" fill="#FFFFFF" fill-rule="nonzero" /><path id="206" transform="matrix(1 0 0 -1 0 703)" d="M215.4714 471.7374C 215.4714 472.1314 215.1544 472.4504 214.7594 472.4504L214.7594 472.4504L213.4074 472.4504L213.4074 472.4504L213.4074 470.0034L213.4074 470.0034L213.8134 470.0034L213.8134 470.0034L213.8134 471.0224L213.8134 471.0224L214.4984 471.0224L214.4984 471.0224L214.9894 470.0034L214.9894 470.0034L215.4434 470.0034L215.4434 470.0034L214.9414 471.0464C 215.2474 471.1264 215.4714 471.4044 215.4714 471.7374M213.8134 472.0424L214.7594 472.0424C 214.9294 472.0424 215.0644 471.9064 215.0644 471.7374C 215.0644 471.5674 214.9294 471.4304 214.7594 471.4304L214.7594 471.4304L213.8134 471.4304z" stroke="none" fill="#FFFFFF" fill-rule="nonzero" /><path id="207" transform="matrix(1 0 0 -1 0 703)" d="M494.5845 58.7486C 494.5845 59.6546 493.8645 60.3371 492.9825 60.3371C 492.1065 60.3371 491.385 59.6546 491.385 58.7486C 491.385 57.8306 492.1065 57.1601 492.9825 57.1601C 493.8645 57.1601 494.5845 57.8306 494.5845 58.7486zM494.4225 58.7486C 494.4225 57.9266 493.8105 57.3536 492.9825 57.3536C 492.1725 57.3536 491.547 57.9266 491.547 58.7486C 491.547 59.5586 492.1725 60.1436 492.9825 60.1436C 493.8105 60.1436 494.4225 59.5586 494.4225 58.7486zM493.8825 58.7846C 493.8825 59.0186 493.8165 59.1581 493.7565 59.2661L493.7565 59.2661L493.5585 59.2661C 493.6125 59.1581 493.6755 59.0456 493.6755 58.8116C 493.6755 58.4276 493.437 58.2446 493.005 58.2446L493.005 58.2446L492.9285 58.2446C 492.5085 58.2446 492.2895 58.4516 492.2895 58.7936C 492.2895 58.9856 492.3255 59.1221 492.3795 59.2481L492.3795 59.2481L492.177 59.2481C 492.129 59.1521 492.0825 59.0126 492.0825 58.8026C 492.0825 58.3346 492.357 57.9836 492.951 57.9836L492.951 57.9836L493.0005 57.9836C 493.5825 57.9836 493.8825 58.2866 493.8825 58.7846z" stroke="none" fill="#6D6E71" fill-rule="evenodd" /><path id="208" transform="matrix(1 0 0 -1 0 703)" d="M494.535 60.5981L494.535 62.5106L494.535 62.5106L494.319 62.5106L494.319 62.5106L494.319 60.9131L494.319 60.9131L494.31 60.9131L494.31 60.9131L493.707 61.5296C 493.197 62.0576 492.7935 62.4341 492.2355 62.4341C 491.6895 62.4341 491.3715 62.1026 491.3715 61.5026C 491.3715 61.1486 491.4525 60.9041 491.5785 60.6701L491.5785 60.6701L491.7855 60.6701C 491.6715 60.8921 491.5875 61.1201 491.5875 61.4441C 491.5875 61.9181 491.8035 62.1686 492.2535 62.1686C 492.7515 62.1686 493.119 61.8206 493.581 61.3586L493.581 61.3586L494.346 60.5981z" stroke="none" fill="#6D6E71" fill-rule="evenodd" /><path id="209" transform="matrix(1 0 0 -1 0 703)" d="M494.5845 64.1576C 494.5845 64.8836 494.0895 65.3591 493.0455 65.3591L493.0455 65.3591L492.897 65.3591C 491.865 65.3591 491.3715 64.8701 491.3715 64.1621C 491.3715 63.4481 491.871 62.9471 492.915 62.9471L492.915 62.9471L493.059 62.9471C 494.079 62.9471 494.5845 63.4316 494.5845 64.1576zM494.3685 64.1576C 494.3685 63.5216 493.8915 63.2216 493.0635 63.2216L493.0635 63.2216L492.879 63.2216C 492.051 63.2216 491.5875 63.5261 491.5875 64.1621C 491.5875 64.7981 492.0645 65.0981 492.8925 65.0981L492.8925 65.0981L493.077 65.0981C 493.923 65.0981 494.3685 64.7936 494.3685 64.1576z" stroke="none" fill="#6D6E71" fill-rule="evenodd" /><path id="210" transform="matrix(1 0 0 -1 0 703)" d="M494.535 66.2861L494.535 66.5381L494.535 66.5381L491.385 66.5381L491.385 66.5381L491.385 66.4436L491.385 66.4436L491.637 65.6921L491.637 65.6921L491.79 65.6921L491.79 65.6921L491.6775 66.2861z" stroke="none" fill="#6D6E71" fill-rule="evenodd" /><path id="211" transform="matrix(1 0 0 -1 0 703)" d="M494.5845 68.0771C 494.5845 68.8571 494.178 69.4136 492.906 69.4136L492.906 69.4136L492.7665 69.4136C 491.8905 69.4136 491.3715 68.9996 491.3715 68.29761C 491.3715 67.63161 491.784 67.2581 492.384 67.2581C 493.032 67.2581 493.3155 67.6796 493.3155 68.24361C 493.3155 68.6396 493.1805 68.95161 493.0185 69.1436C 494.0865 69.1256 494.364 68.70261 494.364 68.03661C 494.364 67.8026 494.3085 67.5641 494.2425 67.4201L494.2425 67.4201L494.4495 67.4201C 494.5335 67.5641 494.5845 67.80711 494.5845 68.0771zM493.0995 68.3111C 493.0995 67.84911 492.924 67.52361 492.366 67.52361C 491.856 67.52361 491.5875 67.79961 491.5875 68.29761C 491.5875 68.87961 492.0645 69.1481 492.7665 69.1481L492.7665 69.1481L492.8205 69.1481C 492.9825 68.9501 493.0995 68.6711 493.0995 68.3111z" stroke="none" fill="#6D6E71" fill-rule="evenodd" /><path id="213" transform="matrix(1 0 0 -1 0 703)" d="M494.58 72.1406C 494.58 72.96861 494.004 73.48611 493.014 73.48611L493.014 73.48611L492.942 73.48611C 491.928 73.48611 491.3715 72.96561 491.3715 72.1496C 491.3715 71.31561 491.9475 70.79961 492.9375 70.79961L492.9375 70.79961L493.0095 70.79961C 494.0295 70.79961 494.58 71.31261 494.58 72.1406zM494.3685 72.1451C 494.3685 71.4251 493.851 71.0696 493.005 71.0696L493.005 71.0696L492.897 71.0696C 492.087 71.0696 491.583 71.4521 491.583 72.1361C 491.589 72.8561 492.096 73.2161 492.942 73.2161L492.942 73.2161L493.05 73.2161C 493.86 73.2161 494.3685 72.83511 494.3685 72.1451z" stroke="none" fill="#6D6E71" fill-rule="evenodd" /><path id="214" transform="matrix(1 0 0 -1 0 703)" d="M492.1455 73.8731L492.1455 74.0891L492.1455 74.0891L491.4165 74.2151L491.4165 74.2151L491.4165 73.94511z" stroke="none" fill="#6D6E71" fill-rule="evenodd" /><path id="215" transform="matrix(1 0 0 -1 0 703)" d="M494.535 74.8271L494.535 75.0791L494.535 75.0791L493.149 75.0791L493.149 75.0791L493.149 75.7766L493.149 75.7766L494.535 76.6136L494.535 76.6136L494.535 76.9016L494.535 76.9016L493.104 76.0286L493.104 76.0286L493.0905 76.0286C 492.9825 76.47861 492.711 76.6901 492.267 76.6901C 491.751 76.6901 491.4165 76.3856 491.4165 75.6956L491.4165 75.6956L491.4165 74.8271zM492.942 75.0791L491.6325 75.0791L491.6325 75.0791L491.6325 75.68211C 491.6325 76.22211 491.871 76.42461 492.267 76.42461C 492.675 76.42461 492.942 76.24461 492.942 75.6866z" stroke="none" fill="#6D6E71" fill-rule="evenodd" /><path id="216" transform="matrix(1 0 0 -1 0 703)" d="M494.5755 78.22011C 494.5755 78.56811 494.4765 78.8186 494.3865 78.96261L494.3865 78.96261L494.202 78.96261C 494.292 78.7766 494.364 78.5621 494.364 78.2561C 494.364 77.68011 494.079 77.39211 493.419 77.39211L493.419 77.39211L493.419 79.03911L493.419 79.03911L493.2795 79.03911C 492.5955 79.03911 492.213 78.75261 492.213 78.13461C 492.213 77.5946 492.5775 77.14461 493.3695 77.14461L493.3695 77.14461L493.4235 77.14461C 494.1615 77.14461 494.5755 77.50011 494.5755 78.22011zM492.4155 78.1256C 492.4155 78.5696 492.687 78.78261 493.221 78.78261L493.221 78.78261L493.221 77.39661C 492.645 77.4326 492.4155 77.7656 492.4155 78.1256z" stroke="none" fill="#6D6E71" fill-rule="evenodd" /><path id="217" transform="matrix(1 0 0 -1 0 703)" d="M494.535 79.55211L494.535 79.7951L494.535 79.7951L492.2535 79.7951L492.2535 79.7951L492.2535 79.55211zM491.763 79.54761L491.763 79.79961L491.763 79.79961L491.484 79.79961L491.484 79.79961L491.484 79.54761z" stroke="none" fill="#6D6E71" fill-rule="evenodd" /><path id="218" transform="matrix(1 0 0 -1 0 703)" d="M494.535 80.46111L494.535 80.7086L494.535 80.7086L491.2095 80.7086L491.2095 80.7086L491.2095 80.46111z" stroke="none" fill="#6D6E71" fill-rule="evenodd" /><path id="219" transform="matrix(1 0 0 -1 0 703)" d="M494.535 81.3746L494.535 81.62211L494.535 81.62211L491.2095 81.62211L491.2095 81.62211L491.2095 81.3746z" stroke="none" fill="#6D6E71" fill-rule="evenodd" /><path id="220" transform="matrix(1 0 0 -1 0 703)" d="M495.426 82.38711C 495.426 82.74711 495.24 82.89861 494.886 83.03061L494.886 83.03061L492.2535 84.0071L492.2535 84.0071L492.2535 83.76861L492.2535 83.76861L494.166 83.07111L494.166 83.07111L494.166 83.0621L494.166 83.0621L492.2535 82.31061L492.2535 82.31061L492.2535 82.05411L492.2535 82.05411L494.4855 82.94511L494.4855 82.94511L494.8545 82.8056C 495.0945 82.7096 495.219 82.58511 495.219 82.3511C 495.219 82.26111 495.2085 82.17711 495.1965 82.1171L495.1965 82.1171L495.372 82.1171C 495.402 82.17711 495.426 82.2851 495.426 82.38711z" stroke="none" fill="#6D6E71" fill-rule="evenodd" /><path id="222" transform="matrix(1 0 0 -1 0 703)" d="M494.535 85.4111L494.535 85.6451L494.535 85.6451L491.7405 85.6451L491.7405 85.6451L491.7405 85.65411L491.7405 85.65411L494.535 86.6891L494.535 86.6891L494.535 86.9231L494.535 86.9231L491.7405 87.96261L491.7405 87.96261L491.7405 87.9716L491.7405 87.9716L494.535 87.9716L494.535 87.9716L494.535 88.2281L494.535 88.2281L491.4165 88.2281L491.4165 88.2281L491.4165 87.8456L491.4165 87.8456L494.193 86.8241L494.193 86.8241L494.193 86.81061L494.193 86.81061L491.4165 85.78911L491.4165 85.78911L491.4165 85.4111z" stroke="none" fill="#6D6E71" fill-rule="evenodd" /><path id="223" transform="matrix(1 0 0 -1 0 703)" d="M494.5755 89.8661C 494.5755 90.2141 494.4765 90.46461 494.3865 90.6086L494.3865 90.6086L494.202 90.6086C 494.292 90.42261 494.364 90.20811 494.364 89.90211C 494.364 89.3261 494.079 89.03811 493.419 89.03811L493.419 89.03811L493.419 90.6851L493.419 90.6851L493.2795 90.6851C 492.5955 90.6851 492.213 90.39861 492.213 89.78061C 492.213 89.24061 492.5775 88.7906 493.3695 88.7906L493.3695 88.7906L493.4235 88.7906C 494.1615 88.7906 494.5755 89.1461 494.5755 89.8661zM492.4155 89.77161C 492.4155 90.21561 492.687 90.4286 493.221 90.4286L493.221 90.4286L493.221 89.0426C 492.645 89.07861 492.4155 89.41161 492.4155 89.77161z" stroke="none" fill="#6D6E71" fill-rule="evenodd" /><path id="224" transform="matrix(1 0 0 -1 0 703)" d="M494.5755 91.9901C 494.5755 92.32011 494.4765 92.5481 494.3325 92.71011L494.3325 92.71011L494.3325 92.7236L494.3325 92.7236L494.535 92.74611L494.535 92.74611L494.535 92.9531L494.535 92.9531L491.2095 92.9531L491.2095 92.9531L491.2095 92.71011L491.2095 92.71011L492.3885 92.71011C 492.2985 92.56611 492.213 92.36661 492.213 92.0666C 492.213 91.4726 492.5655 91.04961 493.3875 91.04961L493.3875 91.04961L493.437 91.04961C 494.283 91.04961 494.5755 91.5041 494.5755 91.9901zM494.373 92.0621C 494.373 91.61211 494.13 91.30161 493.428 91.30161L493.428 91.30161L493.356 91.30161C 492.678 91.30161 492.4245 91.61211 492.4245 92.09811C 492.4245 92.35611 492.498 92.57811 492.6 92.71011L492.6 92.71011L494.1435 92.71011C 494.2695 92.56611 494.373 92.35611 494.373 92.0621z" stroke="none" fill="#6D6E71" fill-rule="evenodd" /><path id="225" transform="matrix(1 0 0 -1 0 703)" d="M494.535 93.61911L494.535 93.86211L494.535 93.86211L492.2535 93.86211L492.2535 93.86211L492.2535 93.61911zM491.763 93.61461L491.763 93.86661L491.763 93.86661L491.484 93.86661L491.484 93.86661L491.484 93.61461z" stroke="none" fill="#6D6E71" fill-rule="evenodd" /><path id="226" transform="matrix(1 0 0 -1 0 703)" d="M494.5755 95.0726C 494.5755 95.4026 494.457 95.6156 494.337 95.72961L494.337 95.72961L494.337 95.7431L494.337 95.7431L494.535 95.76561L494.535 95.76561L494.535 95.96811L494.535 95.96811L492.87 95.96811C 492.414 95.96811 492.213 95.6981 492.213 95.2301C 492.213 94.97211 492.2625 94.76211 492.3345 94.5641L492.3345 94.5641L492.5145 94.5641C 492.4665 94.7261 492.4245 94.91211 492.4245 95.14011C 492.4245 95.5481 492.546 95.72511 492.924 95.72511L492.924 95.72511L493.221 95.72511L493.221 95.72511L493.2975 95.05461C 493.3515 94.60461 493.56 94.3661 493.95 94.3661C 494.352 94.3661 494.5755 94.6526 494.5755 95.0726zM494.382 95.1311C 494.382 94.81311 494.229 94.6181 493.941 94.6181C 493.653 94.6181 493.509 94.7756 493.473 95.11761L493.473 95.11761L493.4055 95.72511L493.4055 95.72511L494.1795 95.72511C 494.2875 95.6051 494.382 95.38911 494.382 95.1311z" stroke="none" fill="#6D6E71" fill-rule="evenodd" /><path id="227" transform="matrix(1 0 0 -1 0 703)" d="M494.9535 96.5621L494.9535 96.77361L494.9535 96.77361L494.2065 96.9221L494.2065 96.9221L494.2065 96.6386z" stroke="none" fill="#6D6E71" fill-rule="evenodd" /><path id="229" transform="matrix(1 0 0 -1 0 703)" d="M494.535 98.5601L494.535 98.8121L494.535 98.8121L491.4165 98.8121L491.4165 98.8121L491.4165 98.5601z" stroke="none" fill="#6D6E71" fill-rule="evenodd" /><path id="230" transform="matrix(1 0 0 -1 0 703)" d="M494.535 99.53661L494.535 99.7796L494.535 99.7796L492.636 99.7796C 492.51 100.0076 492.4245 100.2701 492.4245 100.5221C 492.4245 100.9001 492.5505 101.0396 492.8745 101.0396L492.8745 101.0396L494.535 101.0396L494.535 101.0396L494.535 101.2826L494.535 101.2826L492.825 101.2826C 492.393 101.2826 492.213 101.0531 492.213 100.6211C 492.213 100.3331 492.309 100.0241 492.465 99.7841L492.465 99.7841L492.465 99.7706L492.465 99.7706L492.2535 99.7706L492.2535 99.7706L492.2535 99.53661z" stroke="none" fill="#6D6E71" fill-rule="evenodd" /><path id="231" transform="matrix(1 0 0 -1 0 703)" d="M494.5755 102.8036C 494.5755 103.1336 494.487 103.3241 494.391 103.4741L494.391 103.4741L494.193 103.4741C 494.265 103.3481 494.364 103.1486 494.364 102.8306C 494.364 102.2786 494.0355 102.0251 493.4235 102.0251L493.4235 102.0251L493.3335 102.0251C 492.7155 102.0251 492.4245 102.3491 492.4245 102.7991C 492.4245 103.0931 492.483 103.2491 492.573 103.4471L492.573 103.4471L492.366 103.4471C 492.27 103.2851 492.213 103.1051 492.213 102.8171C 492.213 102.2291 492.5655 101.7776 493.3695 101.7776L493.3695 101.7776L493.428 101.7776C 494.166 101.7776 494.5755 102.1376 494.5755 102.8036z" stroke="none" fill="#6D6E71" fill-rule="evenodd" /><path id="232" transform="matrix(1 0 0 -1 0 703)" d="M494.535 104.0051L494.535 104.2796L494.535 104.2796L494.2065 104.2796L494.2065 104.2796L494.2065 104.0051z" stroke="none" fill="#6D6E71" fill-rule="evenodd" /><path id="234" transform="matrix(1 0 0 -1 0 703)" d="M494.58 107.0966C 494.58 107.9246 494.004 108.4421 493.014 108.4421L493.014 108.4421L492.942 108.4421C 491.928 108.4421 491.3715 107.9216 491.3715 107.1056C 491.3715 106.2716 491.9475 105.7556 492.9375 105.7556L492.9375 105.7556L493.0095 105.7556C 494.0295 105.7556 494.58 106.2686 494.58 107.0966zM494.3685 107.1011C 494.3685 106.3811 493.851 106.0256 493.005 106.0256L493.005 106.0256L492.897 106.0256C 492.087 106.0256 491.583 106.4081 491.583 107.0921C 491.589 107.8121 492.096 108.1721 492.942 108.1721L492.942 108.1721L493.05 108.1721C 493.86 108.1721 494.3685 107.7911 494.3685 107.1011z" stroke="none" fill="#6D6E71" fill-rule="evenodd" /><path id="235" transform="matrix(1 0 0 -1 0 703)" d="M492.1455 108.8291L492.1455 109.0451L492.1455 109.0451L491.4165 109.1711L491.4165 109.1711L491.4165 108.9011z" stroke="none" fill="#6D6E71" fill-rule="evenodd" /><path id="236" transform="matrix(1 0 0 -1 0 703)" d="M494.535 109.7831L494.535 110.0351L494.535 110.0351L493.149 110.0351L493.149 110.0351L493.149 110.7326L493.149 110.7326L494.535 111.5696L494.535 111.5696L494.535 111.8576L494.535 111.8576L493.104 110.9846L493.104 110.9846L493.0905 110.9846C 492.9825 111.4346 492.711 111.6461 492.267 111.6461C 491.751 111.6461 491.4165 111.3416 491.4165 110.6516L491.4165 110.6516L491.4165 109.7831zM492.942 110.0351L491.6325 110.0351L491.6325 110.0351L491.6325 110.6381C 491.6325 111.1781 491.871 111.3806 492.267 111.3806C 492.675 111.3806 492.942 111.2006 492.942 110.6426z" stroke="none" fill="#6D6E71" fill-rule="evenodd" /><path id="237" transform="matrix(1 0 0 -1 0 703)" d="M494.5755 113.1761C 494.5755 113.5241 494.4765 113.7746 494.3865 113.9186L494.3865 113.9186L494.202 113.9186C 494.292 113.7326 494.364 113.5181 494.364 113.2121C 494.364 112.6361 494.079 112.3481 493.419 112.3481L493.419 112.3481L493.419 113.9951L493.419 113.9951L493.2795 113.9951C 492.5955 113.9951 492.213 113.7086 492.213 113.0906C 492.213 112.5506 492.5775 112.1006 493.3695 112.1006L493.3695 112.1006L493.4235 112.1006C 494.1615 112.1006 494.5755 112.4561 494.5755 113.1761zM492.4155 113.0816C 492.4155 113.5256 492.687 113.7386 493.221 113.7386L493.221 113.7386L493.221 112.3526C 492.645 112.3886 492.4155 112.7216 492.4155 113.0816z" stroke="none" fill="#6D6E71" fill-rule="evenodd" /><path id="238" transform="matrix(1 0 0 -1 0 703)" d="M494.535 114.5081L494.535 114.7511L494.535 114.7511L492.2535 114.7511L492.2535 114.7511L492.2535 114.5081zM491.763 114.5036L491.763 114.7556L491.763 114.7556L491.484 114.7556L491.484 114.7556L491.484 114.5036z" stroke="none" fill="#6D6E71" fill-rule="evenodd" /><path id="239" transform="matrix(1 0 0 -1 0 703)" d="M494.535 115.4171L494.535 115.6646L494.535 115.6646L491.2095 115.6646L491.2095 115.6646L491.2095 115.4171z" stroke="none" fill="#6D6E71" fill-rule="evenodd" /><path id="240" transform="matrix(1 0 0 -1 0 703)" d="M494.535 116.3306L494.535 116.5781L494.535 116.5781L491.2095 116.5781L491.2095 116.5781L491.2095 116.3306z" stroke="none" fill="#6D6E71" fill-rule="evenodd" /><path id="241" transform="matrix(1 0 0 -1 0 703)" d="M495.426 117.3431C 495.426 117.7031 495.24 117.8546 494.886 117.9866L494.886 117.9866L492.2535 118.9631L492.2535 118.9631L492.2535 118.7246L492.2535 118.7246L494.166 118.0271L494.166 118.0271L494.166 118.0181L494.166 118.0181L492.2535 117.2666L492.2535 117.2666L492.2535 117.0101L492.2535 117.0101L494.4855 117.9011L494.4855 117.9011L494.8545 117.7616C 495.0945 117.6656 495.219 117.5411 495.219 117.3071C 495.219 117.2171 495.2085 117.1331 495.1965 117.0731L495.1965 117.0731L495.372 117.0731C 495.402 117.1331 495.426 117.2411 495.426 117.3431z" stroke="none" fill="#6D6E71" fill-rule="evenodd" /><path id="243" transform="matrix(1 0 0 -1 0 703)" d="M494.535 120.3221L494.535 120.5651L494.535 120.5651L492.2535 120.5651L492.2535 120.5651L492.2535 120.3221zM491.763 120.3176L491.763 120.5696L491.763 120.5696L491.484 120.5696L491.484 120.5696L491.484 120.3176z" stroke="none" fill="#6D6E71" fill-rule="evenodd" /><path id="244" transform="matrix(1 0 0 -1 0 703)" d="M494.571 121.7846C 494.571 122.3066 494.322 122.5676 493.932 122.5676C 493.536 122.5676 493.404 122.3786 493.284 121.9646L493.284 121.9646L493.212 121.7126C 493.134 121.4246 493.032 121.3211 492.798 121.3211C 492.564 121.3211 492.4245 121.4936 492.4245 121.8476C 492.4245 122.0816 492.4845 122.3021 492.5505 122.4461L492.5505 122.4461L492.348 122.4461C 492.282 122.3201 492.213 122.1221 492.213 121.8341C 492.213 121.3301 492.462 121.0916 492.816 121.0916C 493.188 121.0916 493.338 121.2896 493.428 121.6316L493.428 121.6316L493.5 121.8791C 493.596 122.2031 493.692 122.3246 493.95 122.3246C 494.196 122.3246 494.364 122.1716 494.364 121.7576C 494.364 121.4336 494.295 121.2446 494.211 121.0646L494.211 121.0646L494.409 121.0646C 494.505 121.2326 494.571 121.4786 494.571 121.7846z" stroke="none" fill="#6D6E71" fill-rule="evenodd" /><path id="246" transform="matrix(1 0 0 -1 0 703)" d="M494.5755 124.5611C 494.5755 124.8911 494.457 125.1041 494.337 125.2181L494.337 125.2181L494.337 125.2316L494.337 125.2316L494.535 125.2541L494.535 125.2541L494.535 125.4566L494.535 125.4566L492.87 125.4566C 492.414 125.4566 492.213 125.1866 492.213 124.7186C 492.213 124.4606 492.2625 124.2506 492.3345 124.0526L492.3345 124.0526L492.5145 124.0526C 492.4665 124.2146 492.4245 124.4006 492.4245 124.6286C 492.4245 125.0366 492.546 125.2136 492.924 125.2136L492.924 125.2136L493.221 125.2136L493.221 125.2136L493.2975 124.5431C 493.3515 124.0931 493.56 123.8546 493.95 123.8546C 494.352 123.8546 494.5755 124.1411 494.5755 124.5611zM494.382 124.6196C 494.382 124.3016 494.229 124.1066 493.941 124.1066C 493.653 124.1066 493.509 124.2641 493.473 124.6061L493.473 124.6061L493.4055 125.2136L493.4055 125.2136L494.1795 125.2136C 494.2875 125.0936 494.382 124.8776 494.382 124.6196z" stroke="none" fill="#6D6E71" fill-rule="evenodd" /><path id="248" transform="matrix(1 0 0 -1 0 703)" d="M494.535 127.0406L494.535 127.2836L494.535 127.2836L492.7035 127.2836C 492.5595 127.4456 492.447 127.6871 492.447 127.9451C 492.447 127.9811 492.4545 128.0441 492.4605 128.0981L492.4605 128.0981L492.24 128.0981C 492.234 128.0681 492.2265 128.0111 492.2265 127.9631C 492.2265 127.6751 492.3795 127.4261 492.5235 127.2881L492.5235 127.2881L492.5235 127.2746L492.5235 127.2746L492.2535 127.2746L492.2535 127.2746L492.2535 127.0406z" stroke="none" fill="#6D6E71" fill-rule="evenodd" /><path id="249" transform="matrix(1 0 0 -1 0 703)" d="M494.5755 129.4301C 494.5755 129.7781 494.4765 130.0286 494.3865 130.1726L494.3865 130.1726L494.202 130.1726C 494.292 129.9866 494.364 129.7721 494.364 129.4661C 494.364 128.8901 494.079 128.6021 493.419 128.6021L493.419 128.6021L493.419 130.2491L493.419 130.2491L493.2795 130.2491C 492.5955 130.2491 492.213 129.9626 492.213 129.3446C 492.213 128.8046 492.5775 128.3546 493.3695 128.3546L493.3695 128.3546L493.4235 128.3546C 494.1615 128.3546 494.5755 128.7101 494.5755 129.4301zM492.4155 129.3356C 492.4155 129.7796 492.687 129.9926 493.221 129.9926L493.221 129.9926L493.221 128.6066C 492.645 128.6426 492.4155 128.9756 492.4155 129.3356z" stroke="none" fill="#6D6E71" fill-rule="evenodd" /><path id="250" transform="matrix(1 0 0 -1 0 703)" d="M495.426 131.5181C 495.426 132.2801 495.078 132.5936 494.688 132.5936C 494.256 132.5936 494.0985 132.2891 494.0985 131.8871L494.0985 131.8871L494.0985 131.2301C 494.0985 131.0621 494.0175 130.9781 493.8735 130.9781C 493.7715 130.9781 493.6785 131.0351 493.6125 131.1131C 493.6665 131.2331 493.689 131.3711 493.689 131.5271C 493.689 131.9951 493.443 132.3551 492.969 132.3551L492.969 132.3551L492.9285 132.3551C 492.7125 132.3551 492.546 132.2696 492.438 132.1256L492.438 132.1256L492.438 132.5936L492.438 132.5936L492.249 132.5936L492.249 132.5936L492.249 131.8331C 492.231 131.7371 492.213 131.6396 492.213 131.5316C 492.213 131.0456 492.4875 130.6946 492.9375 130.6946L492.9375 130.6946L492.978 130.6946C 493.242 130.6946 493.431 130.8026 493.545 130.9826C 493.671 130.8266 493.815 130.7441 493.959 130.7441C 494.121 130.7441 494.235 130.8521 494.265 130.9781L494.265 130.9781L494.2785 130.9781C 494.3745 130.7261 494.5515 130.5236 494.8275 130.5236C 495.1635 130.5236 495.426 130.8161 495.426 131.5181zM495.2235 131.5091C 495.2235 130.9691 495.042 130.7801 494.796 130.7801C 494.556 130.7801 494.4105 130.9481 494.3325 131.1761L494.3325 131.1761L494.3325 131.8511C 494.3325 132.1691 494.436 132.3371 494.724 132.3371C 494.994 132.3371 495.2235 132.1151 495.2235 131.5091zM493.4955 131.5271C 493.4955 131.1791 493.3215 130.9421 492.9735 130.9421L492.9735 130.9421L492.9195 130.9421C 492.5955 130.9421 492.4065 131.1671 492.4065 131.5271C 492.4065 131.8751 492.57 132.1121 492.924 132.1121L492.924 132.1121L492.978 132.1121C 493.32 132.1121 493.4955 131.8871 493.4955 131.5271z" stroke="none" fill="#6D6E71" fill-rule="evenodd" /><path id="251" transform="matrix(1 0 0 -1 0 703)" d="M494.535 133.0121L494.535 133.2551L494.535 133.2551L492.2535 133.2551L492.2535 133.2551L492.2535 133.0121zM491.763 133.0076L491.763 133.2596L491.763 133.2596L491.484 133.2596L491.484 133.2596L491.484 133.0076z" stroke="none" fill="#6D6E71" fill-rule="evenodd" /><path id="252" transform="matrix(1 0 0 -1 0 703)" d="M494.571 134.4746C 494.571 134.9966 494.322 135.2576 493.932 135.2576C 493.536 135.2576 493.404 135.0686 493.284 134.6546L493.284 134.6546L493.212 134.4026C 493.134 134.1146 493.032 134.0111 492.798 134.0111C 492.564 134.0111 492.4245 134.1836 492.4245 134.5376C 492.4245 134.7716 492.4845 134.9921 492.5505 135.1361L492.5505 135.1361L492.348 135.1361C 492.282 135.0101 492.213 134.8121 492.213 134.5241C 492.213 134.0201 492.462 133.7816 492.816 133.7816C 493.188 133.7816 493.338 133.9796 493.428 134.3216L493.428 134.3216L493.5 134.5691C 493.596 134.8931 493.692 135.0146 493.95 135.0146C 494.196 135.0146 494.364 134.8616 494.364 134.4476C 494.364 134.1236 494.295 133.9346 494.211 133.7546L494.211 133.7546L494.409 133.7546C 494.505 133.9226 494.571 134.1686 494.571 134.4746z" stroke="none" fill="#6D6E71" fill-rule="evenodd" /><path id="253" transform="matrix(1 0 0 -1 0 703)" d="M494.5575 136.4051C 494.5575 136.5791 494.5185 136.6901 494.4765 136.7741L494.4765 136.7741L494.31 136.7741C 494.34 136.6781 494.355 136.5641 494.355 136.4681C 494.355 136.1801 494.256 136.1036 494.022 136.1036L494.022 136.1036L492.456 136.1036L492.456 136.1036L492.456 136.7246L492.456 136.7246L492.2535 136.7246L492.2535 136.7246L492.2535 136.1036L492.2535 136.1036L491.7135 136.1036L491.7135 136.1036L491.7135 135.8606L491.7135 135.8606L492.2535 135.8606L492.2535 135.8606L492.2535 135.5231L492.2535 135.5231L492.456 135.5231L492.456 135.5231L492.456 135.8606L492.456 135.8606L494.058 135.8606C 494.412 135.8606 494.5575 136.0571 494.5575 136.4051z" stroke="none" fill="#6D6E71" fill-rule="evenodd" /><path id="254" transform="matrix(1 0 0 -1 0 703)" d="M494.5755 138.1556C 494.5755 138.5036 494.4765 138.7541 494.3865 138.8981L494.3865 138.8981L494.202 138.8981C 494.292 138.7121 494.364 138.4976 494.364 138.1916C 494.364 137.6156 494.079 137.3276 493.419 137.3276L493.419 137.3276L493.419 138.9746L493.419 138.9746L493.2795 138.9746C 492.5955 138.9746 492.213 138.6881 492.213 138.0701C 492.213 137.5301 492.5775 137.0801 493.3695 137.0801L493.3695 137.0801L493.4235 137.0801C 494.1615 137.0801 494.5755 137.4356 494.5755 138.1556zM492.4155 138.0611C 492.4155 138.5051 492.687 138.7181 493.221 138.7181L493.221 138.7181L493.221 137.3321C 492.645 137.3681 492.4155 137.7011 492.4155 138.0611z" stroke="none" fill="#6D6E71" fill-rule="evenodd" /><path id="255" transform="matrix(1 0 0 -1 0 703)" d="M494.535 139.4786L494.535 139.7216L494.535 139.7216L492.7035 139.7216C 492.5595 139.8836 492.447 140.1251 492.447 140.3831C 492.447 140.4191 492.4545 140.4821 492.4605 140.5361L492.4605 140.5361L492.24 140.5361C 492.234 140.5061 492.2265 140.4491 492.2265 140.4011C 492.2265 140.1131 492.3795 139.8641 492.5235 139.7261L492.5235 139.7261L492.5235 139.7126L492.5235 139.7126L492.2535 139.7126L492.2535 139.7126L492.2535 139.4786z" stroke="none" fill="#6D6E71" fill-rule="evenodd" /><path id="256" transform="matrix(1 0 0 -1 0 703)" d="M494.5755 141.8681C 494.5755 142.2161 494.4765 142.4666 494.3865 142.6106L494.3865 142.6106L494.202 142.6106C 494.292 142.4246 494.364 142.2101 494.364 141.9041C 494.364 141.3281 494.079 141.0401 493.419 141.0401L493.419 141.0401L493.419 142.6871L493.419 142.6871L493.2795 142.6871C 492.5955 142.6871 492.213 142.4006 492.213 141.7826C 492.213 141.2426 492.5775 140.7926 493.3695 140.7926L493.3695 140.7926L493.4235 140.7926C 494.1615 140.7926 494.5755 141.1481 494.5755 141.8681zM492.4155 141.7736C 492.4155 142.2176 492.687 142.4306 493.221 142.4306L493.221 142.4306L493.221 141.0446C 492.645 141.0806 492.4155 141.4136 492.4155 141.7736z" stroke="none" fill="#6D6E71" fill-rule="evenodd" /><path id="257" transform="matrix(1 0 0 -1 0 703)" d="M494.5755 143.9921C 494.5755 144.3221 494.4765 144.5501 494.3325 144.7121L494.3325 144.7121L494.3325 144.7256L494.3325 144.7256L494.535 144.7481L494.535 144.7481L494.535 144.9551L494.535 144.9551L491.2095 144.9551L491.2095 144.9551L491.2095 144.7121L491.2095 144.7121L492.3885 144.7121C 492.2985 144.5681 492.213 144.3686 492.213 144.0686C 492.213 143.4746 492.5655 143.0516 493.3875 143.0516L493.3875 143.0516L493.437 143.0516C 494.283 143.0516 494.5755 143.5061 494.5755 143.9921zM494.373 144.0641C 494.373 143.6141 494.13 143.3036 493.428 143.3036L493.428 143.3036L493.356 143.3036C 492.678 143.3036 492.4245 143.6141 492.4245 144.1001C 492.4245 144.3581 492.498 144.5801 492.6 144.7121L492.6 144.7121L494.1435 144.7121C 494.2695 144.5681 494.373 144.3581 494.373 144.0641z" stroke="none" fill="#6D6E71" fill-rule="evenodd" /><path id="259" transform="matrix(1 0 0 -1 0 703)" d="M494.5575 147.2321C 494.5575 147.4061 494.5185 147.5171 494.4765 147.6011L494.4765 147.6011L494.31 147.6011C 494.34 147.5051 494.355 147.3911 494.355 147.2951C 494.355 147.0071 494.256 146.9306 494.022 146.9306L494.022 146.9306L492.456 146.9306L492.456 146.9306L492.456 147.5516L492.456 147.5516L492.2535 147.5516L492.2535 147.5516L492.2535 146.9306L492.2535 146.9306L491.7135 146.9306L491.7135 146.9306L491.7135 146.6876L491.7135 146.6876L492.2535 146.6876L492.2535 146.6876L492.2535 146.3501L492.2535 146.3501L492.456 146.3501L492.456 146.3501L492.456 146.6876L492.456 146.6876L494.058 146.6876C 494.412 146.6876 494.5575 146.8841 494.5575 147.2321z" stroke="none" fill="#6D6E71" fill-rule="evenodd" /><path id="260" transform="matrix(1 0 0 -1 0 703)" d="M494.535 148.0781L494.535 148.3211L494.535 148.3211L492.7035 148.3211C 492.5595 148.4831 492.447 148.7246 492.447 148.9826C 492.447 149.0186 492.4545 149.0816 492.4605 149.1356L492.4605 149.1356L492.24 149.1356C 492.234 149.1056 492.2265 149.0486 492.2265 149.0006C 492.2265 148.7126 492.3795 148.4636 492.5235 148.3256L492.5235 148.3256L492.5235 148.3121L492.5235 148.3121L492.2535 148.3121L492.2535 148.3121L492.2535 148.0781z" stroke="none" fill="#6D6E71" fill-rule="evenodd" /><path id="261" transform="matrix(1 0 0 -1 0 703)" d="M494.5755 150.0671C 494.5755 150.3971 494.457 150.6101 494.337 150.7241L494.337 150.7241L494.337 150.7376L494.337 150.7376L494.535 150.7601L494.535 150.7601L494.535 150.9626L494.535 150.9626L492.87 150.9626C 492.414 150.9626 492.213 150.6926 492.213 150.2246C 492.213 149.9666 492.2625 149.7566 492.3345 149.5586L492.3345 149.5586L492.5145 149.5586C 492.4665 149.7206 492.4245 149.9066 492.4245 150.1346C 492.4245 150.5426 492.546 150.7196 492.924 150.7196L492.924 150.7196L493.221 150.7196L493.221 150.7196L493.2975 150.0491C 493.3515 149.5991 493.56 149.3606 493.95 149.3606C 494.352 149.3606 494.5755 149.6471 494.5755 150.0671zM494.382 150.1256C 494.382 149.8076 494.229 149.6126 493.941 149.6126C 493.653 149.6126 493.509 149.7701 493.473 150.1121L493.473 150.1121L493.4055 150.7196L493.4055 150.7196L494.1795 150.7196C 494.2875 150.5996 494.382 150.3836 494.382 150.1256z" stroke="none" fill="#6D6E71" fill-rule="evenodd" /><path id="262" transform="matrix(1 0 0 -1 0 703)" d="M494.5755 152.4116C 494.5755 152.7416 494.4765 152.9696 494.3325 153.1316L494.3325 153.1316L494.3325 153.1451L494.3325 153.1451L494.535 153.1676L494.535 153.1676L494.535 153.3746L494.535 153.3746L491.2095 153.3746L491.2095 153.3746L491.2095 153.1316L491.2095 153.1316L492.3885 153.1316C 492.2985 152.9876 492.213 152.7881 492.213 152.4881C 492.213 151.8941 492.5655 151.4711 493.3875 151.4711L493.3875 151.4711L493.437 151.4711C 494.283 151.4711 494.5755 151.9256 494.5755 152.4116zM494.373 152.4836C 494.373 152.0336 494.13 151.7231 493.428 151.7231L493.428 151.7231L493.356 151.7231C 492.678 151.7231 492.4245 152.0336 492.4245 152.5196C 492.4245 152.7776 492.498 152.9996 492.6 153.1316L492.6 153.1316L494.1435 153.1316C 494.2695 152.9876 494.373 152.7776 494.373 152.4836z" stroke="none" fill="#6D6E71" fill-rule="evenodd" /><path id="263" transform="matrix(1 0 0 -1 0 703)" d="M494.5755 154.9586C 494.5755 155.3066 494.4765 155.5571 494.3865 155.7011L494.3865 155.7011L494.202 155.7011C 494.292 155.5151 494.364 155.3006 494.364 154.9946C 494.364 154.4186 494.079 154.1306 493.419 154.1306L493.419 154.1306L493.419 155.7776L493.419 155.7776L493.2795 155.7776C 492.5955 155.7776 492.213 155.4911 492.213 154.8731C 492.213 154.3331 492.5775 153.8831 493.3695 153.8831L493.3695 153.8831L493.4235 153.8831C 494.1615 153.8831 494.5755 154.2386 494.5755 154.9586zM492.4155 154.8641C 492.4155 155.3081 492.687 155.5211 493.221 155.5211L493.221 155.5211L493.221 154.1351C 492.645 154.1711 492.4155 154.5041 492.4155 154.8641z" stroke="none" fill="#6D6E71" fill-rule="evenodd" /><path id="264" transform="matrix(1 0 0 -1 0 703)" d="M494.535 156.2816L494.535 156.5246L494.535 156.5246L492.636 156.5246C 492.51 156.7526 492.4245 156.9761 492.4245 157.2041C 492.4245 157.5221 492.5505 157.6631 492.8745 157.6631L492.8745 157.6631L494.535 157.6631L494.535 157.6631L494.535 157.9106L494.535 157.9106L492.825 157.9106C 492.753 157.9106 492.696 157.9001 492.636 157.8881C 492.498 158.1401 492.4245 158.3666 492.4245 158.5766C 492.4245 158.8946 492.5505 159.0491 492.8745 159.0491L492.8745 159.0491L494.535 159.0491L494.535 159.0491L494.535 159.2921L494.535 159.2921L492.825 159.2921C 492.393 159.2921 492.213 159.0446 492.213 158.6666C 492.213 158.4086 492.294 158.1356 492.474 157.8476L492.474 157.8476L492.474 157.8341C 492.3 157.7381 492.213 157.5476 492.213 157.2896C 492.213 157.0316 492.315 156.7691 492.465 156.5291L492.465 156.5291L492.465 156.5156L492.465 156.5156L492.2535 156.5156L492.2535 156.5156L492.2535 156.2816z" stroke="none" fill="#6D6E71" fill-rule="evenodd" /><path id="265" transform="matrix(1 0 0 -1 0 703)" d="M494.5755 160.4846C 494.5755 160.8146 494.457 161.0276 494.337 161.1416L494.337 161.1416L494.337 161.1551L494.337 161.1551L494.535 161.1776L494.535 161.1776L494.535 161.3801L494.535 161.3801L492.87 161.3801C 492.414 161.3801 492.213 161.1101 492.213 160.6421C 492.213 160.3841 492.2625 160.1741 492.3345 159.9761L492.3345 159.9761L492.5145 159.9761C 492.4665 160.1381 492.4245 160.3241 492.4245 160.5521C 492.4245 160.9601 492.546 161.1371 492.924 161.1371L492.924 161.1371L493.221 161.1371L493.221 161.1371L493.2975 160.4666C 493.3515 160.0166 493.56 159.7781 493.95 159.7781C 494.352 159.7781 494.5755 160.0646 494.5755 160.4846zM494.382 160.5431C 494.382 160.2251 494.229 160.0301 493.941 160.0301C 493.653 160.0301 493.509 160.1876 493.473 160.5296L493.473 160.5296L493.4055 161.1371L493.4055 161.1371L494.1795 161.1371C 494.2875 161.0171 494.382 160.8011 494.382 160.5431z" stroke="none" fill="#6D6E71" fill-rule="evenodd" /><path id="266" transform="matrix(1 0 0 -1 0 703)" d="M494.535 162.0281L494.535 162.2711L494.535 162.2711L492.7035 162.2711C 492.5595 162.4331 492.447 162.6746 492.447 162.9326C 492.447 162.9686 492.4545 163.0316 492.4605 163.0856L492.4605 163.0856L492.24 163.0856C 492.234 163.0556 492.2265 162.9986 492.2265 162.9506C 492.2265 162.6626 492.3795 162.4136 492.5235 162.2756L492.5235 162.2756L492.5235 162.2621L492.5235 162.2621L492.2535 162.2621L492.2535 162.2621L492.2535 162.0281z" stroke="none" fill="#6D6E71" fill-rule="evenodd" /><path id="267" transform="matrix(1 0 0 -1 0 703)" d="M494.535 163.5356L494.535 163.7786L494.535 163.7786L491.2095 163.7786L491.2095 163.7786L491.2095 163.5356zM494.535 164.8901L494.535 165.1736L494.535 165.1736L493.338 164.2016L493.338 164.2016L492.2535 165.1061L492.2535 165.1061L492.2535 164.8406L492.2535 164.8406L493.3515 163.9316z" stroke="none" fill="#6D6E71" fill-rule="evenodd" /><path id="269" transform="matrix(1 0 0 -1 0 703)" d="M494.5755 167.4236C 494.5755 168.0176 494.1645 168.4496 493.4145 168.4496L493.4145 168.4496L493.356 168.4496C 492.612 168.4496 492.213 168.0401 492.213 167.4281C 492.213 166.8341 492.6255 166.4111 493.3695 166.4111L493.3695 166.4111L493.4325 166.4111C 494.1825 166.4111 494.5755 166.8056 494.5755 167.4236zM494.373 167.4326C 494.373 166.9886 494.1075 166.6586 493.4415 166.6586L493.4415 166.6586L493.347 166.6586C 492.741 166.6586 492.4155 166.9676 492.4155 167.4236C 492.4155 167.8616 492.675 168.1976 493.347 168.1976L493.347 168.1976L493.437 168.1976C 494.061 168.1976 494.373 167.8826 494.373 167.4326z" stroke="none" fill="#6D6E71" fill-rule="evenodd" /><path id="270" transform="matrix(1 0 0 -1 0 703)" d="M494.535 169.0886L494.535 169.3316L494.535 169.3316L492.456 169.3316L492.456 169.3316L492.456 169.8896L492.456 169.8896L492.2535 169.8896L492.2535 169.8896L492.2535 169.3316L492.2535 169.3316L491.916 169.3316C 491.538 169.3316 491.3895 169.5206 491.3895 169.8266C 491.3895 169.9766 491.4165 170.0906 491.4345 170.1686L491.4345 170.1686L491.259 170.1686C 491.223 170.0786 491.187 169.9601 491.187 169.7861C 491.187 169.3721 491.406 169.0886 491.898 169.0886L491.898 169.0886L492.2535 169.0886L492.2535 169.0886L492.2535 168.7331L492.2535 168.7331L492.456 168.7331L492.456 168.7331L492.456 169.0886z" stroke="none" fill="#6D6E71" fill-rule="evenodd" /><path id="272" transform="matrix(1 0 0 -1 0 703)" d="M494.58 172.5041C 494.58 173.3321 494.004 173.8496 493.014 173.8496L493.014 173.8496L492.942 173.8496C 491.928 173.8496 491.3715 173.3291 491.3715 172.5131C 491.3715 171.6791 491.9475 171.1631 492.9375 171.1631L492.9375 171.1631L493.0095 171.1631C 494.0295 171.1631 494.58 171.6761 494.58 172.5041zM494.3685 172.5086C 494.3685 171.7886 493.851 171.4331 493.005 171.4331L493.005 171.4331L492.897 171.4331C 492.087 171.4331 491.583 171.8156 491.583 172.4996C 491.589 173.2196 492.096 173.5796 492.942 173.5796L492.942 173.5796L493.05 173.5796C 493.86 173.5796 494.3685 173.1986 494.3685 172.5086z" stroke="none" fill="#6D6E71" fill-rule="evenodd" /><path id="273" transform="matrix(1 0 0 -1 0 703)" d="M492.1455 174.2366L492.1455 174.4526L492.1455 174.4526L491.4165 174.5786L491.4165 174.5786L491.4165 174.3086z" stroke="none" fill="#6D6E71" fill-rule="evenodd" /><path id="274" transform="matrix(1 0 0 -1 0 703)" d="M494.535 175.1906L494.535 175.4426L494.535 175.4426L493.149 175.4426L493.149 175.4426L493.149 176.1401L493.149 176.1401L494.535 176.9771L494.535 176.9771L494.535 177.2651L494.535 177.2651L493.104 176.3921L493.104 176.3921L493.0905 176.3921C 492.9825 176.8421 492.711 177.0536 492.267 177.0536C 491.751 177.0536 491.4165 176.7491 491.4165 176.0591L491.4165 176.0591L491.4165 175.1906zM492.942 175.4426L491.6325 175.4426L491.6325 175.4426L491.6325 176.0456C 491.6325 176.5856 491.871 176.7881 492.267 176.7881C 492.675 176.7881 492.942 176.6081 492.942 176.0501z" stroke="none" fill="#6D6E71" fill-rule="evenodd" /><path id="275" transform="matrix(1 0 0 -1 0 703)" d="M494.5755 178.5836C 494.5755 178.9316 494.4765 179.1821 494.3865 179.3261L494.3865 179.3261L494.202 179.3261C 494.292 179.1401 494.364 178.9256 494.364 178.6196C 494.364 178.0436 494.079 177.7556 493.419 177.7556L493.419 177.7556L493.419 179.4026L493.419 179.4026L493.2795 179.4026C 492.5955 179.4026 492.213 179.1161 492.213 178.4981C 492.213 177.9581 492.5775 177.5081 493.3695 177.5081L493.3695 177.5081L493.4235 177.5081C 494.1615 177.5081 494.5755 177.8636 494.5755 178.5836zM492.4155 178.4891C 492.4155 178.9331 492.687 179.1461 493.221 179.1461L493.221 179.1461L493.221 177.7601C 492.645 177.7961 492.4155 178.1291 492.4155 178.4891z" stroke="none" fill="#6D6E71" fill-rule="evenodd" /><path id="276" transform="matrix(1 0 0 -1 0 703)" d="M494.535 179.9156L494.535 180.1586L494.535 180.1586L492.2535 180.1586L492.2535 180.1586L492.2535 179.9156zM491.763 179.9111L491.763 180.1631L491.763 180.1631L491.484 180.1631L491.484 180.1631L491.484 179.9111z" stroke="none" fill="#6D6E71" fill-rule="evenodd" /><path id="277" transform="matrix(1 0 0 -1 0 703)" d="M494.535 180.8246L494.535 181.0721L494.535 181.0721L491.2095 181.0721L491.2095 181.0721L491.2095 180.8246z" stroke="none" fill="#6D6E71" fill-rule="evenodd" /><path id="278" transform="matrix(1 0 0 -1 0 703)" d="M494.535 181.7381L494.535 181.9856L494.535 181.9856L491.2095 181.9856L491.2095 181.9856L491.2095 181.7381z" stroke="none" fill="#6D6E71" fill-rule="evenodd" /><path id="279" transform="matrix(1 0 0 -1 0 703)" d="M495.426 182.7506C 495.426 183.1106 495.24 183.2621 494.886 183.3941L494.886 183.3941L492.2535 184.3706L492.2535 184.3706L492.2535 184.1321L492.2535 184.1321L494.166 183.4346L494.166 183.4346L494.166 183.4256L494.166 183.4256L492.2535 182.6741L492.2535 182.6741L492.2535 182.4176L492.2535 182.4176L494.4855 183.3086L494.4855 183.3086L494.8545 183.1691C 495.0945 183.0731 495.219 182.9486 495.219 182.7146C 495.219 182.6246 495.2085 182.5406 495.1965 182.4806L495.1965 182.4806L495.372 182.4806C 495.402 182.5406 495.426 182.6486 495.426 182.7506z" stroke="none" fill="#6D6E71" fill-rule="evenodd" /><path id="281" transform="matrix(1 0 0 -1 0 703)" d="M494.535 185.7746L494.535 186.0086L494.535 186.0086L491.7405 186.0086L491.7405 186.0086L491.7405 186.0176L491.7405 186.0176L494.535 187.0526L494.535 187.0526L494.535 187.2866L494.535 187.2866L491.7405 188.3261L491.7405 188.3261L491.7405 188.3351L491.7405 188.3351L494.535 188.3351L494.535 188.3351L494.535 188.5916L494.535 188.5916L491.4165 188.5916L491.4165 188.5916L491.4165 188.2091L491.4165 188.2091L494.193 187.1876L494.193 187.1876L494.193 187.1741L494.193 187.1741L491.4165 186.1526L491.4165 186.1526L491.4165 185.7746z" stroke="none" fill="#6D6E71" fill-rule="evenodd" /><path id="282" transform="matrix(1 0 0 -1 0 703)" d="M494.5755 190.2296C 494.5755 190.5776 494.4765 190.8281 494.3865 190.9721L494.3865 190.9721L494.202 190.9721C 494.292 190.7861 494.364 190.5716 494.364 190.2656C 494.364 189.6896 494.079 189.4016 493.419 189.4016L493.419 189.4016L493.419 191.0486L493.419 191.0486L493.2795 191.0486C 492.5955 191.0486 492.213 190.7621 492.213 190.1441C 492.213 189.6041 492.5775 189.1541 493.3695 189.1541L493.3695 189.1541L493.4235 189.1541C 494.1615 189.1541 494.5755 189.5096 494.5755 190.2296zM492.4155 190.1351C 492.4155 190.5791 492.687 190.7921 493.221 190.7921L493.221 190.7921L493.221 189.4061C 492.645 189.4421 492.4155 189.7751 492.4155 190.1351z" stroke="none" fill="#6D6E71" fill-rule="evenodd" /><path id="283" transform="matrix(1 0 0 -1 0 703)" d="M494.5755 192.3536C 494.5755 192.6836 494.4765 192.9116 494.3325 193.0736L494.3325 193.0736L494.3325 193.0871L494.3325 193.0871L494.535 193.1096L494.535 193.1096L494.535 193.3166L494.535 193.3166L491.2095 193.3166L491.2095 193.3166L491.2095 193.0736L491.2095 193.0736L492.3885 193.0736C 492.2985 192.9296 492.213 192.7301 492.213 192.4301C 492.213 191.8361 492.5655 191.4131 493.3875 191.4131L493.3875 191.4131L493.437 191.4131C 494.283 191.4131 494.5755 191.8676 494.5755 192.3536zM494.373 192.4256C 494.373 191.9756 494.13 191.6651 493.428 191.6651L493.428 191.6651L493.356 191.6651C 492.678 191.6651 492.4245 191.9756 492.4245 192.4616C 492.4245 192.7196 492.498 192.9416 492.6 193.0736L492.6 193.0736L494.1435 193.0736C 494.2695 192.9296 494.373 192.7196 494.373 192.4256z" stroke="none" fill="#6D6E71" fill-rule="evenodd" /><path id="284" transform="matrix(1 0 0 -1 0 703)" d="M494.535 193.9826L494.535 194.2256L494.535 194.2256L492.2535 194.2256L492.2535 194.2256L492.2535 193.9826zM491.763 193.9781L491.763 194.2301L491.763 194.2301L491.484 194.2301L491.484 194.2301L491.484 193.9781z" stroke="none" fill="#6D6E71" fill-rule="evenodd" /><path id="285" transform="matrix(1 0 0 -1 0 703)" d="M494.5755 195.4361C 494.5755 195.7661 494.457 195.9791 494.337 196.0931L494.337 196.0931L494.337 196.1066L494.337 196.1066L494.535 196.1291L494.535 196.1291L494.535 196.3316L494.535 196.3316L492.87 196.3316C 492.414 196.3316 492.213 196.0616 492.213 195.5936C 492.213 195.3356 492.2625 195.1256 492.3345 194.9276L492.3345 194.9276L492.5145 194.9276C 492.4665 195.0896 492.4245 195.2756 492.4245 195.5036C 492.4245 195.9116 492.546 196.0886 492.924 196.0886L492.924 196.0886L493.221 196.0886L493.221 196.0886L493.2975 195.4181C 493.3515 194.9681 493.56 194.7296 493.95 194.7296C 494.352 194.7296 494.5755 195.0161 494.5755 195.4361zM494.382 195.4946C 494.382 195.1766 494.229 194.9816 493.941 194.9816C 493.653 194.9816 493.509 195.1391 493.473 195.4811L493.473 195.4811L493.4055 196.0886L493.4055 196.0886L494.1795 196.0886C 494.2875 195.9686 494.382 195.7526 494.382 195.4946z" stroke="none" fill="#6D6E71" fill-rule="evenodd" /><path id="286" transform="matrix(1 0 0 -1 0 703)" d="M494.9535 196.9256L494.9535 197.1371L494.9535 197.1371L494.2065 197.2856L494.2065 197.2856L494.2065 197.0021z" stroke="none" fill="#6D6E71" fill-rule="evenodd" /><path id="288" transform="matrix(1 0 0 -1 0 703)" d="M494.535 198.9236L494.535 199.1756L494.535 199.1756L491.4165 199.1756L491.4165 199.1756L491.4165 198.9236z" stroke="none" fill="#6D6E71" fill-rule="evenodd" /><path id="289" transform="matrix(1 0 0 -1 0 703)" d="M494.535 199.9001L494.535 200.1431L494.535 200.1431L492.636 200.1431C 492.51 200.3711 492.4245 200.6336 492.4245 200.8856C 492.4245 201.2636 492.5505 201.4031 492.8745 201.4031L492.8745 201.4031L494.535 201.4031L494.535 201.4031L494.535 201.6461L494.535 201.6461L492.825 201.6461C 492.393 201.6461 492.213 201.4166 492.213 200.9846C 492.213 200.6966 492.309 200.3876 492.465 200.1476L492.465 200.1476L492.465 200.1341L492.465 200.1341L492.2535 200.1341L492.2535 200.1341L492.2535 199.9001z" stroke="none" fill="#6D6E71" fill-rule="evenodd" /><path id="290" transform="matrix(1 0 0 -1 0 703)" d="M494.5755 203.1671C 494.5755 203.4971 494.487 203.6876 494.391 203.8376L494.391 203.8376L494.193 203.8376C 494.265 203.7116 494.364 203.5121 494.364 203.1941C 494.364 202.6421 494.0355 202.3886 493.4235 202.3886L493.4235 202.3886L493.3335 202.3886C 492.7155 202.3886 492.4245 202.7126 492.4245 203.1626C 492.4245 203.4566 492.483 203.6126 492.573 203.8106L492.573 203.8106L492.366 203.8106C 492.27 203.6486 492.213 203.4686 492.213 203.1806C 492.213 202.5926 492.5655 202.1411 493.3695 202.1411L493.3695 202.1411L493.428 202.1411C 494.166 202.1411 494.5755 202.5011 494.5755 203.1671z" stroke="none" fill="#6D6E71" fill-rule="evenodd" /><path id="291" transform="matrix(1 0 0 -1 0 703)" d="M494.535 204.3686L494.535 204.6431L494.535 204.6431L494.2065 204.6431L494.2065 204.6431L494.2065 204.3686z" stroke="none" fill="#6D6E71" fill-rule="evenodd" /><path id="293" transform="matrix(1 0 0 -1 0 703)" d="M495.075 206.4161L495.075 206.6366L495.075 206.6366L491.2095 206.6366L491.2095 206.6366L491.2095 206.4161z" stroke="none" fill="#6D6E71" fill-rule="evenodd" /><path id="295" transform="matrix(1 0 0 -1 0 703)" d="M494.535 208.8056L494.535 209.0576L494.535 209.0576L491.385 209.0576L491.385 209.0576L491.385 208.9631L491.385 208.9631L491.637 208.2116L491.637 208.2116L491.79 208.2116L491.79 208.2116L491.6775 208.8056z" stroke="none" fill="#6D6E71" fill-rule="evenodd" /><path id="296" transform="matrix(1 0 0 -1 0 703)" d="M494.535 210.1331L494.535 210.4121L494.535 210.4121L491.6235 211.7531L491.6235 211.7531L491.4165 211.7531L491.4165 211.7531L491.4165 209.8001L491.4165 209.8001L491.6325 209.8001L491.6325 209.8001L491.6325 211.5011L491.6325 211.5011L491.646 211.5011z" stroke="none" fill="#6D6E71" fill-rule="evenodd" /><path id="297" transform="matrix(1 0 0 -1 0 703)" d="M494.5755 212.9231C 494.5755 213.6431 494.1525 213.9851 493.5945 213.9851C 492.9045 213.9851 492.6315 213.5681 492.6315 212.8961C 492.6315 212.7341 492.654 212.5976 492.672 212.4956L492.672 212.4956L491.6325 212.5766L491.6325 212.5766L491.6325 213.8906L491.6325 213.8906L491.4165 213.8906L491.4165 213.8906L491.4165 212.3741L491.4165 212.3741L492.915 212.2616C 492.879 212.4056 492.843 212.5946 492.843 212.8286C 492.843 213.3926 493.0365 213.7196 493.5945 213.7196C 494.0805 213.7196 494.3595 213.4376 494.3595 212.8736C 494.3595 212.5976 494.3055 212.3381 494.1795 212.1041L494.1795 212.1041L494.382 212.1041C 494.508 212.2961 494.5755 212.5811 494.5755 212.9231z" stroke="none" fill="#6D6E71" fill-rule="evenodd" /></g><g clip-path="url(#7)"><path id="298" transform="matrix(1 0 0 -1 0 703)" d="M525 15L525 0M525 688.5L525 703.5M21 15L21 0M21 688.5L21 703.5M531 21L546 21M15 21L0 21M531 682.5L546 682.5M15 682.5L0 682.5" stroke="#FFFFFF" stroke-width="1.25" fill="none" /><path id="299" transform="matrix(1 0 0 -1 0 703)" d="M525 15L525 0M525 688.5L525 703.5M21 15L21 0M21 688.5L21 703.5M531 21L546 21M15 21L0 21M531 682.5L546 682.5M15 682.5L0 682.5" stroke="#000000" stroke-width="0.25" fill="none" /></g></g></g></svg>