<svg xmlns="http://www.w3.org/2000/svg" xmlns:xlink="http://www.w3.org/1999/xlink" id="body_243" preserveAspectRatio="xMinYMin meet" viewBox="0 0 672 881"><defs><clipPath id="1"><path id="" clip-rule="evenodd" transform="matrix(1 0 0 1 0 0)" d="M0 661L0 -0.5L0 -0.5L504 -0.5L504 -0.5L504 661L504 661L0 661z" /></clipPath><clipPath id="2"><path id="" clip-rule="evenodd" transform="matrix(1 0 0 1 0 0)" d="M432 606.875L432 608.4173L432 608.4173L72 608.4173L72 608.4173L72 606.875L72 606.875L72 605.3327L72 605.3327L432 605.3327" /></clipPath><clipPath id="3"><path id="" clip-rule="evenodd" transform="matrix(1 0 0 1 0 0)" d="M432 99.18402L432 100.7263L432 100.7263L72 100.7263L72 100.7263L72 99.18402L72 99.18402L72 97.64166L72 97.64166L432 97.64166" /></clipPath><clipPath id="4"><path id="" clip-rule="evenodd" transform="matrix(1 0 0 1 0 0)" d="M72.0625 396.7931L71.29134 395.2507L71.29134 395.2507L432.7086 395.2507L432.7086 395.2507L431.9375 396.7931L431.9375 396.7931L431.1664 398.3354L431.1664 398.3354L72.83366 398.3354" /></clipPath><clipPath id="5"><path id="" clip-rule="evenodd" transform="matrix(1 0 0 1 0 0)" d="M431.875 396.7306L433.4173 395.9594L433.4173 395.9594L433.4173 498.1267L433.4173 498.1267L431.875 497.3556L431.875 497.3556L430.3327 496.5844L430.3327 496.5844L430.3327 397.5017" /></clipPath><clipPath id="6"><path id="" clip-rule="evenodd" transform="matrix(1 0 0 1 0 0)" d="M431.9375 497.2931L432.7086 498.8354L432.7086 498.8354L71.29134 498.8354L71.29134 498.8354L72.0625 497.2931L72.0625 497.2931L72.83366 495.7507L72.83366 495.7507L431.1664 495.7507" /></clipPath><clipPath id="7"><path id="" clip-rule="evenodd" transform="matrix(1 0 0 1 0 0)" d="M72.125 497.3556L70.58268 498.1267L70.58268 498.1267L70.58268 395.9594L70.58268 395.9594L72.125 396.7306L72.125 396.7306L73.66732 397.5017L73.66732 397.5017L73.66732 496.5844" /></clipPath></defs><g transform="matrix(1.333333 0 0 1.333333 0 0)"><g clip-path="url(#1)"><g clip-path="url(#2)"><path id="1" transform="matrix(1 0 0 -1 0 661)" d="M432 54.125L72 54.125" stroke="#000000" stroke-width="0.25" stroke-linecap="round" fill="none" /></g><g clip-path="url(#3)"><path id="2" transform="matrix(1 0 0 -1 0 661)" d="M432 561.816L72 561.816" stroke="#000000" stroke-width="0.25" stroke-linecap="round" fill="none" /></g><g clip-path="url(#4)"><path id="3" transform="matrix(1 0 0 -1 0 661)" d="M72 264.2069L432 264.2069" stroke="#000000" stroke-width="0.25" stroke-linecap="round" fill="none" /></g><g clip-path="url(#5)"><path id="4" transform="matrix(1 0 0 -1 0 661)" d="M431.875 264.3319L431.875 163.5819" stroke="#000000" stroke-width="0.25" stroke-linecap="round" fill="none" /></g><g clip-path="url(#6)"><path id="5" transform="matrix(1 0 0 -1 0 661)" d="M432 163.7069L72 163.7069" stroke="#000000" stroke-width="0.25" stroke-linecap="round" fill="none" /></g><g clip-path="url(#7)"><path id="6" transform="matrix(1 0 0 -1 0 661)" d="M72.125 163.5819L72.125 264.3319" stroke="#000000" stroke-width="0.25" stroke-linecap="round" fill="none" /></g></g></g></svg>