<svg xmlns="http://www.w3.org/2000/svg" xmlns:xlink="http://www.w3.org/1999/xlink" id="body_28" preserveAspectRatio="xMinYMin meet" viewBox="0 0 672 881"><defs><clipPath id="1"><path id="" clip-rule="evenodd" transform="matrix(1 0 0 1 0 0)" d="M0 661L0 -0.5L0 -0.5L504 -0.5L504 -0.5L504 661L504 661L0 661z" /></clipPath><clipPath id="2"><path id="" clip-rule="evenodd" transform="matrix(1 0 0 1 0 0)" d="M432 606.875L432 608.4173L432 608.4173L72 608.4173L72 608.4173L72 606.875L72 606.875L72 605.3327L72 605.3327L432 605.3327" /></clipPath><clipPath id="3"><path id="" clip-rule="evenodd" transform="matrix(1 0 0 1 0 0)" d="M147.6 292.353L147.6 293.8954L147.6 293.8954L72 293.8954L72 293.8954L72 292.353L72 292.353L72 290.8107L72 290.8107L147.6 290.8107" /></clipPath><clipPath id="4"><path id="" clip-rule="evenodd" transform="matrix(1 0 0 1 0 0)" d="M213.009 292.353L213.009 293.8954L213.009 293.8954L147.4001 293.8954L147.4001 293.8954L147.4001 292.353L147.4001 292.353L147.4001 290.8107L147.4001 290.8107L213.009 290.8107" /></clipPath><clipPath id="5"><path id="" clip-rule="evenodd" transform="matrix(1 0 0 1 0 0)" d="M307.082 292.353L307.082 293.8954L307.082 293.8954L212.809 293.8954L212.809 293.8954L212.809 292.353L212.809 292.353L212.809 290.8107L212.809 290.8107L307.082 290.8107" /></clipPath><clipPath id="6"><path id="" clip-rule="evenodd" transform="matrix(1 0 0 1 0 0)" d="M384.181 292.353L384.181 293.8954L384.181 293.8954L306.882 293.8954L306.882 293.8954L306.882 292.353L306.882 292.353L306.882 290.8107L306.882 290.8107L384.181 290.8107" /></clipPath><clipPath id="7"><path id="" clip-rule="evenodd" transform="matrix(1 0 0 1 0 0)" d="M432 292.353L432 293.8954L432 293.8954L383.981 293.8954L383.981 293.8954L383.981 292.353L383.981 292.353L383.981 290.8107L383.981 290.8107L432 290.8107" /></clipPath><clipPath id="8"><path id="" clip-rule="evenodd" transform="matrix(1 0 0 1 0 0)" d="M147.6 305.658L147.6 307.2003L147.6 307.2003L72 307.2003L72 307.2003L72 305.658L72 305.658L72 304.1157L72 304.1157L147.6 304.1157" /></clipPath><clipPath id="9"><path id="" clip-rule="evenodd" transform="matrix(1 0 0 1 0 0)" d="M213.009 305.658L213.009 307.2003L213.009 307.2003L147.4001 307.2003L147.4001 307.2003L147.4001 305.658L147.4001 305.658L147.4001 304.1157L147.4001 304.1157L213.009 304.1157" /></clipPath><clipPath id="10"><path id="" clip-rule="evenodd" transform="matrix(1 0 0 1 0 0)" d="M307.082 305.658L307.082 307.2003L307.082 307.2003L212.809 307.2003L212.809 307.2003L212.809 305.658L212.809 305.658L212.809 304.1157L212.809 304.1157L307.082 304.1157" /></clipPath><clipPath id="11"><path id="" clip-rule="evenodd" transform="matrix(1 0 0 1 0 0)" d="M384.181 305.658L384.181 307.2003L384.181 307.2003L306.882 307.2003L306.882 307.2003L306.882 305.658L306.882 305.658L306.882 304.1157L306.882 304.1157L384.181 304.1157" /></clipPath><clipPath id="12"><path id="" clip-rule="evenodd" transform="matrix(1 0 0 1 0 0)" d="M432 305.658L432 307.2003L432 307.2003L383.981 307.2003L383.981 307.2003L383.981 305.658L383.981 305.658L383.981 304.1157L383.981 304.1157L432 304.1157" /></clipPath><clipPath id="13"><path id="" clip-rule="evenodd" transform="matrix(1 0 0 1 0 0)" d="M147.6 318.963L147.6 320.5053L147.6 320.5053L72 320.5053L72 320.5053L72 318.963L72 318.963L72 317.4207L72 317.4207L147.6 317.4207" /></clipPath><clipPath id="14"><path id="" clip-rule="evenodd" transform="matrix(1 0 0 1 0 0)" d="M213.009 318.963L213.009 320.5053L213.009 320.5053L147.4001 320.5053L147.4001 320.5053L147.4001 318.963L147.4001 318.963L147.4001 317.4207L147.4001 317.4207L213.009 317.4207" /></clipPath><clipPath id="15"><path id="" clip-rule="evenodd" transform="matrix(1 0 0 1 0 0)" d="M307.082 318.963L307.082 320.5053L307.082 320.5053L212.809 320.5053L212.809 320.5053L212.809 318.963L212.809 318.963L212.809 317.4207L212.809 317.4207L307.082 317.4207" /></clipPath><clipPath id="16"><path id="" clip-rule="evenodd" transform="matrix(1 0 0 1 0 0)" d="M384.181 318.963L384.181 320.5053L384.181 320.5053L306.882 320.5053L306.882 320.5053L306.882 318.963L306.882 318.963L306.882 317.4207L306.882 317.4207L384.181 317.4207" /></clipPath><clipPath id="17"><path id="" clip-rule="evenodd" transform="matrix(1 0 0 1 0 0)" d="M432 318.963L432 320.5053L432 320.5053L383.981 320.5053L383.981 320.5053L383.981 318.963L383.981 318.963L383.981 317.4207L383.981 317.4207L432 317.4207" /></clipPath><clipPath id="18"><path id="" clip-rule="evenodd" transform="matrix(1 0 0 1 0 0)" d="M147.6 332.268L147.6 333.8103L147.6 333.8103L72 333.8103L72 333.8103L72 332.268L72 332.268L72 330.7257L72 330.7257L147.6 330.7257" /></clipPath><clipPath id="19"><path id="" clip-rule="evenodd" transform="matrix(1 0 0 1 0 0)" d="M213.009 332.268L213.009 333.8103L213.009 333.8103L147.4001 333.8103L147.4001 333.8103L147.4001 332.268L147.4001 332.268L147.4001 330.7257L147.4001 330.7257L213.009 330.7257" /></clipPath><clipPath id="20"><path id="" clip-rule="evenodd" transform="matrix(1 0 0 1 0 0)" d="M307.082 332.268L307.082 333.8103L307.082 333.8103L212.809 333.8103L212.809 333.8103L212.809 332.268L212.809 332.268L212.809 330.7257L212.809 330.7257L307.082 330.7257" /></clipPath><clipPath id="21"><path id="" clip-rule="evenodd" transform="matrix(1 0 0 1 0 0)" d="M384.181 332.268L384.181 333.8103L384.181 333.8103L306.882 333.8103L306.882 333.8103L306.882 332.268L306.882 332.268L306.882 330.7257L306.882 330.7257L384.181 330.7257" /></clipPath><clipPath id="22"><path id="" clip-rule="evenodd" transform="matrix(1 0 0 1 0 0)" d="M432 332.268L432 333.8103L432 333.8103L383.981 333.8103L383.981 333.8103L383.981 332.268L383.981 332.268L383.981 330.7257L383.981 330.7257L432 330.7257" /></clipPath></defs><g transform="matrix(1.333333 0 0 1.333333 0 0)"><g clip-path="url(#1)"><g clip-path="url(#2)"><path id="1" transform="matrix(1 0 0 -1 0 661)" d="M432 54.125L72 54.125" stroke="#000000" stroke-width="0.25" stroke-linecap="round" fill="none" /></g><path id="2" transform="matrix(1 0 0 -1 0 661)" d="M72 406.427L147.5001 406.427L147.5001 406.427L147.5001 381.827L147.5001 381.827L72 381.827z" stroke="none" fill="#000000" fill-rule="evenodd" /><path id="3" transform="matrix(1 0 0 -1 0 661)" d="M147.5001 406.427L212.909 406.427L212.909 406.427L212.909 381.827L212.909 381.827L147.5001 381.827z" stroke="none" fill="#000000" fill-rule="evenodd" /><path id="4" transform="matrix(1 0 0 -1 0 661)" d="M212.909 406.427L306.982 406.427L306.982 406.427L306.982 381.827L306.982 381.827L212.909 381.827z" stroke="none" fill="#000000" fill-rule="evenodd" /><path id="5" transform="matrix(1 0 0 -1 0 661)" d="M306.982 406.427L384.081 406.427L384.081 406.427L384.081 381.827L384.081 381.827L306.982 381.827z" stroke="none" fill="#000000" fill-rule="evenodd" /><path id="6" transform="matrix(1 0 0 -1 0 661)" d="M384.081 406.427L432 406.427L432 406.427L432 381.827L432 381.827L384.081 381.827z" stroke="none" fill="#000000" fill-rule="evenodd" /><g clip-path="url(#3)"><path id="7" transform="matrix(1 0 0 -1 0 661)" d="M147.6 368.647L72 368.647" stroke="#000000" stroke-width="0.25" stroke-linecap="round" fill="none" /></g><g clip-path="url(#4)"><path id="8" transform="matrix(1 0 0 -1 0 661)" d="M213.009 368.647L147.4001 368.647" stroke="#000000" stroke-width="0.25" stroke-linecap="round" fill="none" /></g><g clip-path="url(#5)"><path id="9" transform="matrix(1 0 0 -1 0 661)" d="M307.082 368.647L212.809 368.647" stroke="#000000" stroke-width="0.25" stroke-linecap="round" fill="none" /></g><g clip-path="url(#6)"><path id="10" transform="matrix(1 0 0 -1 0 661)" d="M384.181 368.647L306.882 368.647" stroke="#000000" stroke-width="0.25" stroke-linecap="round" fill="none" /></g><g clip-path="url(#7)"><path id="11" transform="matrix(1 0 0 -1 0 661)" d="M432 368.647L383.981 368.647" stroke="#000000" stroke-width="0.25" stroke-linecap="round" fill="none" /></g><g clip-path="url(#8)"><path id="12" transform="matrix(1 0 0 -1 0 661)" d="M147.6 355.342L72 355.342" stroke="#000000" stroke-width="0.25" stroke-linecap="round" fill="none" /></g><g clip-path="url(#9)"><path id="13" transform="matrix(1 0 0 -1 0 661)" d="M213.009 355.342L147.4001 355.342" stroke="#000000" stroke-width="0.25" stroke-linecap="round" fill="none" /></g><g clip-path="url(#10)"><path id="14" transform="matrix(1 0 0 -1 0 661)" d="M307.082 355.342L212.809 355.342" stroke="#000000" stroke-width="0.25" stroke-linecap="round" fill="none" /></g><g clip-path="url(#11)"><path id="15" transform="matrix(1 0 0 -1 0 661)" d="M384.181 355.342L306.882 355.342" stroke="#000000" stroke-width="0.25" stroke-linecap="round" fill="none" /></g><g clip-path="url(#12)"><path id="16" transform="matrix(1 0 0 -1 0 661)" d="M432 355.342L383.981 355.342" stroke="#000000" stroke-width="0.25" stroke-linecap="round" fill="none" /></g><g clip-path="url(#13)"><path id="17" transform="matrix(1 0 0 -1 0 661)" d="M147.6 342.037L72 342.037" stroke="#000000" stroke-width="0.25" stroke-linecap="round" fill="none" /></g><g clip-path="url(#14)"><path id="18" transform="matrix(1 0 0 -1 0 661)" d="M213.009 342.037L147.4001 342.037" stroke="#000000" stroke-width="0.25" stroke-linecap="round" fill="none" /></g><g clip-path="url(#15)"><path id="19" transform="matrix(1 0 0 -1 0 661)" d="M307.082 342.037L212.809 342.037" stroke="#000000" stroke-width="0.25" stroke-linecap="round" fill="none" /></g><g clip-path="url(#16)"><path id="20" transform="matrix(1 0 0 -1 0 661)" d="M384.181 342.037L306.882 342.037" stroke="#000000" stroke-width="0.25" stroke-linecap="round" fill="none" /></g><g clip-path="url(#17)"><path id="21" transform="matrix(1 0 0 -1 0 661)" d="M432 342.037L383.981 342.037" stroke="#000000" stroke-width="0.25" stroke-linecap="round" fill="none" /></g><g clip-path="url(#18)"><path id="22" transform="matrix(1 0 0 -1 0 661)" d="M147.6 328.732L72 328.732" stroke="#000000" stroke-width="0.25" stroke-linecap="round" fill="none" /></g><g clip-path="url(#19)"><path id="23" transform="matrix(1 0 0 -1 0 661)" d="M213.009 328.732L147.4001 328.732" stroke="#000000" stroke-width="0.25" stroke-linecap="round" fill="none" /></g><g clip-path="url(#20)"><path id="24" transform="matrix(1 0 0 -1 0 661)" d="M307.082 328.732L212.809 328.732" stroke="#000000" stroke-width="0.25" stroke-linecap="round" fill="none" /></g><g clip-path="url(#21)"><path id="25" transform="matrix(1 0 0 -1 0 661)" d="M384.181 328.732L306.882 328.732" stroke="#000000" stroke-width="0.25" stroke-linecap="round" fill="none" /></g><g clip-path="url(#22)"><path id="26" transform="matrix(1 0 0 -1 0 661)" d="M432 328.732L383.981 328.732" stroke="#000000" stroke-width="0.25" stroke-linecap="round" fill="none" /></g></g></g></svg>