<svg xmlns="http://www.w3.org/2000/svg" xmlns:xlink="http://www.w3.org/1999/xlink" id="body_106" preserveAspectRatio="xMinYMin meet" viewBox="0 0 672 881"><defs><clipPath id="1"><path id="" clip-rule="evenodd" transform="matrix(1 0 0 1 0 0)" d="M0 661L0 -0.5L0 -0.5L504 -0.5L504 -0.5L504 661L504 661L0 661z" /></clipPath><clipPath id="2"><path id="" clip-rule="evenodd" transform="matrix(1 0 0 1 0 0)" d="M432 606.875L432 608.4173L432 608.4173L72 608.4173L72 608.4173L72 606.875L72 606.875L72 605.3327L72 605.3327L432 605.3327" /></clipPath><clipPath id="3"><path id="" clip-rule="evenodd" transform="matrix(1 0 0 1 0 0)" d="M154.7289 121.325L154.7289 122.8673L154.7289 122.8673L72 122.8673L72 122.8673L72 121.325L72 121.325L72 119.7827L72 119.7827L154.7289 119.7827" /></clipPath><clipPath id="4"><path id="" clip-rule="evenodd" transform="matrix(1 0 0 1 0 0)" d="M239.686 121.325L239.686 122.8673L239.686 122.8673L154.529 122.8673L154.529 122.8673L154.529 121.325L154.529 121.325L154.529 119.7827L154.529 119.7827L239.686 119.7827" /></clipPath><clipPath id="5"><path id="" clip-rule="evenodd" transform="matrix(1 0 0 1 0 0)" d="M278.3589 121.325L278.3589 122.8673L278.3589 122.8673L239.486 122.8673L239.486 122.8673L239.486 121.325L239.486 121.325L239.486 119.7827L239.486 119.7827L278.3589 119.7827" /></clipPath><clipPath id="6"><path id="" clip-rule="evenodd" transform="matrix(1 0 0 1 0 0)" d="M335.2229 121.325L335.2229 122.8673L335.2229 122.8673L278.1589 122.8673L278.1589 122.8673L278.1589 121.325L278.1589 121.325L278.1589 119.7827L278.1589 119.7827L335.2229 119.7827" /></clipPath><clipPath id="7"><path id="" clip-rule="evenodd" transform="matrix(1 0 0 1 0 0)" d="M154.7289 134.3749L154.7289 135.9173L154.7289 135.9173L72 135.9173L72 135.9173L72 134.3749L72 134.3749L72 132.8326L72 132.8326L154.7289 132.8326" /></clipPath><clipPath id="8"><path id="" clip-rule="evenodd" transform="matrix(1 0 0 1 0 0)" d="M239.686 134.3749L239.686 135.9173L239.686 135.9173L154.529 135.9173L154.529 135.9173L154.529 134.3749L154.529 134.3749L154.529 132.8326L154.529 132.8326L239.686 132.8326" /></clipPath><clipPath id="9"><path id="" clip-rule="evenodd" transform="matrix(1 0 0 1 0 0)" d="M278.3589 134.3749L278.3589 135.9173L278.3589 135.9173L239.486 135.9173L239.486 135.9173L239.486 134.3749L239.486 134.3749L239.486 132.8326L239.486 132.8326L278.3589 132.8326" /></clipPath><clipPath id="10"><path id="" clip-rule="evenodd" transform="matrix(1 0 0 1 0 0)" d="M335.2229 134.3749L335.2229 135.9173L335.2229 135.9173L278.1589 135.9173L278.1589 135.9173L278.1589 134.3749L278.1589 134.3749L278.1589 132.8326L278.1589 132.8326L335.2229 132.8326" /></clipPath><clipPath id="11"><path id="" clip-rule="evenodd" transform="matrix(1 0 0 1 0 0)" d="M154.7289 147.425L154.7289 148.9673L154.7289 148.9673L72 148.9673L72 148.9673L72 147.425L72 147.425L72 145.8827L72 145.8827L154.7289 145.8827" /></clipPath><clipPath id="12"><path id="" clip-rule="evenodd" transform="matrix(1 0 0 1 0 0)" d="M239.686 147.425L239.686 148.9673L239.686 148.9673L154.529 148.9673L154.529 148.9673L154.529 147.425L154.529 147.425L154.529 145.8827L154.529 145.8827L239.686 145.8827" /></clipPath><clipPath id="13"><path id="" clip-rule="evenodd" transform="matrix(1 0 0 1 0 0)" d="M278.3589 147.425L278.3589 148.9673L278.3589 148.9673L239.486 148.9673L239.486 148.9673L239.486 147.425L239.486 147.425L239.486 145.8827L239.486 145.8827L278.3589 145.8827" /></clipPath><clipPath id="14"><path id="" clip-rule="evenodd" transform="matrix(1 0 0 1 0 0)" d="M335.2229 147.425L335.2229 148.9673L335.2229 148.9673L278.1589 148.9673L278.1589 148.9673L278.1589 147.425L278.1589 147.425L278.1589 145.8827L278.1589 145.8827L335.2229 145.8827" /></clipPath><clipPath id="15"><path id="" clip-rule="evenodd" transform="matrix(1 0 0 1 0 0)" d="M154.7289 160.475L154.7289 162.0173L154.7289 162.0173L72 162.0173L72 162.0173L72 160.475L72 160.475L72 158.9327L72 158.9327L154.7289 158.9327" /></clipPath><clipPath id="16"><path id="" clip-rule="evenodd" transform="matrix(1 0 0 1 0 0)" d="M239.686 160.475L239.686 162.0173L239.686 162.0173L154.529 162.0173L154.529 162.0173L154.529 160.475L154.529 160.475L154.529 158.9327L154.529 158.9327L239.686 158.9327" /></clipPath><clipPath id="17"><path id="" clip-rule="evenodd" transform="matrix(1 0 0 1 0 0)" d="M278.3589 160.475L278.3589 162.0173L278.3589 162.0173L239.486 162.0173L239.486 162.0173L239.486 160.475L239.486 160.475L239.486 158.9327L239.486 158.9327L278.3589 158.9327" /></clipPath><clipPath id="18"><path id="" clip-rule="evenodd" transform="matrix(1 0 0 1 0 0)" d="M335.2229 160.475L335.2229 162.0173L335.2229 162.0173L278.1589 162.0173L278.1589 162.0173L278.1589 160.475L278.1589 160.475L278.1589 158.9327L278.1589 158.9327L335.2229 158.9327" /></clipPath><clipPath id="19"><path id="" clip-rule="evenodd" transform="matrix(1 0 0 1 0 0)" d="M154.7289 173.525L154.7289 175.0673L154.7289 175.0673L72 175.0673L72 175.0673L72 173.525L72 173.525L72 171.9827L72 171.9827L154.7289 171.9827" /></clipPath><clipPath id="20"><path id="" clip-rule="evenodd" transform="matrix(1 0 0 1 0 0)" d="M239.686 173.525L239.686 175.0673L239.686 175.0673L154.529 175.0673L154.529 175.0673L154.529 173.525L154.529 173.525L154.529 171.9827L154.529 171.9827L239.686 171.9827" /></clipPath><clipPath id="21"><path id="" clip-rule="evenodd" transform="matrix(1 0 0 1 0 0)" d="M278.3589 173.525L278.3589 175.0673L278.3589 175.0673L239.486 175.0673L239.486 175.0673L239.486 173.525L239.486 173.525L239.486 171.9827L239.486 171.9827L278.3589 171.9827" /></clipPath><clipPath id="22"><path id="" clip-rule="evenodd" transform="matrix(1 0 0 1 0 0)" d="M335.2229 173.525L335.2229 175.0673L335.2229 175.0673L278.1589 175.0673L278.1589 175.0673L278.1589 173.525L278.1589 173.525L278.1589 171.9827L278.1589 171.9827L335.2229 171.9827" /></clipPath><clipPath id="23"><path id="" clip-rule="evenodd" transform="matrix(1 0 0 1 0 0)" d="M154.7289 186.575L154.7289 188.1173L154.7289 188.1173L72 188.1173L72 188.1173L72 186.575L72 186.575L72 185.0327L72 185.0327L154.7289 185.0327" /></clipPath><clipPath id="24"><path id="" clip-rule="evenodd" transform="matrix(1 0 0 1 0 0)" d="M239.686 186.575L239.686 188.1173L239.686 188.1173L154.529 188.1173L154.529 188.1173L154.529 186.575L154.529 186.575L154.529 185.0327L154.529 185.0327L239.686 185.0327" /></clipPath><clipPath id="25"><path id="" clip-rule="evenodd" transform="matrix(1 0 0 1 0 0)" d="M278.3589 186.575L278.3589 188.1173L278.3589 188.1173L239.486 188.1173L239.486 188.1173L239.486 186.575L239.486 186.575L239.486 185.0327L239.486 185.0327L278.3589 185.0327" /></clipPath><clipPath id="26"><path id="" clip-rule="evenodd" transform="matrix(1 0 0 1 0 0)" d="M335.2229 186.575L335.2229 188.1173L335.2229 188.1173L278.1589 188.1173L278.1589 188.1173L278.1589 186.575L278.1589 186.575L278.1589 185.0327L278.1589 185.0327L335.2229 185.0327" /></clipPath><clipPath id="27"><path id="" clip-rule="evenodd" transform="matrix(1 0 0 1 0 0)" d="M154.7289 199.625L154.7289 201.1673L154.7289 201.1673L72 201.1673L72 201.1673L72 199.625L72 199.625L72 198.0827L72 198.0827L154.7289 198.0827" /></clipPath><clipPath id="28"><path id="" clip-rule="evenodd" transform="matrix(1 0 0 1 0 0)" d="M239.686 199.625L239.686 201.1673L239.686 201.1673L154.529 201.1673L154.529 201.1673L154.529 199.625L154.529 199.625L154.529 198.0827L154.529 198.0827L239.686 198.0827" /></clipPath><clipPath id="29"><path id="" clip-rule="evenodd" transform="matrix(1 0 0 1 0 0)" d="M278.3589 199.625L278.3589 201.1673L278.3589 201.1673L239.486 201.1673L239.486 201.1673L239.486 199.625L239.486 199.625L239.486 198.0827L239.486 198.0827L278.3589 198.0827" /></clipPath><clipPath id="30"><path id="" clip-rule="evenodd" transform="matrix(1 0 0 1 0 0)" d="M335.2229 199.625L335.2229 201.1673L335.2229 201.1673L278.1589 201.1673L278.1589 201.1673L278.1589 199.625L278.1589 199.625L278.1589 198.0827L278.1589 198.0827L335.2229 198.0827" /></clipPath><clipPath id="31"><path id="" clip-rule="evenodd" transform="matrix(1 0 0 1 0 0)" d="M154.7289 212.675L154.7289 214.2173L154.7289 214.2173L72 214.2173L72 214.2173L72 212.675L72 212.675L72 211.1327L72 211.1327L154.7289 211.1327" /></clipPath><clipPath id="32"><path id="" clip-rule="evenodd" transform="matrix(1 0 0 1 0 0)" d="M239.686 212.675L239.686 214.2173L239.686 214.2173L154.529 214.2173L154.529 214.2173L154.529 212.675L154.529 212.675L154.529 211.1327L154.529 211.1327L239.686 211.1327" /></clipPath><clipPath id="33"><path id="" clip-rule="evenodd" transform="matrix(1 0 0 1 0 0)" d="M278.3589 212.675L278.3589 214.2173L278.3589 214.2173L239.486 214.2173L239.486 214.2173L239.486 212.675L239.486 212.675L239.486 211.1327L239.486 211.1327L278.3589 211.1327" /></clipPath><clipPath id="34"><path id="" clip-rule="evenodd" transform="matrix(1 0 0 1 0 0)" d="M335.2229 212.675L335.2229 214.2173L335.2229 214.2173L278.1589 214.2173L278.1589 214.2173L278.1589 212.675L278.1589 212.675L278.1589 211.1327L278.1589 211.1327L335.2229 211.1327" /></clipPath><clipPath id="35"><path id="" clip-rule="evenodd" transform="matrix(1 0 0 1 0 0)" d="M154.7289 225.725L154.7289 227.2673L154.7289 227.2673L72 227.2673L72 227.2673L72 225.725L72 225.725L72 224.1827L72 224.1827L154.7289 224.1827" /></clipPath><clipPath id="36"><path id="" clip-rule="evenodd" transform="matrix(1 0 0 1 0 0)" d="M239.686 225.725L239.686 227.2673L239.686 227.2673L154.529 227.2673L154.529 227.2673L154.529 225.725L154.529 225.725L154.529 224.1827L154.529 224.1827L239.686 224.1827" /></clipPath><clipPath id="37"><path id="" clip-rule="evenodd" transform="matrix(1 0 0 1 0 0)" d="M278.3589 225.725L278.3589 227.2673L278.3589 227.2673L239.486 227.2673L239.486 227.2673L239.486 225.725L239.486 225.725L239.486 224.1827L239.486 224.1827L278.3589 224.1827" /></clipPath><clipPath id="38"><path id="" clip-rule="evenodd" transform="matrix(1 0 0 1 0 0)" d="M335.2229 225.725L335.2229 227.2673L335.2229 227.2673L278.1589 227.2673L278.1589 227.2673L278.1589 225.725L278.1589 225.725L278.1589 224.1827L278.1589 224.1827L335.2229 224.1827" /></clipPath><clipPath id="39"><path id="" clip-rule="evenodd" transform="matrix(1 0 0 1 0 0)" d="M154.7289 238.775L154.7289 240.3173L154.7289 240.3173L72 240.3173L72 240.3173L72 238.775L72 238.775L72 237.2327L72 237.2327L154.7289 237.2327" /></clipPath><clipPath id="40"><path id="" clip-rule="evenodd" transform="matrix(1 0 0 1 0 0)" d="M239.686 238.775L239.686 240.3173L239.686 240.3173L154.529 240.3173L154.529 240.3173L154.529 238.775L154.529 238.775L154.529 237.2327L154.529 237.2327L239.686 237.2327" /></clipPath><clipPath id="41"><path id="" clip-rule="evenodd" transform="matrix(1 0 0 1 0 0)" d="M278.3589 238.775L278.3589 240.3173L278.3589 240.3173L239.486 240.3173L239.486 240.3173L239.486 238.775L239.486 238.775L239.486 237.2327L239.486 237.2327L278.3589 237.2327" /></clipPath><clipPath id="42"><path id="" clip-rule="evenodd" transform="matrix(1 0 0 1 0 0)" d="M335.2229 238.775L335.2229 240.3173L335.2229 240.3173L278.1589 240.3173L278.1589 240.3173L278.1589 238.775L278.1589 238.775L278.1589 237.2327L278.1589 237.2327L335.2229 237.2327" /></clipPath></defs><g transform="matrix(1.333333 0 0 1.333333 0 0)"><g clip-path="url(#1)"><g clip-path="url(#2)"><path id="1" transform="matrix(1 0 0 -1 0 661)" d="M432 54.125L72 54.125" stroke="#000000" stroke-width="0.25" stroke-linecap="round" fill="none" /></g><path id="2" transform="matrix(1 0 0 -1 0 661)" d="M72 566.4L154.629 566.4L154.629 566.4L154.629 552.6L154.629 552.6L72 552.6z" stroke="none" fill="#000000" fill-rule="evenodd" /><path id="3" transform="matrix(1 0 0 -1 0 661)" d="M154.629 566.4L239.586 566.4L239.586 566.4L239.586 552.6L239.586 552.6L154.629 552.6z" stroke="none" fill="#000000" fill-rule="evenodd" /><path id="4" transform="matrix(1 0 0 -1 0 661)" d="M239.586 566.4L278.2589 566.4L278.2589 566.4L278.2589 552.6L278.2589 552.6L239.586 552.6z" stroke="none" fill="#000000" fill-rule="evenodd" /><path id="5" transform="matrix(1 0 0 -1 0 661)" d="M278.2589 566.4L335.2229 566.4L335.2229 566.4L335.2229 552.6L335.2229 552.6L278.2589 552.6z" stroke="none" fill="#000000" fill-rule="evenodd" /><g clip-path="url(#3)"><path id="6" transform="matrix(1 0 0 -1 0 661)" d="M154.7289 539.675L72 539.675" stroke="#000000" stroke-width="0.25" stroke-linecap="round" fill="none" /></g><g clip-path="url(#4)"><path id="7" transform="matrix(1 0 0 -1 0 661)" d="M239.686 539.675L154.529 539.675" stroke="#000000" stroke-width="0.25" stroke-linecap="round" fill="none" /></g><g clip-path="url(#5)"><path id="8" transform="matrix(1 0 0 -1 0 661)" d="M278.3589 539.675L239.486 539.675" stroke="#000000" stroke-width="0.25" stroke-linecap="round" fill="none" /></g><g clip-path="url(#6)"><path id="9" transform="matrix(1 0 0 -1 0 661)" d="M335.2229 539.675L278.1589 539.675" stroke="#000000" stroke-width="0.25" stroke-linecap="round" fill="none" /></g><g clip-path="url(#7)"><path id="10" transform="matrix(1 0 0 -1 0 661)" d="M154.7289 526.6251L72 526.6251" stroke="#000000" stroke-width="0.25" stroke-linecap="round" fill="none" /></g><g clip-path="url(#8)"><path id="11" transform="matrix(1 0 0 -1 0 661)" d="M239.686 526.6251L154.529 526.6251" stroke="#000000" stroke-width="0.25" stroke-linecap="round" fill="none" /></g><g clip-path="url(#9)"><path id="12" transform="matrix(1 0 0 -1 0 661)" d="M278.3589 526.6251L239.486 526.6251" stroke="#000000" stroke-width="0.25" stroke-linecap="round" fill="none" /></g><g clip-path="url(#10)"><path id="13" transform="matrix(1 0 0 -1 0 661)" d="M335.2229 526.6251L278.1589 526.6251" stroke="#000000" stroke-width="0.25" stroke-linecap="round" fill="none" /></g><g clip-path="url(#11)"><path id="14" transform="matrix(1 0 0 -1 0 661)" d="M154.7289 513.575L72 513.575" stroke="#000000" stroke-width="0.25" stroke-linecap="round" fill="none" /></g><g clip-path="url(#12)"><path id="15" transform="matrix(1 0 0 -1 0 661)" d="M239.686 513.575L154.529 513.575" stroke="#000000" stroke-width="0.25" stroke-linecap="round" fill="none" /></g><g clip-path="url(#13)"><path id="16" transform="matrix(1 0 0 -1 0 661)" d="M278.3589 513.575L239.486 513.575" stroke="#000000" stroke-width="0.25" stroke-linecap="round" fill="none" /></g><g clip-path="url(#14)"><path id="17" transform="matrix(1 0 0 -1 0 661)" d="M335.2229 513.575L278.1589 513.575" stroke="#000000" stroke-width="0.25" stroke-linecap="round" fill="none" /></g><g clip-path="url(#15)"><path id="18" transform="matrix(1 0 0 -1 0 661)" d="M154.7289 500.525L72 500.525" stroke="#000000" stroke-width="0.25" stroke-linecap="round" fill="none" /></g><g clip-path="url(#16)"><path id="19" transform="matrix(1 0 0 -1 0 661)" d="M239.686 500.525L154.529 500.525" stroke="#000000" stroke-width="0.25" stroke-linecap="round" fill="none" /></g><g clip-path="url(#17)"><path id="20" transform="matrix(1 0 0 -1 0 661)" d="M278.3589 500.525L239.486 500.525" stroke="#000000" stroke-width="0.25" stroke-linecap="round" fill="none" /></g><g clip-path="url(#18)"><path id="21" transform="matrix(1 0 0 -1 0 661)" d="M335.2229 500.525L278.1589 500.525" stroke="#000000" stroke-width="0.25" stroke-linecap="round" fill="none" /></g><g clip-path="url(#19)"><path id="22" transform="matrix(1 0 0 -1 0 661)" d="M154.7289 487.475L72 487.475" stroke="#000000" stroke-width="0.25" stroke-linecap="round" fill="none" /></g><g clip-path="url(#20)"><path id="23" transform="matrix(1 0 0 -1 0 661)" d="M239.686 487.475L154.529 487.475" stroke="#000000" stroke-width="0.25" stroke-linecap="round" fill="none" /></g><g clip-path="url(#21)"><path id="24" transform="matrix(1 0 0 -1 0 661)" d="M278.3589 487.475L239.486 487.475" stroke="#000000" stroke-width="0.25" stroke-linecap="round" fill="none" /></g><g clip-path="url(#22)"><path id="25" transform="matrix(1 0 0 -1 0 661)" d="M335.2229 487.475L278.1589 487.475" stroke="#000000" stroke-width="0.25" stroke-linecap="round" fill="none" /></g><g clip-path="url(#23)"><path id="26" transform="matrix(1 0 0 -1 0 661)" d="M154.7289 474.425L72 474.425" stroke="#000000" stroke-width="0.25" stroke-linecap="round" fill="none" /></g><g clip-path="url(#24)"><path id="27" transform="matrix(1 0 0 -1 0 661)" d="M239.686 474.425L154.529 474.425" stroke="#000000" stroke-width="0.25" stroke-linecap="round" fill="none" /></g><g clip-path="url(#25)"><path id="28" transform="matrix(1 0 0 -1 0 661)" d="M278.3589 474.425L239.486 474.425" stroke="#000000" stroke-width="0.25" stroke-linecap="round" fill="none" /></g><g clip-path="url(#26)"><path id="29" transform="matrix(1 0 0 -1 0 661)" d="M335.2229 474.425L278.1589 474.425" stroke="#000000" stroke-width="0.25" stroke-linecap="round" fill="none" /></g><g clip-path="url(#27)"><path id="30" transform="matrix(1 0 0 -1 0 661)" d="M154.7289 461.375L72 461.375" stroke="#000000" stroke-width="0.25" stroke-linecap="round" fill="none" /></g><g clip-path="url(#28)"><path id="31" transform="matrix(1 0 0 -1 0 661)" d="M239.686 461.375L154.529 461.375" stroke="#000000" stroke-width="0.25" stroke-linecap="round" fill="none" /></g><g clip-path="url(#29)"><path id="32" transform="matrix(1 0 0 -1 0 661)" d="M278.3589 461.375L239.486 461.375" stroke="#000000" stroke-width="0.25" stroke-linecap="round" fill="none" /></g><g clip-path="url(#30)"><path id="33" transform="matrix(1 0 0 -1 0 661)" d="M335.2229 461.375L278.1589 461.375" stroke="#000000" stroke-width="0.25" stroke-linecap="round" fill="none" /></g><g clip-path="url(#31)"><path id="34" transform="matrix(1 0 0 -1 0 661)" d="M154.7289 448.325L72 448.325" stroke="#000000" stroke-width="0.25" stroke-linecap="round" fill="none" /></g><g clip-path="url(#32)"><path id="35" transform="matrix(1 0 0 -1 0 661)" d="M239.686 448.325L154.529 448.325" stroke="#000000" stroke-width="0.25" stroke-linecap="round" fill="none" /></g><g clip-path="url(#33)"><path id="36" transform="matrix(1 0 0 -1 0 661)" d="M278.3589 448.325L239.486 448.325" stroke="#000000" stroke-width="0.25" stroke-linecap="round" fill="none" /></g><g clip-path="url(#34)"><path id="37" transform="matrix(1 0 0 -1 0 661)" d="M335.2229 448.325L278.1589 448.325" stroke="#000000" stroke-width="0.25" stroke-linecap="round" fill="none" /></g><g clip-path="url(#35)"><path id="38" transform="matrix(1 0 0 -1 0 661)" d="M154.7289 435.275L72 435.275" stroke="#000000" stroke-width="0.25" stroke-linecap="round" fill="none" /></g><g clip-path="url(#36)"><path id="39" transform="matrix(1 0 0 -1 0 661)" d="M239.686 435.275L154.529 435.275" stroke="#000000" stroke-width="0.25" stroke-linecap="round" fill="none" /></g><g clip-path="url(#37)"><path id="40" transform="matrix(1 0 0 -1 0 661)" d="M278.3589 435.275L239.486 435.275" stroke="#000000" stroke-width="0.25" stroke-linecap="round" fill="none" /></g><g clip-path="url(#38)"><path id="41" transform="matrix(1 0 0 -1 0 661)" d="M335.2229 435.275L278.1589 435.275" stroke="#000000" stroke-width="0.25" stroke-linecap="round" fill="none" /></g><g clip-path="url(#39)"><path id="42" transform="matrix(1 0 0 -1 0 661)" d="M154.7289 422.225L72 422.225" stroke="#000000" stroke-width="0.25" stroke-linecap="round" fill="none" /></g><g clip-path="url(#40)"><path id="43" transform="matrix(1 0 0 -1 0 661)" d="M239.686 422.225L154.529 422.225" stroke="#000000" stroke-width="0.25" stroke-linecap="round" fill="none" /></g><g clip-path="url(#41)"><path id="44" transform="matrix(1 0 0 -1 0 661)" d="M278.3589 422.225L239.486 422.225" stroke="#000000" stroke-width="0.25" stroke-linecap="round" fill="none" /></g><g clip-path="url(#42)"><path id="45" transform="matrix(1 0 0 -1 0 661)" d="M335.2229 422.225L278.1589 422.225" stroke="#000000" stroke-width="0.25" stroke-linecap="round" fill="none" /></g></g></g></svg>